<svg width="12" height="12" viewBox="0 0 12 12" fill="none" xmlns="http://www.w3.org/2000/svg">
<path d="M1.5 6.5L9.293 6.5L6.6465 9.1465C6.45125 9.34175 6.45125 9.65825 6.6465 9.8535C6.84175 10.0488 7.15838 10.0488 7.35363 9.8535L10.8536 6.3535C11.0489 6.15825 11.0489 5.84163 10.8536 5.6465L7.35363 2.1465C7.256 2.04888 7.128 2 7 2C6.87213 2 6.74413 2.04888 6.6465 2.1465C6.45125 2.34175 6.45125 2.65838 6.6465 2.8535L9.293 5.5L1.5 5.5C1.224 5.5 1 5.72388 1 6C1 6.27613 1.22387 6.5 1.5 6.5Z" fill="#646464"/>
</svg>
