<svg width="12" height="12" viewBox="0 0 12 12" fill="none" xmlns="http://www.w3.org/2000/svg">
<path d="M2.24993 7.12501C2.24965 7.07565 2.2591 7.02673 2.27777 6.98104C2.29643 6.93535 2.32393 6.8938 2.35868 6.85876C2.39354 6.82361 2.43502 6.79571 2.48071 6.77667C2.52641 6.75763 2.57543 6.74783 2.62493 6.74783C2.67444 6.74783 2.72345 6.75763 2.76915 6.77667C2.81484 6.79571 2.85632 6.82361 2.89118 6.85876L5.99993 9.97126L9.10868 6.85876C9.17929 6.78814 9.27507 6.74847 9.37493 6.74847C9.47479 6.74847 9.57057 6.78814 9.64118 6.85876C9.71179 6.92937 9.75146 7.02514 9.75146 7.12501C9.75146 7.22487 9.71179 7.32064 9.64118 7.39126L6.26618 10.7663C6.23132 10.8014 6.18984 10.8293 6.14415 10.8483C6.09845 10.8674 6.04943 10.8772 5.99993 10.8772C5.95043 10.8772 5.90141 10.8674 5.85571 10.8483C5.81002 10.8293 5.76854 10.8014 5.73368 10.7663L2.35868 7.39126C2.32393 7.35622 2.29643 7.31466 2.27777 7.26897C2.2591 7.22328 2.24965 7.17436 2.24993 7.12501Z" fill="#5F5F5F"/>
<path d="M5.625 10.5L5.625 1.5C5.625 1.40054 5.66451 1.30516 5.73483 1.23483C5.80516 1.16451 5.90054 1.125 6 1.125C6.09946 1.125 6.19484 1.16451 6.26516 1.23483C6.33549 1.30516 6.375 1.40054 6.375 1.5L6.375 10.5C6.375 10.5995 6.33549 10.6948 6.26516 10.7652C6.19484 10.8355 6.09946 10.875 6 10.875C5.90054 10.875 5.80516 10.8355 5.73483 10.7652C5.66451 10.6948 5.625 10.5995 5.625 10.5Z" fill="#5F5F5F"/>
</svg>
