<svg width="28" height="21" viewBox="0 0 28 21" fill="none" xmlns="http://www.w3.org/2000/svg">
<path d="M1 0.217133H27C27.2652 0.217133 27.5196 0.326302 27.7071 0.520626C27.8946 0.714949 28 0.978507 28 1.25332C28 1.52814 27.8946 1.79169 27.7071 1.98602C27.5196 2.18034 27.2652 2.28951 27 2.28951H1C0.734783 2.28951 0.480429 2.18034 0.292892 1.98602C0.105356 1.79169 0 1.52814 0 1.25332C0 0.978507 0.105356 0.714949 0.292892 0.520626C0.480429 0.326302 0.734783 0.217133 1 0.217133Z" fill="white"/>
<path d="M27 11.6152H14C13.7348 11.6152 13.4804 11.5061 13.2929 11.3117C13.1054 11.1174 13 10.8539 13 10.579C13 10.3042 13.1054 10.0407 13.2929 9.84634C13.4804 9.65202 13.7348 9.54285 14 9.54285H27C27.2652 9.54285 27.5196 9.65202 27.7071 9.84634C27.8946 10.0407 28 10.3042 28 10.579C28 10.8539 27.8946 11.1174 27.7071 11.3117C27.5196 11.5061 27.2652 11.6152 27 11.6152Z" fill="white"/>
<path d="M5 18.8685H27C27.2652 18.8685 27.5196 18.9777 27.7071 19.172C27.8946 19.3663 28 19.6299 28 19.9047C28 20.1795 27.8946 20.4431 27.7071 20.6374C27.5196 20.8317 27.2652 20.9409 27 20.9409H5C4.73478 20.9409 4.48043 20.8317 4.29289 20.6374C4.10536 20.4431 4 20.1795 4 19.9047C4 19.6299 4.10536 19.3663 4.29289 19.172C4.48043 18.9777 4.73478 18.8685 5 18.8685Z" fill="white"/>
</svg>
