<svg width="20" height="20" viewBox="0 0 20 20" fill="none" xmlns="http://www.w3.org/2000/svg">
<path d="M1.22953 9.99998C1.44912 8.00503 2.33459 6.21032 3.65904 4.84278L5.15727 6.34091L5.85051 5.64768L4.37953 4.1768C5.78825 3.01225 7.56502 2.27663 9.50953 2.17022V4.60783H10.4899V2.17022C12.4344 2.27663 14.2112 3.01226 15.62 4.17684L14.2084 5.58817L14.9016 6.28145L16.3405 4.84282C17.6649 6.21037 18.5503 8.00503 18.7699 9.99998H16.7077V10.9804H18.8232C18.822 13.108 18.0673 15.0589 16.8105 16.5818L15.1338 14.9052L14.4406 15.5985L16.1451 17.3029L16.1389 17.309L16.8209 18.0133C18.6597 16.2327 19.8036 13.737 19.8036 10.9751C19.8036 5.56322 15.414 1.17645 9.99972 1.17645C4.58541 1.17645 0.195801 5.56322 0.195801 10.9751C0.195801 13.6638 1.27992 16.1003 3.03388 17.8702L3.73026 17.1801C3.72717 17.177 3.72413 17.174 3.72105 17.1708L5.19418 15.6976L4.50095 15.0044L3.07039 16.435C1.88484 14.9344 1.1774 13.0403 1.17619 10.9804H3.16281V9.99998H1.22953Z" fill="#1C2F41"/>
<path d="M8.7835 12.8968C8.59424 12.9331 8.42473 13.0373 8.30684 13.1897L7.50365 14.3806C7.41424 14.9757 7.47767 15.2125 7.82948 15.5966L9.12046 16.2262C9.2988 16.2993 9.49767 16.3048 9.67978 16.2417L15.9129 13.3631C16.8401 13.0414 16.5918 12.0803 15.628 12.2653L8.7835 12.8968Z" fill="#1C2F41"/>
</svg>
