<svg width="20" height="20" viewBox="0 0 20 20" fill="none" xmlns="http://www.w3.org/2000/svg">
<path d="M19.8879 8.74172L17.8697 4.38474C17.7493 4.12769 17.5447 3.93377 17.2994 3.84427C17.0541 3.75478 16.7874 3.77678 16.5563 3.9056L14.5764 5.02148H13.0835L10.311 3.60732C10.0968 3.49825 9.85512 3.47898 9.62945 3.55298L5.51154 4.90629L3.56014 3.80644C3.32899 3.67767 3.0624 3.65569 2.81709 3.74517C2.57179 3.83466 2.36716 4.02853 2.24675 4.28554L0.228506 8.64261C0.167987 8.77329 0.131161 8.91626 0.120178 9.06316C0.109196 9.21006 0.124276 9.35795 0.164539 9.49821C0.204803 9.63847 0.269442 9.76829 0.354687 9.88009C0.439932 9.99189 0.544074 10.0834 0.661038 10.1494L2.66017 11.2762L7.12001 15.2074C7.22856 15.3034 7.35389 15.3725 7.48779 15.41L12.2441 16.7504C12.3215 16.7722 12.401 16.7831 12.4807 16.7831C12.7425 16.7832 12.9937 16.6665 13.1793 16.4584L16.1991 13.0542C16.2052 13.0474 16.211 13.0403 16.2166 13.033L17.4864 11.3583L19.4554 10.2485C19.5724 10.1826 19.6765 10.091 19.7618 9.97923C19.847 9.86743 19.9116 9.73761 19.9519 9.59735C19.9922 9.45708 20.0072 9.30919 19.9963 9.16228C19.9853 9.01538 19.9485 8.87241 19.8879 8.74172ZM15.9147 12.2921L12.5492 9.53286C12.4924 9.48632 12.4239 9.46152 12.3537 9.4621C12.2835 9.46268 12.2153 9.4886 12.1591 9.53607L11.1087 10.4242C10.7101 10.7584 10.2267 10.939 9.72996 10.939C9.23324 10.939 8.74976 10.7584 8.35125 10.4242L7.90638 10.0481C7.86876 10.0163 7.83764 9.97574 7.81513 9.92919C7.79262 9.88265 7.77924 9.8312 7.77591 9.77832C7.77257 9.72544 7.77935 9.67237 7.79579 9.6227C7.81223 9.57304 7.83795 9.52793 7.8712 9.49044L11.0828 5.86999C11.1445 5.80083 11.2279 5.76188 11.3149 5.76158H13.0117L13.0125 5.76167L13.0136 5.76158H14.455L16.8864 11.0105L15.9147 12.2921ZM0.789187 9.27037C0.775622 9.22364 0.770519 9.17431 0.774181 9.12532C0.777842 9.07633 0.790195 9.02866 0.810505 8.98515L2.82875 4.62808C2.85679 4.56811 2.89885 4.51794 2.95036 4.48298C3.00188 4.44802 3.0609 4.4296 3.12103 4.42973C3.17153 4.42968 3.22134 4.44292 3.26649 4.4684L5.0169 5.45496L2.69467 10.4681L0.954683 9.48742C0.915612 9.46557 0.880831 9.4351 0.852403 9.39782C0.823974 9.36053 0.802478 9.31719 0.789187 9.27037ZM12.7151 15.9351C12.675 15.9801 12.6252 16.0128 12.5705 16.0298C12.5159 16.0469 12.4583 16.0477 12.4033 16.0324L7.64696 14.6919C7.60234 14.6794 7.56058 14.6564 7.52442 14.6244L3.25383 10.86L5.68024 5.62176L9.81314 4.26354C9.88836 4.23881 9.96895 4.24522 10.0403 4.28161L11.4908 5.02148H11.3149C11.1856 5.02108 11.0574 5.04962 10.9379 5.10543C10.8184 5.16124 10.7099 5.24322 10.6187 5.34663L7.40701 8.96708C7.30722 9.07954 7.23004 9.21485 7.18069 9.36386C7.13134 9.51287 7.11098 9.6721 7.12097 9.83076C7.13096 9.98941 7.17109 10.1438 7.23862 10.2835C7.30615 10.4231 7.39952 10.5448 7.51239 10.6402L7.95727 11.0163C8.46967 11.446 9.09131 11.6781 9.72995 11.6781C10.3686 11.6781 10.9902 11.446 11.5026 11.0163L12.359 10.2922L15.4633 12.8371L12.7151 15.9351ZM19.3273 9.36952C19.314 9.41634 19.2925 9.45968 19.264 9.49697C19.2356 9.53425 19.2008 9.56472 19.1618 9.58657L17.4218 10.5673L15.0995 5.5541L16.8499 4.56755C16.927 4.52458 17.0159 4.51724 17.0976 4.54707C17.1794 4.57691 17.2476 4.64157 17.2877 4.72727L19.3059 9.08426C19.3262 9.12778 19.3386 9.17545 19.3423 9.22445C19.3459 9.27345 19.3408 9.32278 19.3273 9.36952ZM9.06364 18.433C9.05323 18.4802 9.03466 18.5245 9.00901 18.5636C8.98336 18.6027 8.95113 18.6357 8.91415 18.6607C8.87718 18.6857 8.83619 18.7023 8.79354 18.7094C8.75088 18.7165 8.7074 18.7141 8.66557 18.7023L6.19212 18.0053C6.0416 17.9626 5.90208 17.8807 5.78483 17.7661L3.93408 15.9525C3.90143 15.9207 3.87467 15.8819 3.85533 15.8383C3.836 15.7948 3.82447 15.7474 3.8214 15.6989C3.81833 15.6504 3.8238 15.6016 3.83747 15.5554C3.85114 15.5093 3.87276 15.4666 3.90109 15.4299C3.92941 15.3931 3.96388 15.3631 4.00253 15.3414C4.04118 15.3197 4.08325 15.3068 4.12632 15.3035C4.16939 15.3001 4.21263 15.3064 4.25354 15.322C4.29446 15.3375 4.33226 15.362 4.36477 15.394L6.2156 17.2076C6.25475 17.2458 6.30131 17.2731 6.35152 17.2873L8.82474 17.9842C8.90919 18.0081 8.98181 18.0687 9.02661 18.1528C9.07141 18.237 9.08473 18.3378 9.06364 18.433Z" fill="#1C2E42"/>
</svg>
