<svg width="20" height="20" viewBox="0 0 20 20" fill="none" xmlns="http://www.w3.org/2000/svg">
<path d="M6.73989 3.06921C5.84573 3.15478 5.01574 3.55693 4.38256 4.22007C4.05741 4.55805 3.89056 4.81903 3.3301 5.84153C3.0349 6.37204 2.94078 6.51322 2.94078 6.41054C2.94078 6.31642 2.67125 6.064 2.49584 5.99983C2.3461 5.94421 2.17925 5.93138 1.58029 5.94421C0.784528 5.95705 0.733189 5.97416 0.527832 6.25225C0.446545 6.3592 0.437988 6.43193 0.437988 6.98383C0.437988 7.53573 0.446545 7.60846 0.527832 7.71542C0.70752 7.95928 0.823033 8.01062 1.23803 8.02773L1.62307 8.04057L1.45194 8.22025C1.35354 8.31437 1.22091 8.51118 1.15674 8.65236L1.03695 8.90905V11.4118V13.9146L1.15674 14.1628C1.23375 14.3125 1.3621 14.4794 1.49044 14.5906L1.70008 14.7703V15.4548C1.70008 15.8313 1.71719 16.2078 1.74286 16.2891C1.79848 16.4902 2.01239 16.7426 2.22631 16.8581C2.39744 16.9479 2.45306 16.9522 3.49695 16.9522C4.74621 16.9522 4.88311 16.9265 5.13553 16.6271C5.33233 16.4003 5.37939 16.2121 5.37939 15.6473V15.1682L5.62753 15.1938C7.36451 15.3735 12.6054 15.3735 14.3766 15.1938L14.6205 15.1682V15.6473C14.6205 16.2121 14.6675 16.4003 14.8643 16.6271C15.1167 16.9265 15.2537 16.9522 16.5029 16.9522C17.5468 16.9522 17.6024 16.9479 17.7736 16.8581C17.9875 16.7426 18.2014 16.4902 18.257 16.2891C18.2827 16.2078 18.2998 15.8313 18.2998 15.4548V14.7703L18.5094 14.5906C18.6378 14.4794 18.7661 14.3125 18.8431 14.1628L18.9629 13.9146V11.4118V8.90905L18.8431 8.65236C18.7789 8.51118 18.6463 8.31437 18.5479 8.22025L18.3768 8.04057L18.7618 8.02773C19.1768 8.01062 19.2923 7.95928 19.472 7.71542C19.5533 7.60846 19.5619 7.53573 19.5619 6.98383C19.5619 6.43193 19.5533 6.3592 19.472 6.25225C19.2667 5.97416 19.2153 5.95705 18.4196 5.94421C17.8206 5.93138 17.6538 5.94421 17.504 5.99983C17.3286 6.064 17.0591 6.31642 17.0591 6.41054C17.0591 6.51322 16.9607 6.36348 16.5885 5.69179C16.0665 4.74629 15.8826 4.47248 15.5317 4.13022C15.1595 3.76657 14.736 3.48848 14.3039 3.32163C13.598 3.04782 13.7006 3.05638 10.2566 3.04354C8.5282 3.03926 6.94524 3.0521 6.73989 3.06921ZM13.6365 3.81363C14.3167 4.00187 14.9499 4.41687 15.3307 4.92598C15.5403 5.20407 16.5286 6.95388 16.4944 6.98383C16.473 7.00522 14.9884 7.15924 14.2354 7.21914C12.5198 7.35176 9.0416 7.39455 7.19766 7.3047C5.90134 7.24053 3.56113 7.03517 3.50123 6.98383C3.47128 6.95388 4.46812 5.19123 4.6692 4.92598C4.93445 4.56661 5.30666 4.26713 5.74305 4.05749C6.13237 3.86925 6.38051 3.79652 6.81262 3.75373C6.97947 3.73662 8.51965 3.72379 10.2352 3.72807C13.0803 3.73662 13.384 3.74518 13.6365 3.81363ZM2.40599 6.84265C2.47872 6.96672 2.5429 7.08651 2.55146 7.10362C2.56001 7.12501 2.52151 7.18491 2.46589 7.24481C2.37177 7.34321 2.35038 7.34748 1.73431 7.34748H1.10112V6.98383V6.62018H1.69152H2.27765L2.40599 6.84265ZM18.8987 6.98383V7.34748H18.2656C17.6495 7.34748 17.6281 7.34321 17.534 7.24481C17.4784 7.18491 17.4398 7.12501 17.4484 7.10362C17.457 7.08651 17.5254 6.96672 17.5939 6.84265L17.7222 6.62018H18.3126H18.8987V6.98383ZM4.30983 7.77103C6.17515 7.98495 6.81262 8.01062 9.99993 8.01062C13.1915 8.01062 13.8375 7.98495 15.7114 7.77103C16.135 7.72397 16.5928 7.67263 16.7297 7.6598L16.9821 7.63413L17.581 8.22881C17.9105 8.55396 18.2057 8.88338 18.2399 8.96039C18.2869 9.07163 18.2998 9.52085 18.2998 11.3862C18.2998 12.9007 18.2827 13.7136 18.2527 13.7948C18.1971 13.9446 18.0559 14.0943 17.9062 14.1756C17.7051 14.2783 14.6076 14.5222 12.1818 14.6248C10.8984 14.6804 8.01481 14.6548 6.72705 14.5778C4.38684 14.4409 2.2477 14.2569 2.09368 14.1756C1.93966 14.0943 1.80276 13.9446 1.74714 13.7948C1.68297 13.628 1.68297 9.15292 1.74286 8.98606C1.76853 8.92189 2.06373 8.58818 2.39744 8.25448L3.00495 7.63841L3.28304 7.66408C3.43706 7.67691 3.89911 7.72397 4.30983 7.77103ZM3.64669 15.0484C4.19003 15.0954 4.64353 15.1339 4.66492 15.1339C4.68204 15.1339 4.69487 15.3521 4.69487 15.6174C4.69487 16.3062 4.7676 16.2677 3.53974 16.2677C2.29904 16.2677 2.3846 16.3233 2.3846 15.5318V14.9628H2.52579C2.59852 14.9628 3.10763 15.0013 3.64669 15.0484ZM17.6153 15.5318C17.6153 16.3233 17.7008 16.2677 16.4601 16.2677C15.2323 16.2677 15.305 16.3062 15.305 15.6174C15.305 15.1468 15.3093 15.1339 15.4034 15.1297C15.4547 15.1297 15.874 15.0954 16.3318 15.0527C16.7896 15.0099 17.2687 14.9714 17.3928 14.9671L17.6153 14.9628V15.5318Z" fill="#1C2E42"/>
<path d="M2.7912 10.1284C2.67141 10.1754 2.48317 10.3851 2.43183 10.5263C2.40616 10.5947 2.38477 10.8728 2.38477 11.1466C2.38477 11.7541 2.4575 11.9295 2.76981 12.0835C2.9495 12.1777 3.00512 12.1819 3.97201 12.1819C4.5838 12.1819 5.0373 12.1648 5.11003 12.1349C5.28971 12.0707 5.50363 11.844 5.55069 11.6686C5.57208 11.5873 5.59347 11.3263 5.59347 11.091C5.59347 10.5904 5.50363 10.3466 5.25549 10.184C5.1143 10.0899 5.08436 10.0856 3.9934 10.0899C3.37733 10.0899 2.83826 10.107 2.7912 10.1284ZM4.90895 11.1338V11.4974H3.98912H3.06929V11.1338V10.7701H3.98912H4.90895V11.1338Z" fill="#1C2E42"/>
<path d="M14.7447 10.184C14.4966 10.3466 14.4067 10.5904 14.4067 11.091C14.4067 11.3263 14.4281 11.5873 14.4495 11.6686C14.4966 11.844 14.7105 12.0707 14.8902 12.1349C14.9629 12.1648 15.4164 12.1819 16.0282 12.1819C16.9951 12.1819 17.0507 12.1777 17.2304 12.0835C17.3716 12.0151 17.4486 11.9381 17.5213 11.7969C17.6112 11.6215 17.6197 11.5573 17.6069 11.061C17.5941 10.4621 17.5598 10.3765 17.2732 10.1797C17.1363 10.0899 17.1021 10.0856 16.0111 10.0856C14.9201 10.0856 14.8859 10.0899 14.7447 10.184ZM16.9309 11.1338V11.4974H16.0111H15.0913V11.1338V10.7701H16.0111H16.9309V11.1338Z" fill="#1C2E42"/>
<path d="M7.3048 10.8215C7.06522 10.8899 6.81708 11.0953 6.68873 11.3306C6.59033 11.5017 6.3208 12.7167 6.3208 12.9649C6.3208 13.2472 6.43204 13.4868 6.65023 13.6836C6.96254 13.966 6.85986 13.9574 10.0001 13.9574C13.1404 13.9574 13.0377 13.966 13.35 13.6836C13.5682 13.4868 13.6794 13.2472 13.6794 12.9649C13.6794 12.721 13.4099 11.5103 13.3158 11.3263C13.2345 11.168 13.012 10.9584 12.8281 10.8685C12.6869 10.7958 12.4815 10.7915 10.0643 10.783C8.41288 10.7787 7.39893 10.7915 7.3048 10.8215ZM12.6484 11.5702C12.6912 11.6172 12.7767 11.8825 12.8409 12.1477C12.9906 12.7852 13.012 12.9264 12.9778 13.059C12.9179 13.2943 12.8965 13.2943 10.0087 13.2943C8.18613 13.2943 7.31764 13.2815 7.22352 13.2472C6.96254 13.1574 6.95399 13.0333 7.13795 12.2547C7.28341 11.6215 7.31336 11.553 7.44599 11.4974C7.49733 11.476 8.65674 11.4632 10.0557 11.4675L12.5756 11.476L12.6484 11.5702Z" fill="#1C2E42"/>
<path d="M2.60699 13.0076C2.41447 13.2087 2.53426 13.521 2.8209 13.5723C2.89791 13.5852 3.47976 13.5937 4.10866 13.5852L5.25952 13.5723L5.3622 13.4526C5.48627 13.3071 5.49482 13.1702 5.37503 13.0204L5.28947 12.9092H3.99315H2.69683L2.60699 13.0076Z" fill="#1C2E42"/>
<path d="M14.6248 13.0204C14.505 13.1702 14.5135 13.3071 14.6376 13.4526L14.7403 13.5723L15.8911 13.5852C16.52 13.5937 17.1019 13.5852 17.1789 13.5723C17.4698 13.5167 17.5896 13.1916 17.3885 13.0033C17.2901 12.9092 17.2645 12.9092 16.0024 12.9092H14.7103L14.6248 13.0204Z" fill="#1C2E42"/>
</svg>
