<svg width="20" height="20" viewBox="0 0 20 20" fill="none" xmlns="http://www.w3.org/2000/svg">
<g clip-path="url(#clip0_17_676)">
<path d="M18.9062 1.60938H16.75V0.46875C16.75 0.34443 16.7006 0.225201 16.6127 0.137294C16.5248 0.049386 16.4056 0 16.2812 0C16.1569 0 16.0377 0.049386 15.9498 0.137294C15.8619 0.225201 15.8125 0.34443 15.8125 0.46875V1.60938H12.5625V0.46875C12.5625 0.34443 12.5131 0.225201 12.4252 0.137294C12.3373 0.049386 12.2181 0 12.0938 0C11.9694 0 11.8502 0.049386 11.7623 0.137294C11.6744 0.225201 11.625 0.34443 11.625 0.46875V1.60938H8.375V0.46875C8.375 0.34443 8.32561 0.225201 8.23771 0.137294C8.1498 0.049386 8.03057 0 7.90625 0C7.78193 0 7.6627 0.049386 7.57479 0.137294C7.48689 0.225201 7.4375 0.34443 7.4375 0.46875V1.60938H4.1875V0.46875C4.1875 0.34443 4.13811 0.225201 4.05021 0.137294C3.9623 0.049386 3.84307 0 3.71875 0C3.59443 0 3.4752 0.049386 3.38729 0.137294C3.29939 0.225201 3.25 0.34443 3.25 0.46875V1.60938H1.09375C0.803669 1.60938 0.52547 1.72461 0.320352 1.92973C0.115234 2.13484 0 2.41304 0 2.70312L0 18.9062C0 19.1963 0.115234 19.4745 0.320352 19.6796C0.52547 19.8848 0.803669 20 1.09375 20H14.8438C14.8747 19.9999 14.9056 19.9968 14.9359 19.9906L14.9766 19.9781C15.0094 19.9709 15.0407 19.9576 15.0688 19.9391L15.1047 19.9203C15.1306 19.903 15.1546 19.8831 15.1766 19.8609L19.8641 15.1734C19.8862 15.1515 19.9061 15.1274 19.9234 15.1016C19.9234 15.0906 19.9344 15.0797 19.9406 15.0688C19.9593 15.0402 19.9725 15.0084 19.9797 14.975C19.9797 14.9609 19.9891 14.9484 19.9922 14.9328C19.9976 14.9034 20.0002 14.8736 20 14.8438V2.70312C20 2.41304 19.8848 2.13484 19.6796 1.92973C19.4745 1.72461 19.1963 1.60938 18.9062 1.60938ZM15.3125 15.3125H18.4L15.3125 18.4V15.3125ZM1.09375 2.54688H3.25V3.6875C3.25 3.81182 3.29939 3.93105 3.38729 4.01896C3.4752 4.10686 3.59443 4.15625 3.71875 4.15625C3.84307 4.15625 3.9623 4.10686 4.05021 4.01896C4.13811 3.93105 4.1875 3.81182 4.1875 3.6875V2.54688H7.4375V3.6875C7.4375 3.81182 7.48689 3.93105 7.57479 4.01896C7.6627 4.10686 7.78193 4.15625 7.90625 4.15625C8.03057 4.15625 8.1498 4.10686 8.23771 4.01896C8.32561 3.93105 8.375 3.81182 8.375 3.6875V2.54688H11.625V3.6875C11.625 3.81182 11.6744 3.93105 11.7623 4.01896C11.8502 4.10686 11.9694 4.15625 12.0938 4.15625C12.2181 4.15625 12.3373 4.10686 12.4252 4.01896C12.5131 3.93105 12.5625 3.81182 12.5625 3.6875V2.54688H15.8125V3.6875C15.8125 3.81182 15.8619 3.93105 15.9498 4.01896C16.0377 4.10686 16.1569 4.15625 16.2812 4.15625C16.4056 4.15625 16.5248 4.10686 16.6127 4.01896C16.7006 3.93105 16.75 3.81182 16.75 3.6875V2.54688H18.9062C18.9477 2.54688 18.9874 2.56334 19.0167 2.59264C19.046 2.62194 19.0625 2.66168 19.0625 2.70312V4.9375H0.9375V2.70312C0.9375 2.66168 0.953962 2.62194 0.983265 2.59264C1.01257 2.56334 1.05231 2.54688 1.09375 2.54688ZM0.9375 18.9062V5.875H19.0625V14.375H14.8438C14.7194 14.375 14.6002 14.4244 14.5123 14.5123C14.4244 14.6002 14.375 14.7194 14.375 14.8438V19.0625H1.09375C1.05231 19.0625 1.01257 19.046 0.983265 19.0167C0.953962 18.9874 0.9375 18.9477 0.9375 18.9062Z" fill="#1A2D3E"/>
</g>
<defs>
<clipPath id="clip0_17_676">
<rect width="20" height="20" fill="white"/>
</clipPath>
</defs>
</svg>
