<svg width="12" height="13" viewBox="0 0 12 13" fill="none" xmlns="http://www.w3.org/2000/svg">
<g clip-path="url(#clip0_27_360)">
<path d="M11.946 10.065L11.8863 9.88499C11.7448 9.46452 11.2811 9.026 10.8552 8.91047L9.27864 8.47979C8.8511 8.36347 8.24124 8.51988 7.92844 8.83265L7.35785 9.40323C5.28424 8.84291 3.65821 7.21683 3.09864 5.14362L3.66925 4.57302C3.98205 4.26021 4.13843 3.65115 4.02211 3.22362L3.59222 1.6463C3.4759 1.21955 3.03658 0.755874 2.61691 0.61597L2.43695 0.555462C2.01648 0.415558 1.41683 0.557046 1.10405 0.869824L0.250543 1.72411C0.0980648 1.87578 0.000612429 2.30961 0.000612429 2.31119C-0.0292394 5.02099 1.03331 7.63176 2.95011 9.5486C4.86222 11.4607 7.4632 12.5217 10.1651 12.4989C10.1793 12.4989 10.6257 12.403 10.7781 12.2513L11.6317 11.3978C11.9444 11.085 12.0859 10.4854 11.946 10.065Z" fill="#0960AD"/>
</g>
<defs>
<clipPath id="clip0_27_360">
<rect width="12" height="12" fill="white" transform="translate(0 0.5)"/>
</clipPath>
</defs>
</svg>
