<svg width="12" height="13" viewBox="0 0 12 13" fill="none" xmlns="http://www.w3.org/2000/svg">
<g clip-path="url(#clip0_27_382)">
<path d="M6.00001 12.313C4.8503 12.313 3.72642 11.9721 2.77048 11.3333C1.81454 10.6946 1.06947 9.78673 0.629502 8.72454C0.18953 7.66236 0.0744138 6.49356 0.298709 5.36595C0.523005 4.23834 1.07664 3.20256 1.8896 2.3896C2.70256 1.57664 3.73834 1.023 4.86595 0.798709C5.99356 0.574414 7.16236 0.68953 8.22454 1.1295C9.28673 1.56947 10.1946 2.31454 10.8333 3.27048C11.4721 4.22642 11.813 5.3503 11.813 6.50001C11.8112 8.04115 11.1981 9.51864 10.1084 10.6084C9.01864 11.6981 7.54115 12.3112 6.00001 12.313ZM6.00001 1.45501C5.0022 1.45501 4.0268 1.7509 3.19716 2.30525C2.36751 2.8596 1.72088 3.64752 1.33904 4.56937C0.957198 5.49122 0.85729 6.5056 1.05195 7.48423C1.24661 8.46287 1.7271 9.3618 2.43266 10.0674C3.13821 10.7729 4.03714 11.2534 5.01578 11.4481C5.99441 11.6427 7.00879 11.5428 7.93064 11.161C8.85249 10.7791 9.64041 10.1325 10.1948 9.30285C10.7491 8.47321 11.045 7.49781 11.045 6.50001C11.0434 5.16249 10.5113 3.88022 9.56556 2.93445C8.61979 1.98869 7.33752 1.45664 6.00001 1.45501Z" fill="#0960AD"/>
<path d="M5.9998 12.313C4.50297 12.313 3.6958 9.3178 3.6958 6.5C3.6958 3.68221 4.50297 0.687012 5.9998 0.687012C7.49663 0.687012 8.3038 3.68221 8.3038 6.5C8.3038 9.3178 7.49663 12.313 5.9998 12.313ZM5.9998 1.45501C5.37388 1.45501 4.4638 3.42032 4.4638 6.5C4.4638 7.90775 4.6558 9.22564 5.0014 10.211C5.28786 11.0212 5.67878 11.545 5.9998 11.545C6.62572 11.545 7.5358 9.57968 7.5358 6.5C7.5358 5.09226 7.3438 3.77437 6.9982 2.78903C6.70866 1.97879 6.31775 1.45501 5.9998 1.45501Z" fill="#0960AD"/>
<path d="M11.429 6.88372H0.571012C0.469169 6.88372 0.371497 6.84327 0.299483 6.77125C0.227469 6.69924 0.187012 6.60157 0.187012 6.49972C0.187012 6.39788 0.227469 6.30021 0.299483 6.22819C0.371497 6.15618 0.469169 6.11572 0.571012 6.11572H11.429C11.5308 6.11572 11.6285 6.15618 11.7005 6.22819C11.7725 6.30021 11.813 6.39788 11.813 6.49972C11.813 6.60157 11.7725 6.69924 11.7005 6.77125C11.6285 6.84327 11.5308 6.88372 11.429 6.88372Z" fill="#0960AD"/>
<path d="M10.842 4.4262H1.16134C1.0595 4.4262 0.961829 4.38575 0.889815 4.31373C0.817801 4.24172 0.777344 4.14405 0.777344 4.0422C0.777344 3.94036 0.817801 3.84269 0.889815 3.77067C0.961829 3.69866 1.0595 3.6582 1.16134 3.6582H10.8458C10.9477 3.6582 11.0453 3.69866 11.1174 3.77067C11.1894 3.84269 11.2298 3.94036 11.2298 4.0422C11.2298 4.14405 11.1894 4.24172 11.1174 4.31373C11.0453 4.38575 10.9477 4.4262 10.8458 4.4262H10.842Z" fill="#0960AD"/>
<path d="M10.842 9.34173H1.16134C1.0595 9.34173 0.961829 9.30127 0.889815 9.22926C0.817801 9.15725 0.777344 9.05957 0.777344 8.95773C0.777344 8.85589 0.817801 8.75822 0.889815 8.6862C0.961829 8.61419 1.0595 8.57373 1.16134 8.57373H10.8458C10.9477 8.57373 11.0453 8.61419 11.1174 8.6862C11.1894 8.75822 11.2298 8.85589 11.2298 8.95773C11.2298 9.05957 11.1894 9.15725 11.1174 9.22926C11.0453 9.30127 10.9477 9.34173 10.8458 9.34173H10.842Z" fill="#0960AD"/>
</g>
<defs>
<clipPath id="clip0_27_382">
<rect width="12" height="12" fill="white" transform="translate(0 0.5)"/>
</clipPath>
</defs>
</svg>
