<svg width="12" height="13" viewBox="0 0 12 13" fill="none" xmlns="http://www.w3.org/2000/svg">
<path d="M12 9.49995C12 9.76302 11.926 10.0069 11.8075 10.2215L8.01857 5.98224L11.7664 2.70324C11.9122 2.9346 12 3.20638 12 3.50007V9.49995ZM6.00001 6.75196L11.215 2.189C11.001 2.07184 10.76 2 10.5 2H1.49999C1.23972 2 0.998658 2.07184 0.785522 2.189L6.00001 6.75196ZM7.4539 6.47591L6.24678 7.53278C6.17618 7.59429 6.08825 7.62501 6.00001 7.62501C5.91172 7.62501 5.8238 7.59429 5.75319 7.53278L4.5458 6.47586L0.708978 10.7693C0.938956 10.9136 1.20848 11 1.49997 11H10.5C10.7915 11 11.0611 10.9136 11.291 10.7693L7.4539 6.47591ZM0.233663 2.70322C0.0878958 2.93458 0 3.20635 0 3.50007V9.49998C0 9.76305 0.0736504 10.0069 0.192634 10.2215L3.98108 5.98153L0.233663 2.70322Z" fill="#0960AD"/>
</svg>
