<svg width="40" height="40" viewBox="0 0 40 40" fill="none" xmlns="http://www.w3.org/2000/svg">
<path d="M2.5 1.35156C2.11719 1.47656 1.46094 2.14844 1.34375 2.54688C1.20313 3.01562 1.20313 30.7344 1.34375 31.2031C1.46875 31.6328 2.11719 32.2812 2.54687 32.4062C2.73437 32.4609 3.32812 32.5 3.9375 32.5H5V33.5625C5 34.1719 5.03906 34.7656 5.09375 34.9531C5.21875 35.3828 5.86719 36.0312 6.29687 36.1562C6.53906 36.2266 8.55469 36.25 14.5625 36.25H22.5V35.625V35H14.5703H6.63281L6.44531 34.8047C6.25781 34.625 6.25 34.5781 6.25 33.5547V32.5H12.1875H18.125V31.875V31.25H10.5078H2.88281L2.69531 31.0547L2.5 30.8672V19.1797V7.5H16.875H31.25V12.8125V18.125H31.875H32.5V14.375V10.625H33.75H35V13.75V16.875H35.625H36.25V11.75C36.25 8.01562 36.2266 6.53906 36.1562 6.3125C36.1094 6.14062 35.9141 5.82812 35.7266 5.625C35.25 5.09375 34.9297 5 33.5781 5H32.5V3.9375C32.5 2.66406 32.4219 2.375 31.9766 1.875C31.3672 1.19531 32.7266 1.25 16.8437 1.25781C6.82031 1.26562 2.69531 1.28906 2.5 1.35156ZM31.0547 2.69531C31.25 2.88281 31.25 2.88281 31.25 4.57031V6.25H16.875H2.5V4.57031C2.5 2.88281 2.5 2.88281 2.69531 2.69531L2.88281 2.5H16.875H30.8672L31.0547 2.69531ZM34.8047 6.44531C35 6.63281 35 6.65625 35 8.00781V9.375H33.75H32.5V7.8125V6.25H33.5547C34.5781 6.25 34.625 6.25781 34.8047 6.44531Z" fill="#0960AD"/>
<path d="M5 4.375V5H5.625H6.25V4.375V3.75H5.625H5V4.375Z" fill="#0960AD"/>
<path d="M7.5 4.375V5H8.125H8.75V4.375V3.75H8.125H7.5V4.375Z" fill="#0960AD"/>
<path d="M10 4.375V5H10.625H11.25V4.375V3.75H10.625H10V4.375Z" fill="#0960AD"/>
<path d="M5.19531 10.1953L5 10.3828V13.75V17.1172L5.19531 17.3047L5.38281 17.5H9.375H13.3672L13.5547 17.3047L13.75 17.1172V13.75V10.3828L13.5547 10.1953L13.3672 10H9.375H5.38281L5.19531 10.1953ZM12.5 13.75V16.25H9.375H6.25V13.75V11.25H9.375H12.5V13.75Z" fill="#0960AD"/>
<path d="M16.25 10.625V11.25H16.875H17.5V10.625V10H16.875H16.25V10.625Z" fill="#0960AD"/>
<path d="M18.75 10.625V11.25H19.375H20V10.625V10H19.375H18.75V10.625Z" fill="#0960AD"/>
<path d="M21.25 10.625V11.25H23.75H26.25V10.625V10H23.75H21.25V10.625Z" fill="#0960AD"/>
<path d="M16.25 13.125V13.75H21.25H26.25V13.125V12.5H21.25H16.25V13.125Z" fill="#0960AD"/>
<path d="M16.25 15.625V16.25H21.25H26.25V15.625V15H21.25H16.25V15.625Z" fill="#0960AD"/>
<path d="M16.25 18.125V18.75H21.25H26.25V18.125V17.5H21.25H16.25V18.125Z" fill="#0960AD"/>
<path d="M33.5544 18.2969C33.4919 18.4688 32.9763 20.4219 32.9529 20.5781C32.9373 20.6953 33.0232 20.75 33.4373 20.8672C33.7185 20.9453 33.9841 21.0078 34.031 21.0156C34.1091 21.0156 34.8201 18.5391 34.7576 18.4844C34.7029 18.4453 33.781 18.2031 33.6873 18.2031C33.6326 18.2031 33.5701 18.25 33.5544 18.2969Z" fill="#0960AD"/>
<path d="M27.828 19.1484C27.6874 19.1953 27.3983 19.3906 27.1952 19.5937C26.7499 20.0156 26.5311 20.6094 26.6014 21.1328C26.6483 21.4453 26.6327 21.4609 24.7108 23.8984L22.7733 26.3515L21.0936 27.3203C20.1717 27.8515 19.3358 28.3672 19.242 28.4531C18.8983 28.7734 18.7342 29.2734 18.7655 29.8828C18.7967 30.414 18.8202 30.4765 19.5311 31.7187C19.9374 32.4219 20.4061 33.1328 20.5624 33.2969C21.0702 33.8047 21.8983 33.9375 22.6639 33.6328C22.7577 33.5937 23.0389 34.0156 23.9374 35.5859C25.1561 37.6875 25.4139 38.0156 26.0077 38.1875C26.578 38.3594 26.9686 38.3047 27.6327 37.9687C28.6874 37.4219 29.0702 37.1172 29.3202 36.6406C29.5155 36.2656 29.5389 36.1406 29.5155 35.7031C29.492 35.2109 29.453 35.1328 28.4764 33.4375C27.9139 32.4687 27.4608 31.6484 27.4608 31.6015C27.4608 31.5625 28.4999 31.3828 29.7655 31.1953L32.0702 30.8672L32.3436 31.0547C32.492 31.1562 32.7186 31.2812 32.8358 31.3203C33.1405 31.4375 33.8592 31.4297 34.1639 31.3047C35.0389 30.9375 35.5233 29.8594 35.2186 28.9765C35.1717 28.8281 34.7655 28.0859 34.328 27.3281L33.5311 25.9531L33.8983 25.5703C34.6405 24.7968 34.6405 23.7265 33.8827 22.9843C33.3514 22.4609 32.6405 22.2968 31.9608 22.539C31.5858 22.6718 31.742 22.8515 30.703 21.0547C30.3124 20.3672 29.9061 19.7187 29.8202 19.6172C29.3983 19.1562 28.5155 18.9531 27.828 19.1484ZM28.8827 20.4844C29.1952 20.8359 34.0624 29.3672 34.0624 29.5703C34.0624 29.8672 33.9452 30.039 33.6795 30.1562C33.1874 30.3594 33.2108 30.3828 30.4061 25.5468C28.1795 21.7031 27.8124 21.0234 27.8514 20.8203C27.9374 20.3359 28.5624 20.1328 28.8827 20.4844ZM29.328 26.164C30.5467 28.2734 31.2967 29.6562 31.2499 29.6875C31.203 29.7187 30.1014 29.8906 28.8045 30.0703C27.5077 30.2578 26.3514 30.4219 26.242 30.4453C26.0545 30.4844 25.9842 30.3828 25.0389 28.75C24.492 27.789 24.0389 26.9687 24.0311 26.9062C24.0233 26.8125 27.2577 22.6172 27.3045 22.6718C27.3124 22.6875 28.2264 24.2578 29.328 26.164ZM33.0077 23.8672C33.242 24.0937 33.2655 24.4375 33.0624 24.6953L32.9139 24.8672L32.5936 24.3281C32.4217 24.0312 32.2967 23.7656 32.3202 23.7343C32.3983 23.5937 32.828 23.6797 33.0077 23.8672ZM23.7889 29.0781C24.2186 29.8203 24.6249 30.539 24.7108 30.6797L24.8514 30.9219L24.3202 31.2344C23.8436 31.5156 23.7811 31.5312 23.703 31.414C23.6561 31.3437 23.2342 30.6172 22.7577 29.7969L21.8983 28.3047L22.3749 28.0234C22.6405 27.8672 22.8905 27.7422 22.9295 27.7344C22.9764 27.7344 23.3592 28.3437 23.7889 29.0781ZM21.7499 30.5547C22.2499 31.414 22.6405 32.1562 22.6092 32.1953C22.5467 32.3047 21.9764 32.5781 21.8202 32.5781C21.5389 32.5781 21.3358 32.3281 20.6717 31.1797C19.8592 29.7734 19.828 29.5781 20.328 29.2187C20.4999 29.0937 20.6952 28.9844 20.7499 28.9844C20.8045 28.9844 21.2577 29.6875 21.7499 30.5547ZM27.1795 33.7109C27.8202 34.8203 28.2811 35.7031 28.2811 35.8203C28.2811 36.0937 28.0467 36.3125 27.3358 36.7031C26.7186 37.0469 26.4452 37.1015 26.2264 36.9297C26.078 36.8125 23.8905 33.0469 23.9217 32.9531C23.953 32.8594 25.9608 31.7265 26.0233 31.7656C26.0545 31.7812 26.578 32.6562 27.1795 33.7109Z" fill="#0960AD"/>
<path d="M5 20.625V21.25H10.625H16.25V20.625V20H10.625H5V20.625Z" fill="#0960AD"/>
<path d="M36.1328 21.5234C35.5859 21.8359 35.1016 22.1328 35.0625 22.1719C35.0234 22.2109 35.1094 22.4453 35.2891 22.7578L35.5938 23.2734L36.5625 22.7266C37.1016 22.4219 37.5859 22.125 37.6406 22.0781C37.7188 22 37.6797 21.8828 37.4375 21.4609L37.1328 20.9453L36.1328 21.5234Z" fill="#0960AD"/>
<path d="M5 23.125V23.75H10.625H16.25V23.125V22.5H10.625H5V23.125Z" fill="#0960AD"/>
<path d="M36.1405 24.6953C36.0546 24.9375 35.8515 25.7969 35.8749 25.8203C35.9062 25.8438 38.3202 26.4844 38.3827 26.4844C38.4374 26.4844 38.7109 25.3281 38.664 25.2891C38.6484 25.2734 38.1249 25.125 37.4999 24.9609C36.8749 24.7969 36.3202 24.6484 36.2734 24.625C36.2187 24.6094 36.1562 24.6406 36.1405 24.6953Z" fill="#0960AD"/>
<path d="M5 25.625V26.25H10.625H16.25V25.625V25H10.625H5V25.625Z" fill="#0960AD"/>
<path d="M5 28.125V28.75H10.625H16.25V28.125V27.5H10.625H5V28.125Z" fill="#0960AD"/>
<path d="M35 33.2422C35 34.5937 35 34.6172 34.8047 34.8047L34.6172 35H32.6172H30.625V35.625V36.25H32.6406C35.0234 36.25 35.1953 36.2109 35.7266 35.625C35.9141 35.4219 36.1094 35.1094 36.1562 34.9375C36.2109 34.75 36.25 34.0937 36.25 33.25V31.875H35.625H35V33.2422Z" fill="#0960AD"/>
</svg>
