<svg width="40" height="40" viewBox="0 0 40 40" fill="none" xmlns="http://www.w3.org/2000/svg">
<path d="M13.8732 4.64975C13.791 4.7401 13.2161 6.16097 12.5919 7.78717L11.4749 10.7603L10.2758 10.785L9.0767 10.8096V9.98008C9.0767 8.74811 9.28203 8.83024 6.29245 8.83024H3.82851L3.66424 9.04378C3.51641 9.23269 3.49177 9.38052 3.49177 10.0211V10.7768L2.94149 10.8342C2.2023 10.9082 1.66845 11.1546 1.27422 11.5981C0.658233 12.2962 0.699299 11.5159 0.699299 23.154C0.699299 30.0037 0.732151 33.6996 0.78143 33.8967C0.945693 34.4717 1.35635 34.9645 1.91484 35.2519L2.44048 35.5229H20.0002H37.5599L38.0855 35.2519C38.644 34.9645 39.0547 34.4717 39.2189 33.8967C39.2682 33.6996 39.3011 30.0037 39.3011 23.154C39.3011 11.5159 39.3421 12.2962 38.7261 11.5981C38.5372 11.3927 38.2169 11.1546 37.9705 11.0396L37.5352 10.8425L33.0344 10.8014L28.5254 10.7603L27.4084 7.78717C26.7842 6.16097 26.2093 4.7401 26.1272 4.64975C25.9711 4.47728 25.9547 4.47728 20.0002 4.47728C14.0457 4.47728 14.0292 4.47728 13.8732 4.64975ZM26.505 8.65776C27.1292 10.3004 27.6959 11.7131 27.7698 11.7952C27.9012 11.9348 28.1887 11.9512 32.6402 11.9677C37.9048 11.9923 37.6338 11.9677 37.987 12.5508C38.143 12.8054 38.1512 13.0025 38.1512 17.7169V22.6283H33.8475H29.5356L29.4864 22.2341C29.2482 20.4518 28.6815 18.957 27.7452 17.6265C26.9403 16.5013 25.503 15.2776 24.2053 14.6287C22.0699 13.5528 19.2938 13.3803 16.9449 14.1688C13.6021 15.294 11.1218 18.2425 10.5961 21.7249C10.5304 22.152 10.4729 22.5298 10.4729 22.5626C10.4729 22.6037 8.53464 22.6283 6.16104 22.6283H1.84914L1.86556 17.6265L1.8902 12.6165L2.12839 12.3701C2.26801 12.2305 2.50619 12.0744 2.66224 12.0334C2.84293 11.9841 4.77302 11.9512 7.52442 11.9512C11.8692 11.9512 12.0991 11.943 12.2305 11.7952C12.3045 11.7131 12.863 10.325 13.4789 8.70704C14.0867 7.08906 14.6041 5.73389 14.6288 5.69282C14.6534 5.65997 17.0763 5.63533 20.0248 5.64354L25.3716 5.66818L26.505 8.65776ZM7.92686 10.3907V10.8014H6.28424H4.64161V10.3907V9.98008H6.28424H7.92686V10.3907ZM21.6839 14.9819C26.6035 15.9921 29.5356 21.1007 27.9341 25.8561C27.0471 28.5007 24.8213 30.5786 22.0945 31.2932C19.2938 32.0242 16.2139 31.2028 14.136 29.1496C11.2121 26.2585 10.8015 21.8645 13.1258 18.3986C13.5447 17.7744 14.637 16.682 15.2612 16.2796C16.2961 15.5979 17.5116 15.1051 18.6039 14.9162C19.4088 14.7848 20.8872 14.8176 21.6839 14.9819ZM10.514 24.1642C10.6126 24.8787 10.7358 25.4536 10.9411 26.1189C11.8035 28.8621 14.0703 31.1946 16.8381 32.1802C17.8812 32.5498 18.7107 32.6812 20.0002 32.6812C22.7352 32.6812 25.0266 31.7038 26.9074 29.7163C28.3694 28.1804 29.1907 26.4146 29.4864 24.1642L29.5356 23.7782H33.8475H38.1512V28.6239C38.1512 33.9707 38.1594 33.8885 37.642 34.2088C37.371 34.3731 37.2806 34.3731 20.0002 34.3731C2.71973 34.3731 2.62939 34.3731 2.35835 34.2088C1.84093 33.8885 1.84914 33.9707 1.84914 28.6239V23.7782H6.15282H10.4647L10.514 24.1642Z" fill="#0960AD"/>
<path d="M15.6472 7.36828C15.4993 7.53254 15.4829 7.65574 15.4829 8.92056C15.4829 10.1772 15.4993 10.3004 15.6554 10.5057L15.8196 10.7192H20.0001H24.1806L24.3449 10.5057C24.5009 10.3004 24.5174 10.1772 24.5174 8.97805C24.5174 7.71323 24.4681 7.40113 24.2381 7.25329C24.1888 7.22044 22.2752 7.18759 19.9837 7.18759H15.8196L15.6472 7.36828ZM23.3675 8.95341V9.5694H20.0001H16.6327V8.95341V8.33743H20.0001H23.3675V8.95341Z" fill="#0960AD"/>
<path d="M33.4041 13.8895C32.6402 14.2673 32.2378 14.9326 32.2378 15.8114C32.2378 18.0125 35.1288 18.7353 36.213 16.8052C36.4183 16.4274 36.4593 16.2631 36.4593 15.8196C36.4511 15.1954 36.3115 14.8176 35.9255 14.3741C35.3095 13.676 34.2418 13.4706 33.4041 13.8895ZM34.981 15.0804C35.3341 15.3843 35.4245 15.7457 35.2438 16.1646C35.1124 16.4849 34.6935 16.797 34.3896 16.797C33.8065 16.797 33.3876 16.3535 33.3876 15.721C33.3876 15.45 33.4369 15.335 33.6669 15.1051C33.9051 14.8669 34.0036 14.8258 34.3239 14.8258C34.6196 14.8258 34.751 14.8751 34.981 15.0804Z" fill="#0960AD"/>
<path d="M18.8095 16.5833C16.3702 17.0679 14.4565 18.7187 13.6681 21.0102C12.5675 24.2051 14.0377 27.7286 17.0765 29.1987C18.136 29.7079 18.6288 29.8147 20.0004 29.8147C21.372 29.8147 21.8648 29.7079 22.9325 29.1987C25.9549 27.7368 27.4251 24.1969 26.3327 21.0102C25.61 18.8994 23.8031 17.2322 21.643 16.6819C20.9039 16.493 19.524 16.4437 18.8095 16.5833ZM21.7005 17.9056C22.6368 18.226 23.1625 18.5545 23.9099 19.2937C25.0186 20.4107 25.5278 21.6262 25.5278 23.1621C25.5278 24.123 25.38 24.8047 24.9694 25.626C24.2384 27.1044 22.875 28.2131 21.3145 28.5745C20.6328 28.7388 19.368 28.7388 18.6863 28.5745C16.7398 28.1146 15.1218 26.513 14.6044 24.5172C14.4237 23.8027 14.4237 22.505 14.6126 21.8069C14.9493 20.5749 15.8938 19.2526 16.9451 18.5545C17.479 18.1931 18.4153 17.8153 19.0313 17.7003C19.7704 17.5689 20.9696 17.6675 21.7005 17.9056Z" fill="#0960AD"/>
</svg>
