<svg width="40" height="40" viewBox="0 0 40 40" fill="none" xmlns="http://www.w3.org/2000/svg">
<g clip-path="url(#clip0_23_81)">
<path d="M24.1248 0.148418C23.9217 0.234356 23.617 0.398418 23.453 0.531231C22.8045 1.04686 22.8826 0.726543 20.9686 10.6328C20.0076 15.6172 19.2186 19.7187 19.2108 19.75C19.2108 19.7812 18.992 19.9062 18.7264 20.039C18.4139 20.1875 18.0467 20.4687 17.6951 20.8203C17.2342 21.289 17.0701 21.5312 16.6561 22.3672C16.0701 23.5469 15.4686 24.3828 14.5623 25.2734C12.0155 27.7656 7.82796 29.6328 2.81234 30.5078C2.14827 30.6172 1.45296 30.7656 1.27327 30.8359C0.874836 30.9765 0.577961 31.2969 0.460774 31.7344C0.390461 32.0156 0.406086 32.1406 0.585774 32.7031C1.09359 34.2734 2.43734 35.789 4.33577 36.9531C5.90609 37.914 8.49984 38.75 11.1326 39.1406C12.5311 39.3515 14.8983 39.4297 16.0545 39.3047C18.1639 39.0781 20.1639 38.414 21.5155 37.4765L21.9061 37.2109L22.3358 37.4375C23.2108 37.8828 24.2655 37.9765 25.203 37.6953L25.5623 37.5859L26.117 38.0625C26.7576 38.5937 27.6951 39.0781 28.4373 39.25C29.0858 39.4062 30.367 39.4062 30.9998 39.2578C31.6717 39.0937 32.5155 38.6953 33.1092 38.2422L33.6014 37.875L34.0311 38.0078C35.3592 38.4219 36.6795 38.2422 37.8123 37.4922C39.117 36.6172 39.8592 34.9375 39.6248 33.3906C39.3748 31.7969 38.3514 30.5312 36.8592 29.9844C36.5936 29.8906 36.4061 29.7734 36.4061 29.7109C36.4061 29.6484 36.2733 29.3281 36.117 29C35.8905 28.5312 35.6717 28.25 35.1561 27.7344C34.4139 26.9922 33.7186 26.5859 32.8123 26.375C32.1561 26.2187 31.1014 26.2187 30.5076 26.3672C29.8983 26.5234 29.0389 26.9375 28.5701 27.2969C28.2108 27.5703 28.1951 27.5781 27.9686 27.4609C27.6014 27.2734 26.7186 27.0937 26.2498 27.125L25.8201 27.1484L25.7342 26.1328C25.492 23.4844 25.117 22.375 24.0858 21.25L23.6717 20.8047L25.4295 11.7187C26.453 6.43748 27.1873 2.45311 27.1873 2.19529C27.1873 0.695293 25.5389 -0.398457 24.1248 0.148418ZM25.3826 1.43748C25.6951 1.60154 25.8748 1.91404 25.867 2.28904C25.867 2.60154 22.5389 19.9062 22.4686 19.9765C22.453 19.9922 22.2264 19.9375 21.9686 19.8515C21.7108 19.7656 21.3045 19.664 21.0623 19.6406C20.7342 19.6015 20.6248 19.5547 20.6248 19.4609C20.6248 19.2109 23.992 1.92967 24.0701 1.78123C24.2811 1.39061 24.9451 1.21873 25.3826 1.43748ZM21.8748 21.2187C22.4998 21.5156 22.9842 21.914 23.4139 22.4844C23.742 22.9219 24.0936 23.7109 24.0233 23.8281C23.9998 23.8672 23.6561 23.9765 23.2576 24.0703C22.2811 24.3125 20.492 24.3359 19.8436 24.1094C19.1717 23.8828 18.5701 23.539 18.2108 23.1719L17.8748 22.8359L18.0311 22.5312C18.242 22.125 18.7655 21.5312 19.117 21.3203C19.617 21.0078 19.9217 20.9375 20.6639 20.9531C21.2655 20.9765 21.4373 21.0156 21.8748 21.2187ZM17.4217 24.2578C17.6092 24.4844 18.6326 25.0625 19.203 25.2656C20.3983 25.6875 22.0858 25.7109 23.6873 25.3281L24.2889 25.1797L24.328 25.3828C24.3826 25.6484 24.5467 27.5937 24.5155 27.6172C24.4998 27.625 24.328 27.7422 24.1248 27.875C23.9295 28.0156 23.6326 28.2734 23.4764 28.4531C23.1248 28.8672 22.6873 29.7265 22.617 30.1484C22.5701 30.4219 22.5155 30.4922 22.1639 30.6953C21.3201 31.1719 20.5701 32.1875 20.3592 33.125C20.1405 34.0781 20.2264 34.8203 20.6561 35.7031C20.7889 35.9844 20.9061 36.2344 20.9217 36.2656C20.9608 36.3515 19.9373 36.914 19.1795 37.2265C18.7967 37.3906 18.1561 37.6015 17.7576 37.7031C17.0623 37.875 15.7811 38.0781 15.7264 38.0156C15.7108 38 15.9686 37.789 16.3045 37.539C17.0155 37.0078 18.4764 35.6015 18.6405 35.2969C18.7967 35 18.7733 34.8047 18.5623 34.5625C18.4295 34.3984 18.3123 34.3437 18.0936 34.3437C17.8436 34.3437 17.7264 34.4297 16.8983 35.2422C15.6717 36.4453 14.6483 37.1953 13.3826 37.8359C12.9998 38.0312 12.9608 38.039 12.2889 37.9609C11.0076 37.8203 8.67952 37.3828 8.76546 37.3047C8.78109 37.289 9.29671 37.0781 9.92171 36.8359C12.1326 35.9687 14.4373 34.6562 15.9217 33.414C16.9061 32.5937 18.2576 31.1094 18.578 30.4922C18.828 30.0234 18.5076 29.5 17.992 29.5469C17.7264 29.5703 17.6405 29.6406 17.203 30.1953C15.4451 32.3984 13.3514 33.9375 10.3358 35.25C9.24202 35.7265 6.8514 36.5625 6.58577 36.5625C6.24202 36.5625 3.82796 35.1797 3.82796 34.9844C3.82796 34.9531 3.9139 34.9219 4.00765 34.9219C4.10921 34.9219 4.64827 34.8281 5.20296 34.7187C7.68734 34.2109 11.1092 32.9453 11.3983 32.414C11.6092 32.0312 11.3045 31.4844 10.8748 31.4844C10.7576 31.4844 10.3983 31.6094 10.078 31.7656C8.39046 32.5781 6.1639 33.2344 3.62484 33.664C2.79671 33.8047 2.68734 33.8125 2.57015 33.7031C2.4139 33.5625 1.99202 32.789 1.83577 32.3515L1.7264 32.039L2.01546 31.9922C8.2264 30.9531 12.6248 29.039 15.5936 26.0625C16.0623 25.5859 16.6248 24.9609 16.828 24.664C17.0311 24.375 17.2264 24.1406 17.2655 24.1406C17.2967 24.1406 17.367 24.1953 17.4217 24.2578ZM33.2108 27.9062C34.1405 28.3672 34.8436 29.1484 35.117 30.0312C35.1873 30.25 35.2811 30.5312 35.328 30.6484C35.4139 30.8672 35.742 31.0937 35.9686 31.0937C36.0311 31.0937 36.2811 31.164 36.5233 31.2578C37.1248 31.4844 37.742 32.0703 38.0623 32.7187C38.2967 33.1953 38.3201 33.2969 38.3201 33.9844C38.3201 34.625 38.2889 34.789 38.1092 35.1719C37.6873 36.0859 36.867 36.7109 35.867 36.8828C35.2811 36.9922 34.7264 36.8984 34.0701 36.5937C33.4217 36.289 33.2733 36.3203 32.703 36.8515C31.7733 37.7265 30.9451 38.0703 29.7655 38.0625C28.4842 38.0625 27.4842 37.625 26.5545 36.6406C25.953 36.0078 25.867 35.9922 25.1873 36.3047C24.5623 36.5937 23.6639 36.6094 23.0858 36.3437C21.6405 35.6797 21.1248 33.9219 21.9998 32.6015C22.2733 32.1797 22.9061 31.6953 23.2967 31.6015C23.6248 31.5156 23.7576 31.3047 23.867 30.664C23.9842 29.9844 24.2264 29.5234 24.6951 29.1094C25.5545 28.3281 26.8514 28.2265 27.8045 28.875C28.2655 29.1875 28.5233 29.1328 29.0936 28.6015C29.953 27.7969 30.578 27.5703 31.8045 27.6015C32.578 27.6172 32.6639 27.6406 33.2108 27.9062Z" fill="#0960AD"/>
<path d="M31.0859 28.9296C30.3125 29.1484 29.6875 29.6718 29.6875 30.1015C29.6875 30.4062 29.7656 30.539 30.0078 30.664C30.3359 30.8359 30.5 30.8046 30.8594 30.5078C31.0312 30.3593 31.2969 30.2187 31.4453 30.1874C31.9844 30.0859 32.5781 30.4765 32.6953 31.0156C32.8047 31.5234 33.4375 31.7265 33.7891 31.3671C34.0625 31.1015 34.0391 30.7499 33.7266 30.1484C33.2266 29.1718 32.0859 28.6484 31.0859 28.9296Z" fill="#0960AD"/>
<path d="M7.77334 5.50781C7.41397 5.85937 7.59366 6.49219 8.07022 6.60156C8.16397 6.625 10.7655 7.08594 13.8515 7.625L19.4687 8.60938L19.6718 8.46094C20.0858 8.15625 20.0858 7.65625 19.6718 7.39062C19.5077 7.28906 8.53116 5.3125 8.12491 5.3125C8.03897 5.3125 7.87491 5.39844 7.77334 5.50781Z" fill="#0960AD"/>
<path d="M11.1328 9.49212C10.8672 9.74993 10.8672 10.1406 11.1328 10.3906C11.3047 10.5468 11.7578 10.6484 15.0156 11.2265C17.5547 11.6718 18.7734 11.8515 18.9062 11.8124C19.1641 11.7265 19.375 11.3124 19.3047 11.039C19.2734 10.9218 19.1641 10.7734 19.0547 10.6952C18.9297 10.6015 17.7266 10.3593 15.2656 9.92962C13.2812 9.57805 11.5859 9.2968 11.4922 9.2968C11.3984 9.2968 11.2344 9.38274 11.1328 9.49212Z" fill="#0960AD"/>
<path d="M9.07818 12.3906C8.66412 12.6797 8.73443 13.3203 9.18756 13.5C9.42975 13.5859 17.836 15.0781 18.1172 15.0781C18.211 15.0781 18.3751 14.9922 18.4766 14.8828C18.7422 14.625 18.7422 14.2344 18.4766 13.9844C18.2969 13.8203 17.8204 13.7188 13.961 13.0391C11.5938 12.6172 9.56256 12.2734 9.45318 12.2656C9.34381 12.2656 9.17193 12.3203 9.07818 12.3906Z" fill="#0960AD"/>
<path d="M4.46875 12.6797C4.3125 12.8438 4.29688 12.9453 4.29688 13.7812C4.29688 14.6484 4.30469 14.7031 4.49219 14.8828C4.60938 15.0078 4.77344 15.0781 4.92188 15.0781C5.07031 15.0781 5.23438 15.0078 5.35156 14.8828C5.53906 14.7031 5.54688 14.6484 5.54688 13.7656C5.54688 12.8984 5.53906 12.8281 5.36719 12.6719C5.11719 12.4375 4.6875 12.4453 4.46875 12.6797Z" fill="#0960AD"/>
<path d="M1.98438 15.1719C1.79688 15.2578 1.64062 15.5469 1.64062 15.7891C1.64062 15.875 1.74219 16.0547 1.86719 16.1797C2.09375 16.3984 2.11719 16.4062 2.88281 16.4062C3.80469 16.4062 4.03125 16.3359 4.17188 16.0078C4.30469 15.6953 4.25 15.4219 4 15.2344C3.83594 15.1016 3.6875 15.0781 2.97656 15.0859C2.52344 15.0859 2.07031 15.125 1.98438 15.1719Z" fill="#0960AD"/>
<path d="M5.81238 15.2656C5.53113 15.5 5.50769 15.9375 5.76551 16.1953C5.92176 16.3516 6.03113 16.3672 6.83582 16.3906L7.73426 16.4219L7.96863 16.1875C8.27332 15.8828 8.27332 15.6016 7.97644 15.3047C7.74988 15.0781 7.73426 15.0781 6.88269 15.0781C6.09363 15.0781 6.00769 15.0938 5.81238 15.2656Z" fill="#0960AD"/>
<path d="M4.5 16.5703C4.29688 16.7265 4.29688 16.75 4.29688 17.6875C4.29688 18.5859 4.30469 18.6562 4.47656 18.8125C4.72656 19.0468 5.15625 19.039 5.375 18.8046C5.53125 18.6406 5.54688 18.539 5.54688 17.7031C5.54688 16.8359 5.53906 16.7812 5.35156 16.6015C5.11719 16.3593 4.78125 16.3515 4.5 16.5703Z" fill="#0960AD"/>
<path d="M31.781 16.5234C31.3279 16.6874 30.9841 16.9921 30.7419 17.4374C30.0388 18.7187 30.9685 20.2968 32.4294 20.3124C34.2107 20.328 35.0779 18.1796 33.7888 16.9296C33.2966 16.453 32.4529 16.2812 31.781 16.5234ZM32.8982 17.8827C33.0388 17.9921 33.0857 18.1093 33.0857 18.3593C33.0857 18.7577 32.8513 18.9843 32.4451 18.9843C32.0466 18.9843 31.7654 18.6718 31.8279 18.2968C31.8513 18.1405 31.9451 17.9452 32.0388 17.8671C32.2576 17.6952 32.6716 17.6952 32.8982 17.8827Z" fill="#0960AD"/>
<path d="M6.5 20.5078C6.30469 20.6719 6.25 20.7813 6.25 21C6.25 21.2422 6.32812 21.3516 6.89844 21.9297C7.48438 22.5078 7.57812 22.5781 7.84375 22.5781C8.21875 22.5781 8.51562 22.2969 8.51562 21.9453C8.51562 21.7422 8.40625 21.5859 7.875 21.0469C7.10938 20.2734 6.88281 20.1875 6.5 20.5078Z" fill="#0960AD"/>
<path d="M9.94529 20.953C9.57811 21.3124 9.24998 21.6796 9.21092 21.7733C9.05467 22.1874 9.52342 22.7186 9.95311 22.6093C10.0547 22.5858 10.4453 22.2577 10.8125 21.8749C11.5781 21.0936 11.6328 20.9218 11.2578 20.539C10.8828 20.164 10.6953 20.2186 9.94529 20.953Z" fill="#0960AD"/>
<path d="M36.2109 20.3827C35.6016 20.539 34.9609 21.0468 34.6641 21.6015C34.4141 22.0546 34.4219 23.1796 34.6641 23.6483C34.8984 24.078 35.3203 24.4843 35.7734 24.703C36.2656 24.9452 37.1484 24.953 37.6641 24.7186C38.7813 24.203 39.3125 22.7811 38.7969 21.6796C38.5938 21.2343 38.0391 20.6874 37.6094 20.5077C37.25 20.3593 36.5391 20.2968 36.2109 20.3827ZM37.1328 21.7499C37.4688 21.8905 37.6797 22.2265 37.6797 22.6171C37.6797 23.0155 37.5547 23.2499 37.2422 23.4374C36.5938 23.8358 35.7813 23.4061 35.7656 22.664C35.7656 22.2655 35.9531 21.9218 36.2656 21.7733C36.5859 21.6171 36.8047 21.6093 37.1328 21.7499Z" fill="#0960AD"/>
<path d="M6.94531 23.9609C6.32031 24.5703 6.25 24.6641 6.25 24.9219C6.25 25.2969 6.50781 25.5469 6.88281 25.5469C7.125 25.5469 7.24219 25.4687 7.83594 24.8516C8.60938 24.0625 8.66406 23.8906 8.28906 23.5078C7.90625 23.1328 7.73438 23.1875 6.94531 23.9609Z" fill="#0960AD"/>
<path d="M9.41406 23.4766C9.27344 23.6094 9.21875 23.75 9.21875 23.9531C9.21875 24.2187 9.28906 24.3125 9.86719 24.8984C10.4297 25.4609 10.5547 25.5469 10.7891 25.5469C11.0859 25.5391 11.2578 25.4375 11.3984 25.1719C11.5703 24.8516 11.4297 24.5781 10.75 23.9141C10.0156 23.1953 9.76562 23.1172 9.41406 23.4766Z" fill="#0960AD"/>
</g>
<defs>
<clipPath id="clip0_23_81">
<rect width="40" height="40" fill="white"/>
</clipPath>
</defs>
</svg>
