<svg width="40" height="40" viewBox="0 0 40 40" fill="none" xmlns="http://www.w3.org/2000/svg">
<g clip-path="url(#clip0_26_104)">
<path d="M0.398438 0.109441C0.03125 0.312566 0.0078125 0.468816 0 2.32819C0 4.22663 0.0390625 4.41413 0.429688 4.59382C0.742188 4.73444 4 4.72663 4.28906 4.57819C4.65625 4.38288 4.6875 4.19538 4.6875 2.34382C4.6875 0.492253 4.65625 0.304754 4.28906 0.109441C3.98438 -0.0468087 0.679688 -0.0468087 0.398438 0.109441ZM3.125 2.34382V3.12507H2.34375H1.5625V2.34382V1.56257H2.34375H3.125V2.34382Z" fill="#0960AD"/>
<path d="M35.7109 0.109441C35.3438 0.312566 35.3203 0.468816 35.3125 2.32819C35.3125 4.22663 35.3516 4.41413 35.7422 4.59382C36.0547 4.73444 39.3125 4.72663 39.6016 4.57819C39.9688 4.38288 40 4.19538 40 2.34382C40 0.492253 39.9688 0.304754 39.6016 0.109441C39.2969 -0.0468087 35.9922 -0.0468087 35.7109 0.109441ZM38.4375 2.34382V3.12507H37.6562H36.875V2.34382V1.56257H37.6562H38.4375V2.34382Z" fill="#0960AD"/>
<path d="M7.11704 1.672C6.74986 1.87512 6.62486 2.32825 6.82798 2.72668C6.99986 3.05481 7.25767 3.12512 8.28111 3.12512C9.30455 3.12512 9.56236 3.05481 9.73423 2.72668C9.94517 2.32043 9.79673 1.82825 9.41392 1.65637C9.12486 1.52356 7.35923 1.53918 7.11704 1.672Z" fill="#0960AD"/>
<path d="M11.8045 1.672C11.4374 1.87512 11.3124 2.32825 11.5155 2.72668C11.6874 3.05481 11.9452 3.12512 12.9686 3.12512C13.992 3.12512 14.2499 3.05481 14.4217 2.72668C14.6327 2.32043 14.4842 1.82825 14.1014 1.65637C13.8124 1.52356 12.0467 1.53918 11.8045 1.672Z" fill="#0960AD"/>
<path d="M16.492 1.672C16.1249 1.87512 15.9999 2.32825 16.203 2.72668C16.3749 3.05481 16.6327 3.12512 17.6561 3.12512C18.6795 3.12512 18.9374 3.05481 19.1092 2.72668C19.3202 2.32043 19.1717 1.82825 18.7889 1.65637C18.4999 1.52356 16.7342 1.53918 16.492 1.672Z" fill="#0960AD"/>
<path d="M21.1795 1.672C20.8124 1.87512 20.6874 2.32825 20.8905 2.72668C21.0624 3.05481 21.3202 3.12512 22.3436 3.12512C23.367 3.12512 23.6249 3.05481 23.7967 2.72668C24.0077 2.32043 23.8592 1.82825 23.4764 1.65637C23.1874 1.52356 21.4217 1.53918 21.1795 1.672Z" fill="#0960AD"/>
<path d="M25.867 1.672C25.4999 1.87512 25.3749 2.32825 25.578 2.72668C25.7499 3.05481 26.0077 3.12512 27.0311 3.12512C28.0545 3.12512 28.3124 3.05481 28.4842 2.72668C28.6952 2.32043 28.5467 1.82825 28.1639 1.65637C27.8749 1.52356 26.1092 1.53918 25.867 1.672Z" fill="#0960AD"/>
<path d="M30.5545 1.672C30.1874 1.87512 30.0624 2.32825 30.2655 2.72668C30.4374 3.05481 30.6952 3.12512 31.7186 3.12512C32.742 3.12512 32.9999 3.05481 33.1717 2.72668C33.3827 2.32043 33.2342 1.82825 32.8514 1.65637C32.5624 1.52356 30.7967 1.53918 30.5545 1.672Z" fill="#0960AD"/>
<path d="M5.86719 5.57812C5.47656 5.79687 5.47656 5.82812 5.46875 9.35156C5.46875 11.75 5.49219 12.7031 5.5625 12.8516C5.74219 13.2422 5.9375 13.2812 7.8125 13.2812C9.6875 13.2812 9.88281 13.2422 10.0625 12.8516C10.125 12.7187 10.1562 12.2031 10.1562 11.4062V10.1562H10.9375H11.7188V14.0625V17.9687H10.4688C9.09375 17.9687 8.85938 18.0234 8.6875 18.3984C8.625 18.5391 8.59375 19.1562 8.59375 20.3203C8.59375 22.1875 8.63281 22.3828 9.02344 22.5625C9.3125 22.6953 18.8125 22.6953 19.1016 22.5625C19.4922 22.3828 19.5312 22.1875 19.5312 20.3125C19.5312 18.4375 19.4922 18.2422 19.1016 18.0625C18.9688 18 18.4531 17.9687 17.6562 17.9687H16.4062V14.0625V10.1562H17.1875H17.9688V11.4062C17.9688 12.2031 18 12.7187 18.0625 12.8516C18.2422 13.2422 18.4375 13.2812 20.3125 13.2812C22.1875 13.2812 22.3828 13.2422 22.5625 12.8516C22.6328 12.7031 22.6562 11.75 22.6562 9.375C22.6562 5.85937 22.6484 5.78125 22.2578 5.57812C21.9688 5.42969 14.8125 5.41406 14.4922 5.5625C14.1094 5.73437 13.9609 6.22656 14.1719 6.63281C14.375 7.02344 14.4531 7.03125 17.8906 7.03125H21.0938V9.375V11.7187H20.3125H19.5312V10.4687C19.5312 9.09375 19.4766 8.85937 19.1016 8.6875C18.8203 8.55469 15.5547 8.55469 15.2734 8.6875C14.8359 8.88281 14.8438 8.79687 14.8438 14.0625C14.8438 19.3281 14.8359 19.2422 15.2734 19.4375C15.4062 19.5 15.9219 19.5312 16.7188 19.5312H17.9688V20.3125V21.0937H14.0625H10.1562V20.3125V19.5312H11.4062C12.2031 19.5312 12.7188 19.5 12.8516 19.4375C13.2891 19.2422 13.2812 19.3281 13.2812 14.0625C13.2812 8.79687 13.2891 8.88281 12.8516 8.6875C12.5391 8.54687 9.28125 8.55469 8.99219 8.70312C8.64844 8.88281 8.59375 9.10937 8.59375 10.4687V11.7187H7.8125H7.03125V9.375V7.03125H7.5C8.05469 7.03125 8.33594 6.91406 8.48438 6.63281C8.69531 6.22656 8.54688 5.73437 8.16406 5.5625C7.875 5.42969 6.10938 5.44531 5.86719 5.57812Z" fill="#0960AD"/>
<path d="M10.9454 5.57825C10.2657 5.95325 10.5548 7.03137 11.3282 7.03137C11.7267 7.03137 12.1095 6.64856 12.1095 6.25793C12.1095 5.672 11.461 5.28918 10.9454 5.57825Z" fill="#0960AD"/>
<path d="M25.3986 5.57825C24.8752 5.86731 24.8908 6.69543 25.4299 6.93762C25.5783 7.00793 26.7268 7.03137 29.7658 7.03137C32.8049 7.03137 33.9533 7.00793 34.1018 6.93762C34.3283 6.83606 34.5314 6.50793 34.5314 6.25012C34.5314 5.99231 34.3283 5.66418 34.1018 5.56262C33.7893 5.422 25.6564 5.43762 25.3986 5.57825Z" fill="#0960AD"/>
<path d="M1.96094 6.82815C1.63281 7.00784 1.57031 7.2344 1.5625 8.25784C1.5625 9.31253 1.63281 9.56253 1.96094 9.7344C2.36719 9.94534 2.85938 9.7969 3.03125 9.41409C3.15625 9.14065 3.15625 7.4219 3.03125 7.14846C2.85938 6.77346 2.34375 6.61721 1.96094 6.82815Z" fill="#0960AD"/>
<path d="M37.2734 6.82815C36.9453 7.00784 36.8828 7.2344 36.875 8.25784C36.875 9.31253 36.9453 9.56253 37.2734 9.7344C37.6797 9.94534 38.1719 9.7969 38.3438 9.41409C38.3984 9.2969 38.4375 8.83596 38.4375 8.28128C38.4375 7.72659 38.3984 7.26565 38.3438 7.14846C38.1719 6.77346 37.6562 6.61721 37.2734 6.82815Z" fill="#0960AD"/>
<path d="M25.3672 8.99231C25.1953 9.09387 25 9.46887 25 9.71887C25 9.82825 25.1016 10.0314 25.2266 10.172L25.4531 10.4298H29.7656H34.0781L34.3047 10.172C34.4297 10.0314 34.5312 9.82825 34.5312 9.71887C34.5312 9.46106 34.3359 9.08606 34.1484 8.9845C33.9375 8.87512 25.5625 8.88293 25.3672 8.99231Z" fill="#0960AD"/>
<path d="M1.96094 11.5157C1.63281 11.6953 1.57031 11.9219 1.5625 12.9453C1.5625 14 1.63281 14.25 1.96094 14.4219C2.36719 14.6328 2.85938 14.4844 3.03125 14.1016C3.15625 13.8282 3.15625 12.1094 3.03125 11.836C2.85938 11.461 2.34375 11.3047 1.96094 11.5157Z" fill="#0960AD"/>
<path d="M37.2734 11.5157C36.9453 11.6953 36.8828 11.9219 36.875 12.9453C36.875 14 36.9453 14.25 37.2734 14.4219C37.6797 14.6328 38.1719 14.4844 38.3438 14.1016C38.3984 13.9844 38.4375 13.5235 38.4375 12.9688C38.4375 12.4141 38.3984 11.9532 38.3438 11.836C38.1719 11.461 37.6562 11.3047 37.2734 11.5157Z" fill="#0960AD"/>
<path d="M25.2188 12.5782C25.0078 12.7892 24.9844 12.8595 25.0234 13.1329C25.0781 13.5236 25.25 13.7267 25.6172 13.8282C25.9922 13.9298 33.5391 13.9298 33.9141 13.8282C34.3203 13.7111 34.4922 13.4923 34.4922 13.0704C34.4922 12.7814 34.4531 12.6876 34.2734 12.5314L34.0547 12.3439H29.7578H25.4531L25.2188 12.5782Z" fill="#0960AD"/>
<path d="M25.5 15.7812C25.2656 15.875 25 16.2344 25 16.4609C25 16.7109 25.2031 17.0859 25.3828 17.1875C25.5938 17.2969 33.9375 17.2969 34.1484 17.1875C34.3359 17.0859 34.5312 16.7109 34.5312 16.4531C34.5312 16.3437 34.4297 16.1406 34.3047 16L34.0781 15.7422L29.8672 15.7266C27.5547 15.7187 25.5859 15.7422 25.5 15.7812Z" fill="#0960AD"/>
<path d="M1.96094 16.2033C1.63281 16.383 1.57031 16.6095 1.5625 17.633C1.5625 18.6876 1.63281 18.9376 1.96094 19.1095C2.36719 19.3205 2.85938 19.172 3.03125 18.7892C3.15625 18.5158 3.15625 16.797 3.03125 16.5236C2.85938 16.1486 2.34375 15.9923 1.96094 16.2033Z" fill="#0960AD"/>
<path d="M37.2734 16.2033C36.9453 16.383 36.8828 16.6095 36.875 17.633C36.875 18.6876 36.9453 18.9376 37.2734 19.1095C37.6797 19.3205 38.1719 19.172 38.3438 18.7892C38.3984 18.672 38.4375 18.2111 38.4375 17.6564C38.4375 17.1017 38.3984 16.6408 38.3438 16.5236C38.1719 16.1486 37.6562 15.9923 37.2734 16.2033Z" fill="#0960AD"/>
<path d="M25.3986 19.25C24.8752 19.5391 24.8908 20.3672 25.4299 20.6094C25.7189 20.7422 33.8127 20.7422 34.1018 20.6094C34.3283 20.5078 34.5314 20.1797 34.5314 19.9219C34.5314 19.6641 34.3283 19.3359 34.1018 19.2344C33.7893 19.0937 25.6564 19.1094 25.3986 19.25Z" fill="#0960AD"/>
<path d="M1.96094 20.8908C1.63281 21.0705 1.57031 21.297 1.5625 22.3205C1.5625 23.3751 1.63281 23.6251 1.96094 23.797C2.36719 24.008 2.85938 23.8595 3.03125 23.4767C3.15625 23.2033 3.15625 21.4845 3.03125 21.2111C2.85938 20.8361 2.34375 20.6798 1.96094 20.8908Z" fill="#0960AD"/>
<path d="M37.2734 20.8908C36.9453 21.0705 36.8828 21.297 36.875 22.3205C36.875 23.3751 36.9453 23.6251 37.2734 23.797C37.6797 24.008 38.1719 23.8595 38.3438 23.4767C38.3984 23.3595 38.4375 22.8986 38.4375 22.3439C38.4375 21.7892 38.3984 21.3283 38.3438 21.2111C38.1719 20.8361 37.6562 20.6798 37.2734 20.8908Z" fill="#0960AD"/>
<path d="M25.3672 22.6641C25.1953 22.7656 25 23.1406 25 23.3906C25 23.5 25.1016 23.7031 25.2266 23.8438L25.4531 24.1016H29.7656H34.0781L34.3047 23.8438C34.4297 23.7031 34.5312 23.5 34.5312 23.3906C34.5312 23.1328 34.3359 22.7578 34.1484 22.6562C33.9375 22.5469 25.5625 22.5547 25.3672 22.6641Z" fill="#0960AD"/>
<path d="M1.96094 25.5783C1.63281 25.758 1.57031 25.9845 1.5625 27.008C1.5625 28.0626 1.63281 28.3126 1.96094 28.4845C2.36719 28.6955 2.85938 28.547 3.03125 28.1642C3.15625 27.8908 3.15625 26.172 3.03125 25.8986C2.85938 25.5236 2.34375 25.3673 1.96094 25.5783Z" fill="#0960AD"/>
<path d="M37.2734 25.5783C36.9453 25.758 36.8828 25.9845 36.875 27.008C36.875 28.0626 36.9453 28.3126 37.2734 28.4845C37.6797 28.6955 38.1719 28.547 38.3438 28.1642C38.3984 28.047 38.4375 27.5861 38.4375 27.0314C38.4375 26.4767 38.3984 26.0158 38.3438 25.8986C38.1719 25.5236 37.6562 25.3673 37.2734 25.5783Z" fill="#0960AD"/>
<path d="M6.03904 26.0234C5.90622 26.0625 5.71872 26.1953 5.62497 26.3125C5.39841 26.5938 5.4531 27.0781 5.74216 27.3203L5.94529 27.5H20H34.0547L34.2734 27.3125C34.4531 27.1562 34.4922 27.0625 34.4922 26.7734C34.4922 26.3516 34.3203 26.1328 33.914 26.0156C33.5468 25.9141 6.3906 25.9219 6.03904 26.0234Z" fill="#0960AD"/>
<path d="M5.96875 29.4531C5.73438 29.5469 5.46875 29.9062 5.46875 30.1328C5.46875 30.3828 5.67188 30.7578 5.85156 30.8594C6.0625 30.9688 33.9375 30.9688 34.1484 30.8594C34.3359 30.7578 34.5312 30.3828 34.5312 30.125C34.5312 30.0156 34.4297 29.8125 34.3047 29.6719L34.0781 29.4141L20.1016 29.3984C12.4219 29.3906 6.05469 29.4141 5.96875 29.4531Z" fill="#0960AD"/>
<path d="M1.96094 30.2658C1.63281 30.4455 1.57031 30.672 1.5625 31.6955C1.5625 32.7501 1.63281 33.0001 1.96094 33.172C2.36719 33.383 2.85938 33.2345 3.03125 32.8517C3.15625 32.5783 3.15625 30.8595 3.03125 30.5861C2.85938 30.2111 2.34375 30.0548 1.96094 30.2658Z" fill="#0960AD"/>
<path d="M37.2734 30.2658C36.9453 30.4455 36.8828 30.672 36.875 31.6955C36.875 32.7501 36.9453 33.0001 37.2734 33.172C37.6797 33.383 38.1719 33.2345 38.3438 32.8517C38.3984 32.7345 38.4375 32.2736 38.4375 31.7189C38.4375 31.1642 38.3984 30.7033 38.3438 30.5861C38.1719 30.2111 37.6562 30.0548 37.2734 30.2658Z" fill="#0960AD"/>
<path d="M5.86738 32.9219C5.34394 33.2109 5.35957 34.0391 5.89863 34.2812C6.05488 34.3516 9.00019 34.375 18.2502 34.375C28.6096 34.375 30.4299 34.3594 30.6174 34.2656C31.133 33.9922 31.133 33.1953 30.6174 32.9219C30.3049 32.7656 6.15644 32.7578 5.86738 32.9219Z" fill="#0960AD"/>
<path d="M33.3673 32.9219C32.6876 33.2969 32.9767 34.375 33.7501 34.375C34.1485 34.375 34.5313 33.9922 34.5313 33.6016C34.5313 33.0156 33.8829 32.6328 33.3673 32.9219Z" fill="#0960AD"/>
<path d="M0.398438 35.4219C0.03125 35.6251 0.0078125 35.7813 0 37.6407C0 39.5391 0.0390625 39.7266 0.429688 39.9063C0.742188 40.0469 4 40.0391 4.28906 39.8907C4.65625 39.6954 4.6875 39.5079 4.6875 37.6563C4.6875 35.8048 4.65625 35.6173 4.28906 35.4219C3.98438 35.2657 0.679688 35.2657 0.398438 35.4219ZM3.125 37.6563V38.4376H2.34375H1.5625V37.6563V36.8751H2.34375H3.125V37.6563Z" fill="#0960AD"/>
<path d="M35.7109 35.4219C35.3438 35.6251 35.3203 35.7813 35.3125 37.6407C35.3125 39.5391 35.3516 39.7266 35.7422 39.9063C36.0547 40.0469 39.3125 40.0391 39.6016 39.8907C39.9688 39.6954 40 39.5079 40 37.6563C40 35.8048 39.9688 35.6173 39.6016 35.4219C39.2969 35.2657 35.9922 35.2657 35.7109 35.4219ZM38.4375 37.6563V38.4376H37.6562H36.875V37.6563V36.8751H37.6562H38.4375V37.6563Z" fill="#0960AD"/>
<path d="M7.11738 36.9844C6.59394 37.2734 6.60957 38.1016 7.14863 38.3437C7.42207 38.4688 9.14082 38.4688 9.41426 38.3437C9.64082 38.2422 9.84394 37.9141 9.84394 37.6562C9.84394 37.3984 9.64082 37.0703 9.41426 36.9687C9.12519 36.8359 7.35957 36.8516 7.11738 36.9844Z" fill="#0960AD"/>
<path d="M11.8049 36.9844C11.2814 37.2734 11.2971 38.1016 11.8361 38.3437C12.1096 38.4688 13.8283 38.4688 14.1018 38.3437C14.3283 38.2422 14.5314 37.9141 14.5314 37.6562C14.5314 37.3984 14.3283 37.0703 14.1018 36.9687C13.8127 36.8359 12.0471 36.8516 11.8049 36.9844Z" fill="#0960AD"/>
<path d="M16.4924 36.9844C15.9689 37.2734 15.9846 38.1016 16.5236 38.3437C16.7971 38.4688 18.5158 38.4688 18.7893 38.3437C19.0158 38.2422 19.2189 37.9141 19.2189 37.6562C19.2189 37.3984 19.0158 37.0703 18.7893 36.9687C18.5002 36.8359 16.7346 36.8516 16.4924 36.9844Z" fill="#0960AD"/>
<path d="M21.1799 36.9844C20.6564 37.2734 20.6721 38.1016 21.2111 38.3437C21.4846 38.4688 23.2033 38.4688 23.4768 38.3437C23.7033 38.2422 23.9064 37.9141 23.9064 37.6562C23.9064 37.3984 23.7033 37.0703 23.4768 36.9687C23.1877 36.8359 21.4221 36.8516 21.1799 36.9844Z" fill="#0960AD"/>
<path d="M25.8674 36.9844C25.3439 37.2734 25.3596 38.1016 25.8986 38.3437C26.1721 38.4688 27.8908 38.4688 28.1643 38.3437C28.3908 38.2422 28.5939 37.9141 28.5939 37.6562C28.5939 37.3984 28.3908 37.0703 28.1643 36.9687C27.8752 36.8359 26.1096 36.8516 25.8674 36.9844Z" fill="#0960AD"/>
<path d="M30.5549 36.9844C30.0314 37.2734 30.0471 38.1016 30.5861 38.3437C30.8596 38.4688 32.5783 38.4688 32.8518 38.3437C33.0783 38.2422 33.2814 37.9141 33.2814 37.6562C33.2814 37.3984 33.0783 37.0703 32.8518 36.9687C32.5627 36.8359 30.7971 36.8516 30.5549 36.9844Z" fill="#0960AD"/>
</g>
<defs>
<clipPath id="clip0_26_104">
<rect width="40" height="40" fill="white"/>
</clipPath>
</defs>
</svg>
