<svg width="40" height="40" viewBox="0 0 40 40" fill="none" xmlns="http://www.w3.org/2000/svg">
<path d="M8.24219 0.734375C7.95312 0.859375 7.69531 1.14062 7.58594 1.42969C7.52344 1.57812 7.5 4.0625 7.5 9.26562V16.875H8.125H8.75V9.375V1.875H17.8047H26.8672L26.8906 3.66406C26.9141 5.63281 26.9219 5.65625 27.4531 6.04688C27.6484 6.20312 27.7891 6.21094 29.4609 6.23438L31.25 6.25781V11.2578V16.25H31.875H32.5V10.8047V5.35156L30.1328 2.99219L27.7734 0.625H18.125C10.2578 0.632812 8.42969 0.648438 8.24219 0.734375ZM29.2578 3.90625L30.3516 5H29.2344H28.125V3.90625C28.125 3.30469 28.1328 2.8125 28.1484 2.8125C28.1562 2.8125 28.6562 3.30469 29.2578 3.90625Z" fill="#0960AD"/>
<path d="M18.9454 4.46092C15.0626 5.17967 12.8126 9.08592 14.1564 12.789C15.5001 16.5 20.0782 18.0312 23.3751 15.8672C24.7423 14.9765 25.6251 13.7344 26.0782 12.0703C26.2579 11.4297 26.2579 9.82029 26.0782 9.17967C25.6173 7.50779 24.7423 6.27342 23.3907 5.3906C22.1329 4.57029 20.3751 4.2031 18.9454 4.46092ZM21.0548 5.74217C23.297 6.21092 25.0001 8.31248 25.0001 10.625C25.0001 12.4687 23.8829 14.2812 22.2501 15.0703C20.7345 15.8047 19.2657 15.8047 17.7501 15.0703C16.4532 14.4453 15.422 13.1172 15.1173 11.6719C14.3673 8.1406 17.5079 4.99998 21.0548 5.74217Z" fill="#0960AD"/>
<path d="M20.5469 9.88276L18.7891 11.6406L18.2422 11.0937L17.6875 10.5468L17.2422 10.9999L16.7891 11.4531L17.6484 12.289C18.8906 13.4999 18.6094 13.6015 21.1484 11.0781C22.2812 9.95307 23.1953 9.00776 23.1953 8.98432C23.1875 8.96088 22.9844 8.76557 22.7422 8.53901L22.2969 8.13276L20.5469 9.88276Z" fill="#0960AD"/>
<path d="M30.0001 19.2577C28.6486 19.9218 27.5001 20.5233 27.4455 20.5937C27.297 20.7968 27.3205 21.1327 27.5001 21.4843C27.5861 21.6562 27.6564 21.8124 27.6564 21.8358C27.6564 21.914 26.7267 21.8749 26.047 21.7577C25.2423 21.6171 24.2033 21.3124 22.7736 20.7812C21.5236 20.3202 20.8283 20.1952 19.8595 20.2577C18.1564 20.3749 16.6173 21.2108 15.2189 22.8046L14.7423 23.3515L14.258 23.1718C13.9923 23.078 13.6095 22.8983 13.4064 22.7812C13.0626 22.578 13.047 22.5624 13.1642 22.3983C13.3205 22.1718 13.3126 21.8515 13.1486 21.6483C13.0314 21.5155 8.60952 18.9218 8.42202 18.8827C8.33609 18.8593 7.73452 19.8749 7.79702 19.9374C7.82827 19.9608 8.73452 20.4843 9.80484 21.1015C10.883 21.7108 11.7658 22.2187 11.7814 22.2343C11.8283 22.2577 7.03921 30.4296 6.9689 30.453C6.92202 30.4686 6.02359 29.9843 4.9689 29.3827C3.91421 28.7811 3.01577 28.2733 2.9689 28.2655C2.88296 28.2421 2.2814 29.2577 2.3439 29.3202C2.36734 29.3358 3.43765 29.953 4.73452 30.6952C7.30484 32.1718 7.30484 32.164 7.69546 31.703C7.91421 31.4452 7.88296 31.4374 8.55484 31.9452C8.81265 32.1327 9.0314 32.2968 9.04702 32.3046C9.05484 32.3124 8.97671 32.4765 8.86734 32.664C8.62515 33.0858 8.60952 33.7186 8.82046 34.1796C9.06265 34.7265 9.7814 35.2343 10.4455 35.3515C10.7033 35.3905 10.7892 35.4452 10.8595 35.6249C10.9689 35.8905 11.508 36.4061 11.883 36.6093C12.0705 36.7108 12.3283 36.7577 12.7345 36.7577C13.297 36.7655 13.3283 36.7811 13.633 37.0546C14.0001 37.3983 14.4533 37.6327 14.9064 37.703C15.0861 37.7343 15.2345 37.7968 15.2345 37.8515C15.2345 38.0624 15.7033 38.5702 16.1408 38.828C16.5314 39.0624 16.6642 39.1015 17.0705 39.1015C17.633 39.0936 18.0939 38.8827 18.4142 38.4765C18.5314 38.328 18.6642 38.203 18.6955 38.203C18.7345 38.203 19.172 38.4452 19.672 38.7499C20.9845 39.5311 21.4767 39.5936 22.2814 39.1093C22.6095 38.914 22.7345 38.7733 22.9298 38.3983L23.1642 37.9296H23.672C24.4845 37.9218 25.1876 37.4374 25.3908 36.7421L25.4845 36.4452H26.0001C26.383 36.4374 26.6095 36.3905 26.8517 36.2655C27.2189 36.0702 27.6173 35.6249 27.7345 35.2655L27.8205 35.0155L28.2267 35.1718C29.9376 35.828 31.4533 33.8202 30.3751 32.3358L30.1408 32.0155L30.4376 31.5858C30.7033 31.1952 31.5939 30.3124 31.7189 30.3124C31.7501 30.3124 31.8517 30.4921 31.9533 30.7108C32.1642 31.1561 32.3595 31.328 32.6564 31.328C32.7658 31.328 33.8673 30.8358 35.1017 30.2343C36.3439 29.6405 37.4611 29.1015 37.5861 29.0468C37.7111 28.9921 37.8126 28.9218 37.8126 28.8827C37.8126 28.828 37.3595 27.8905 37.3048 27.828C37.2892 27.8124 36.3283 28.2421 35.172 28.7811C34.008 29.3202 33.0314 29.7655 32.9923 29.7655C32.9611 29.7577 32.6095 29.1015 32.2189 28.2968C31.8205 27.4921 30.883 25.578 30.1251 24.039L28.7501 21.2421L29.5548 20.8671C29.9923 20.6562 30.9767 20.1874 31.7423 19.8202L33.133 19.1483L32.8517 18.5937C32.7033 18.2968 32.547 18.0468 32.5158 18.0546C32.4845 18.0546 31.3517 18.6015 30.0001 19.2577ZM22.4611 21.9687C24.8205 22.8437 25.7814 23.0624 27.2423 23.0702L28.2736 23.078L29.7267 26.039L31.1798 28.9921L30.4455 29.6874C30.0392 30.0702 29.5783 30.578 29.4142 30.8124L29.1173 31.2421L28.8283 31.0702C28.672 30.9765 27.6408 30.3358 26.5392 29.6483L24.5314 28.3983L24.7423 28.2421C25.0392 28.0311 26.172 26.9061 26.172 26.8202C26.172 26.789 25.9298 26.6249 25.6486 26.4608L25.1251 26.164L24.7658 26.5468C24.3986 26.9452 23.8283 27.3671 23.4767 27.4999C23.2814 27.5702 23.0783 27.4608 21.0783 26.2108C19.8673 25.453 18.8126 24.8436 18.7111 24.8436C18.3908 24.8436 18.2814 24.9296 17.8986 25.4999C17.422 26.203 16.6095 26.9608 16.0236 27.2655C15.4533 27.5546 14.6564 27.703 14.3595 27.5858C14.0626 27.4765 14.0783 27.3124 14.4767 26.3202C14.9923 25.0468 15.5236 24.2499 16.5626 23.203C17.3048 22.453 17.5626 22.2421 18.047 22.0077C18.9455 21.5702 19.3595 21.4843 20.3908 21.5155C21.258 21.539 21.3283 21.5546 22.4611 21.9687ZM13.7736 24.914C13.2033 25.8593 12.758 27.3436 12.8986 27.8358C13.133 28.703 14.297 29.1171 15.5861 28.789C16.4689 28.5624 17.1642 28.1483 17.9376 27.3827C18.3283 26.9999 18.6955 26.6015 18.758 26.4999C18.8673 26.3202 18.883 26.328 24.0626 29.5702C26.922 31.3593 29.3205 32.8983 29.4064 32.9921C29.7033 33.3436 29.4064 34.0624 28.9533 34.0624C28.8673 34.0624 28.0705 33.6327 27.1876 33.1015C26.3048 32.578 25.422 32.0468 25.2189 31.9296L24.8595 31.7186L24.5705 32.2265C24.4142 32.5077 24.3048 32.7655 24.3283 32.8046C24.3517 32.8358 24.8205 33.1249 25.3673 33.4452C25.9142 33.7655 26.4298 34.0858 26.5001 34.1561C26.6955 34.3515 26.6798 34.8046 26.4845 34.9999C26.1876 35.2968 25.922 35.2108 24.4767 34.3358C23.7267 33.8827 23.1095 33.5155 23.0939 33.5155C23.0548 33.5155 22.5001 34.453 22.5001 34.5233C22.5001 34.5546 22.883 34.8202 23.3517 35.1015C24.3205 35.6952 24.4767 35.9061 24.2658 36.3124C23.9923 36.8358 23.7189 36.7733 22.133 35.8202C21.3751 35.3671 20.7501 35.0077 20.7423 35.0155C20.6798 35.0858 20.1564 35.9843 20.1564 36.0233C20.1564 36.0468 20.5236 36.289 20.9689 36.5624C21.8517 37.0936 22.0236 37.3046 21.883 37.6796C21.8361 37.789 21.7111 37.9452 21.5939 38.0155C21.3361 38.1874 21.1876 38.1405 20.1642 37.5077L19.3908 37.0311L19.3595 36.4843C19.3205 35.7186 19.0705 35.3749 18.2658 34.9686C17.7189 34.6952 17.6564 34.6405 17.6564 34.4374C17.6564 34.0858 17.4689 33.7343 17.1095 33.414C16.7189 33.0546 16.2267 32.8202 15.883 32.8124C15.6642 32.8124 15.6017 32.7655 15.4689 32.5077C15.297 32.1561 14.8751 31.789 14.3908 31.5468C14.1095 31.414 13.9533 31.3905 13.5158 31.4218C13.008 31.4608 12.9767 31.453 12.8283 31.2577C12.7423 31.1483 12.4689 30.9296 12.2189 30.7811C11.8283 30.5468 11.6955 30.5077 11.2892 30.5077C10.7658 30.5155 10.2736 30.7186 10.0158 31.0546C9.92984 31.164 9.83609 31.2499 9.79702 31.2499C9.73452 31.2499 8.5939 30.4061 8.5939 30.3593C8.5939 30.3358 9.45327 28.8358 10.508 27.0155L12.4142 23.7108L13.2267 24.0936L14.0314 24.4843L13.7736 24.914ZM11.7111 31.9218C11.8595 32.0468 11.9533 32.1952 11.9533 32.3124C11.9533 32.5702 10.9689 34.039 10.758 34.0936C10.4611 34.1718 9.92202 33.7655 9.92202 33.4686C9.92202 33.3124 10.258 32.7655 10.8361 31.9686C11.0705 31.6561 11.3751 31.6327 11.7111 31.9218ZM13.8517 32.664C14.1408 32.8124 14.3751 33.0624 14.3751 33.2265C14.3751 33.4374 13.047 35.3905 12.8283 35.4921C12.6798 35.5624 12.5939 35.5311 12.3205 35.3436C12.1408 35.2186 11.9845 35.039 11.9689 34.9452C11.9533 34.8358 12.172 34.4374 12.5783 33.828C13.4376 32.539 13.5001 32.4843 13.8517 32.664ZM16.1486 34.2655C16.5236 34.5468 16.4923 34.7655 15.9767 35.4999C15.4064 36.328 15.3205 36.4061 15.0705 36.4061C14.7814 36.4061 14.3751 36.0546 14.3751 35.8046C14.3751 35.6405 14.9845 34.6561 15.3751 34.1952C15.5392 34.0077 15.8439 34.0311 16.1486 34.2655ZM17.7814 36.1015C18.0783 36.2811 18.1876 36.5624 18.0705 36.8202C18.0236 36.914 17.8439 37.1796 17.6642 37.3983C17.2892 37.8749 17.133 37.9061 16.6955 37.6171C16.3283 37.3671 16.3205 37.1483 16.6564 36.6561C17.172 35.8827 17.3126 35.8124 17.7814 36.1015Z" fill="#0960AD"/>
<path d="M33.9297 26.8594L33.375 27.1484L33.6562 27.7109L33.9453 28.2656L34.5469 27.9609L35.1562 27.6562L34.9531 27.2031C34.8437 26.9609 34.7344 26.7109 34.7109 26.6562C34.6484 26.5156 34.5469 26.5391 33.9297 26.8594Z" fill="#0960AD"/>
</svg>
