<svg width="40" height="40" viewBox="0 0 40 40" fill="none" xmlns="http://www.w3.org/2000/svg">
<path d="M13.3856 5.93756C11.5713 6.11117 9.88731 6.92714 8.60259 8.27262C7.94287 8.95839 7.60433 9.4879 6.46718 11.5626C5.86822 12.6389 5.67725 12.9254 5.67725 12.7171C5.67725 12.5261 5.13037 12.0139 4.77447 11.8837C4.47065 11.7709 4.13211 11.7448 2.91683 11.7709C1.30225 11.7969 1.19808 11.8317 0.781413 12.3959C0.616482 12.6129 0.599121 12.7605 0.599121 13.8803C0.599121 15.0001 0.616482 15.1476 0.781413 15.3646C1.146 15.8594 1.38037 15.9636 2.22238 15.9983L3.00363 16.0244L2.65641 16.3889C2.45676 16.5799 2.18766 16.9792 2.05745 17.2657L1.8144 17.7865V22.8646V27.9428L2.05745 28.4462C2.2137 28.7501 2.47412 29.0886 2.73454 29.3143L3.15988 29.6789V31.0678C3.15988 31.8317 3.19461 32.5955 3.24669 32.7605C3.35954 33.1685 3.79357 33.6806 4.22759 33.915C4.57482 34.0973 4.68766 34.106 6.80572 34.106C9.34044 34.106 9.61822 34.0539 10.1304 33.4462C10.5297 32.9862 10.6252 32.6042 10.6252 31.4584V30.4862L11.1286 30.5382C14.6529 30.9028 25.2866 30.9028 28.8804 30.5382L29.3752 30.4862V31.4584C29.3752 32.6042 29.4706 32.9862 29.87 33.4462C30.3821 34.0539 30.6599 34.106 33.1946 34.106C35.3127 34.106 35.4255 34.0973 35.7727 33.915C36.2068 33.6806 36.6408 33.1685 36.7536 32.7605C36.8057 32.5955 36.8404 31.8317 36.8404 31.0678V29.6789L37.2658 29.3143C37.5262 29.0886 37.7866 28.7501 37.9429 28.4462L38.1859 27.9428V22.8646V17.7865L37.9429 17.2657C37.8127 16.9792 37.5436 16.5799 37.3439 16.3889L36.9967 16.0244L37.7779 15.9983C38.62 15.9636 38.8543 15.8594 39.2189 15.3646C39.3838 15.1476 39.4012 15.0001 39.4012 13.8803C39.4012 12.7605 39.3838 12.6129 39.2189 12.3959C38.8022 11.8317 38.6981 11.7969 37.0835 11.7709C35.8682 11.7448 35.5297 11.7709 35.2259 11.8837C34.87 12.0139 34.3231 12.5261 34.3231 12.7171C34.3231 12.9254 34.1234 12.6216 33.3682 11.2587C32.3092 9.34033 31.9359 8.78478 31.2241 8.09033C30.4689 7.35249 29.6095 6.78825 28.7328 6.44971C27.3005 5.89415 27.5088 5.91151 20.521 5.88547C17.0141 5.87679 13.8022 5.90283 13.3856 5.93756ZM27.3786 7.44797C28.7588 7.82992 30.0436 8.67193 30.8161 9.70492C31.2415 10.2692 33.2467 13.8195 33.1772 13.8803C33.1338 13.9237 30.1217 14.2362 28.5939 14.3577C25.113 14.6268 18.0557 14.7136 14.3144 14.5313C11.6842 14.4011 6.93593 13.9844 6.8144 13.8803C6.75363 13.8195 8.7762 10.2431 9.18419 9.70492C9.72238 8.97575 10.4776 8.36811 11.363 7.94276C12.1529 7.56082 12.6564 7.41325 13.5331 7.32644C13.8717 7.29172 16.9967 7.26568 20.4776 7.27436C26.2502 7.29172 26.8665 7.30908 27.3786 7.44797ZM4.59218 13.5938C4.73975 13.8455 4.86995 14.0886 4.88732 14.1233C4.90468 14.1667 4.82655 14.2882 4.7137 14.4098C4.52273 14.6094 4.47933 14.6181 3.22933 14.6181H1.94461V13.8803V13.1424H3.14252H4.33176L4.59218 13.5938ZM38.0557 13.8803V14.6181H36.771C35.521 14.6181 35.4776 14.6094 35.2866 14.4098C35.1738 14.2882 35.0956 14.1667 35.113 14.1233C35.1304 14.0886 35.2693 13.8455 35.4081 13.5938L35.6686 13.1424H36.8665H38.0557V13.8803ZM8.45502 15.4775C12.2397 15.9115 13.5331 15.9636 20.0002 15.9636C26.4759 15.9636 27.7866 15.9115 31.5887 15.4775C32.4481 15.382 33.3769 15.2778 33.6547 15.2518L34.1668 15.1997L35.3821 16.4063C36.0505 17.066 36.6495 17.7344 36.7189 17.8907C36.8144 18.1164 36.8404 19.0278 36.8404 22.8126C36.8404 25.8855 36.8057 27.5348 36.745 27.6997C36.6321 28.0035 36.3456 28.3073 36.0418 28.4723C35.6338 28.6806 29.3491 29.1754 24.4272 29.3837C21.8231 29.4966 15.9724 29.4445 13.3595 29.2882C8.61127 29.0105 4.271 28.6372 3.9585 28.4723C3.646 28.3073 3.36822 28.0035 3.25537 27.6997C3.12516 27.3612 3.12516 18.2813 3.24669 17.9428C3.29877 17.8126 3.89773 17.1355 4.57482 16.4584L5.80745 15.2084L6.37169 15.2605C6.68419 15.2865 7.62169 15.382 8.45502 15.4775ZM7.10954 30.2431C8.21197 30.3386 9.13211 30.4167 9.17551 30.4167C9.21023 30.4167 9.23627 30.8594 9.23627 31.3976C9.23627 32.7952 9.38384 32.7171 6.89252 32.7171C4.37516 32.7171 4.54877 32.8299 4.54877 31.224V30.0695H4.83523C4.9828 30.0695 6.01579 30.1476 7.10954 30.2431ZM35.4515 31.224C35.4515 32.8299 35.6252 32.7171 33.1078 32.7171C30.6165 32.7171 30.764 32.7952 30.764 31.3976C30.764 30.4428 30.7727 30.4167 30.9637 30.408C31.0679 30.408 31.9186 30.3386 32.8474 30.2518C33.7762 30.165 34.7484 30.0869 35.0002 30.0782L35.4515 30.0695V31.224Z" fill="#0960AD"/>
<path d="M5.37348 20.2606C5.13043 20.3561 4.74848 20.7814 4.64431 21.0679C4.59223 21.2068 4.54883 21.771 4.54883 22.3266C4.54883 23.5592 4.6964 23.9151 5.33008 24.2276C5.69466 24.4186 5.80751 24.4272 7.76931 24.4272C9.01063 24.4272 9.93077 24.3925 10.0783 24.3318C10.4429 24.2016 10.877 23.7415 10.9724 23.3856C11.0158 23.2206 11.0592 22.6911 11.0592 22.2137C11.0592 21.1981 10.877 20.7033 10.3735 20.3734C10.087 20.1825 10.0263 20.1738 7.81272 20.1825C6.56272 20.1825 5.46897 20.2172 5.37348 20.2606ZM9.67036 22.3005V23.0384H7.80404H5.93772V22.3005V21.5627H7.80404H9.67036V22.3005Z" fill="#0960AD"/>
<path d="M29.6267 20.3734C29.1232 20.7033 28.9409 21.1981 28.9409 22.2137C28.9409 22.6911 28.9843 23.2206 29.0277 23.3856C29.1232 23.7415 29.5572 24.2016 29.9218 24.3318C30.0694 24.3925 30.9895 24.4272 32.2308 24.4272C34.1927 24.4272 34.3055 24.4186 34.6701 24.2276C34.9565 24.0887 35.1128 23.9325 35.2604 23.646C35.4427 23.2901 35.46 23.1599 35.434 22.1529C35.4079 20.9377 35.3385 20.7641 34.7569 20.3647C34.4791 20.1825 34.4097 20.1738 32.1961 20.1738C29.9826 20.1738 29.9131 20.1825 29.6267 20.3734ZM34.0624 22.3005V23.0384H32.1961H30.3298V22.3005V21.5627H32.1961H34.0624V22.3005Z" fill="#0960AD"/>
<path d="M14.5312 21.6666C14.0451 21.8055 13.5416 22.2222 13.2812 22.6996C13.0815 23.0468 12.5347 25.5121 12.5347 26.0156C12.5347 26.5885 12.7604 27.0746 13.2031 27.4739C13.8368 28.0468 13.6284 28.0295 19.9999 28.0295C26.3715 28.0295 26.1631 28.0468 26.7968 27.4739C27.2395 27.0746 27.4652 26.5885 27.4652 26.0156C27.4652 25.5208 26.9183 23.0642 26.7274 22.6909C26.5624 22.3698 26.1111 21.9444 25.7378 21.7621C25.4513 21.6146 25.0347 21.6059 20.1302 21.5885C16.7795 21.5798 14.7222 21.6059 14.5312 21.6666ZM25.3732 23.1857C25.46 23.2812 25.6336 23.8194 25.7638 24.3576C26.0677 25.651 26.1111 25.9375 26.0416 26.2066C25.9201 26.684 25.8767 26.684 20.0173 26.684C16.3194 26.684 14.5572 26.658 14.3663 26.5885C13.8368 26.4062 13.8194 26.1545 14.1927 24.5746C14.4878 23.2899 14.5486 23.151 14.8177 23.0382C14.9218 22.9948 17.2743 22.9687 20.1128 22.9774L25.2256 22.9948L25.3732 23.1857Z" fill="#0960AD"/>
<path d="M5.00039 26.1024C4.60976 26.5104 4.85282 27.1441 5.43442 27.2482C5.59067 27.2743 6.77122 27.2916 8.04726 27.2743L10.3823 27.2482L10.5907 27.0052C10.8424 26.71 10.8598 26.4322 10.6167 26.1284L10.4431 25.9027H7.81289H5.18268L5.00039 26.1024Z" fill="#0960AD"/>
<path d="M29.3838 26.1284C29.1408 26.4322 29.1581 26.71 29.4099 27.0052L29.6182 27.2482L31.9533 27.2743C33.2293 27.2916 34.4099 27.2743 34.5661 27.2482C35.1564 27.1354 35.3994 26.4757 34.9915 26.0937C34.7918 25.9027 34.7397 25.9027 32.179 25.9027H29.5574L29.3838 26.1284Z" fill="#0960AD"/>
</svg>
