<svg width="216" height="22" viewBox="0 0 216 22" fill="none" xmlns="http://www.w3.org/2000/svg">
<path d="M162.254 0.834496C152.833 2.4276 146.272 14.0345 151.955 19.1173C154.74 21.6586 159.775 21.9242 164.2 19.8C165.497 19.1552 166.908 18.3586 167.328 18.0552C168.014 17.5242 167.976 17.4483 166.794 15.931C166.145 15.0966 165.497 14.4138 165.382 14.4138C165.306 14.4138 164.429 14.869 163.475 15.4379C162.178 16.1586 161.186 16.4621 159.813 16.4621C158.135 16.4621 157.792 16.3104 156.8 15.2104C155.808 14.1104 155.694 13.731 155.884 12.4414C156.609 7.96553 160.271 4.89312 164.238 5.42415C165.153 5.53794 166.145 5.99312 166.717 6.60001L167.671 7.54829L169.921 6.03105C171.142 5.19656 172.134 4.40001 172.134 4.24829C172.134 3.60346 170.875 2.23794 169.731 1.63105C168.205 0.872427 164.467 0.455185 162.254 0.834496Z" fill="#313131"/>
<path d="M49.0803 1.06209L46.3721 1.17589L38.8958 10.8104C34.738 16.1207 31.3813 20.5586 31.3813 20.6724C31.3813 20.7862 32.6401 20.8621 34.1659 20.8621H36.9504L38.3618 18.9655L39.7731 17.069H43.9308H48.0886L48.3556 18.9655L48.6226 20.8621H51.6741C54.3824 20.8621 54.6875 20.7862 54.4968 20.1793C54.4205 19.838 54.1917 18.4345 54.0772 17.069C53.9246 15.7035 53.7721 14.1862 53.6958 13.6552C53.6195 13.1242 53.2762 10.1276 52.9329 7.01726C52.5515 3.86899 52.17 1.25175 52.0174 1.13795C51.903 1.02416 50.5679 0.986231 49.0803 1.06209ZM47.7453 10.8862L47.7834 12.8966H45.4948C44.236 12.8966 43.2061 12.7828 43.2061 12.669C43.2061 12.5552 44.1216 11.1897 45.2277 9.67244C47.135 7.01726 47.2112 6.9414 47.4401 7.88968C47.5927 8.45864 47.7071 9.82416 47.7453 10.8862Z" fill="#313131"/>
<path d="M63.1173 1.28968C63.0029 1.47934 61.5153 5.9552 59.7988 11.2655L56.6328 20.8621H62.4308C69.9833 20.8621 72.5771 20.1793 76.239 17.2207C78.3751 15.5138 80.0534 12.8207 80.8163 9.86209C81.5029 7.16899 81.2359 5.46209 79.7864 3.6414C78.1844 1.63106 77.1163 1.32761 69.9833 1.13796C66.0926 1.02416 63.2699 1.10003 63.1173 1.28968ZM73.6452 6.33451C75.705 7.85175 75.5143 10.9242 73.2256 13.5414C71.5091 15.4759 69.4875 16.3104 66.3978 16.3104H63.8802L65.2153 12.0242C65.94 9.71037 66.7792 7.20692 67.0844 6.48623L67.6184 5.19658L70.1359 5.42416C71.7761 5.53796 72.9967 5.87933 73.6452 6.33451Z" fill="#313131"/>
<path d="M84.5545 3.79313C84.8597 7.73795 85.9277 18.1311 86.1566 19.6104L86.3473 20.8621H89.1319H91.9164L99.4308 11L106.945 1.13795H104.428C103.055 1.13795 101.834 1.10002 101.681 1.06209C101.491 1.02416 99.202 3.83106 96.5319 7.32071L91.7257 13.6552L91.4968 11.8724C91.3824 10.8483 91.0772 8.07933 90.8484 5.68968C90.6195 3.30002 90.3906 1.25175 90.3143 1.21382C90.2381 1.13795 88.8649 1.02416 87.2628 1.02416L84.3257 0.948299L84.5545 3.79313Z" fill="#313131"/>
<path d="M116.939 1.13795L114.193 1.32761L107.06 10.4311C103.169 15.438 99.8122 19.838 99.6215 20.1793C99.2782 20.7862 99.5071 20.8621 102.101 20.8621H104.924L106.335 18.9655L107.746 17.069H111.866C116.405 17.069 116.443 17.1069 116.443 19.8V20.8621H119.495C122.47 20.8621 122.546 20.8242 122.394 19.9897C122.279 19.5345 122.012 17.2586 121.745 14.9828C121.516 12.669 121.249 10.5448 121.211 10.2414C121.135 9.93795 120.906 7.73795 120.639 5.38623C120.372 3.0345 120.067 1.10002 119.914 1.02416C119.8 0.986229 118.465 1.02416 116.939 1.13795ZM115.642 10.6966L115.68 12.8966H113.392C112.133 12.8966 111.103 12.7828 111.103 12.669C111.103 12.5552 112.018 11.2276 113.125 9.71037C115.375 6.60002 115.566 6.67588 115.642 10.6966Z" fill="#313131"/>
<path d="M131.014 1.28968C130.9 1.47933 129.412 5.99313 127.658 11.2655L124.53 20.9L127.429 20.7862L130.328 20.6724L131.739 16.3104C132.54 13.9207 133.265 11.6069 133.379 11.1897C133.532 10.6207 134.295 11.7586 136.24 15.5517L138.872 20.6724H141.275H143.64L146.844 11.1897C148.561 5.99313 150.01 1.5552 150.01 1.32761C150.01 1.10002 148.942 0.986231 147.226 1.06209L144.403 1.17589L142.953 5.80347C142.152 8.34485 141.351 10.5828 141.199 10.7724C141.046 10.9242 139.749 8.83795 138.3 6.06899L135.706 1.02416L133.494 0.986231C132.235 0.948299 131.167 1.10002 131.014 1.28968Z" fill="#313131"/>
<path d="M176.406 1.28968C176.291 1.47933 174.804 5.99313 173.049 11.2655L169.921 20.8621L177.97 20.7862L185.98 20.6724L186.438 19.3448C186.705 18.6242 187.01 17.638 187.163 17.1448L187.43 16.3104H182.242H177.054L177.321 15.438C178.161 12.7449 177.779 12.9345 182.662 12.8207L187.124 12.7069L187.811 10.6966L188.498 8.72416H184.111C179.381 8.72416 179.381 8.72416 180.182 6.48623L180.602 5.31037H185.675H190.748L191.358 3.52761C191.702 2.5414 191.969 1.59313 191.969 1.36554C191.969 0.834505 176.749 0.796576 176.406 1.28968Z" fill="#313131"/>
<path d="M196.165 1.32761C196.012 1.51726 194.563 5.76554 192.961 10.7345C191.359 15.6655 189.947 19.9897 189.833 20.2931C189.49 21.1276 200.017 21.0897 203.222 20.2931C209.401 18.7 213.635 13.9207 214.016 8.15519C214.131 5.8414 214.055 5.3483 213.254 4.21037C211.537 1.66899 210.507 1.36554 203.107 1.13795C198.911 1.02416 196.356 1.10002 196.165 1.32761ZM206.845 6.37244C209.515 8.34485 207.799 13.4276 203.794 15.438C201.848 16.4242 196.699 16.7276 197.042 15.8173C197.118 15.5897 197.843 13.3138 198.644 10.8104C199.407 8.30692 200.246 6.03106 200.475 5.72761C201.085 5.00692 205.587 5.46209 206.845 6.37244Z" fill="#313131"/>
<path d="M31.1997 1.38743C31.3891 1.14303 31.681 1 31.9902 1H39.4598C40.2912 1 40.7595 1.95546 40.2503 2.61257L26.3003 20.6126C26.1109 20.857 25.819 21 25.5098 21H18.0402C17.2088 21 16.7405 20.0445 17.2497 19.3874L31.1997 1.38743Z" fill="#0960AD"/>
<path d="M23.1997 1.38743C23.3891 1.14303 23.681 1 23.9902 1H31.4598C32.2912 1 32.7595 1.95546 32.2503 2.61257L18.3003 20.6126C18.1109 20.857 17.819 21 17.5098 21H10.0402C9.20881 21 8.74048 20.0445 9.24974 19.3874L23.1997 1.38743Z" fill="#013976"/>
<path d="M15.1997 1.38743C15.3891 1.14303 15.681 1 15.9902 1H23.4598C24.2912 1 24.7595 1.95546 24.2503 2.61257L10.3003 20.6126C10.1109 20.857 9.81904 21 9.50984 21H2.04016C1.20881 21 0.740484 20.0445 1.24974 19.3874L15.1997 1.38743Z" fill="#E6230F"/>
</svg>
