<svg width="216" height="22" viewBox="0 0 216 22" fill="none" xmlns="http://www.w3.org/2000/svg">
<path d="M162.254 0.834312C152.833 2.42742 146.272 14.0343 151.955 19.1171C154.74 21.6585 159.775 21.924 164.2 19.7998C165.497 19.155 166.908 18.3585 167.328 18.055C168.014 17.524 167.976 17.4481 166.794 15.9309C166.145 15.0964 165.497 14.4136 165.382 14.4136C165.306 14.4136 164.429 14.8688 163.475 15.4378C162.178 16.1585 161.186 16.4619 159.813 16.4619C158.135 16.4619 157.792 16.3102 156.8 15.2102C155.808 14.1102 155.694 13.7309 155.884 12.4412C156.609 7.96535 160.271 4.89293 164.238 5.42397C165.153 5.53776 166.145 5.99293 166.717 6.59983L167.671 7.54811L169.921 6.03086C171.142 5.19638 172.134 4.39983 172.134 4.24811C172.134 3.60328 170.875 2.23776 169.731 1.63087C168.205 0.872244 164.467 0.455002 162.254 0.834312Z" fill="white"/>
<path d="M49.0803 1.06182L46.3721 1.17561L38.8958 10.8101C34.738 16.1204 31.3813 20.5584 31.3813 20.6722C31.3813 20.786 32.6401 20.8618 34.1659 20.8618H36.9504L38.3618 18.9653L39.7731 17.0687H43.9308H48.0886L48.3556 18.9653L48.6226 20.8618H51.6741C54.3824 20.8618 54.6875 20.786 54.4968 20.1791C54.4205 19.8377 54.1917 18.4342 54.0772 17.0687C53.9246 15.7032 53.7721 14.186 53.6958 13.6549C53.6195 13.1239 53.2762 10.1273 52.9329 7.01699C52.5515 3.86871 52.17 1.25147 52.0174 1.13768C51.903 1.02389 50.5679 0.985956 49.0803 1.06182ZM47.7453 10.886L47.7834 12.8963H45.4948C44.236 12.8963 43.2061 12.7825 43.2061 12.6687C43.2061 12.5549 44.1216 11.1894 45.2277 9.67216C47.135 7.01699 47.2112 6.94113 47.4401 7.8894C47.5927 8.45837 47.7071 9.82389 47.7453 10.886Z" fill="white"/>
<path d="M63.1173 1.28941C63.0029 1.47906 61.5153 5.95492 59.7988 11.2653L56.6328 20.8618H62.4308C69.9833 20.8618 72.5771 20.1791 76.239 17.2204C78.3751 15.5135 80.0534 12.8204 80.8163 9.86182C81.5029 7.16872 81.2359 5.46182 79.7864 3.64113C78.1844 1.63078 77.1163 1.32734 69.9833 1.13768C66.0926 1.02389 63.2699 1.09975 63.1173 1.28941ZM73.6452 6.33423C75.705 7.85147 75.5143 10.9239 73.2256 13.5411C71.5091 15.4756 69.4875 16.3101 66.3978 16.3101H63.8802L65.2153 12.0239C65.94 9.71009 66.7792 7.20665 67.0844 6.48596L67.6184 5.1963L70.1359 5.42389C71.7761 5.53768 72.9967 5.87906 73.6452 6.33423Z" fill="white"/>
<path d="M84.5545 3.79285C84.8597 7.73768 85.9277 18.1308 86.1566 19.6101L86.3473 20.8618H89.1319H91.9164L99.4308 10.9997L106.945 1.13768H104.428C103.055 1.13768 101.834 1.09975 101.681 1.06182C101.491 1.02389 99.202 3.83078 96.5319 7.32044L91.7257 13.6549L91.4968 11.8722C91.3824 10.848 91.0772 8.07906 90.8484 5.6894C90.6195 3.29975 90.3906 1.25147 90.3143 1.21354C90.2381 1.13768 88.8649 1.02389 87.2628 1.02389L84.3257 0.948025L84.5545 3.79285Z" fill="white"/>
<path d="M116.939 1.13768L114.193 1.32733L107.06 10.4308C103.169 15.4377 99.8122 19.8377 99.6215 20.1791C99.2782 20.786 99.5071 20.8618 102.101 20.8618H104.924L106.335 18.9653L107.746 17.0687H111.866C116.405 17.0687 116.443 17.1066 116.443 19.7997V20.8618H119.495C122.47 20.8618 122.546 20.8239 122.394 19.9894C122.279 19.5342 122.012 17.2584 121.745 14.9825C121.516 12.6687 121.249 10.5446 121.211 10.2411C121.135 9.93768 120.906 7.73768 120.639 5.38595C120.372 3.03423 120.067 1.09975 119.914 1.02388C119.8 0.985954 118.465 1.02388 116.939 1.13768ZM115.642 10.6963L115.68 12.8963H113.392C112.133 12.8963 111.103 12.7825 111.103 12.6687C111.103 12.5549 112.018 11.2273 113.125 9.71009C115.375 6.59975 115.566 6.67561 115.642 10.6963Z" fill="white"/>
<path d="M131.014 1.28956C130.9 1.47921 129.412 5.993 127.658 11.2654L124.53 20.8999L127.429 20.7861L130.328 20.6723L131.739 16.3102C132.54 13.9206 133.265 11.6068 133.379 11.1896C133.532 10.6206 134.295 11.7585 136.24 15.5516L138.872 20.6723H141.275H143.64L146.844 11.1896C148.561 5.993 150.01 1.55507 150.01 1.32749C150.01 1.0999 148.942 0.986109 147.226 1.06197L144.403 1.17576L142.953 5.80335C142.152 8.34473 141.351 10.5827 141.199 10.7723C141.046 10.924 139.749 8.83783 138.3 6.06887L135.706 1.02404L133.494 0.986109C132.235 0.948177 131.167 1.0999 131.014 1.28956Z" fill="white"/>
<path d="M176.406 1.2894C176.291 1.47906 174.804 5.99285 173.049 11.2653L169.921 20.8618L177.97 20.786L185.98 20.6722L186.438 19.3446C186.705 18.6239 187.01 17.6377 187.163 17.1446L187.43 16.3101H182.242H177.054L177.321 15.4377C178.161 12.7446 177.779 12.9342 182.662 12.8204L187.124 12.7066L187.811 10.6963L188.498 8.72389H184.111C179.381 8.72389 179.381 8.72389 180.182 6.48596L180.602 5.31009H185.675H190.748L191.358 3.52733C191.702 2.54113 191.969 1.59285 191.969 1.36526C191.969 0.83423 176.749 0.796301 176.406 1.2894Z" fill="white"/>
<path d="M196.165 1.32755C196.012 1.5172 194.563 5.76548 192.961 10.7344C191.359 15.6655 189.947 19.9896 189.833 20.2931C189.49 21.1275 200.017 21.0896 203.222 20.2931C209.401 18.7 213.635 13.9207 214.016 8.15513C214.131 5.84134 214.055 5.34824 213.254 4.21031C211.537 1.66893 210.507 1.36548 203.107 1.13789C198.911 1.0241 196.356 1.09996 196.165 1.32755ZM206.845 6.37237C209.515 8.34479 207.799 13.4275 203.794 15.4379C201.848 16.4241 196.699 16.7275 197.042 15.8172C197.118 15.5896 197.843 13.3138 198.644 10.8103C199.407 8.30686 200.246 6.031 200.475 5.72755C201.085 5.00686 205.587 5.46203 206.845 6.37237Z" fill="white"/>
<path d="M31.1997 1.38743C31.3891 1.14303 31.681 1 31.9902 1H39.4598C40.2912 1 40.7595 1.95546 40.2503 2.61257L26.3003 20.6126C26.1109 20.857 25.819 21 25.5098 21H18.0402C17.2088 21 16.7405 20.0445 17.2497 19.3874L31.1997 1.38743Z" fill="#0960AD"/>
<path d="M23.1997 1.38743C23.3891 1.14303 23.681 1 23.9902 1H31.4598C32.2912 1 32.7595 1.95546 32.2503 2.61257L18.3003 20.6126C18.1109 20.857 17.819 21 17.5098 21H10.0402C9.20881 21 8.74048 20.0445 9.24974 19.3874L23.1997 1.38743Z" fill="#013976"/>
<path d="M15.1997 1.38743C15.3891 1.14303 15.681 1 15.9902 1H23.4598C24.2912 1 24.7595 1.95546 24.2503 2.61257L10.3003 20.6126C10.1109 20.857 9.81904 21 9.50984 21H2.04016C1.20881 21 0.740484 20.0445 1.24974 19.3874L15.1997 1.38743Z" fill="#E6230F"/>
</svg>
