<svg width="22" height="22" viewBox="0 0 22 22" fill="none" xmlns="http://www.w3.org/2000/svg">
<g clip-path="url(#clip0_17_882)">
<rect width="22" height="22" rx="11" fill="#111111"/>
<path d="M16.4824 8.40182C16.103 8.40183 15.7273 8.32709 15.3767 8.18189C15.0261 8.03668 14.7076 7.82385 14.4393 7.55554C14.171 7.28723 13.9581 6.9687 13.8129 6.61814C13.6677 6.26757 13.593 5.89184 13.593 5.51239H11.5286V13.596C11.5282 13.9645 11.4119 14.3236 11.196 14.6223C10.9801 14.921 10.6757 15.1442 10.3259 15.2602C9.97612 15.3763 9.59867 15.3793 9.24706 15.2688C8.89546 15.1584 8.58754 14.9401 8.36694 14.6448C8.14635 14.3496 8.02427 13.9924 8.018 13.6239C8.01174 13.2554 8.12162 12.8943 8.33205 12.5917C8.54249 12.2892 8.84282 12.0605 9.19047 11.9382C9.53811 11.8158 9.91545 11.806 10.269 11.9101V9.90344C9.51765 9.80212 8.75328 9.93244 8.07795 10.277C7.40262 10.6215 6.84847 11.1639 6.4895 11.8317C6.13054 12.4994 5.98384 13.2608 6.06899 14.0142C6.15414 14.7675 6.46709 15.477 6.96606 16.0478C7.46503 16.6186 8.12626 17.0236 8.86145 17.2087C9.59665 17.3938 10.3708 17.3502 11.0806 17.0837C11.7904 16.8173 12.402 16.3406 12.8337 15.7174C13.2654 15.0942 13.4968 14.3541 13.4968 13.596L13.5567 9.50993C14.4049 10.1326 15.43 10.4676 16.4822 10.4661L16.4824 8.40182Z" fill="url(#paint0_linear_17_882)"/>
<path d="M15.9369 7.83948C15.1706 7.83946 14.4357 7.53502 13.8938 6.99314C13.352 6.45126 13.0476 5.71633 13.0476 4.95001H10.9832V13.0336C10.9828 13.4021 10.8665 13.7612 10.6506 14.0599C10.4348 14.3586 10.1303 14.5818 9.78055 14.6979C9.43074 14.8139 9.05329 14.8169 8.70168 14.7065C8.35007 14.596 8.04215 14.3777 7.82155 14.0825C7.60095 13.7873 7.47886 13.4301 7.4726 13.0616C7.46633 12.6931 7.5762 12.332 7.78664 12.0294C7.99708 11.7268 8.2974 11.4982 8.64506 11.3758C8.99271 11.2535 9.37004 11.2437 9.72359 11.3478V9.34105C8.97224 9.23974 8.20787 9.37006 7.53254 9.7146C6.85721 10.0591 6.30306 10.6015 5.9441 11.2693C5.58513 11.9371 5.43843 12.6985 5.52358 13.4518C5.60873 14.2051 5.92169 14.9146 6.42065 15.4854C6.91962 16.0562 7.58085 16.4612 8.31605 16.6463C9.05125 16.8314 9.82542 16.7878 10.5352 16.5213C11.245 16.2549 11.8566 15.7782 12.2883 15.155C12.72 14.5318 12.9514 13.7917 12.9514 13.0336L13.0116 8.94759C13.8598 9.57024 14.8849 9.90527 15.9371 9.90369L15.9369 7.83948Z" fill="url(#paint1_linear_17_882)"/>
<path d="M15.9371 8.35015C15.2229 8.21272 14.5867 7.81097 14.1557 7.22511C13.6109 6.79873 13.2372 6.19099 13.1026 5.51239H11.5292V13.596C11.5291 13.9796 11.4036 14.3527 11.1716 14.6583C10.9397 14.9639 10.6141 15.1852 10.2446 15.2885C9.87514 15.3917 9.48201 15.3712 9.12526 15.2301C8.76851 15.089 8.46773 14.835 8.26883 14.5069C7.91514 14.2767 7.65609 13.9269 7.53902 13.5215C7.42195 13.116 7.45467 12.682 7.63121 12.2987C7.80776 11.9153 8.11632 11.6083 8.50054 11.4338C8.88475 11.2592 9.31895 11.2287 9.72381 11.3478V9.87109C9.02939 9.88003 8.35129 10.0829 7.76606 10.4568C7.18082 10.8307 6.71175 11.3608 6.4118 11.9871C6.11184 12.6135 5.99294 13.3112 6.06851 14.0016C6.14409 14.6919 6.41112 15.3474 6.83949 15.894C7.38331 16.3478 8.04523 16.6372 8.74763 16.7282C9.45004 16.8192 10.1638 16.708 10.8053 16.4078C11.4468 16.1076 11.9895 15.6307 12.3696 15.0331C12.7497 14.4355 12.9516 13.7419 12.9516 13.0336L13.0118 8.94761C13.86 9.57026 14.8851 9.90529 15.9373 9.90371L15.9371 8.35015Z" fill="url(#paint2_linear_17_882)"/>
</g>
<defs>
<linearGradient id="paint0_linear_17_882" x1="6.87274" y1="15.9658" x2="15.4596" y2="7.37897" gradientUnits="userSpaceOnUse">
<stop stop-color="#B5053C"/>
<stop offset="0.233" stop-color="#C90441"/>
<stop offset="0.737" stop-color="#F0014B"/>
<stop offset="1" stop-color="#FF004F"/>
</linearGradient>
<linearGradient id="paint1_linear_17_882" x1="6.1994" y1="15.5313" x2="15.2445" y2="6.48615" gradientUnits="userSpaceOnUse">
<stop stop-color="#00B2C9"/>
<stop offset="0.283" stop-color="#00C8D4"/>
<stop offset="0.741" stop-color="#00E6E4"/>
<stop offset="1" stop-color="#00F1EA"/>
</linearGradient>
<linearGradient id="paint2_linear_17_882" x1="1.1321" y1="21.1529" x2="21.1536" y2="1.13142" gradientUnits="userSpaceOnUse">
<stop stop-color="#DDE3E4"/>
<stop offset="1" stop-color="#FCF7F7"/>
</linearGradient>
<clipPath id="clip0_17_882">
<rect width="22" height="22" fill="white"/>
</clipPath>
</defs>
</svg>
