<svg width="22" height="22" viewBox="0 0 22 22" fill="none" xmlns="http://www.w3.org/2000/svg">
<rect width="22" height="22" rx="11" fill="#F40000"/>
<path fill-rule="evenodd" clip-rule="evenodd" d="M6.19456 14.8812C5.97882 14.8174 5.78197 14.7039 5.62062 14.5502C5.45927 14.3965 5.33817 14.2072 5.26752 13.9982C4.8638 12.9181 4.74418 8.40781 5.52171 7.51744C5.78048 7.2278 6.14584 7.04947 6.53847 7.02117C8.62433 6.80222 15.0688 6.83142 15.809 7.09415C16.0171 7.16008 16.2073 7.27114 16.3653 7.41902C16.5232 7.56689 16.6449 7.74775 16.721 7.94803C17.1621 9.06464 17.1771 13.1224 16.6612 14.1952C16.5244 14.4745 16.2953 14.7007 16.0108 14.8375C15.2333 15.217 7.22628 15.2097 6.19456 14.8812V14.8812ZM9.50652 12.7648L13.2446 10.8673L9.50652 8.95517V12.7648Z" fill="white"/>
</svg>
