<svg width="138" height="80" viewBox="0 0 138 80" fill="none" xmlns="http://www.w3.org/2000/svg">
<g clip-path="url(#clip0_4030_309)">
<g opacity="0.4">
<mask id="path-1-outside-1_4030_309" maskUnits="userSpaceOnUse" x="26" y="10" width="103" height="62" fill="black">
<rect fill="white" x="26" y="10" width="103" height="62"/>
<path d="M52.3213 70.12C47.5213 70.12 43.2546 68.9733 39.5213 66.68C35.8413 64.3867 32.9346 61.08 30.8013 56.76C28.6679 52.44 27.6013 47.1867 27.6013 41C27.6013 34.8133 28.6679 29.56 30.8013 25.24C32.9346 20.92 35.8413 17.6133 39.5213 15.32C43.2546 13.0267 47.5213 11.88 52.3213 11.88C57.0679 11.88 61.2813 13.0267 64.9613 15.32C68.6946 17.6133 71.6279 20.92 73.7613 25.24C75.8946 29.56 76.9613 34.8133 76.9613 41C76.9613 47.1867 75.8946 52.44 73.7613 56.76C71.6279 61.08 68.6946 64.3867 64.9613 66.68C61.2813 68.9733 57.0679 70.12 52.3213 70.12ZM52.3213 57.16C54.0279 57.16 55.5213 56.6267 56.8013 55.56C58.1346 54.4933 59.1746 52.7867 59.9213 50.44C60.6679 48.04 61.0413 44.8933 61.0413 41C61.0413 37.0533 60.6679 33.9067 59.9213 31.56C59.1746 29.2133 58.1346 27.5067 56.8013 26.44C55.5213 25.3733 54.0279 24.84 52.3213 24.84C50.6146 24.84 49.0946 25.3733 47.7613 26.44C46.4813 27.5067 45.4413 29.2133 44.6413 31.56C43.8946 33.9067 43.5213 37.0533 43.5213 41C43.5213 44.8933 43.8946 48.04 44.6413 50.44C45.4413 52.7867 46.4813 54.4933 47.7613 55.56C49.0946 56.6267 50.6146 57.16 52.3213 57.16ZM103.567 70.12C99.7269 70.12 95.8602 69.64 91.9669 68.68C88.0735 67.72 84.7135 66.36 81.8869 64.6L87.5669 52.68C89.8602 54.1733 92.3402 55.32 95.0069 56.12C97.7269 56.92 100.42 57.32 103.087 57.32C105.754 57.32 107.914 56.8133 109.567 55.8C111.22 54.7333 112.047 53.2667 112.047 51.4C112.047 50.28 111.727 49.2933 111.087 48.44C110.447 47.5333 109.354 46.8667 107.807 46.44C106.26 45.96 104.047 45.72 101.167 45.72H85.9669L88.7669 13H124.447V25.24H94.3669L102.447 18.28L100.607 40.36L92.5269 33.4H104.927C110.474 33.4 114.927 34.2 118.287 35.8C121.647 37.3467 124.1 39.4533 125.647 42.12C127.194 44.7333 127.967 47.6933 127.967 51C127.967 54.3067 127.087 57.4267 125.327 60.36C123.62 63.24 120.98 65.5867 117.407 67.4C113.834 69.2133 109.22 70.12 103.567 70.12Z"/>
</mask>
<path d="M39.5213 66.68L39.2568 67.1044L39.2595 67.106L39.5213 66.68ZM30.8013 56.76L30.3529 56.9814L30.3529 56.9814L30.8013 56.76ZM30.8013 25.24L30.3529 25.0186L30.3529 25.0186L30.8013 25.24ZM39.5213 15.32L39.2595 14.894L39.2568 14.8957L39.5213 15.32ZM64.9613 15.32L64.6968 15.7444L64.6995 15.746L64.9613 15.32ZM73.7613 25.24L73.3129 25.4614L73.3129 25.4614L73.7613 25.24ZM73.7613 56.76L73.3129 56.5386L73.3129 56.5386L73.7613 56.76ZM64.9613 66.68L64.6995 66.254L64.6968 66.2557L64.9613 66.68ZM56.8013 55.56L56.4888 55.1695L56.4812 55.1759L56.8013 55.56ZM59.9213 50.44L60.3977 50.5916L60.3987 50.5885L59.9213 50.44ZM59.9213 31.56L59.4448 31.7116L59.9213 31.56ZM56.8013 26.44L56.4811 26.8242L56.4889 26.8304L56.8013 26.44ZM47.7613 26.44L47.4488 26.0495L47.4412 26.0559L47.7613 26.44ZM44.6413 31.56L44.1679 31.3986L44.1648 31.4084L44.6413 31.56ZM44.6413 50.44L44.1636 50.5886L44.168 50.6013L44.6413 50.44ZM47.7613 55.56L47.4411 55.9442L47.4489 55.9504L47.7613 55.56ZM52.3213 69.62C51.7639 69.62 51.2143 69.6043 50.6723 69.5729L50.6145 70.5712C51.1762 70.6038 51.7451 70.62 52.3213 70.62V69.62ZM47.4057 69.1769C46.3127 68.9711 45.2542 68.6937 44.2297 68.345L43.9074 69.2916C44.9779 69.656 46.0823 69.9453 47.2206 70.1596L47.4057 69.1769ZM41.2121 67.0608C40.7272 66.8103 40.2509 66.5414 39.783 66.254L39.2595 67.106C39.7483 67.4063 40.2462 67.6874 40.7531 67.9493L41.2121 67.0608ZM39.7857 66.2557C39.3219 65.9666 38.8707 65.6611 38.4321 65.3392L37.8404 66.1454C38.2995 66.4823 38.7716 66.802 39.2568 67.1043L39.7857 66.2557ZM35.9529 63.2117C35.1914 62.4515 34.4775 61.6273 33.8112 60.7387L33.0112 61.3386C33.7051 62.2641 34.4502 63.1245 35.2464 63.9194L35.9529 63.2117ZM32.0189 57.9919C31.7522 57.5215 31.4957 57.0371 31.2496 56.5386L30.3529 56.9814C30.6073 57.4965 30.8727 57.9978 31.149 58.4852L32.0189 57.9919ZM31.2496 56.5386C30.9595 55.9513 30.6894 55.346 30.4393 54.7226L29.5112 55.0951C29.7707 55.7417 30.0513 56.3705 30.3529 56.9814L31.2496 56.5386ZM29.2189 50.9294C28.9064 49.6795 28.6591 48.3704 28.4775 47.0017L27.4861 47.1332C27.6724 48.5368 27.9265 49.8831 28.2488 51.172L29.2189 50.9294ZM28.1404 43.0082C28.1143 42.3506 28.1013 41.6812 28.1013 41H27.1013C27.1013 41.6939 27.1145 42.3765 27.1412 43.0478L28.1404 43.0082ZM28.1013 41C28.1013 40.3188 28.1143 39.6494 28.1404 38.9918L27.1412 38.9522C27.1145 39.6235 27.1013 40.3061 27.1013 41H28.1013ZM28.4775 34.9983C28.6591 33.6296 28.9064 32.3205 29.2189 31.0706L28.2488 30.828C27.9265 32.1169 27.6724 33.4632 27.4861 34.8668L28.4775 34.9983ZM30.4393 27.2774C30.6894 26.654 30.9595 26.0487 31.2496 25.4614L30.3529 25.0186C30.0513 25.6295 29.7707 26.2583 29.5112 26.9049L30.4393 27.2774ZM31.2496 25.4614C31.4957 24.9629 31.7522 24.4785 32.0189 24.0081L31.1491 23.5148C30.8727 24.0022 30.6073 24.5035 30.3529 25.0186L31.2496 25.4614ZM33.8112 21.2613C34.4775 20.3727 35.1914 19.5485 35.9529 18.7883L35.2464 18.0806C34.4502 18.8755 33.7051 19.7359 33.0112 20.6614L33.8112 21.2613ZM38.4321 16.6608C38.8707 16.3389 39.3219 16.0334 39.7857 15.7443L39.2568 14.8957C38.7716 15.198 38.2995 15.5177 37.8404 15.8546L38.4321 16.6608ZM39.783 15.746C40.2509 15.4586 40.7272 15.1897 41.2121 14.9392L40.7531 14.0507C40.2462 14.3126 39.7483 14.5937 39.2595 14.894L39.783 15.746ZM44.2297 13.655C45.2542 13.3063 46.3127 13.0289 47.4057 12.8231L47.2206 11.8404C46.0823 12.0547 44.9779 12.344 43.9074 12.7084L44.2297 13.655ZM50.6723 12.4271C51.2143 12.3957 51.7639 12.38 52.3213 12.38V11.38C51.7451 11.38 51.1762 11.3962 50.6145 11.4288L50.6723 12.4271ZM52.3213 12.38C52.8721 12.38 53.4153 12.3957 53.9508 12.4271L54.0093 11.4288C53.4538 11.3962 52.8911 11.38 52.3213 11.38V12.38ZM57.1783 12.823C58.2578 13.0288 59.3029 13.3061 60.3139 13.6549L60.64 12.7096C59.5825 12.3448 58.491 12.0552 57.3656 11.8407L57.1783 12.823ZM63.2895 14.9384C63.767 15.1886 64.2361 15.4573 64.6968 15.7443L65.2257 14.8957C64.744 14.5955 64.2533 14.3145 63.7536 14.0526L63.2895 14.9384ZM64.6995 15.746C65.1678 16.0337 65.623 16.3375 66.0653 16.6576L66.6516 15.8475C66.1887 15.5125 65.7125 15.1947 65.223 14.894L64.6995 15.746ZM68.5691 18.7781C69.3396 19.538 70.0607 20.3619 70.7324 21.2501L71.53 20.6469C70.83 19.7212 70.0771 18.8609 69.2713 18.0661L68.5691 18.7781ZM72.5395 24.0028C72.808 24.4749 73.0659 24.961 73.3129 25.4614L74.2096 25.0186C73.9541 24.5012 73.6871 23.9978 73.4087 23.5084L72.5395 24.0028ZM73.3129 25.4614C73.603 26.0487 73.8731 26.654 74.1232 27.2774L75.0513 26.9049C74.7918 26.2583 74.5112 25.6295 74.2096 25.0186L73.3129 25.4614ZM75.3436 31.0706C75.6561 32.3205 75.9034 33.6296 76.085 34.9983L77.0764 34.8668C76.8901 33.4632 76.636 32.1169 76.3137 30.828L75.3436 31.0706ZM76.4221 38.9918C76.4482 39.6494 76.4613 40.3188 76.4613 41H77.4613C77.4613 40.3061 77.448 39.6235 77.4213 38.9522L76.4221 38.9918ZM76.4613 41C76.4613 41.6812 76.4482 42.3506 76.4221 43.0082L77.4213 43.0478C77.448 42.3765 77.4613 41.6939 77.4613 41H76.4613ZM76.085 47.0017C75.9034 48.3704 75.6561 49.6795 75.3436 50.9294L76.3137 51.172C76.636 49.8831 76.8901 48.5368 77.0764 47.1332L76.085 47.0017ZM74.1232 54.7226C73.8731 55.346 73.603 55.9513 73.3129 56.5386L74.2096 56.9814C74.5112 56.3705 74.7918 55.7417 75.0513 55.0951L74.1232 54.7226ZM73.3129 56.5386C73.0659 57.0389 72.808 57.5251 72.5395 57.9972L73.4087 58.4916C73.6871 58.0022 73.9541 57.4988 74.2096 56.9814L73.3129 56.5386ZM70.7324 60.7499C70.0607 61.6381 69.3396 62.462 68.5691 63.2219L69.2713 63.9339C70.0771 63.1391 70.83 62.2787 71.53 61.3531L70.7324 60.7499ZM66.0653 65.3424C65.623 65.6625 65.1678 65.9663 64.6995 66.254L65.223 67.106C65.7125 66.8053 66.1887 66.4875 66.6516 66.1525L66.0653 65.3424ZM64.6968 66.2557C64.2361 66.5427 63.767 66.8114 63.2895 67.0616L63.7536 67.9474C64.2533 67.6855 64.744 67.4045 65.2257 67.1043L64.6968 66.2557ZM60.3139 68.3451C59.3029 68.6939 58.2578 68.9712 57.1783 69.177L57.3656 70.1593C58.491 69.9448 59.5825 69.6552 60.64 69.2904L60.3139 68.3451ZM53.9508 69.5729C53.4153 69.6043 52.8721 69.62 52.3213 69.62V70.62C52.8911 70.62 53.4538 70.6037 54.0093 70.5712L53.9508 69.5729ZM52.3213 56.66C51.9266 56.66 51.5443 56.6296 51.1742 56.5694L51.0136 57.5564C51.4391 57.6256 51.8751 57.66 52.3213 57.66V56.66ZM49.0259 55.8155C48.6993 55.6313 48.3819 55.4162 48.0736 55.1696L47.4489 55.9504C47.7973 56.2292 48.1592 56.4747 48.5346 56.6865L49.0259 55.8155ZM48.0813 55.1759C47.7391 54.8907 47.4119 54.5529 47.1003 54.1603L46.317 54.7819C46.6669 55.2228 47.0413 55.6109 47.4412 55.9441L48.0813 55.1759ZM45.645 51.6561C45.4582 51.2271 45.2813 50.768 45.1145 50.2787L44.168 50.6013C44.3428 51.1141 44.5294 51.5989 44.7281 52.0552L45.645 51.6561ZM45.1187 50.2915C44.9053 49.6057 44.7222 48.8532 44.5701 48.033L43.5869 48.2153C43.7451 49.0687 43.9372 49.8601 44.1638 50.5885L45.1187 50.2915ZM44.0715 43.3625C44.038 42.6094 44.0213 41.8219 44.0213 41H43.0213C43.0213 41.8355 43.0383 42.6378 43.0725 43.4069L44.0715 43.3625ZM44.0213 41C44.0213 40.1761 44.0377 39.3884 44.0704 38.6367L43.0713 38.5932C43.0379 39.3606 43.0213 40.163 43.0213 41H44.0213ZM44.5642 33.9656C44.7173 33.1401 44.9021 32.3891 45.1177 31.7116L44.1648 31.4084C43.9347 32.1314 43.7405 32.9234 43.5809 33.7833L44.5642 33.9656ZM45.1145 31.7213C45.2813 31.232 45.4582 30.7729 45.645 30.3439L44.7281 29.9448C44.5294 30.4011 44.3428 30.8859 44.168 31.3987L45.1145 31.7213ZM47.1003 27.8397C47.4119 27.4471 47.7391 27.1093 48.0813 26.8241L47.4412 26.0559C47.0413 26.3891 46.6669 26.7772 46.317 27.2181L47.1003 27.8397ZM48.0736 26.8304C48.3819 26.5838 48.6993 26.3687 49.0259 26.1845L48.5346 25.3135C48.1592 25.5253 47.7973 25.7708 47.4489 26.0496L48.0736 26.8304ZM51.1742 25.4306C51.5443 25.3704 51.9266 25.34 52.3213 25.34V24.34C51.8751 24.34 51.4391 24.3744 51.0136 24.4436L51.1742 25.4306ZM52.3213 25.34C52.7117 25.34 53.0882 25.3697 53.451 25.4286L53.6111 24.4415C53.1927 24.3736 52.7626 24.34 52.3213 24.34V25.34ZM55.5573 26.1765C55.8761 26.3609 56.1841 26.5765 56.4812 26.8241L57.1213 26.0559C56.7824 25.7734 56.4279 25.5248 56.058 25.3109L55.5573 26.1765ZM56.4889 26.8304C56.8406 27.1118 57.1732 27.4439 57.4861 27.8287L58.262 27.1977C57.9077 26.7622 57.5252 26.3788 57.1136 26.0496L56.4889 26.8304ZM58.9373 30.3271C59.1189 30.7579 59.2881 31.2193 59.4448 31.7116L60.3977 31.4084C60.2327 30.8899 60.0532 30.3999 59.8587 29.9386L58.9373 30.3271ZM59.4448 31.7116C59.6604 32.3891 59.8452 33.1401 59.9983 33.9656L60.9816 33.7833C60.8221 32.9234 60.6278 32.1314 60.3977 31.4084L59.4448 31.7116ZM60.4921 38.6367C60.5249 39.3884 60.5413 40.1761 60.5413 41H61.5413C61.5413 40.163 61.5246 39.3606 61.4912 38.5932L60.4921 38.6367ZM60.5413 41C60.5413 41.8219 60.5245 42.6094 60.491 43.3625L61.49 43.4069C61.5242 42.6378 61.5413 41.8355 61.5413 41H60.5413ZM59.9924 48.033C59.8403 48.8532 59.6572 49.6057 59.4438 50.2915L60.3987 50.5885C60.6253 49.8601 60.8174 49.0687 60.9756 48.2153L59.9924 48.033ZM59.4448 50.2884C59.2881 50.7807 59.1189 51.2421 58.9373 51.6729L59.8587 52.0614C60.0532 51.6001 60.2327 51.1101 60.3977 50.5916L59.4448 50.2884ZM57.4861 54.1713C57.1732 54.5561 56.8406 54.8882 56.4889 55.1696L57.1136 55.9504C57.5252 55.6212 57.9077 55.2378 58.262 54.8023L57.4861 54.1713ZM56.4812 55.1759C56.1841 55.4235 55.8761 55.6391 55.5573 55.8235L56.058 56.6891C56.4279 56.4752 56.7824 56.2266 57.1213 55.9441L56.4812 55.1759ZM53.451 56.5714C53.0882 56.6303 52.7117 56.66 52.3213 56.66V57.66C52.7626 57.66 53.1927 57.6264 53.6111 57.5585L53.451 56.5714ZM39.5213 66.68L38.9923 67.5287L38.9978 67.5321L39.5213 66.68ZM30.8013 56.76L29.9046 57.2028L29.9046 57.2028L30.8013 56.76ZM30.8013 25.24L29.9046 24.7972L29.9046 24.7972L30.8013 25.24ZM39.5213 15.32L38.9978 14.4679L38.9924 14.4713L39.5213 15.32ZM64.9613 15.32L64.4324 16.1687L64.4378 16.1721L64.9613 15.32ZM73.7613 25.24L72.8646 25.6828L72.8646 25.6828L73.7613 25.24ZM73.7613 56.76L72.8646 56.3172L72.8646 56.3172L73.7613 56.76ZM64.9613 66.68L64.4378 65.8279L64.4324 65.8313L64.9613 66.68ZM56.8013 55.56L56.1766 54.7791L56.1687 54.7854L56.1611 54.7918L56.8013 55.56ZM59.9213 50.44L60.8742 50.7432L60.8761 50.7371L59.9213 50.44ZM59.9213 31.56L58.9683 31.8632L59.9213 31.56ZM56.8013 26.44L56.1611 27.2082L56.1687 27.2146L56.1766 27.2209L56.8013 26.44ZM47.7613 26.44L47.1366 25.6591L47.1287 25.6654L47.1211 25.6718L47.7613 26.44ZM44.6413 31.56L43.6947 31.2373L43.6914 31.247L43.6883 31.2568L44.6413 31.56ZM44.6413 50.44L43.6864 50.7371L43.6904 50.7499L43.6947 50.7627L44.6413 50.44ZM47.7613 55.56L47.1211 56.3282L47.1287 56.3346L47.1366 56.3409L47.7613 55.56ZM52.3213 69.12C51.7734 69.12 51.2334 69.1045 50.7013 69.0737L50.5856 71.0704C51.1572 71.1035 51.7357 71.12 52.3213 71.12V69.12ZM47.4982 68.6855C46.4279 68.484 45.3923 68.2126 44.3909 67.8716L43.7463 69.7649C44.8397 70.1372 45.9672 70.4324 47.1281 70.651L47.4982 68.6855ZM41.4416 66.6166C40.9678 66.3718 40.5021 66.1089 40.0447 65.8279L38.9978 67.5321C39.4971 67.8387 40.0056 68.1259 40.5235 68.3935L41.4416 66.6166ZM40.0501 65.8313C39.597 65.5489 39.1563 65.2505 38.728 64.9362L37.5446 66.5485C38.0139 66.8929 38.4965 67.2197 38.9924 67.5287L40.0501 65.8313ZM36.3062 62.8579C35.562 62.115 34.8637 61.3088 34.2113 60.4388L32.6111 61.6386C33.319 62.5826 34.0796 63.461 34.8932 64.2733L36.3062 62.8579ZM32.4539 57.7453C32.192 57.2834 31.9399 56.8074 31.6979 56.3172L29.9046 57.2028C30.1631 57.7262 30.4329 58.2359 30.7141 58.7318L32.4539 57.7453ZM31.6979 56.3172C31.4137 55.7417 31.1488 55.1482 30.9033 54.5364L29.0472 55.2813C29.3113 55.9396 29.5971 56.5801 29.9046 57.2028L31.6979 56.3172ZM29.704 50.8082C29.3963 49.5777 29.1525 48.2872 28.9731 46.9359L26.9905 47.199C27.1791 48.62 27.4366 49.9849 27.7637 51.2933L29.704 50.8082ZM28.64 42.9884C28.6142 42.3376 28.6013 41.6748 28.6013 41H26.6013C26.6013 41.7003 26.6147 42.3895 26.6416 43.0676L28.64 42.9884ZM28.6013 41C28.6013 40.3252 28.6142 39.6624 28.64 39.0116L26.6416 38.9324C26.6147 39.6105 26.6013 40.2997 26.6013 41H28.6013ZM28.9731 35.0641C29.1525 33.7128 29.3963 32.4223 29.704 31.1918L27.7637 30.7067C27.4366 32.0151 27.1791 33.38 26.9905 34.801L28.9731 35.0641ZM30.9033 27.4636C31.1488 26.8518 31.4137 26.2583 31.6979 25.6828L29.9046 24.7972C29.5971 25.4199 29.3113 26.0604 29.0472 26.7187L30.9033 27.4636ZM31.6979 25.6828C31.9399 25.1926 32.192 24.7166 32.4539 24.2547L30.7141 23.2682C30.4329 23.7641 30.1631 24.2738 29.9046 24.7972L31.6979 25.6828ZM34.2113 21.5612C34.8637 20.6912 35.562 19.885 36.3062 19.1421L34.8932 17.7267C34.0796 18.539 33.319 19.4174 32.6111 20.3614L34.2113 21.5612ZM38.728 17.0638C39.1563 16.7495 39.597 16.4511 40.0501 16.1687L38.9924 14.4713C38.4965 14.7803 38.0139 15.1071 37.5446 15.4515L38.728 17.0638ZM40.0447 16.1721C40.5021 15.8911 40.9678 15.6282 41.4416 15.3834L40.5235 13.6065C40.0056 13.8741 39.4971 14.1612 38.9978 14.4679L40.0447 16.1721ZM44.3909 14.1284C45.3923 13.7874 46.4279 13.516 47.4982 13.3145L47.1281 11.349C45.9672 11.5676 44.8397 11.8628 43.7463 12.2351L44.3909 14.1284ZM50.7013 12.9263C51.2334 12.8954 51.7734 12.88 52.3213 12.88V10.88C51.7357 10.88 51.1572 10.8965 50.5856 10.9296L50.7013 12.9263ZM52.3213 12.88C52.8626 12.88 53.396 12.8954 53.9215 12.9262L54.0385 10.9296C53.4731 10.8965 52.9006 10.88 52.3213 10.88V12.88ZM57.0847 13.3141C58.1412 13.5155 59.1631 13.7868 60.1509 14.1276L60.8031 12.2369C59.7223 11.8641 58.6075 11.5684 57.4592 11.3495L57.0847 13.3141ZM63.0574 15.3813C63.5239 15.6257 63.9822 15.8881 64.4324 16.1687L65.4901 14.4713C64.998 14.1646 64.4965 13.8774 63.9856 13.6097L63.0574 15.3813ZM64.4378 16.1721C64.8954 16.4531 65.3401 16.75 65.7721 17.0627L66.9447 15.4424C66.4716 15.1 65.9849 14.7752 65.4847 14.4679L64.4378 16.1721ZM68.218 19.134C68.9708 19.8766 69.6761 20.6822 70.3336 21.5517L71.9288 20.3453C71.2146 19.4009 70.4459 18.5223 69.6224 17.7101L68.218 19.134ZM72.1049 24.2501C72.3685 24.7134 72.6217 25.191 72.8646 25.6828L74.6579 24.7972C74.3982 24.2713 74.1267 23.7593 73.8433 23.2611L72.1049 24.2501ZM72.8646 25.6828C73.1488 26.2583 73.4137 26.8518 73.6592 27.4636L75.5153 26.7187C75.2512 26.0604 74.9654 25.4199 74.6579 24.7972L72.8646 25.6828ZM74.8585 31.1918C75.1662 32.4223 75.41 33.7128 75.5894 35.0641L77.572 34.801C77.3834 33.38 77.1259 32.0151 76.7988 30.7067L74.8585 31.1918ZM75.9225 39.0116C75.9483 39.6624 75.9613 40.3252 75.9613 41H77.9613C77.9613 40.2997 77.9478 39.6105 77.9209 38.9324L75.9225 39.0116ZM75.9613 41C75.9613 41.6748 75.9483 42.3376 75.9225 42.9884L77.9209 43.0676C77.9478 42.3895 77.9613 41.7003 77.9613 41H75.9613ZM75.5894 46.9359C75.41 48.2872 75.1662 49.5777 74.8585 50.8082L76.7988 51.2933C77.1259 49.9849 77.3834 48.62 77.572 47.199L75.5894 46.9359ZM73.6592 54.5364C73.4137 55.1481 73.1488 55.7417 72.8646 56.3172L74.6579 57.2028C74.9654 56.5801 75.2512 55.9396 75.5153 55.2813L73.6592 54.5364ZM72.8646 56.3172C72.6217 56.809 72.3685 57.2866 72.1049 57.7499L73.8433 58.7389C74.1267 58.2407 74.3982 57.7287 74.6579 57.2028L72.8646 56.3172ZM70.3336 60.4483C69.6761 61.3178 68.9708 62.1234 68.218 62.866L69.6224 64.2899C70.4459 63.4777 71.2146 62.5991 71.9288 61.6546L70.3336 60.4483ZM65.7721 64.9373C65.3401 65.25 64.8954 65.5469 64.4378 65.8279L65.4847 67.5321C65.9849 67.2248 66.4716 66.9 66.9447 66.5576L65.7721 64.9373ZM64.4324 65.8313C63.9822 66.1119 63.5239 66.3743 63.0574 66.6187L63.9856 68.3903C64.4965 68.1226 64.998 67.8354 65.4901 67.5287L64.4324 65.8313ZM60.1509 67.8724C59.1631 68.2132 58.1412 68.4844 57.0847 68.6859L57.4592 70.6505C58.6075 70.4316 59.7223 70.1359 60.8031 69.7631L60.1509 67.8724ZM53.9215 69.0738C53.396 69.1046 52.8626 69.12 52.3213 69.12V71.12C52.9006 71.12 53.4731 71.1035 54.0385 71.0703L53.9215 69.0738ZM52.3213 56.16C51.9523 56.16 51.597 56.1316 51.2545 56.0759L50.9333 58.0499C51.3864 58.1237 51.8493 58.16 52.3213 58.16V56.16ZM49.2716 55.38C48.9694 55.2095 48.6741 55.0097 48.3859 54.7791L47.1366 56.3409C47.505 56.6357 47.8891 56.8965 48.2889 57.122L49.2716 55.38ZM48.4014 54.7918C48.088 54.5306 47.7844 54.218 47.492 53.8495L45.9254 55.0927C46.2944 55.5578 46.6924 55.971 47.1211 56.3282L48.4014 54.7918ZM46.1034 51.4566C45.9226 51.0412 45.7506 50.595 45.5878 50.1173L43.6947 50.7627C43.8736 51.2872 44.065 51.7848 44.2696 52.2548L46.1034 51.4566ZM45.5961 50.1429C45.3894 49.4785 45.2108 48.7454 45.0617 47.9418L43.0953 48.3065C43.2566 49.1765 43.4531 49.9872 43.6864 50.7371L45.5961 50.1429ZM44.571 43.3402C44.5379 42.5952 44.5213 41.8152 44.5213 41H42.5213C42.5213 41.8422 42.5384 42.652 42.573 43.4291L44.571 43.3402ZM44.5213 41C44.5213 40.1827 44.5375 39.4023 44.5699 38.6584L42.5718 38.5714C42.538 39.3468 42.5213 40.1564 42.5213 41H44.5213ZM45.0558 34.0568C45.2057 33.2484 45.3858 32.518 45.5942 31.8632L43.6883 31.2568C43.4511 32.0025 43.252 32.815 43.0893 33.6921L45.0558 34.0568ZM45.5878 31.8827C45.7506 31.405 45.9226 30.9588 46.1034 30.5434L44.2696 29.7452C44.065 30.2152 43.8736 30.7128 43.6947 31.2373L45.5878 31.8827ZM47.492 28.1505C47.7844 27.782 48.088 27.4694 48.4014 27.2082L47.1211 25.6718C46.6924 26.029 46.2944 26.4422 45.9254 26.9073L47.492 28.1505ZM48.3859 27.2209C48.6741 26.9903 48.9694 26.7905 49.2716 26.62L48.2889 24.878C47.8891 25.1035 47.505 25.3643 47.1366 25.6591L48.3859 27.2209ZM51.2545 25.9241C51.597 25.8684 51.9523 25.84 52.3213 25.84V23.84C51.8493 23.84 51.3864 23.8763 50.9333 23.9501L51.2545 25.9241ZM52.3213 25.84C52.6863 25.84 53.0359 25.8678 53.3709 25.9221L53.6912 23.9479C53.245 23.8756 52.7881 23.84 52.3213 23.84V25.84ZM55.307 26.6093C55.6002 26.7789 55.8849 26.9781 56.1611 27.2082L57.4414 25.6718C57.0815 25.3718 56.7038 25.1068 56.3083 24.878L55.307 26.6093ZM56.1766 27.2209C56.4983 27.4783 56.8059 27.7847 57.0982 28.1441L58.6499 26.8822C58.275 26.4213 57.8675 26.0123 57.4259 25.6591L56.1766 27.2209ZM58.4765 30.5213C58.6517 30.9369 58.8158 31.384 58.9683 31.8632L60.8742 31.2568C60.705 30.7252 60.5203 30.2209 60.3195 29.7444L58.4765 30.5213ZM58.9683 31.8632C59.1767 32.518 59.3568 33.2484 59.5067 34.0568L61.4732 33.6921C61.3105 32.815 61.1115 32.0025 60.8742 31.2568L58.9683 31.8632ZM59.9926 38.6584C60.025 39.4023 60.0413 40.1827 60.0413 41H62.0413C62.0413 40.1564 62.0245 39.3468 61.9907 38.5714L59.9926 38.6584ZM60.0413 41C60.0413 41.8152 60.0246 42.5952 59.9915 43.3402L61.9895 43.4291C62.0241 42.652 62.0413 41.8422 62.0413 41H60.0413ZM59.5008 47.9418C59.3517 48.7454 59.1731 49.4785 58.9664 50.1429L60.8761 50.7371C61.1094 49.9872 61.3059 49.1765 61.4672 48.3065L59.5008 47.9418ZM58.9683 50.1368C58.8158 50.616 58.6517 51.0631 58.4765 51.4787L60.3195 52.2556C60.5203 51.7791 60.705 51.2748 60.8742 50.7432L58.9683 50.1368ZM57.0982 53.8559C56.8059 54.2153 56.4983 54.5217 56.1766 54.7791L57.4259 56.3409C57.8675 55.9877 58.275 55.5787 58.6499 55.1178L57.0982 53.8559ZM56.1611 54.7918C55.8849 55.0219 55.6002 55.2211 55.307 55.3907L56.3083 57.122C56.7038 56.8932 57.0815 56.6282 57.4414 56.3282L56.1611 54.7918ZM53.3709 56.0779C53.0359 56.1322 52.6863 56.16 52.3213 56.16V58.16C52.7881 58.16 53.245 58.1244 53.6912 58.0521L53.3709 56.0779ZM91.9669 68.68L91.8472 69.1655L91.8472 69.1655L91.9669 68.68ZM81.8869 64.6L81.4355 64.3849L81.2433 64.7883L81.6226 65.0244L81.8869 64.6ZM87.5669 52.68L87.8397 52.261L87.3612 51.9494L87.1155 52.4649L87.5669 52.68ZM95.0069 56.12L94.8632 56.5989L94.8658 56.5997L95.0069 56.12ZM109.567 55.8L109.828 56.2264L109.838 56.2201L109.567 55.8ZM111.087 48.44L110.678 48.7283L110.683 48.7342L110.687 48.74L111.087 48.44ZM107.807 46.44L107.659 46.9175L107.666 46.9199L107.674 46.922L107.807 46.44ZM85.9669 45.72L85.4687 45.6774L85.4223 46.22H85.9669V45.72ZM88.7669 13V12.5H88.3078L88.2687 12.9574L88.7669 13ZM124.447 13H124.947V12.5H124.447V13ZM124.447 25.24V25.74H124.947V25.24H124.447ZM94.3669 25.24L94.0406 24.8612L93.0203 25.74H94.3669V25.24ZM102.447 18.28L102.945 18.3215L103.047 17.1034L102.121 17.9012L102.447 18.28ZM100.607 40.36L100.281 40.7388L101.024 41.379L101.105 40.4015L100.607 40.36ZM92.5269 33.4V32.9H91.1803L92.2006 33.7788L92.5269 33.4ZM118.287 35.8L118.072 36.2515L118.078 36.2542L118.287 35.8ZM125.647 42.12L125.214 42.3709L125.217 42.3747L125.647 42.12ZM125.327 60.36L124.898 60.1027L124.897 60.1051L125.327 60.36ZM117.407 67.4L117.181 66.9541L117.181 66.9541L117.407 67.4ZM103.567 69.62C102.603 69.62 101.638 69.5894 100.671 69.5283L100.608 70.5263C101.596 70.5888 102.582 70.62 103.567 70.62V69.62ZM94.9213 68.8087C93.9782 68.6327 93.0333 68.428 92.0866 68.1945L91.8472 69.1655C92.8121 69.4034 93.7756 69.6122 94.7378 69.7918L94.9213 68.8087ZM92.0866 68.1945C91.1911 67.9737 90.3248 67.7317 89.4878 67.4686L89.1879 68.4225C90.0459 68.6923 90.9323 68.9399 91.8472 69.1655L92.0866 68.1945ZM84.4934 65.4793C83.6742 65.0724 82.8935 64.6378 82.1512 64.1756L81.6226 65.0244C82.3932 65.5043 83.2019 65.9544 84.0485 66.3749L84.4934 65.4793ZM82.3382 64.8151L83.0482 63.3251L82.1455 62.8949L81.4355 64.3849L82.3382 64.8151ZM84.4682 60.3451L85.8882 57.3651L84.9855 56.9349L83.5655 59.9149L84.4682 60.3451ZM87.3082 54.3851L88.0182 52.8951L87.1155 52.4649L86.4055 53.9549L87.3082 54.3851ZM87.294 53.099C87.8797 53.4804 88.4774 53.8395 89.0871 54.1765L89.5708 53.3013C88.9823 52.976 88.4053 52.6293 87.8397 52.261L87.294 53.099ZM92.8827 55.9294C93.5314 56.1743 94.1916 56.3974 94.8632 56.5989L95.1505 55.6411C94.5009 55.4462 93.8627 55.2304 93.2359 54.9938L92.8827 55.9294ZM94.8658 56.5997C95.5389 56.7976 96.2107 56.9716 96.8813 57.1215L97.0994 56.1456C96.4508 56.0006 95.8003 55.8322 95.148 55.6403L94.8658 56.5997ZM101.002 57.7404C101.698 57.7934 102.393 57.82 103.087 57.82V56.82C102.419 56.82 101.749 56.7944 101.078 56.7433L101.002 57.7404ZM103.087 57.82C103.686 57.82 104.262 57.795 104.815 57.7447L104.724 56.7488C104.204 56.7962 103.658 56.82 103.087 56.82V57.82ZM108.229 57.0022C108.801 56.7871 109.335 56.5287 109.828 56.2263L109.306 55.3737C108.87 55.6408 108.394 55.8719 107.877 56.0662L108.229 57.0022ZM109.838 56.2201C110.255 55.9513 110.627 55.6556 110.952 55.3321L110.247 54.6229C109.976 54.8923 109.66 55.145 109.296 55.3799L109.838 56.2201ZM112.381 52.8296C112.492 52.375 112.547 51.898 112.547 51.4H111.547C111.547 51.8247 111.5 52.2214 111.41 52.5918L112.381 52.8296ZM112.547 51.4C112.547 51.106 112.527 50.8185 112.485 50.538L111.496 50.6831C111.53 50.9133 111.547 51.1521 111.547 51.4H112.547ZM111.953 48.8783C111.819 48.622 111.664 48.3758 111.487 48.14L110.687 48.74C110.832 48.9334 110.958 49.1334 111.066 49.34L111.953 48.8783ZM111.495 48.1517C111.287 47.8561 111.038 47.5859 110.751 47.3406L110.101 48.1005C110.329 48.2955 110.521 48.5049 110.678 48.7283L111.495 48.1517ZM108.919 46.281C108.612 46.1609 108.286 46.0534 107.94 45.958L107.674 46.922C107.99 47.0091 108.283 47.106 108.555 47.2122L108.919 46.281ZM107.955 45.9625C107.45 45.8058 106.884 45.6753 106.259 45.5697L106.093 46.5557C106.683 46.6555 107.205 46.7766 107.659 46.9175L107.955 45.9625ZM102.861 45.2502C102.323 45.23 101.759 45.22 101.167 45.22V46.22C101.747 46.22 102.3 46.2298 102.824 46.2495L102.861 45.2502ZM101.167 45.22H99.2669V46.22H101.167V45.22ZM95.4669 45.22H91.6669V46.22H95.4669V45.22ZM87.8669 45.22H85.9669V46.22H87.8669V45.22ZM86.4651 45.7626L86.6401 43.7176L85.6437 43.6324L85.4687 45.6774L86.4651 45.7626ZM86.9901 39.6276L87.3401 35.5376L86.3437 35.4524L85.9937 39.5424L86.9901 39.6276ZM87.6901 31.4476L88.0401 27.3576L87.0437 27.2724L86.6937 31.3624L87.6901 31.4476ZM88.3901 23.2676L88.7401 19.1776L87.7437 19.0924L87.3937 23.1824L88.3901 23.2676ZM89.0901 15.0876L89.2651 13.0426L88.2687 12.9574L88.0937 15.0024L89.0901 15.0876ZM88.7669 13.5H90.9969V12.5H88.7669V13.5ZM95.4569 13.5H99.9169V12.5H95.4569V13.5ZM104.377 13.5H108.837V12.5H104.377V13.5ZM113.297 13.5H117.757V12.5H113.297V13.5ZM122.217 13.5H124.447V12.5H122.217V13.5ZM123.947 13V14.53H124.947V13H123.947ZM123.947 17.59V20.65H124.947V17.59H123.947ZM123.947 23.71V25.24H124.947V23.71H123.947ZM124.447 24.74H122.567V25.74H124.447V24.74ZM118.807 24.74H115.047V25.74H118.807V24.74ZM111.287 24.74H107.527V25.74H111.287V24.74ZM103.767 24.74H100.007V25.74H103.767V24.74ZM96.2469 24.74H94.3669V25.74H96.2469V24.74ZM94.6932 25.6188L96.7132 23.8788L96.0606 23.1212L94.0406 24.8612L94.6932 25.6188ZM100.753 20.3988L102.773 18.6588L102.121 17.9012L100.101 19.6412L100.753 20.3988ZM101.949 18.2385L101.795 20.0785L102.792 20.1615L102.945 18.3215L101.949 18.2385ZM101.489 23.7585L101.182 27.4385L102.178 27.5215L102.485 23.8415L101.489 23.7585ZM100.875 31.1185L100.569 34.7985L101.565 34.8815L101.872 31.2015L100.875 31.1185ZM100.262 38.4785L100.109 40.3185L101.105 40.4015L101.258 38.5615L100.262 38.4785ZM100.933 39.9812L98.9132 38.2412L98.2606 38.9988L100.281 40.7388L100.933 39.9812ZM94.8732 34.7612L92.8532 33.0212L92.2006 33.7788L94.2206 35.5188L94.8732 34.7612ZM92.5269 33.9H94.0769V32.9H92.5269V33.9ZM97.1769 33.9H100.277V32.9H97.1769V33.9ZM103.377 33.9H104.927V32.9H103.377V33.9ZM104.927 33.9C105.504 33.9 106.069 33.9087 106.622 33.9262L106.653 32.9267C106.09 32.9089 105.514 32.9 104.927 32.9V33.9ZM109.995 34.1571C111.172 34.2856 112.28 34.4619 113.321 34.6856L113.531 33.708C112.454 33.4763 111.311 33.2948 110.103 33.163L109.995 34.1571ZM116.538 35.6067C117.074 35.8048 117.585 36.0197 118.072 36.2514L118.502 35.3486C117.987 35.1032 117.447 34.8766 116.884 34.6687L116.538 35.6067ZM118.078 36.2542C118.834 36.6024 119.542 36.9787 120.201 37.3828L120.724 36.5303C120.028 36.1041 119.286 35.7094 118.496 35.3458L118.078 36.2542ZM123.842 40.4383C124.362 41.0449 124.819 41.689 125.214 42.3709L126.079 41.8691C125.653 41.134 125.16 40.4402 124.602 39.7879L123.842 40.4383ZM125.217 42.3747C125.601 43.0236 125.935 43.6944 126.221 44.3871L127.145 44.006C126.842 43.2688 126.485 42.5552 126.077 41.8653L125.217 42.3747ZM127.337 48.7408C127.424 49.4732 127.467 50.2262 127.467 51H128.467C128.467 50.1888 128.421 49.3966 128.33 48.6236L127.337 48.7408ZM127.467 51C127.467 51.8076 127.413 52.603 127.305 53.3864L128.296 53.5226C128.41 52.6932 128.467 51.8523 128.467 51H127.467ZM126.002 57.9745C125.686 58.6938 125.318 59.4032 124.898 60.1028L125.756 60.6172C126.196 59.8829 126.584 59.1362 126.917 58.377L126.002 57.9745ZM124.897 60.1051C124.458 60.8459 123.955 61.5507 123.387 62.2197L124.15 62.8666C124.753 62.1555 125.289 61.4049 125.757 60.6149L124.897 60.1051ZM119.458 65.6407C118.749 66.1054 117.99 66.5433 117.181 66.9541L117.633 67.8459C118.473 67.4195 119.265 66.9633 120.007 66.477L119.458 65.6407ZM117.181 66.9541C116.676 67.2101 116.149 67.448 115.601 67.6676L115.972 68.596C116.547 68.3659 117.101 68.1159 117.633 67.8459L117.181 66.9541ZM112.279 68.709C111.195 68.9669 110.046 69.1705 108.832 69.3192L108.953 70.3117C110.202 70.159 111.387 69.9492 112.51 69.6818L112.279 68.709ZM105.328 69.5892C104.753 69.6097 104.166 69.62 103.567 69.62V70.62C104.178 70.62 104.777 70.6095 105.364 70.5885L105.328 69.5892ZM91.9669 68.68L91.7275 69.6509L91.7275 69.6509L91.9669 68.68ZM81.8869 64.6L80.9841 64.1698L80.5997 64.9766L81.3583 65.4489L81.8869 64.6ZM87.5669 52.68L88.1125 51.842L87.1554 51.2188L86.6641 52.2498L87.5669 52.68ZM95.0069 56.12L94.7195 57.0778L94.7247 57.0794L95.0069 56.12ZM109.567 55.8L110.089 56.6526L110.099 56.6466L110.109 56.6403L109.567 55.8ZM111.087 48.44L110.27 49.0167L110.278 49.0285L110.287 49.04L111.087 48.44ZM107.807 46.44L107.51 47.3951L107.526 47.3998L107.541 47.404L107.807 46.44ZM85.9669 45.72L84.9705 45.6347L84.8776 46.72H85.9669V45.72ZM88.7669 13V12H87.8488L87.7705 12.9147L88.7669 13ZM124.447 13H125.447V12H124.447V13ZM124.447 25.24V26.24H125.447V25.24H124.447ZM94.3669 25.24L93.7142 24.4823L91.6737 26.24H94.3669V25.24ZM102.447 18.28L103.443 18.363L103.646 15.9269L101.794 17.5223L102.447 18.28ZM100.607 40.36L99.9542 41.1177L101.441 42.3979L101.603 40.443L100.607 40.36ZM92.5269 33.4V32.4H89.8337L91.8742 34.1577L92.5269 33.4ZM118.287 35.8L117.857 36.7029L117.869 36.7084L118.287 35.8ZM125.647 42.12L124.782 42.6217L124.786 42.6293L125.647 42.12ZM125.327 60.36L124.469 59.8455L124.467 59.8502L125.327 60.36ZM117.407 67.4L116.954 66.5083L116.954 66.5083L117.407 67.4ZM103.567 69.12C102.614 69.12 101.659 69.0898 100.702 69.0293L100.576 71.0253C101.575 71.0884 102.572 71.12 103.567 71.12V69.12ZM95.013 68.3172C94.0794 68.143 93.1439 67.9403 92.2063 67.7091L91.7275 69.6509C92.7015 69.8911 93.6744 70.1019 94.646 70.2833L95.013 68.3172ZM92.2063 67.7091C91.3205 67.4907 90.4643 67.2514 89.6377 66.9916L89.0379 68.8995C89.9064 69.1725 90.803 69.423 91.7275 69.6509L92.2063 67.7091ZM84.7158 65.0315C83.9103 64.6314 83.1437 64.2045 82.4154 63.7511L81.3583 65.4489C82.1431 65.9375 82.9658 66.3954 83.8261 66.8227L84.7158 65.0315ZM82.7896 65.0302L83.4996 63.5402L81.6941 62.6798L80.9841 64.1698L82.7896 65.0302ZM84.9196 60.5602L86.3396 57.5802L84.5341 56.7198L83.1141 59.6998L84.9196 60.5602ZM87.7596 54.6002L88.4696 53.1102L86.6641 52.2498L85.9541 53.7398L87.7596 54.6002ZM87.0212 53.518C87.6169 53.9059 88.2249 54.2713 88.8452 54.6141L89.8127 52.8637C89.2347 52.5443 88.668 52.2037 88.1125 51.842L87.0212 53.518ZM92.7061 56.3971C93.3658 56.6462 94.037 56.8731 94.7195 57.0778L95.2942 55.1622C94.6555 54.9706 94.0283 54.7585 93.4125 54.526L92.7061 56.3971ZM94.7247 57.0794C95.4081 57.2804 96.0906 57.4571 96.7722 57.6094L97.2085 55.6576C96.5709 55.5151 95.9311 55.3495 95.289 55.1606L94.7247 57.0794ZM100.964 58.2389C101.673 58.293 102.381 58.32 103.087 58.32V56.32C102.432 56.32 101.775 56.2949 101.116 56.2447L100.964 58.2389ZM103.087 58.32C103.7 58.32 104.291 58.2944 104.86 58.2426L104.679 56.2509C104.175 56.2967 103.645 56.32 103.087 56.32V58.32ZM108.405 57.4703C109.005 57.2447 109.567 56.9727 110.089 56.6526L109.044 54.9474C108.637 55.1968 108.19 55.4143 107.701 55.5982L108.405 57.4703ZM110.109 56.6403C110.552 56.3544 110.952 56.0373 111.305 55.6867L109.895 54.2683C109.651 54.5107 109.362 54.7418 109.025 54.9597L110.109 56.6403ZM112.867 52.9485C112.988 52.4518 113.047 51.9346 113.047 51.4H111.047C111.047 51.7881 111.004 52.1447 110.924 52.4729L112.867 52.9485ZM113.047 51.4C113.047 51.0829 113.025 50.7711 112.98 50.4654L111.001 50.7557C111.031 50.9607 111.047 51.1752 111.047 51.4H113.047ZM112.396 48.6475C112.25 48.3663 112.08 48.0971 111.887 47.84L110.287 49.04C110.416 49.2122 110.527 49.3891 110.622 49.5709L112.396 48.6475ZM111.904 47.8633C111.67 47.5317 111.392 47.2311 111.076 46.9606L109.776 48.4805C109.975 48.6503 110.138 48.8293 110.27 49.0167L111.904 47.8633ZM109.101 45.8153C108.777 45.6883 108.433 45.5755 108.073 45.476L107.541 47.404C107.842 47.487 108.119 47.5785 108.372 47.6779L109.101 45.8153ZM108.103 45.4849C107.573 45.3203 106.985 45.1852 106.342 45.0767L106.009 47.0488C106.583 47.1456 107.082 47.262 107.51 47.3951L108.103 45.4849ZM102.88 44.7505C102.335 44.7301 101.764 44.72 101.167 44.72V46.72C101.742 46.72 102.288 46.7298 102.805 46.7491L102.88 44.7505ZM101.167 44.72H99.2669V46.72H101.167V44.72ZM95.4669 44.72H91.6669V46.72H95.4669V44.72ZM87.8669 44.72H85.9669V46.72H87.8669V44.72ZM86.9632 45.8053L87.1382 43.7603L85.1455 43.5897L84.9705 45.6347L86.9632 45.8053ZM87.4882 39.6703L87.8382 35.5803L85.8455 35.4097L85.4955 39.4997L87.4882 39.6703ZM88.1882 31.4903L88.5382 27.4003L86.5455 27.2297L86.1955 31.3197L88.1882 31.4903ZM88.8882 23.3103L89.2382 19.2203L87.2455 19.0497L86.8955 23.1397L88.8882 23.3103ZM89.5882 15.1303L89.7632 13.0853L87.7705 12.9147L87.5955 14.9597L89.5882 15.1303ZM88.7669 14H90.9969V12H88.7669V14ZM95.4569 14H99.9169V12H95.4569V14ZM104.377 14H108.837V12H104.377V14ZM113.297 14H117.757V12H113.297V14ZM122.217 14H124.447V12H122.217V14ZM123.447 13V14.53H125.447V13H123.447ZM123.447 17.59V20.65H125.447V17.59H123.447ZM123.447 23.71V25.24H125.447V23.71H123.447ZM124.447 24.24H122.567V26.24H124.447V24.24ZM118.807 24.24H115.047V26.24H118.807V24.24ZM111.287 24.24H107.527V26.24H111.287V24.24ZM103.767 24.24H100.007V26.24H103.767V24.24ZM96.2469 24.24H94.3669V26.24H96.2469V24.24ZM95.0195 25.9977L97.0395 24.2577L95.7342 22.7423L93.7142 24.4823L95.0195 25.9977ZM101.08 20.7777L103.1 19.0377L101.794 17.5223L99.7742 19.2623L101.08 20.7777ZM101.45 18.197L101.297 20.037L103.29 20.203L103.443 18.363L101.45 18.197ZM100.99 23.717L100.684 27.397L102.677 27.563L102.983 23.883L100.99 23.717ZM100.377 31.077L100.07 34.757L102.063 34.923L102.37 31.243L100.377 31.077ZM99.7637 38.437L99.6103 40.277L101.603 40.443L101.757 38.603L99.7637 38.437ZM101.26 39.6023L99.2395 37.8623L97.9342 39.3777L99.9542 41.1177L101.26 39.6023ZM95.1995 34.3823L93.1795 32.6423L91.8742 34.1577L93.8942 35.8977L95.1995 34.3823ZM92.5269 34.4H94.0769V32.4H92.5269V34.4ZM97.1769 34.4H100.277V32.4H97.1769V34.4ZM103.377 34.4H104.927V32.4H103.377V34.4ZM104.927 34.4C105.499 34.4 106.059 34.4087 106.606 34.4259L106.669 32.4269C106.1 32.409 105.519 32.4 104.927 32.4V34.4ZM109.941 34.6542C111.102 34.7809 112.194 34.9547 113.216 35.1744L113.636 33.2192C112.54 32.9835 111.381 32.7994 110.158 32.666L109.941 34.6542ZM116.365 36.0758C116.887 36.2689 117.385 36.478 117.857 36.7029L118.717 34.8971C118.187 34.6449 117.634 34.4125 117.058 34.1996L116.365 36.0758ZM117.869 36.7084C118.608 37.0489 119.298 37.416 119.939 37.8091L120.985 36.1041C120.272 35.6668 119.512 35.2629 118.705 34.8916L117.869 36.7084ZM123.462 40.7635C123.962 41.3472 124.402 41.9665 124.782 42.6217L126.512 41.6183C126.07 40.8565 125.56 40.1378 124.982 39.4627L123.462 40.7635ZM124.786 42.6293C125.158 43.2578 125.482 43.9072 125.759 44.5776L127.608 43.8154C127.295 43.056 126.928 42.321 126.507 41.6107L124.786 42.6293ZM126.841 48.7994C126.925 49.5115 126.967 50.2449 126.967 51H128.967C128.967 50.1701 128.92 49.3583 128.827 48.565L126.841 48.7994ZM126.967 51C126.967 51.7852 126.914 52.5579 126.81 53.3183L128.791 53.5907C128.908 52.7383 128.967 51.8746 128.967 51H126.967ZM125.544 57.7733C125.237 58.4727 124.879 59.1634 124.469 59.8455L126.184 60.8745C126.635 60.1228 127.033 59.3574 127.375 58.5783L125.544 57.7733ZM124.467 59.8502C124.042 60.5664 123.556 61.2483 123.006 61.8962L124.531 63.19C125.152 62.4579 125.704 61.6844 126.187 60.8698L124.467 59.8502ZM119.184 65.2225C118.492 65.6765 117.749 66.1052 116.954 66.5083L117.859 68.2917C118.715 67.8575 119.522 67.3922 120.281 66.8952L119.184 65.2225ZM116.954 66.5083C116.464 66.7573 115.951 66.9891 115.415 67.2034L116.158 69.0603C116.746 68.8248 117.314 68.5687 117.859 68.2917L116.954 66.5083ZM112.163 68.2226C111.099 68.4758 109.969 68.6762 108.771 68.8229L109.014 70.808C110.279 70.6532 111.483 70.4403 112.626 70.1682L112.163 68.2226ZM105.311 69.0895C104.742 69.1098 104.16 69.12 103.567 69.12V71.12C104.183 71.12 104.788 71.1094 105.382 71.0882L105.311 69.0895Z" fill="url(#paint0_linear_4030_309)" mask="url(#path-1-outside-1_4030_309)"/>
</g>
</g>
<defs>
<linearGradient id="paint0_linear_4030_309" x1="280" y1="68.8" x2="214.138" y2="-89.2406" gradientUnits="userSpaceOnUse">
<stop stop-color="white" stop-opacity="0"/>
<stop offset="1" stop-color="white"/>
</linearGradient>
<clipPath id="clip0_4030_309">
<rect width="138" height="80" fill="white"/>
</clipPath>
</defs>
</svg>
