<svg width="138" height="80" viewBox="0 0 138 80" fill="none" xmlns="http://www.w3.org/2000/svg">
<g clip-path="url(#clip0_4030_309)">
<g opacity="0.4">
<mask id="path-1-outside-1_4030_309" maskUnits="userSpaceOnUse" x="26" y="10" width="102" height="62" fill="black">
<rect fill="white" x="26" y="10" width="102" height="62"/>
<path d="M52.3213 70.12C47.5213 70.12 43.2546 68.9733 39.5213 66.68C35.8413 64.3867 32.9346 61.08 30.8013 56.76C28.6679 52.44 27.6013 47.1867 27.6013 41C27.6013 34.8133 28.6679 29.56 30.8013 25.24C32.9346 20.92 35.8413 17.6133 39.5213 15.32C43.2546 13.0267 47.5213 11.88 52.3213 11.88C57.0679 11.88 61.2813 13.0267 64.9613 15.32C68.6946 17.6133 71.6279 20.92 73.7613 25.24C75.8946 29.56 76.9613 34.8133 76.9613 41C76.9613 47.1867 75.8946 52.44 73.7613 56.76C71.6279 61.08 68.6946 64.3867 64.9613 66.68C61.2813 68.9733 57.0679 70.12 52.3213 70.12ZM52.3213 57.16C54.0279 57.16 55.5213 56.6267 56.8013 55.56C58.1346 54.4933 59.1746 52.7867 59.9213 50.44C60.6679 48.04 61.0413 44.8933 61.0413 41C61.0413 37.0533 60.6679 33.9067 59.9213 31.56C59.1746 29.2133 58.1346 27.5067 56.8013 26.44C55.5213 25.3733 54.0279 24.84 52.3213 24.84C50.6146 24.84 49.0946 25.3733 47.7613 26.44C46.4813 27.5067 45.4413 29.2133 44.6413 31.56C43.8946 33.9067 43.5213 37.0533 43.5213 41C43.5213 44.8933 43.8946 48.04 44.6413 50.44C45.4413 52.7867 46.4813 54.4933 47.7613 55.56C49.0946 56.6267 50.6146 57.16 52.3213 57.16ZM101.906 70.12C98.0123 70.12 94.119 69.64 90.2256 68.68C86.3856 67.72 83.0256 66.36 80.1456 64.6L85.9056 52.68C88.1456 54.1733 90.6256 55.32 93.3456 56.12C96.119 56.92 98.8123 57.32 101.426 57.32C104.146 57.32 106.306 56.8133 107.906 55.8C109.506 54.7867 110.306 53.3467 110.306 51.48C110.306 49.8267 109.639 48.52 108.306 47.56C106.972 46.5467 104.786 46.04 101.746 46.04H95.1056V36.04L110.146 19.8L111.666 25.24H83.0256V13H123.506V22.92L108.466 39.16L100.706 34.76H105.026C112.012 34.76 117.292 36.3333 120.866 39.48C124.492 42.5733 126.306 46.5733 126.306 51.48C126.306 54.68 125.426 57.6933 123.666 60.52C121.959 63.3467 119.319 65.6667 115.746 67.48C112.172 69.24 107.559 70.12 101.906 70.12Z"/>
</mask>
<path d="M39.5213 66.68L39.2568 67.1044L39.2595 67.106L39.5213 66.68ZM30.8013 56.76L30.3529 56.9814L30.3529 56.9814L30.8013 56.76ZM30.8013 25.24L30.3529 25.0186L30.3529 25.0186L30.8013 25.24ZM39.5213 15.32L39.2595 14.894L39.2568 14.8957L39.5213 15.32ZM64.9613 15.32L64.6968 15.7444L64.6995 15.746L64.9613 15.32ZM73.7613 25.24L73.3129 25.4614L73.3129 25.4614L73.7613 25.24ZM73.7613 56.76L73.3129 56.5386L73.3129 56.5386L73.7613 56.76ZM64.9613 66.68L64.6995 66.254L64.6968 66.2557L64.9613 66.68ZM56.8013 55.56L56.4888 55.1695L56.4812 55.1759L56.8013 55.56ZM59.9213 50.44L60.3977 50.5916L60.3987 50.5885L59.9213 50.44ZM59.9213 31.56L59.4448 31.7116L59.9213 31.56ZM56.8013 26.44L56.4811 26.8242L56.4889 26.8304L56.8013 26.44ZM47.7613 26.44L47.4488 26.0495L47.4412 26.0559L47.7613 26.44ZM44.6413 31.56L44.1679 31.3986L44.1648 31.4084L44.6413 31.56ZM44.6413 50.44L44.1636 50.5886L44.168 50.6013L44.6413 50.44ZM47.7613 55.56L47.4411 55.9442L47.4489 55.9504L47.7613 55.56ZM52.3213 69.62C51.7639 69.62 51.2143 69.6043 50.6723 69.5729L50.6145 70.5712C51.1762 70.6038 51.7451 70.62 52.3213 70.62V69.62ZM47.4057 69.1769C46.3127 68.9711 45.2542 68.6937 44.2297 68.345L43.9074 69.2916C44.9779 69.656 46.0823 69.9453 47.2206 70.1596L47.4057 69.1769ZM41.2121 67.0608C40.7272 66.8103 40.2509 66.5414 39.783 66.254L39.2595 67.106C39.7483 67.4063 40.2462 67.6874 40.7531 67.9493L41.2121 67.0608ZM39.7857 66.2557C39.3219 65.9666 38.8707 65.6611 38.4321 65.3392L37.8404 66.1454C38.2995 66.4823 38.7716 66.802 39.2568 67.1043L39.7857 66.2557ZM35.9529 63.2117C35.1914 62.4515 34.4775 61.6273 33.8112 60.7387L33.0112 61.3386C33.7051 62.2641 34.4502 63.1245 35.2464 63.9194L35.9529 63.2117ZM32.0189 57.9919C31.7522 57.5215 31.4957 57.0371 31.2496 56.5386L30.3529 56.9814C30.6073 57.4965 30.8727 57.9978 31.149 58.4852L32.0189 57.9919ZM31.2496 56.5386C30.9595 55.9513 30.6894 55.346 30.4393 54.7226L29.5112 55.0951C29.7707 55.7417 30.0513 56.3705 30.3529 56.9814L31.2496 56.5386ZM29.2189 50.9294C28.9064 49.6795 28.6591 48.3704 28.4775 47.0017L27.4861 47.1332C27.6724 48.5368 27.9265 49.8831 28.2488 51.172L29.2189 50.9294ZM28.1404 43.0082C28.1143 42.3506 28.1013 41.6812 28.1013 41H27.1013C27.1013 41.6939 27.1145 42.3765 27.1412 43.0478L28.1404 43.0082ZM28.1013 41C28.1013 40.3188 28.1143 39.6494 28.1404 38.9918L27.1412 38.9522C27.1145 39.6235 27.1013 40.3061 27.1013 41H28.1013ZM28.4775 34.9983C28.6591 33.6296 28.9064 32.3205 29.2189 31.0706L28.2488 30.828C27.9265 32.1169 27.6724 33.4632 27.4861 34.8668L28.4775 34.9983ZM30.4393 27.2774C30.6894 26.654 30.9595 26.0487 31.2496 25.4614L30.3529 25.0186C30.0513 25.6295 29.7707 26.2583 29.5112 26.9049L30.4393 27.2774ZM31.2496 25.4614C31.4957 24.9629 31.7522 24.4785 32.0189 24.0081L31.1491 23.5148C30.8727 24.0022 30.6073 24.5035 30.3529 25.0186L31.2496 25.4614ZM33.8112 21.2613C34.4775 20.3727 35.1914 19.5485 35.9529 18.7883L35.2464 18.0806C34.4502 18.8755 33.7051 19.7359 33.0112 20.6614L33.8112 21.2613ZM38.4321 16.6608C38.8707 16.3389 39.3219 16.0334 39.7857 15.7443L39.2568 14.8957C38.7716 15.198 38.2995 15.5177 37.8404 15.8546L38.4321 16.6608ZM39.783 15.746C40.2509 15.4586 40.7272 15.1897 41.2121 14.9392L40.7531 14.0507C40.2462 14.3126 39.7483 14.5937 39.2595 14.894L39.783 15.746ZM44.2297 13.655C45.2542 13.3063 46.3127 13.0289 47.4057 12.8231L47.2206 11.8404C46.0823 12.0547 44.9779 12.344 43.9074 12.7084L44.2297 13.655ZM50.6723 12.4271C51.2143 12.3957 51.7639 12.38 52.3213 12.38V11.38C51.7451 11.38 51.1762 11.3962 50.6145 11.4288L50.6723 12.4271ZM52.3213 12.38C52.8721 12.38 53.4153 12.3957 53.9508 12.4271L54.0093 11.4288C53.4538 11.3962 52.8911 11.38 52.3213 11.38V12.38ZM57.1783 12.823C58.2578 13.0288 59.3029 13.3061 60.3139 13.6549L60.64 12.7096C59.5825 12.3448 58.491 12.0552 57.3656 11.8407L57.1783 12.823ZM63.2895 14.9384C63.767 15.1886 64.2361 15.4573 64.6968 15.7443L65.2257 14.8957C64.744 14.5955 64.2533 14.3145 63.7536 14.0526L63.2895 14.9384ZM64.6995 15.746C65.1678 16.0337 65.623 16.3375 66.0653 16.6576L66.6516 15.8475C66.1887 15.5125 65.7125 15.1947 65.223 14.894L64.6995 15.746ZM68.5691 18.7781C69.3396 19.538 70.0607 20.3619 70.7324 21.2501L71.53 20.6469C70.83 19.7212 70.0771 18.8609 69.2713 18.0661L68.5691 18.7781ZM72.5395 24.0028C72.808 24.4749 73.0659 24.961 73.3129 25.4614L74.2096 25.0186C73.9541 24.5012 73.6871 23.9978 73.4087 23.5084L72.5395 24.0028ZM73.3129 25.4614C73.603 26.0487 73.8731 26.654 74.1232 27.2774L75.0513 26.9049C74.7918 26.2583 74.5112 25.6295 74.2096 25.0186L73.3129 25.4614ZM75.3436 31.0706C75.6561 32.3205 75.9034 33.6296 76.085 34.9983L77.0764 34.8668C76.8901 33.4632 76.636 32.1169 76.3137 30.828L75.3436 31.0706ZM76.4221 38.9918C76.4482 39.6494 76.4613 40.3188 76.4613 41H77.4613C77.4613 40.3061 77.448 39.6235 77.4213 38.9522L76.4221 38.9918ZM76.4613 41C76.4613 41.6812 76.4482 42.3506 76.4221 43.0082L77.4213 43.0478C77.448 42.3765 77.4613 41.6939 77.4613 41H76.4613ZM76.085 47.0017C75.9034 48.3704 75.6561 49.6795 75.3436 50.9294L76.3137 51.172C76.636 49.8831 76.8901 48.5368 77.0764 47.1332L76.085 47.0017ZM74.1232 54.7226C73.8731 55.346 73.603 55.9513 73.3129 56.5386L74.2096 56.9814C74.5112 56.3705 74.7918 55.7417 75.0513 55.0951L74.1232 54.7226ZM73.3129 56.5386C73.0659 57.0389 72.808 57.5251 72.5395 57.9972L73.4087 58.4916C73.6871 58.0022 73.9541 57.4988 74.2096 56.9814L73.3129 56.5386ZM70.7324 60.7499C70.0607 61.6381 69.3396 62.462 68.5691 63.2219L69.2713 63.9339C70.0771 63.1391 70.83 62.2787 71.53 61.3531L70.7324 60.7499ZM66.0653 65.3424C65.623 65.6625 65.1678 65.9663 64.6995 66.254L65.223 67.106C65.7125 66.8053 66.1887 66.4875 66.6516 66.1525L66.0653 65.3424ZM64.6968 66.2557C64.2361 66.5427 63.767 66.8114 63.2895 67.0616L63.7536 67.9474C64.2533 67.6855 64.744 67.4045 65.2257 67.1043L64.6968 66.2557ZM60.3139 68.3451C59.3029 68.6939 58.2578 68.9712 57.1783 69.177L57.3656 70.1593C58.491 69.9448 59.5825 69.6552 60.64 69.2904L60.3139 68.3451ZM53.9508 69.5729C53.4153 69.6043 52.8721 69.62 52.3213 69.62V70.62C52.8911 70.62 53.4538 70.6037 54.0093 70.5712L53.9508 69.5729ZM52.3213 56.66C51.9266 56.66 51.5443 56.6296 51.1742 56.5694L51.0136 57.5564C51.4391 57.6256 51.8751 57.66 52.3213 57.66V56.66ZM49.0259 55.8155C48.6993 55.6313 48.3819 55.4162 48.0736 55.1696L47.4489 55.9504C47.7973 56.2292 48.1592 56.4747 48.5346 56.6865L49.0259 55.8155ZM48.0813 55.1759C47.7391 54.8907 47.4119 54.5529 47.1003 54.1603L46.317 54.7819C46.6669 55.2228 47.0413 55.6109 47.4412 55.9441L48.0813 55.1759ZM45.645 51.6561C45.4582 51.2271 45.2813 50.768 45.1145 50.2787L44.168 50.6013C44.3428 51.1141 44.5294 51.5989 44.7281 52.0552L45.645 51.6561ZM45.1187 50.2915C44.9053 49.6057 44.7222 48.8532 44.5701 48.033L43.5869 48.2153C43.7451 49.0687 43.9372 49.8601 44.1638 50.5885L45.1187 50.2915ZM44.0715 43.3625C44.038 42.6094 44.0213 41.8219 44.0213 41H43.0213C43.0213 41.8355 43.0383 42.6378 43.0725 43.4069L44.0715 43.3625ZM44.0213 41C44.0213 40.1761 44.0377 39.3884 44.0704 38.6367L43.0713 38.5932C43.0379 39.3606 43.0213 40.163 43.0213 41H44.0213ZM44.5642 33.9656C44.7173 33.1401 44.9021 32.3891 45.1177 31.7116L44.1648 31.4084C43.9347 32.1314 43.7405 32.9234 43.5809 33.7833L44.5642 33.9656ZM45.1145 31.7213C45.2813 31.232 45.4582 30.7729 45.645 30.3439L44.7281 29.9448C44.5294 30.4011 44.3428 30.8859 44.168 31.3987L45.1145 31.7213ZM47.1003 27.8397C47.4119 27.4471 47.7391 27.1093 48.0813 26.8241L47.4412 26.0559C47.0413 26.3891 46.6669 26.7772 46.317 27.2181L47.1003 27.8397ZM48.0736 26.8304C48.3819 26.5838 48.6993 26.3687 49.0259 26.1845L48.5346 25.3135C48.1592 25.5253 47.7973 25.7708 47.4489 26.0496L48.0736 26.8304ZM51.1742 25.4306C51.5443 25.3704 51.9266 25.34 52.3213 25.34V24.34C51.8751 24.34 51.4391 24.3744 51.0136 24.4436L51.1742 25.4306ZM52.3213 25.34C52.7117 25.34 53.0882 25.3697 53.451 25.4286L53.6111 24.4415C53.1927 24.3736 52.7626 24.34 52.3213 24.34V25.34ZM55.5573 26.1765C55.8761 26.3609 56.1841 26.5765 56.4812 26.8241L57.1213 26.0559C56.7824 25.7734 56.4279 25.5248 56.058 25.3109L55.5573 26.1765ZM56.4889 26.8304C56.8406 27.1118 57.1732 27.4439 57.4861 27.8287L58.262 27.1977C57.9077 26.7622 57.5252 26.3788 57.1136 26.0496L56.4889 26.8304ZM58.9373 30.3271C59.1189 30.7579 59.2881 31.2193 59.4448 31.7116L60.3977 31.4084C60.2327 30.8899 60.0532 30.3999 59.8587 29.9386L58.9373 30.3271ZM59.4448 31.7116C59.6604 32.3891 59.8452 33.1401 59.9983 33.9656L60.9816 33.7833C60.8221 32.9234 60.6278 32.1314 60.3977 31.4084L59.4448 31.7116ZM60.4921 38.6367C60.5249 39.3884 60.5413 40.1761 60.5413 41H61.5413C61.5413 40.163 61.5246 39.3606 61.4912 38.5932L60.4921 38.6367ZM60.5413 41C60.5413 41.8219 60.5245 42.6094 60.491 43.3625L61.49 43.4069C61.5242 42.6378 61.5413 41.8355 61.5413 41H60.5413ZM59.9924 48.033C59.8403 48.8532 59.6572 49.6057 59.4438 50.2915L60.3987 50.5885C60.6253 49.8601 60.8174 49.0687 60.9756 48.2153L59.9924 48.033ZM59.4448 50.2884C59.2881 50.7807 59.1189 51.2421 58.9373 51.6729L59.8587 52.0614C60.0532 51.6001 60.2327 51.1101 60.3977 50.5916L59.4448 50.2884ZM57.4861 54.1713C57.1732 54.5561 56.8406 54.8882 56.4889 55.1696L57.1136 55.9504C57.5252 55.6212 57.9077 55.2378 58.262 54.8023L57.4861 54.1713ZM56.4812 55.1759C56.1841 55.4235 55.8761 55.6391 55.5573 55.8235L56.058 56.6891C56.4279 56.4752 56.7824 56.2266 57.1213 55.9441L56.4812 55.1759ZM53.451 56.5714C53.0882 56.6303 52.7117 56.66 52.3213 56.66V57.66C52.7626 57.66 53.1927 57.6264 53.6111 57.5585L53.451 56.5714ZM39.5213 66.68L38.9923 67.5287L38.9978 67.5321L39.5213 66.68ZM30.8013 56.76L29.9046 57.2028L29.9046 57.2028L30.8013 56.76ZM30.8013 25.24L29.9046 24.7972L29.9046 24.7972L30.8013 25.24ZM39.5213 15.32L38.9978 14.4679L38.9924 14.4713L39.5213 15.32ZM64.9613 15.32L64.4324 16.1687L64.4378 16.1721L64.9613 15.32ZM73.7613 25.24L72.8646 25.6828L72.8646 25.6828L73.7613 25.24ZM73.7613 56.76L72.8646 56.3172L72.8646 56.3172L73.7613 56.76ZM64.9613 66.68L64.4378 65.8279L64.4324 65.8313L64.9613 66.68ZM56.8013 55.56L56.1766 54.7791L56.1687 54.7854L56.1611 54.7918L56.8013 55.56ZM59.9213 50.44L60.8742 50.7432L60.8761 50.7371L59.9213 50.44ZM59.9213 31.56L58.9683 31.8632L59.9213 31.56ZM56.8013 26.44L56.1611 27.2082L56.1687 27.2146L56.1766 27.2209L56.8013 26.44ZM47.7613 26.44L47.1366 25.6591L47.1287 25.6654L47.1211 25.6718L47.7613 26.44ZM44.6413 31.56L43.6947 31.2373L43.6914 31.247L43.6883 31.2568L44.6413 31.56ZM44.6413 50.44L43.6864 50.7371L43.6904 50.7499L43.6947 50.7627L44.6413 50.44ZM47.7613 55.56L47.1211 56.3282L47.1287 56.3346L47.1366 56.3409L47.7613 55.56ZM52.3213 69.12C51.7734 69.12 51.2334 69.1045 50.7013 69.0737L50.5856 71.0704C51.1572 71.1035 51.7357 71.12 52.3213 71.12V69.12ZM47.4982 68.6855C46.4279 68.484 45.3923 68.2126 44.3909 67.8716L43.7463 69.7649C44.8397 70.1372 45.9672 70.4324 47.1281 70.651L47.4982 68.6855ZM41.4416 66.6166C40.9678 66.3718 40.5021 66.1089 40.0447 65.8279L38.9978 67.5321C39.4971 67.8387 40.0056 68.1259 40.5235 68.3935L41.4416 66.6166ZM40.0501 65.8313C39.597 65.5489 39.1563 65.2505 38.728 64.9362L37.5446 66.5485C38.0139 66.8929 38.4965 67.2197 38.9924 67.5287L40.0501 65.8313ZM36.3062 62.8579C35.562 62.115 34.8637 61.3088 34.2113 60.4388L32.6111 61.6386C33.319 62.5826 34.0796 63.461 34.8932 64.2733L36.3062 62.8579ZM32.4539 57.7453C32.192 57.2834 31.9399 56.8074 31.6979 56.3172L29.9046 57.2028C30.1631 57.7262 30.4329 58.2359 30.7141 58.7318L32.4539 57.7453ZM31.6979 56.3172C31.4137 55.7417 31.1488 55.1482 30.9033 54.5364L29.0472 55.2813C29.3113 55.9396 29.5971 56.5801 29.9046 57.2028L31.6979 56.3172ZM29.704 50.8082C29.3963 49.5777 29.1525 48.2872 28.9731 46.9359L26.9905 47.199C27.1791 48.62 27.4366 49.9849 27.7637 51.2933L29.704 50.8082ZM28.64 42.9884C28.6142 42.3376 28.6013 41.6748 28.6013 41H26.6013C26.6013 41.7003 26.6147 42.3895 26.6416 43.0676L28.64 42.9884ZM28.6013 41C28.6013 40.3252 28.6142 39.6624 28.64 39.0116L26.6416 38.9324C26.6147 39.6105 26.6013 40.2997 26.6013 41H28.6013ZM28.9731 35.0641C29.1525 33.7128 29.3963 32.4223 29.704 31.1918L27.7637 30.7067C27.4366 32.0151 27.1791 33.38 26.9905 34.801L28.9731 35.0641ZM30.9033 27.4636C31.1488 26.8518 31.4137 26.2583 31.6979 25.6828L29.9046 24.7972C29.5971 25.4199 29.3113 26.0604 29.0472 26.7187L30.9033 27.4636ZM31.6979 25.6828C31.9399 25.1926 32.192 24.7166 32.4539 24.2547L30.7141 23.2682C30.4329 23.7641 30.1631 24.2738 29.9046 24.7972L31.6979 25.6828ZM34.2113 21.5612C34.8637 20.6912 35.562 19.885 36.3062 19.1421L34.8932 17.7267C34.0796 18.539 33.319 19.4174 32.6111 20.3614L34.2113 21.5612ZM38.728 17.0638C39.1563 16.7495 39.597 16.4511 40.0501 16.1687L38.9924 14.4713C38.4965 14.7803 38.0139 15.1071 37.5446 15.4515L38.728 17.0638ZM40.0447 16.1721C40.5021 15.8911 40.9678 15.6282 41.4416 15.3834L40.5235 13.6065C40.0056 13.8741 39.4971 14.1612 38.9978 14.4679L40.0447 16.1721ZM44.3909 14.1284C45.3923 13.7874 46.4279 13.516 47.4982 13.3145L47.1281 11.349C45.9672 11.5676 44.8397 11.8628 43.7463 12.2351L44.3909 14.1284ZM50.7013 12.9263C51.2334 12.8954 51.7734 12.88 52.3213 12.88V10.88C51.7357 10.88 51.1572 10.8965 50.5856 10.9296L50.7013 12.9263ZM52.3213 12.88C52.8626 12.88 53.396 12.8954 53.9215 12.9262L54.0385 10.9296C53.4731 10.8965 52.9006 10.88 52.3213 10.88V12.88ZM57.0847 13.3141C58.1412 13.5155 59.1631 13.7868 60.1509 14.1276L60.8031 12.2369C59.7223 11.8641 58.6075 11.5684 57.4592 11.3495L57.0847 13.3141ZM63.0574 15.3813C63.5239 15.6257 63.9822 15.8881 64.4324 16.1687L65.4901 14.4713C64.998 14.1646 64.4965 13.8774 63.9856 13.6097L63.0574 15.3813ZM64.4378 16.1721C64.8954 16.4531 65.3401 16.75 65.7721 17.0627L66.9447 15.4424C66.4716 15.1 65.9849 14.7752 65.4847 14.4679L64.4378 16.1721ZM68.218 19.134C68.9708 19.8766 69.6761 20.6822 70.3336 21.5517L71.9288 20.3453C71.2146 19.4009 70.4459 18.5223 69.6224 17.7101L68.218 19.134ZM72.1049 24.2501C72.3685 24.7134 72.6217 25.191 72.8646 25.6828L74.6579 24.7972C74.3982 24.2713 74.1267 23.7593 73.8433 23.2611L72.1049 24.2501ZM72.8646 25.6828C73.1488 26.2583 73.4137 26.8518 73.6592 27.4636L75.5153 26.7187C75.2512 26.0604 74.9654 25.4199 74.6579 24.7972L72.8646 25.6828ZM74.8585 31.1918C75.1662 32.4223 75.41 33.7128 75.5894 35.0641L77.572 34.801C77.3834 33.38 77.1259 32.0151 76.7988 30.7067L74.8585 31.1918ZM75.9225 39.0116C75.9483 39.6624 75.9613 40.3252 75.9613 41H77.9613C77.9613 40.2997 77.9478 39.6105 77.9209 38.9324L75.9225 39.0116ZM75.9613 41C75.9613 41.6748 75.9483 42.3376 75.9225 42.9884L77.9209 43.0676C77.9478 42.3895 77.9613 41.7003 77.9613 41H75.9613ZM75.5894 46.9359C75.41 48.2872 75.1662 49.5777 74.8585 50.8082L76.7988 51.2933C77.1259 49.9849 77.3834 48.62 77.572 47.199L75.5894 46.9359ZM73.6592 54.5364C73.4137 55.1481 73.1488 55.7417 72.8646 56.3172L74.6579 57.2028C74.9654 56.5801 75.2512 55.9396 75.5153 55.2813L73.6592 54.5364ZM72.8646 56.3172C72.6217 56.809 72.3685 57.2866 72.1049 57.7499L73.8433 58.7389C74.1267 58.2407 74.3982 57.7287 74.6579 57.2028L72.8646 56.3172ZM70.3336 60.4483C69.6761 61.3178 68.9708 62.1234 68.218 62.866L69.6224 64.2899C70.4459 63.4777 71.2146 62.5991 71.9288 61.6546L70.3336 60.4483ZM65.7721 64.9373C65.3401 65.25 64.8954 65.5469 64.4378 65.8279L65.4847 67.5321C65.9849 67.2248 66.4716 66.9 66.9447 66.5576L65.7721 64.9373ZM64.4324 65.8313C63.9822 66.1119 63.5239 66.3743 63.0574 66.6187L63.9856 68.3903C64.4965 68.1226 64.998 67.8354 65.4901 67.5287L64.4324 65.8313ZM60.1509 67.8724C59.1631 68.2132 58.1412 68.4844 57.0847 68.6859L57.4592 70.6505C58.6075 70.4316 59.7223 70.1359 60.8031 69.7631L60.1509 67.8724ZM53.9215 69.0738C53.396 69.1046 52.8626 69.12 52.3213 69.12V71.12C52.9006 71.12 53.4731 71.1035 54.0385 71.0703L53.9215 69.0738ZM52.3213 56.16C51.9523 56.16 51.597 56.1316 51.2545 56.0759L50.9333 58.0499C51.3864 58.1237 51.8493 58.16 52.3213 58.16V56.16ZM49.2716 55.38C48.9694 55.2095 48.6741 55.0097 48.3859 54.7791L47.1366 56.3409C47.505 56.6357 47.8891 56.8965 48.2889 57.122L49.2716 55.38ZM48.4014 54.7918C48.088 54.5306 47.7844 54.218 47.492 53.8495L45.9254 55.0927C46.2944 55.5578 46.6924 55.971 47.1211 56.3282L48.4014 54.7918ZM46.1034 51.4566C45.9226 51.0412 45.7506 50.595 45.5878 50.1173L43.6947 50.7627C43.8736 51.2872 44.065 51.7848 44.2696 52.2548L46.1034 51.4566ZM45.5961 50.1429C45.3894 49.4785 45.2108 48.7454 45.0617 47.9418L43.0953 48.3065C43.2566 49.1765 43.4531 49.9872 43.6864 50.7371L45.5961 50.1429ZM44.571 43.3402C44.5379 42.5952 44.5213 41.8152 44.5213 41H42.5213C42.5213 41.8422 42.5384 42.652 42.573 43.4291L44.571 43.3402ZM44.5213 41C44.5213 40.1827 44.5375 39.4023 44.5699 38.6584L42.5718 38.5714C42.538 39.3468 42.5213 40.1564 42.5213 41H44.5213ZM45.0558 34.0568C45.2057 33.2484 45.3858 32.518 45.5942 31.8632L43.6883 31.2568C43.4511 32.0025 43.252 32.815 43.0893 33.6921L45.0558 34.0568ZM45.5878 31.8827C45.7506 31.405 45.9226 30.9588 46.1034 30.5434L44.2696 29.7452C44.065 30.2152 43.8736 30.7128 43.6947 31.2373L45.5878 31.8827ZM47.492 28.1505C47.7844 27.782 48.088 27.4694 48.4014 27.2082L47.1211 25.6718C46.6924 26.029 46.2944 26.4422 45.9254 26.9073L47.492 28.1505ZM48.3859 27.2209C48.6741 26.9903 48.9694 26.7905 49.2716 26.62L48.2889 24.878C47.8891 25.1035 47.505 25.3643 47.1366 25.6591L48.3859 27.2209ZM51.2545 25.9241C51.597 25.8684 51.9523 25.84 52.3213 25.84V23.84C51.8493 23.84 51.3864 23.8763 50.9333 23.9501L51.2545 25.9241ZM52.3213 25.84C52.6863 25.84 53.0359 25.8678 53.3709 25.9221L53.6912 23.9479C53.245 23.8756 52.7881 23.84 52.3213 23.84V25.84ZM55.307 26.6093C55.6002 26.7789 55.8849 26.9781 56.1611 27.2082L57.4414 25.6718C57.0815 25.3718 56.7038 25.1068 56.3083 24.878L55.307 26.6093ZM56.1766 27.2209C56.4983 27.4783 56.8059 27.7847 57.0982 28.1441L58.6499 26.8822C58.275 26.4213 57.8675 26.0123 57.4259 25.6591L56.1766 27.2209ZM58.4765 30.5213C58.6517 30.9369 58.8158 31.384 58.9683 31.8632L60.8742 31.2568C60.705 30.7252 60.5203 30.2209 60.3195 29.7444L58.4765 30.5213ZM58.9683 31.8632C59.1767 32.518 59.3568 33.2484 59.5067 34.0568L61.4732 33.6921C61.3105 32.815 61.1115 32.0025 60.8742 31.2568L58.9683 31.8632ZM59.9926 38.6584C60.025 39.4023 60.0413 40.1827 60.0413 41H62.0413C62.0413 40.1564 62.0245 39.3468 61.9907 38.5714L59.9926 38.6584ZM60.0413 41C60.0413 41.8152 60.0246 42.5952 59.9915 43.3402L61.9895 43.4291C62.0241 42.652 62.0413 41.8422 62.0413 41H60.0413ZM59.5008 47.9418C59.3517 48.7454 59.1731 49.4785 58.9664 50.1429L60.8761 50.7371C61.1094 49.9872 61.3059 49.1765 61.4672 48.3065L59.5008 47.9418ZM58.9683 50.1368C58.8158 50.616 58.6517 51.0631 58.4765 51.4787L60.3195 52.2556C60.5203 51.7791 60.705 51.2748 60.8742 50.7432L58.9683 50.1368ZM57.0982 53.8559C56.8059 54.2153 56.4983 54.5217 56.1766 54.7791L57.4259 56.3409C57.8675 55.9877 58.275 55.5787 58.6499 55.1178L57.0982 53.8559ZM56.1611 54.7918C55.8849 55.0219 55.6002 55.2211 55.307 55.3907L56.3083 57.122C56.7038 56.8932 57.0815 56.6282 57.4414 56.3282L56.1611 54.7918ZM53.3709 56.0779C53.0359 56.1322 52.6863 56.16 52.3213 56.16V58.16C52.7881 58.16 53.245 58.1244 53.6912 58.0521L53.3709 56.0779ZM90.2256 68.68L90.1044 69.1651L90.1059 69.1655L90.2256 68.68ZM80.1456 64.6L79.6954 64.3825L79.4983 64.7904L79.8849 65.0266L80.1456 64.6ZM85.9056 52.68L86.183 52.264L85.7052 51.9455L85.4554 52.4625L85.9056 52.68ZM93.3456 56.12L93.2045 56.5997L93.207 56.6004L93.3456 56.12ZM107.906 55.8L108.173 56.2224L108.173 56.2224L107.906 55.8ZM108.306 47.56L108.003 47.9582L108.013 47.9658L108.306 47.56ZM95.1056 46.04H94.6056V46.54H95.1056V46.04ZM95.1056 36.04L94.7388 35.7003L94.6056 35.844V36.04H95.1056ZM110.146 19.8L110.627 19.6654L110.386 18.8041L109.779 19.4603L110.146 19.8ZM111.666 25.24V25.74H112.324L112.147 25.1054L111.666 25.24ZM83.0256 25.24H82.5256V25.74H83.0256V25.24ZM83.0256 13V12.5H82.5256V13H83.0256ZM123.506 13H124.006V12.5H123.506V13ZM123.506 22.92L123.872 23.2597L124.006 23.116V22.92H123.506ZM108.466 39.16L108.219 39.5949L108.563 39.7902L108.832 39.4997L108.466 39.16ZM100.706 34.76V34.26H98.8101L100.459 35.1949L100.706 34.76ZM120.866 39.48L120.535 39.8553L120.541 39.8604L120.866 39.48ZM123.666 60.52L123.241 60.2557L123.238 60.2616L123.666 60.52ZM115.746 67.48L115.967 67.9286L115.972 67.9259L115.746 67.48ZM101.906 69.62C100.934 69.62 99.9614 69.5898 98.9893 69.5293L98.9272 70.5273C99.9199 70.5891 100.913 70.62 101.906 70.62V69.62ZM93.1993 68.8114C92.2481 68.6348 91.2968 68.4292 90.3453 68.1945L90.1059 69.1655C91.076 69.4047 92.0463 69.6144 93.0167 69.7946L93.1993 68.8114ZM90.3469 68.1949C89.4548 67.9719 88.5895 67.7272 87.751 67.4609L87.4484 68.414C88.3076 68.6869 89.1929 68.9372 90.1044 69.1651L90.3469 68.1949ZM82.7573 65.4664C81.9398 65.0626 81.1562 64.6316 80.4063 64.1734L79.8849 65.0266C80.6612 65.501 81.4711 65.9465 82.3145 66.363L82.7573 65.4664ZM80.5958 64.8175L81.3158 63.3275L80.4154 62.8925L79.6954 64.3825L80.5958 64.8175ZM82.7558 60.3475L84.1958 57.3675L83.2954 56.9325L81.8554 59.9125L82.7558 60.3475ZM85.6358 54.3875L86.3558 52.8975L85.4554 52.4625L84.7354 53.9525L85.6358 54.3875ZM85.6283 53.096C86.2089 53.4831 86.8052 53.8472 87.4172 54.1885L87.9042 53.3151C87.3152 52.9867 86.7414 52.6363 86.183 52.264L85.6283 53.096ZM91.2194 55.9397C91.8669 56.1809 92.5286 56.4009 93.2045 56.5997L93.4867 55.6403C92.8329 55.448 92.1935 55.2354 91.5685 55.0026L91.2194 55.9397ZM93.207 56.6004C93.8829 56.7954 94.5546 56.9671 95.222 57.1154L95.439 56.1392C94.7924 55.9955 94.1408 55.829 93.4842 55.6396L93.207 56.6004ZM99.34 57.738C100.04 57.7926 100.736 57.82 101.426 57.82V56.82C100.762 56.82 100.093 56.7937 99.4178 56.741L99.34 57.738ZM101.426 57.82C102.026 57.82 102.602 57.7958 103.154 57.7472L103.066 56.751C102.546 56.7969 102 56.82 101.426 56.82V57.82ZM106.573 57.0126C107.151 56.7947 107.685 56.5317 108.173 56.2224L107.638 55.3776C107.212 55.6476 106.74 55.881 106.22 56.0768L106.573 57.0126ZM108.173 56.2224C108.585 55.9615 108.952 55.6712 109.273 55.3504L108.565 54.6439C108.302 54.9074 107.994 55.1524 107.638 55.3776L108.173 56.2224ZM110.651 52.8788C110.755 52.435 110.806 51.9682 110.806 51.48H109.806C109.806 51.8986 109.762 52.2884 109.677 52.6507L110.651 52.8788ZM110.806 51.48C110.806 51.0477 110.763 50.6324 110.677 50.2355L109.7 50.4475C109.77 50.769 109.806 51.1128 109.806 51.48H110.806ZM109.533 47.9883C109.261 47.6847 108.949 47.407 108.598 47.1542L108.013 47.9658C108.311 48.1798 108.568 48.4097 108.787 48.6549L109.533 47.9883ZM108.608 47.1619C108.145 46.8099 107.599 46.5204 106.976 46.2885L106.627 47.2256C107.175 47.4296 107.631 47.6753 108.003 47.9581L108.608 47.1619ZM103.493 45.6013C102.943 45.5603 102.36 45.54 101.746 45.54V46.54C102.338 46.54 102.896 46.5596 103.418 46.5985L103.493 45.6013ZM101.746 45.54H100.086V46.54H101.746V45.54ZM96.7656 45.54H95.1056V46.54H96.7656V45.54ZM95.6056 46.04V43.54H94.6056V46.04H95.6056ZM95.6056 38.54V36.04H94.6056V38.54H95.6056ZM95.4725 36.3797L96.7258 35.0264L95.9921 34.3469L94.7388 35.7003L95.4725 36.3797ZM99.2325 32.3197L101.739 29.6131L101.005 28.9336L98.4988 31.6403L99.2325 32.3197ZM104.246 26.9064L106.752 24.1997L106.019 23.5203L103.512 26.2269L104.246 26.9064ZM109.259 21.4931L110.512 20.1397L109.779 19.4603L108.525 20.8136L109.259 21.4931ZM109.664 19.9346L110.044 21.2946L111.007 21.0254L110.627 19.6654L109.664 19.9346ZM110.804 24.0145L111.184 25.3745L112.147 25.1054L111.767 23.7454L110.804 24.0145ZM111.666 24.74H109.876V25.74H111.666V24.74ZM106.296 24.74H102.716V25.74H106.296V24.74ZM99.1356 24.74H95.5556V25.74H99.1356V24.74ZM91.9756 24.74H88.3956V25.74H91.9756V24.74ZM84.8156 24.74H83.0256V25.74H84.8156V24.74ZM83.5256 25.24V23.71H82.5256V25.24H83.5256ZM83.5256 20.65V17.59H82.5256V20.65H83.5256ZM83.5256 14.53V13H82.5256V14.53H83.5256ZM83.0256 13.5H85.0496V12.5H83.0256V13.5ZM89.0976 13.5H93.1456V12.5H89.0976V13.5ZM97.1936 13.5H101.242V12.5H97.1936V13.5ZM105.29 13.5H109.338V12.5H105.29V13.5ZM113.386 13.5H117.434V12.5H113.386V13.5ZM121.482 13.5H123.506V12.5H121.482V13.5ZM123.006 13V15.48H124.006V13H123.006ZM123.006 20.44V22.92H124.006V20.44H123.006ZM123.139 22.5803L121.885 23.9336L122.619 24.6131L123.872 23.2597L123.139 22.5803ZM119.379 26.6403L116.872 29.3469L117.606 30.0264L120.112 27.3197L119.379 26.6403ZM114.365 32.0536L111.859 34.7603L112.592 35.4397L115.099 32.7331L114.365 32.0536ZM109.352 37.4669L108.099 38.8203L108.832 39.4997L110.086 38.1464L109.352 37.4669ZM108.712 38.7251L106.772 37.6251L106.279 38.4949L108.219 39.5949L108.712 38.7251ZM102.892 35.4251L100.952 34.3251L100.459 35.1949L102.399 36.2949L102.892 35.4251ZM100.706 35.26H101.786V34.26H100.706V35.26ZM103.946 35.26H105.026V34.26H103.946V35.26ZM105.026 35.26C105.74 35.26 106.436 35.2766 107.113 35.3098L107.162 34.311C106.468 34.277 105.755 34.26 105.026 34.26V35.26ZM111.247 35.7573C112.688 36.01 114.02 36.3584 115.243 36.801L115.583 35.8607C114.3 35.3962 112.911 35.0339 111.419 34.7724L111.247 35.7573ZM118.913 38.6179C119.49 38.9983 120.03 39.4108 120.535 39.8552L121.196 39.1048C120.656 38.6289 120.078 38.1884 119.464 37.7831L118.913 38.6179ZM120.541 39.8604C120.969 40.2257 121.371 40.6033 121.746 40.9933L122.467 40.3001C122.068 39.8856 121.642 39.4854 121.19 39.0996L120.541 39.8604ZM123.751 43.5986C124.315 44.5377 124.763 45.5351 125.095 46.5917L126.049 46.2921C125.694 45.1609 125.214 44.0911 124.608 43.0836L123.751 43.5986ZM125.732 49.8238C125.781 50.3626 125.806 50.9147 125.806 51.48H126.806C126.806 50.8855 126.78 50.3031 126.728 49.7328L125.732 49.8238ZM125.806 51.48C125.806 52.2614 125.752 53.0306 125.644 53.7877L126.634 53.9288C126.748 53.124 126.806 52.3077 126.806 51.48H125.806ZM124.341 58.2127C124.026 58.9034 123.659 59.5844 123.241 60.2557L124.09 60.7843C124.53 60.0779 124.917 59.359 125.25 58.6277L124.341 58.2127ZM123.238 60.2616C122.796 60.9924 122.29 61.689 121.719 62.3512L122.476 63.0046C123.083 62.3006 123.623 61.5586 124.094 60.7784L123.238 60.2616ZM117.788 65.7308C117.082 66.1905 116.325 66.625 115.519 67.0341L115.972 67.9259C116.808 67.5017 117.595 67.0495 118.334 66.569L117.788 65.7308ZM115.525 67.0315C115.018 67.2809 114.49 67.5125 113.939 67.7263L114.3 68.6586C114.877 68.4347 115.433 68.1914 115.967 67.9285L115.525 67.0315ZM110.611 68.7376C109.528 68.9876 108.379 69.1848 107.165 69.3288L107.283 70.3218C108.53 70.1739 109.714 69.9708 110.836 69.712L110.611 68.7376ZM103.665 69.5902C103.091 69.61 102.504 69.62 101.906 69.62V70.62C102.515 70.62 103.113 70.6099 103.7 70.5896L103.665 69.5902ZM90.2256 68.68L89.9831 69.6501L89.9862 69.6509L90.2256 68.68ZM80.1456 64.6L79.2452 64.1649L78.851 64.9808L79.6242 65.4533L80.1456 64.6ZM85.9056 52.68L86.4603 51.8479L85.5049 51.211L85.0052 52.2449L85.9056 52.68ZM93.3456 56.12L93.0635 57.0794L93.0685 57.0808L93.3456 56.12ZM107.906 55.8L108.441 56.6448L108.441 56.6448L107.906 55.8ZM108.306 47.56L107.701 48.3562L107.711 48.364L107.721 48.3715L108.306 47.56ZM95.1056 46.04H94.1056V47.04H95.1056V46.04ZM95.1056 36.04L94.3719 35.3605L94.1056 35.6481V36.04H95.1056ZM110.146 19.8L111.109 19.5309L110.627 17.8081L109.412 19.1205L110.146 19.8ZM111.666 25.24V26.24H112.983L112.629 24.9709L111.666 25.24ZM83.0256 25.24H82.0256V26.24H83.0256V25.24ZM83.0256 13V12H82.0256V13H83.0256ZM123.506 13H124.506V12H123.506V13ZM123.506 22.92L124.239 23.5995L124.506 23.3119V22.92H123.506ZM108.466 39.16L107.972 40.0299L108.661 40.4205L109.199 39.8395L108.466 39.16ZM100.706 34.76V33.76H96.9146L100.212 35.6299L100.706 34.76ZM120.866 39.48L120.205 40.2305L120.211 40.2357L120.217 40.2408L120.866 39.48ZM123.666 60.52L122.817 59.9914L122.81 60.0031L123.666 60.52ZM115.746 67.48L116.188 68.3772L116.198 68.3717L115.746 67.48ZM101.906 69.12C100.944 69.12 99.9821 69.0901 99.0203 69.0302L98.8961 71.0264C99.8992 71.0888 100.902 71.12 101.906 71.12V69.12ZM93.2906 68.3198C92.3491 68.145 91.4072 67.9414 90.465 67.7091L89.9862 69.6509C90.9656 69.8924 91.9453 70.1042 92.9254 70.2862L93.2906 68.3198ZM90.4682 67.7099C89.5857 67.4892 88.7305 67.2474 87.9024 66.9844L87.297 68.8906C88.1666 69.1667 89.062 69.4199 89.9831 69.6501L90.4682 67.7099ZM82.9787 65.0181C82.1742 64.6207 81.4037 64.1969 80.6671 63.7467L79.6242 65.4533C80.4137 65.9358 81.2367 66.3884 82.0931 66.8113L82.9787 65.0181ZM81.046 65.0351L81.766 63.5451L79.9652 62.6749L79.2452 64.1649L81.046 65.0351ZM83.206 60.5651L84.646 57.5851L82.8452 56.7149L81.4052 59.6949L83.206 60.5651ZM86.086 54.6051L86.806 53.1151L85.0052 52.2449L84.2852 53.7349L86.086 54.6051ZM85.3509 53.512C85.9426 53.9065 86.5502 54.2775 87.1737 54.6252L88.1477 52.8784C87.5702 52.5564 87.0077 52.2129 86.4603 51.8479L85.3509 53.512ZM91.0449 56.4083C91.7036 56.6536 92.3765 56.8773 93.0635 57.0794L93.6278 55.1606C92.985 54.9716 92.3568 54.7627 91.743 54.5341L91.0449 56.4083ZM93.0685 57.0808C93.754 57.2786 94.4357 57.4528 95.1136 57.6035L95.5475 55.6511C94.9113 55.5097 94.2697 55.3458 93.6228 55.1592L93.0685 57.0808ZM99.3011 58.2365C100.014 58.2921 100.722 58.32 101.426 58.32V56.32C100.775 56.32 100.119 56.2942 99.4567 56.2425L99.3011 58.2365ZM101.426 58.32C102.04 58.32 102.631 58.2953 103.198 58.2452L103.022 56.253C102.518 56.2974 101.986 56.32 101.426 56.32V58.32ZM106.749 57.4804C107.356 57.2516 107.921 56.9738 108.441 56.6448L107.371 54.9552C106.975 55.2055 106.534 55.4242 106.044 55.609L106.749 57.4804ZM108.441 56.6448C108.881 56.3661 109.278 56.0531 109.627 55.7037L108.211 54.2906C107.977 54.5255 107.698 54.7478 107.371 54.9552L108.441 56.6448ZM111.138 52.9928C111.251 52.5083 111.306 52.003 111.306 51.48H109.306C109.306 51.8639 109.266 52.2151 109.19 52.5367L111.138 52.9928ZM111.306 51.48C111.306 51.0151 111.26 50.5641 111.166 50.1294L109.211 50.5536C109.273 50.8374 109.306 51.1454 109.306 51.48H111.306ZM109.905 47.655C109.608 47.3223 109.268 47.0206 108.89 46.7485L107.721 48.3715C107.992 48.5661 108.221 48.7722 108.414 48.9882L109.905 47.655ZM108.911 46.7638C108.402 46.3772 107.811 46.0658 107.151 45.82L106.453 47.6941C106.963 47.8842 107.374 48.1081 107.701 48.3562L108.911 46.7638ZM103.53 45.1027C102.966 45.0607 102.371 45.04 101.746 45.04V47.04C102.327 47.04 102.872 47.0593 103.381 47.0972L103.53 45.1027ZM101.746 45.04H100.086V47.04H101.746V45.04ZM96.7656 45.04H95.1056V47.04H96.7656V45.04ZM96.1056 46.04V43.54H94.1056V46.04H96.1056ZM96.1056 38.54V36.04H94.1056V38.54H96.1056ZM95.8393 36.7195L97.0927 35.3661L95.6253 34.0072L94.3719 35.3605L95.8393 36.7195ZM99.5993 32.6595L102.106 29.9528L100.639 28.5939L98.1319 31.3005L99.5993 32.6595ZM104.613 27.2461L107.119 24.5395L105.652 23.1805L103.145 25.8872L104.613 27.2461ZM109.626 21.8328L110.879 20.4795L109.412 19.1205L108.159 20.4739L109.626 21.8328ZM109.183 20.0691L109.563 21.4291L111.489 20.8909L111.109 19.5309L109.183 20.0691ZM110.323 24.1491L110.703 25.5091L112.629 24.9709L112.249 23.6109L110.323 24.1491ZM111.666 24.24H109.876V26.24H111.666V24.24ZM106.296 24.24H102.716V26.24H106.296V24.24ZM99.1356 24.24H95.5556V26.24H99.1356V24.24ZM91.9756 24.24H88.3956V26.24H91.9756V24.24ZM84.8156 24.24H83.0256V26.24H84.8156V24.24ZM84.0256 25.24V23.71H82.0256V25.24H84.0256ZM84.0256 20.65V17.59H82.0256V20.65H84.0256ZM84.0256 14.53V13H82.0256V14.53H84.0256ZM83.0256 14H85.0496V12H83.0256V14ZM89.0976 14H93.1456V12H89.0976V14ZM97.1936 14H101.242V12H97.1936V14ZM105.29 14H109.338V12H105.29V14ZM113.386 14H117.434V12H113.386V14ZM121.482 14H123.506V12H121.482V14ZM122.506 13V15.48H124.506V13H122.506ZM122.506 20.44V22.92H124.506V20.44H122.506ZM122.772 22.2405L121.519 23.5939L122.986 24.9528L124.239 23.5995L122.772 22.2405ZM119.012 26.3005L116.505 29.0072L117.973 30.3661L120.479 27.6595L119.012 26.3005ZM113.999 31.7139L111.492 34.4205L112.959 35.7795L115.466 33.0728L113.999 31.7139ZM108.985 37.1272L107.732 38.4805L109.199 39.8395L110.453 38.4861L108.985 37.1272ZM108.959 38.2901L107.019 37.1901L106.032 38.9299L107.972 40.0299L108.959 38.2901ZM103.139 34.9901L101.199 33.8901L100.212 35.6299L102.152 36.7299L103.139 34.9901ZM100.706 35.76H101.786V33.76H100.706V35.76ZM103.946 35.76H105.026V33.76H103.946V35.76ZM105.026 35.76C105.732 35.76 106.42 35.7764 107.088 35.8092L107.186 33.8116C106.483 33.7772 105.763 33.76 105.026 33.76V35.76ZM111.16 36.2498C112.576 36.4981 113.88 36.8395 115.073 37.2712L115.754 35.3905C114.44 34.9151 113.023 34.5459 111.506 34.2799L111.16 36.2498ZM118.638 39.0352C119.196 39.4032 119.718 39.8017 120.205 40.2305L121.527 38.7295C120.968 38.238 120.372 37.7835 119.739 37.3658L118.638 39.0352ZM120.217 40.2408C120.633 40.5958 121.022 40.9622 121.386 41.3399L122.827 39.9536C122.417 39.5267 121.979 39.1153 121.515 38.7192L120.217 40.2408ZM123.323 43.8561C123.866 44.761 124.298 45.7222 124.618 46.7415L126.526 46.1423C126.159 44.9737 125.663 43.8677 125.037 42.8261L123.323 43.8561ZM125.234 49.8693C125.282 50.3924 125.306 50.9292 125.306 51.48H127.306C127.306 50.871 127.279 50.2734 127.225 49.6873L125.234 49.8693ZM125.306 51.48C125.306 52.2383 125.253 52.9839 125.149 53.7172L127.129 53.9993C127.247 53.1707 127.306 52.3308 127.306 51.48H125.306ZM123.886 58.0051C123.58 58.6756 123.224 59.3377 122.817 59.9914L124.515 61.0486C124.965 60.3246 125.362 59.5869 125.705 58.8353L123.886 58.0051ZM122.81 60.0031C122.383 60.7094 121.894 61.3831 121.34 62.0246L122.854 63.3312C123.48 62.6065 124.036 61.8416 124.522 61.0369L122.81 60.0031ZM117.515 65.3117C116.825 65.7611 116.084 66.1867 115.293 66.5883L116.198 68.3717C117.049 67.94 117.852 67.4789 118.606 66.988L117.515 65.3117ZM115.304 66.5829C114.811 66.8256 114.296 67.0514 113.758 67.2602L114.481 69.1247C115.071 68.8958 115.64 68.6467 116.187 68.3771L115.304 66.5829ZM110.499 68.2504C109.435 68.4959 108.304 68.6902 107.106 68.8323L107.342 70.8183C108.605 70.6685 109.807 70.4625 110.948 70.1992L110.499 68.2504ZM103.648 69.0905C103.079 69.1101 102.499 69.12 101.906 69.12V71.12C102.521 71.12 103.125 71.1098 103.717 71.0893L103.648 69.0905Z" fill="url(#paint0_linear_4030_309)" mask="url(#path-1-outside-1_4030_309)"/>
</g>
</g>
<defs>
<linearGradient id="paint0_linear_4030_309" x1="280" y1="68.8" x2="214.138" y2="-89.2406" gradientUnits="userSpaceOnUse">
<stop stop-color="white" stop-opacity="0"/>
<stop offset="1" stop-color="white"/>
</linearGradient>
<clipPath id="clip0_4030_309">
<rect width="138" height="80" fill="white"/>
</clipPath>
</defs>
</svg>
