<svg width="138" height="80" viewBox="0 0 138 80" fill="none" xmlns="http://www.w3.org/2000/svg">
<g clip-path="url(#clip0_4030_309)">
<g opacity="0.4">
<mask id="path-1-outside-1_4030_309" maskUnits="userSpaceOnUse" x="26" y="10" width="102" height="62" fill="black">
<rect fill="white" x="26" y="10" width="102" height="62"/>
<path d="M52.3213 70.12C47.5213 70.12 43.2546 68.9733 39.5213 66.68C35.8413 64.3867 32.9346 61.08 30.8013 56.76C28.6679 52.44 27.6013 47.1867 27.6013 41C27.6013 34.8133 28.6679 29.56 30.8013 25.24C32.9346 20.92 35.8413 17.6133 39.5213 15.32C43.2546 13.0267 47.5213 11.88 52.3213 11.88C57.0679 11.88 61.2813 13.0267 64.9613 15.32C68.6946 17.6133 71.6279 20.92 73.7613 25.24C75.8946 29.56 76.9613 34.8133 76.9613 41C76.9613 47.1867 75.8946 52.44 73.7613 56.76C71.6279 61.08 68.6946 64.3867 64.9613 66.68C61.2813 68.9733 57.0679 70.12 52.3213 70.12ZM52.3213 57.16C54.0279 57.16 55.5213 56.6267 56.8013 55.56C58.1346 54.4933 59.1746 52.7867 59.9213 50.44C60.6679 48.04 61.0413 44.8933 61.0413 41C61.0413 37.0533 60.6679 33.9067 59.9213 31.56C59.1746 29.2133 58.1346 27.5067 56.8013 26.44C55.5213 25.3733 54.0279 24.84 52.3213 24.84C50.6146 24.84 49.0946 25.3733 47.7613 26.44C46.4813 27.5067 45.4413 29.2133 44.6413 31.56C43.8946 33.9067 43.5213 37.0533 43.5213 41C43.5213 44.8933 43.8946 48.04 44.6413 50.44C45.4413 52.7867 46.4813 54.4933 47.7613 55.56C49.0946 56.6267 50.6146 57.16 52.3213 57.16ZM83.1 69V59.08L104.06 39.48C105.553 38.0933 106.647 36.8667 107.34 35.8C108.087 34.7333 108.567 33.7733 108.78 32.92C109.047 32.0133 109.18 31.1867 109.18 30.44C109.18 28.6267 108.567 27.2133 107.34 26.2C106.167 25.1867 104.38 24.68 101.98 24.68C99.9533 24.68 98.06 25.1333 96.3 26.04C94.54 26.9467 93.1 28.3067 91.98 30.12L80.22 23.56C82.3 20.04 85.3133 17.2133 89.26 15.08C93.2067 12.9467 97.9267 11.88 103.42 11.88C107.74 11.88 111.527 12.5733 114.78 13.96C118.033 15.3467 120.567 17.32 122.38 19.88C124.247 22.44 125.18 25.4533 125.18 28.92C125.18 30.7333 124.94 32.5467 124.46 34.36C123.98 36.12 123.047 38.0133 121.66 40.04C120.327 42.0133 118.327 44.2267 115.66 46.68L99.02 62.04L96.38 56.44H126.7V69H83.1Z"/>
</mask>
<path d="M39.5213 66.68L39.2568 67.1044L39.2595 67.106L39.5213 66.68ZM30.8013 56.76L30.3529 56.9814L30.3529 56.9814L30.8013 56.76ZM30.8013 25.24L30.3529 25.0186L30.3529 25.0186L30.8013 25.24ZM39.5213 15.32L39.2595 14.894L39.2568 14.8957L39.5213 15.32ZM64.9613 15.32L64.6968 15.7444L64.6995 15.746L64.9613 15.32ZM73.7613 25.24L73.3129 25.4614L73.3129 25.4614L73.7613 25.24ZM73.7613 56.76L73.3129 56.5386L73.3129 56.5386L73.7613 56.76ZM64.9613 66.68L64.6995 66.254L64.6968 66.2557L64.9613 66.68ZM56.8013 55.56L56.4888 55.1695L56.4812 55.1759L56.8013 55.56ZM59.9213 50.44L60.3977 50.5916L60.3987 50.5885L59.9213 50.44ZM59.9213 31.56L59.4448 31.7116L59.9213 31.56ZM56.8013 26.44L56.4811 26.8242L56.4889 26.8304L56.8013 26.44ZM47.7613 26.44L47.4488 26.0495L47.4412 26.0559L47.7613 26.44ZM44.6413 31.56L44.1679 31.3986L44.1648 31.4084L44.6413 31.56ZM44.6413 50.44L44.1636 50.5886L44.168 50.6013L44.6413 50.44ZM47.7613 55.56L47.4411 55.9442L47.4489 55.9504L47.7613 55.56ZM52.3213 69.62C51.7639 69.62 51.2143 69.6043 50.6723 69.5729L50.6145 70.5712C51.1762 70.6038 51.7451 70.62 52.3213 70.62V69.62ZM47.4057 69.1769C46.3127 68.9711 45.2542 68.6937 44.2297 68.345L43.9074 69.2916C44.9779 69.656 46.0823 69.9453 47.2206 70.1596L47.4057 69.1769ZM41.2121 67.0608C40.7272 66.8103 40.2509 66.5414 39.783 66.254L39.2595 67.106C39.7483 67.4063 40.2462 67.6874 40.7531 67.9493L41.2121 67.0608ZM39.7857 66.2557C39.3219 65.9666 38.8707 65.6611 38.4321 65.3392L37.8404 66.1454C38.2995 66.4823 38.7716 66.802 39.2568 67.1043L39.7857 66.2557ZM35.9529 63.2117C35.1914 62.4515 34.4775 61.6273 33.8112 60.7387L33.0112 61.3386C33.7051 62.2641 34.4502 63.1245 35.2464 63.9194L35.9529 63.2117ZM32.0189 57.9919C31.7522 57.5215 31.4957 57.0371 31.2496 56.5386L30.3529 56.9814C30.6073 57.4965 30.8727 57.9978 31.149 58.4852L32.0189 57.9919ZM31.2496 56.5386C30.9595 55.9513 30.6894 55.346 30.4393 54.7226L29.5112 55.0951C29.7707 55.7417 30.0513 56.3705 30.3529 56.9814L31.2496 56.5386ZM29.2189 50.9294C28.9064 49.6795 28.6591 48.3704 28.4775 47.0017L27.4861 47.1332C27.6724 48.5368 27.9265 49.8831 28.2488 51.172L29.2189 50.9294ZM28.1404 43.0082C28.1143 42.3506 28.1013 41.6812 28.1013 41H27.1013C27.1013 41.6939 27.1145 42.3765 27.1412 43.0478L28.1404 43.0082ZM28.1013 41C28.1013 40.3188 28.1143 39.6494 28.1404 38.9918L27.1412 38.9522C27.1145 39.6235 27.1013 40.3061 27.1013 41H28.1013ZM28.4775 34.9983C28.6591 33.6296 28.9064 32.3205 29.2189 31.0706L28.2488 30.828C27.9265 32.1169 27.6724 33.4632 27.4861 34.8668L28.4775 34.9983ZM30.4393 27.2774C30.6894 26.654 30.9595 26.0487 31.2496 25.4614L30.3529 25.0186C30.0513 25.6295 29.7707 26.2583 29.5112 26.9049L30.4393 27.2774ZM31.2496 25.4614C31.4957 24.9629 31.7522 24.4785 32.0189 24.0081L31.1491 23.5148C30.8727 24.0022 30.6073 24.5035 30.3529 25.0186L31.2496 25.4614ZM33.8112 21.2613C34.4775 20.3727 35.1914 19.5485 35.9529 18.7883L35.2464 18.0806C34.4502 18.8755 33.7051 19.7359 33.0112 20.6614L33.8112 21.2613ZM38.4321 16.6608C38.8707 16.3389 39.3219 16.0334 39.7857 15.7443L39.2568 14.8957C38.7716 15.198 38.2995 15.5177 37.8404 15.8546L38.4321 16.6608ZM39.783 15.746C40.2509 15.4586 40.7272 15.1897 41.2121 14.9392L40.7531 14.0507C40.2462 14.3126 39.7483 14.5937 39.2595 14.894L39.783 15.746ZM44.2297 13.655C45.2542 13.3063 46.3127 13.0289 47.4057 12.8231L47.2206 11.8404C46.0823 12.0547 44.9779 12.344 43.9074 12.7084L44.2297 13.655ZM50.6723 12.4271C51.2143 12.3957 51.7639 12.38 52.3213 12.38V11.38C51.7451 11.38 51.1762 11.3962 50.6145 11.4288L50.6723 12.4271ZM52.3213 12.38C52.8721 12.38 53.4153 12.3957 53.9508 12.4271L54.0093 11.4288C53.4538 11.3962 52.8911 11.38 52.3213 11.38V12.38ZM57.1783 12.823C58.2578 13.0288 59.3029 13.3061 60.3139 13.6549L60.64 12.7096C59.5825 12.3448 58.491 12.0552 57.3656 11.8407L57.1783 12.823ZM63.2895 14.9384C63.767 15.1886 64.2361 15.4573 64.6968 15.7443L65.2257 14.8957C64.744 14.5955 64.2533 14.3145 63.7536 14.0526L63.2895 14.9384ZM64.6995 15.746C65.1678 16.0337 65.623 16.3375 66.0653 16.6576L66.6516 15.8475C66.1887 15.5125 65.7125 15.1947 65.223 14.894L64.6995 15.746ZM68.5691 18.7781C69.3396 19.538 70.0607 20.3619 70.7324 21.2501L71.53 20.6469C70.83 19.7212 70.0771 18.8609 69.2713 18.0661L68.5691 18.7781ZM72.5395 24.0028C72.808 24.4749 73.0659 24.961 73.3129 25.4614L74.2096 25.0186C73.9541 24.5012 73.6871 23.9978 73.4087 23.5084L72.5395 24.0028ZM73.3129 25.4614C73.603 26.0487 73.8731 26.654 74.1232 27.2774L75.0513 26.9049C74.7918 26.2583 74.5112 25.6295 74.2096 25.0186L73.3129 25.4614ZM75.3436 31.0706C75.6561 32.3205 75.9034 33.6296 76.085 34.9983L77.0764 34.8668C76.8901 33.4632 76.636 32.1169 76.3137 30.828L75.3436 31.0706ZM76.4221 38.9918C76.4482 39.6494 76.4613 40.3188 76.4613 41H77.4613C77.4613 40.3061 77.448 39.6235 77.4213 38.9522L76.4221 38.9918ZM76.4613 41C76.4613 41.6812 76.4482 42.3506 76.4221 43.0082L77.4213 43.0478C77.448 42.3765 77.4613 41.6939 77.4613 41H76.4613ZM76.085 47.0017C75.9034 48.3704 75.6561 49.6795 75.3436 50.9294L76.3137 51.172C76.636 49.8831 76.8901 48.5368 77.0764 47.1332L76.085 47.0017ZM74.1232 54.7226C73.8731 55.346 73.603 55.9513 73.3129 56.5386L74.2096 56.9814C74.5112 56.3705 74.7918 55.7417 75.0513 55.0951L74.1232 54.7226ZM73.3129 56.5386C73.0659 57.0389 72.808 57.5251 72.5395 57.9972L73.4087 58.4916C73.6871 58.0022 73.9541 57.4988 74.2096 56.9814L73.3129 56.5386ZM70.7324 60.7499C70.0607 61.6381 69.3396 62.462 68.5691 63.2219L69.2713 63.9339C70.0771 63.1391 70.83 62.2787 71.53 61.3531L70.7324 60.7499ZM66.0653 65.3424C65.623 65.6625 65.1678 65.9663 64.6995 66.254L65.223 67.106C65.7125 66.8053 66.1887 66.4875 66.6516 66.1525L66.0653 65.3424ZM64.6968 66.2557C64.2361 66.5427 63.767 66.8114 63.2895 67.0616L63.7536 67.9474C64.2533 67.6855 64.744 67.4045 65.2257 67.1043L64.6968 66.2557ZM60.3139 68.3451C59.3029 68.6939 58.2578 68.9712 57.1783 69.177L57.3656 70.1593C58.491 69.9448 59.5825 69.6552 60.64 69.2904L60.3139 68.3451ZM53.9508 69.5729C53.4153 69.6043 52.8721 69.62 52.3213 69.62V70.62C52.8911 70.62 53.4538 70.6037 54.0093 70.5712L53.9508 69.5729ZM52.3213 56.66C51.9266 56.66 51.5443 56.6296 51.1742 56.5694L51.0136 57.5564C51.4391 57.6256 51.8751 57.66 52.3213 57.66V56.66ZM49.0259 55.8155C48.6993 55.6313 48.3819 55.4162 48.0736 55.1696L47.4489 55.9504C47.7973 56.2292 48.1592 56.4747 48.5346 56.6865L49.0259 55.8155ZM48.0813 55.1759C47.7391 54.8907 47.4119 54.5529 47.1003 54.1603L46.317 54.7819C46.6669 55.2228 47.0413 55.6109 47.4412 55.9441L48.0813 55.1759ZM45.645 51.6561C45.4582 51.2271 45.2813 50.768 45.1145 50.2787L44.168 50.6013C44.3428 51.1141 44.5294 51.5989 44.7281 52.0552L45.645 51.6561ZM45.1187 50.2915C44.9053 49.6057 44.7222 48.8532 44.5701 48.033L43.5869 48.2153C43.7451 49.0687 43.9372 49.8601 44.1638 50.5885L45.1187 50.2915ZM44.0715 43.3625C44.038 42.6094 44.0213 41.8219 44.0213 41H43.0213C43.0213 41.8355 43.0383 42.6378 43.0725 43.4069L44.0715 43.3625ZM44.0213 41C44.0213 40.1761 44.0377 39.3884 44.0704 38.6367L43.0713 38.5932C43.0379 39.3606 43.0213 40.163 43.0213 41H44.0213ZM44.5642 33.9656C44.7173 33.1401 44.9021 32.3891 45.1177 31.7116L44.1648 31.4084C43.9347 32.1314 43.7405 32.9234 43.5809 33.7833L44.5642 33.9656ZM45.1145 31.7213C45.2813 31.232 45.4582 30.7729 45.645 30.3439L44.7281 29.9448C44.5294 30.4011 44.3428 30.8859 44.168 31.3987L45.1145 31.7213ZM47.1003 27.8397C47.4119 27.4471 47.7391 27.1093 48.0813 26.8241L47.4412 26.0559C47.0413 26.3891 46.6669 26.7772 46.317 27.2181L47.1003 27.8397ZM48.0736 26.8304C48.3819 26.5838 48.6993 26.3687 49.0259 26.1845L48.5346 25.3135C48.1592 25.5253 47.7973 25.7708 47.4489 26.0496L48.0736 26.8304ZM51.1742 25.4306C51.5443 25.3704 51.9266 25.34 52.3213 25.34V24.34C51.8751 24.34 51.4391 24.3744 51.0136 24.4436L51.1742 25.4306ZM52.3213 25.34C52.7117 25.34 53.0882 25.3697 53.451 25.4286L53.6111 24.4415C53.1927 24.3736 52.7626 24.34 52.3213 24.34V25.34ZM55.5573 26.1765C55.8761 26.3609 56.1841 26.5765 56.4812 26.8241L57.1213 26.0559C56.7824 25.7734 56.4279 25.5248 56.058 25.3109L55.5573 26.1765ZM56.4889 26.8304C56.8406 27.1118 57.1732 27.4439 57.4861 27.8287L58.262 27.1977C57.9077 26.7622 57.5252 26.3788 57.1136 26.0496L56.4889 26.8304ZM58.9373 30.3271C59.1189 30.7579 59.2881 31.2193 59.4448 31.7116L60.3977 31.4084C60.2327 30.8899 60.0532 30.3999 59.8587 29.9386L58.9373 30.3271ZM59.4448 31.7116C59.6604 32.3891 59.8452 33.1401 59.9983 33.9656L60.9816 33.7833C60.8221 32.9234 60.6278 32.1314 60.3977 31.4084L59.4448 31.7116ZM60.4921 38.6367C60.5249 39.3884 60.5413 40.1761 60.5413 41H61.5413C61.5413 40.163 61.5246 39.3606 61.4912 38.5932L60.4921 38.6367ZM60.5413 41C60.5413 41.8219 60.5245 42.6094 60.491 43.3625L61.49 43.4069C61.5242 42.6378 61.5413 41.8355 61.5413 41H60.5413ZM59.9924 48.033C59.8403 48.8532 59.6572 49.6057 59.4438 50.2915L60.3987 50.5885C60.6253 49.8601 60.8174 49.0687 60.9756 48.2153L59.9924 48.033ZM59.4448 50.2884C59.2881 50.7807 59.1189 51.2421 58.9373 51.6729L59.8587 52.0614C60.0532 51.6001 60.2327 51.1101 60.3977 50.5916L59.4448 50.2884ZM57.4861 54.1713C57.1732 54.5561 56.8406 54.8882 56.4889 55.1696L57.1136 55.9504C57.5252 55.6212 57.9077 55.2378 58.262 54.8023L57.4861 54.1713ZM56.4812 55.1759C56.1841 55.4235 55.8761 55.6391 55.5573 55.8235L56.058 56.6891C56.4279 56.4752 56.7824 56.2266 57.1213 55.9441L56.4812 55.1759ZM53.451 56.5714C53.0882 56.6303 52.7117 56.66 52.3213 56.66V57.66C52.7626 57.66 53.1927 57.6264 53.6111 57.5585L53.451 56.5714ZM39.5213 66.68L38.9923 67.5287L38.9978 67.5321L39.5213 66.68ZM30.8013 56.76L29.9046 57.2028L29.9046 57.2028L30.8013 56.76ZM30.8013 25.24L29.9046 24.7972L29.9046 24.7972L30.8013 25.24ZM39.5213 15.32L38.9978 14.4679L38.9924 14.4713L39.5213 15.32ZM64.9613 15.32L64.4324 16.1687L64.4378 16.1721L64.9613 15.32ZM73.7613 25.24L72.8646 25.6828L72.8646 25.6828L73.7613 25.24ZM73.7613 56.76L72.8646 56.3172L72.8646 56.3172L73.7613 56.76ZM64.9613 66.68L64.4378 65.8279L64.4324 65.8313L64.9613 66.68ZM56.8013 55.56L56.1766 54.7791L56.1687 54.7854L56.1611 54.7918L56.8013 55.56ZM59.9213 50.44L60.8742 50.7432L60.8761 50.7371L59.9213 50.44ZM59.9213 31.56L58.9683 31.8632L59.9213 31.56ZM56.8013 26.44L56.1611 27.2082L56.1687 27.2146L56.1766 27.2209L56.8013 26.44ZM47.7613 26.44L47.1366 25.6591L47.1287 25.6654L47.1211 25.6718L47.7613 26.44ZM44.6413 31.56L43.6947 31.2373L43.6914 31.247L43.6883 31.2568L44.6413 31.56ZM44.6413 50.44L43.6864 50.7371L43.6904 50.7499L43.6947 50.7627L44.6413 50.44ZM47.7613 55.56L47.1211 56.3282L47.1287 56.3346L47.1366 56.3409L47.7613 55.56ZM52.3213 69.12C51.7734 69.12 51.2334 69.1045 50.7013 69.0737L50.5856 71.0704C51.1572 71.1035 51.7357 71.12 52.3213 71.12V69.12ZM47.4982 68.6855C46.4279 68.484 45.3923 68.2126 44.3909 67.8716L43.7463 69.7649C44.8397 70.1372 45.9672 70.4324 47.1281 70.651L47.4982 68.6855ZM41.4416 66.6166C40.9678 66.3718 40.5021 66.1089 40.0447 65.8279L38.9978 67.5321C39.4971 67.8387 40.0056 68.1259 40.5235 68.3935L41.4416 66.6166ZM40.0501 65.8313C39.597 65.5489 39.1563 65.2505 38.728 64.9362L37.5446 66.5485C38.0139 66.8929 38.4965 67.2197 38.9924 67.5287L40.0501 65.8313ZM36.3062 62.8579C35.562 62.115 34.8637 61.3088 34.2113 60.4388L32.6111 61.6386C33.319 62.5826 34.0796 63.461 34.8932 64.2733L36.3062 62.8579ZM32.4539 57.7453C32.192 57.2834 31.9399 56.8074 31.6979 56.3172L29.9046 57.2028C30.1631 57.7262 30.4329 58.2359 30.7141 58.7318L32.4539 57.7453ZM31.6979 56.3172C31.4137 55.7417 31.1488 55.1482 30.9033 54.5364L29.0472 55.2813C29.3113 55.9396 29.5971 56.5801 29.9046 57.2028L31.6979 56.3172ZM29.704 50.8082C29.3963 49.5777 29.1525 48.2872 28.9731 46.9359L26.9905 47.199C27.1791 48.62 27.4366 49.9849 27.7637 51.2933L29.704 50.8082ZM28.64 42.9884C28.6142 42.3376 28.6013 41.6748 28.6013 41H26.6013C26.6013 41.7003 26.6147 42.3895 26.6416 43.0676L28.64 42.9884ZM28.6013 41C28.6013 40.3252 28.6142 39.6624 28.64 39.0116L26.6416 38.9324C26.6147 39.6105 26.6013 40.2997 26.6013 41H28.6013ZM28.9731 35.0641C29.1525 33.7128 29.3963 32.4223 29.704 31.1918L27.7637 30.7067C27.4366 32.0151 27.1791 33.38 26.9905 34.801L28.9731 35.0641ZM30.9033 27.4636C31.1488 26.8518 31.4137 26.2583 31.6979 25.6828L29.9046 24.7972C29.5971 25.4199 29.3113 26.0604 29.0472 26.7187L30.9033 27.4636ZM31.6979 25.6828C31.9399 25.1926 32.192 24.7166 32.4539 24.2547L30.7141 23.2682C30.4329 23.7641 30.1631 24.2738 29.9046 24.7972L31.6979 25.6828ZM34.2113 21.5612C34.8637 20.6912 35.562 19.885 36.3062 19.1421L34.8932 17.7267C34.0796 18.539 33.319 19.4174 32.6111 20.3614L34.2113 21.5612ZM38.728 17.0638C39.1563 16.7495 39.597 16.4511 40.0501 16.1687L38.9924 14.4713C38.4965 14.7803 38.0139 15.1071 37.5446 15.4515L38.728 17.0638ZM40.0447 16.1721C40.5021 15.8911 40.9678 15.6282 41.4416 15.3834L40.5235 13.6065C40.0056 13.8741 39.4971 14.1612 38.9978 14.4679L40.0447 16.1721ZM44.3909 14.1284C45.3923 13.7874 46.4279 13.516 47.4982 13.3145L47.1281 11.349C45.9672 11.5676 44.8397 11.8628 43.7463 12.2351L44.3909 14.1284ZM50.7013 12.9263C51.2334 12.8954 51.7734 12.88 52.3213 12.88V10.88C51.7357 10.88 51.1572 10.8965 50.5856 10.9296L50.7013 12.9263ZM52.3213 12.88C52.8626 12.88 53.396 12.8954 53.9215 12.9262L54.0385 10.9296C53.4731 10.8965 52.9006 10.88 52.3213 10.88V12.88ZM57.0847 13.3141C58.1412 13.5155 59.1631 13.7868 60.1509 14.1276L60.8031 12.2369C59.7223 11.8641 58.6075 11.5684 57.4592 11.3495L57.0847 13.3141ZM63.0574 15.3813C63.5239 15.6257 63.9822 15.8881 64.4324 16.1687L65.4901 14.4713C64.998 14.1646 64.4965 13.8774 63.9856 13.6097L63.0574 15.3813ZM64.4378 16.1721C64.8954 16.4531 65.3401 16.75 65.7721 17.0627L66.9447 15.4424C66.4716 15.1 65.9849 14.7752 65.4847 14.4679L64.4378 16.1721ZM68.218 19.134C68.9708 19.8766 69.6761 20.6822 70.3336 21.5517L71.9288 20.3453C71.2146 19.4009 70.4459 18.5223 69.6224 17.7101L68.218 19.134ZM72.1049 24.2501C72.3685 24.7134 72.6217 25.191 72.8646 25.6828L74.6579 24.7972C74.3982 24.2713 74.1267 23.7593 73.8433 23.2611L72.1049 24.2501ZM72.8646 25.6828C73.1488 26.2583 73.4137 26.8518 73.6592 27.4636L75.5153 26.7187C75.2512 26.0604 74.9654 25.4199 74.6579 24.7972L72.8646 25.6828ZM74.8585 31.1918C75.1662 32.4223 75.41 33.7128 75.5894 35.0641L77.572 34.801C77.3834 33.38 77.1259 32.0151 76.7988 30.7067L74.8585 31.1918ZM75.9225 39.0116C75.9483 39.6624 75.9613 40.3252 75.9613 41H77.9613C77.9613 40.2997 77.9478 39.6105 77.9209 38.9324L75.9225 39.0116ZM75.9613 41C75.9613 41.6748 75.9483 42.3376 75.9225 42.9884L77.9209 43.0676C77.9478 42.3895 77.9613 41.7003 77.9613 41H75.9613ZM75.5894 46.9359C75.41 48.2872 75.1662 49.5777 74.8585 50.8082L76.7988 51.2933C77.1259 49.9849 77.3834 48.62 77.572 47.199L75.5894 46.9359ZM73.6592 54.5364C73.4137 55.1481 73.1488 55.7417 72.8646 56.3172L74.6579 57.2028C74.9654 56.5801 75.2512 55.9396 75.5153 55.2813L73.6592 54.5364ZM72.8646 56.3172C72.6217 56.809 72.3685 57.2866 72.1049 57.7499L73.8433 58.7389C74.1267 58.2407 74.3982 57.7287 74.6579 57.2028L72.8646 56.3172ZM70.3336 60.4483C69.6761 61.3178 68.9708 62.1234 68.218 62.866L69.6224 64.2899C70.4459 63.4777 71.2146 62.5991 71.9288 61.6546L70.3336 60.4483ZM65.7721 64.9373C65.3401 65.25 64.8954 65.5469 64.4378 65.8279L65.4847 67.5321C65.9849 67.2248 66.4716 66.9 66.9447 66.5576L65.7721 64.9373ZM64.4324 65.8313C63.9822 66.1119 63.5239 66.3743 63.0574 66.6187L63.9856 68.3903C64.4965 68.1226 64.998 67.8354 65.4901 67.5287L64.4324 65.8313ZM60.1509 67.8724C59.1631 68.2132 58.1412 68.4844 57.0847 68.6859L57.4592 70.6505C58.6075 70.4316 59.7223 70.1359 60.8031 69.7631L60.1509 67.8724ZM53.9215 69.0738C53.396 69.1046 52.8626 69.12 52.3213 69.12V71.12C52.9006 71.12 53.4731 71.1035 54.0385 71.0703L53.9215 69.0738ZM52.3213 56.16C51.9523 56.16 51.597 56.1316 51.2545 56.0759L50.9333 58.0499C51.3864 58.1237 51.8493 58.16 52.3213 58.16V56.16ZM49.2716 55.38C48.9694 55.2095 48.6741 55.0097 48.3859 54.7791L47.1366 56.3409C47.505 56.6357 47.8891 56.8965 48.2889 57.122L49.2716 55.38ZM48.4014 54.7918C48.088 54.5306 47.7844 54.218 47.492 53.8495L45.9254 55.0927C46.2944 55.5578 46.6924 55.971 47.1211 56.3282L48.4014 54.7918ZM46.1034 51.4566C45.9226 51.0412 45.7506 50.595 45.5878 50.1173L43.6947 50.7627C43.8736 51.2872 44.065 51.7848 44.2696 52.2548L46.1034 51.4566ZM45.5961 50.1429C45.3894 49.4785 45.2108 48.7454 45.0617 47.9418L43.0953 48.3065C43.2566 49.1765 43.4531 49.9872 43.6864 50.7371L45.5961 50.1429ZM44.571 43.3402C44.5379 42.5952 44.5213 41.8152 44.5213 41H42.5213C42.5213 41.8422 42.5384 42.652 42.573 43.4291L44.571 43.3402ZM44.5213 41C44.5213 40.1827 44.5375 39.4023 44.5699 38.6584L42.5718 38.5714C42.538 39.3468 42.5213 40.1564 42.5213 41H44.5213ZM45.0558 34.0568C45.2057 33.2484 45.3858 32.518 45.5942 31.8632L43.6883 31.2568C43.4511 32.0025 43.252 32.815 43.0893 33.6921L45.0558 34.0568ZM45.5878 31.8827C45.7506 31.405 45.9226 30.9588 46.1034 30.5434L44.2696 29.7452C44.065 30.2152 43.8736 30.7128 43.6947 31.2373L45.5878 31.8827ZM47.492 28.1505C47.7844 27.782 48.088 27.4694 48.4014 27.2082L47.1211 25.6718C46.6924 26.029 46.2944 26.4422 45.9254 26.9073L47.492 28.1505ZM48.3859 27.2209C48.6741 26.9903 48.9694 26.7905 49.2716 26.62L48.2889 24.878C47.8891 25.1035 47.505 25.3643 47.1366 25.6591L48.3859 27.2209ZM51.2545 25.9241C51.597 25.8684 51.9523 25.84 52.3213 25.84V23.84C51.8493 23.84 51.3864 23.8763 50.9333 23.9501L51.2545 25.9241ZM52.3213 25.84C52.6863 25.84 53.0359 25.8678 53.3709 25.9221L53.6912 23.9479C53.245 23.8756 52.7881 23.84 52.3213 23.84V25.84ZM55.307 26.6093C55.6002 26.7789 55.8849 26.9781 56.1611 27.2082L57.4414 25.6718C57.0815 25.3718 56.7038 25.1068 56.3083 24.878L55.307 26.6093ZM56.1766 27.2209C56.4983 27.4783 56.8059 27.7847 57.0982 28.1441L58.6499 26.8822C58.275 26.4213 57.8675 26.0123 57.4259 25.6591L56.1766 27.2209ZM58.4765 30.5213C58.6517 30.9369 58.8158 31.384 58.9683 31.8632L60.8742 31.2568C60.705 30.7252 60.5203 30.2209 60.3195 29.7444L58.4765 30.5213ZM58.9683 31.8632C59.1767 32.518 59.3568 33.2484 59.5067 34.0568L61.4732 33.6921C61.3105 32.815 61.1115 32.0025 60.8742 31.2568L58.9683 31.8632ZM59.9926 38.6584C60.025 39.4023 60.0413 40.1827 60.0413 41H62.0413C62.0413 40.1564 62.0245 39.3468 61.9907 38.5714L59.9926 38.6584ZM60.0413 41C60.0413 41.8152 60.0246 42.5952 59.9915 43.3402L61.9895 43.4291C62.0241 42.652 62.0413 41.8422 62.0413 41H60.0413ZM59.5008 47.9418C59.3517 48.7454 59.1731 49.4785 58.9664 50.1429L60.8761 50.7371C61.1094 49.9872 61.3059 49.1765 61.4672 48.3065L59.5008 47.9418ZM58.9683 50.1368C58.8158 50.616 58.6517 51.0631 58.4765 51.4787L60.3195 52.2556C60.5203 51.7791 60.705 51.2748 60.8742 50.7432L58.9683 50.1368ZM57.0982 53.8559C56.8059 54.2153 56.4983 54.5217 56.1766 54.7791L57.4259 56.3409C57.8675 55.9877 58.275 55.5787 58.6499 55.1178L57.0982 53.8559ZM56.1611 54.7918C55.8849 55.0219 55.6002 55.2211 55.307 55.3907L56.3083 57.122C56.7038 56.8932 57.0815 56.6282 57.4414 56.3282L56.1611 54.7918ZM53.3709 56.0779C53.0359 56.1322 52.6863 56.16 52.3213 56.16V58.16C52.7881 58.16 53.245 58.1244 53.6912 58.0521L53.3709 56.0779ZM83.1 69H82.6V69.5H83.1V69ZM83.1 59.08L82.7585 58.7148L82.6 58.863V59.08H83.1ZM104.06 39.48L103.72 39.1136L103.718 39.1148L104.06 39.48ZM107.34 35.8L106.93 35.5133L106.925 35.5203L106.921 35.5275L107.34 35.8ZM108.78 32.92L108.3 32.7789L108.297 32.7888L108.295 32.7987L108.78 32.92ZM107.34 26.2L107.013 26.5785L107.022 26.5855L107.34 26.2ZM96.3 26.04L96.529 26.4845L96.529 26.4845L96.3 26.04ZM91.98 30.12L91.7364 30.5567L92.1541 30.7896L92.4054 30.3827L91.98 30.12ZM80.22 23.56L79.7895 23.3056L79.5288 23.7469L79.9764 23.9967L80.22 23.56ZM89.26 15.08L89.4978 15.5199L89.4978 15.5199L89.26 15.08ZM114.78 13.96L114.584 14.42L114.584 14.42L114.78 13.96ZM122.38 19.88L121.972 20.169L121.976 20.1746L122.38 19.88ZM124.46 34.36L124.942 34.4916L124.943 34.4879L124.46 34.36ZM121.66 40.04L121.247 39.7577L121.246 39.7601L121.66 40.04ZM115.66 46.68L115.321 46.312L115.321 46.3126L115.66 46.68ZM99.02 62.04L98.5677 62.2532L98.8584 62.8697L99.3591 62.4074L99.02 62.04ZM96.38 56.44V55.94H95.5915L95.9277 56.6532L96.38 56.44ZM126.7 56.44H127.2V55.94H126.7V56.44ZM126.7 69V69.5H127.2V69H126.7ZM83.6 69V66.52H82.6V69H83.6ZM83.6 61.56V59.08H82.6V61.56H83.6ZM83.4415 59.4452L84.7515 58.2202L84.0685 57.4898L82.7585 58.7148L83.4415 59.4452ZM87.3715 55.7702L89.9915 53.3202L89.3085 52.5898L86.6885 55.0398L87.3715 55.7702ZM92.6115 50.8702L95.2315 48.4202L94.5485 47.6898L91.9285 50.1398L92.6115 50.8702ZM97.8515 45.9702L100.472 43.5202L99.7885 42.7898L97.1685 45.2398L97.8515 45.9702ZM103.092 41.0702L104.402 39.8452L103.718 39.1148L102.408 40.3398L103.092 41.0702ZM104.4 39.8464C104.719 39.5504 105.02 39.2612 105.304 38.9786L104.598 38.27C104.324 38.5437 104.031 38.8249 103.72 39.1136L104.4 39.8464ZM107.003 37.1103C107.289 36.7527 107.542 36.4068 107.759 36.0725L106.921 35.5275C106.724 35.8297 106.492 36.1487 106.223 36.4846L107.003 37.1103ZM107.75 36.0867C107.916 35.8496 108.069 35.6166 108.211 35.3878L107.361 34.8616C107.23 35.0731 107.086 35.2903 106.93 35.5133L107.75 36.0867ZM108.992 33.8746C109.106 33.5909 109.197 33.313 109.265 33.0413L108.295 32.7987C108.239 33.0212 108.163 33.2554 108.064 33.5017L108.992 33.8746ZM109.26 33.0611C109.323 32.8458 109.379 32.6341 109.428 32.4261L108.455 32.196C108.41 32.3856 108.359 32.5799 108.3 32.7789L109.26 33.0611ZM109.648 31.115C109.669 30.885 109.68 30.66 109.68 30.44H108.68C108.68 30.6275 108.671 30.8219 108.652 31.0233L109.648 31.115ZM109.68 30.44C109.68 29.9956 109.645 29.5697 109.575 29.1631L108.589 29.3343C108.649 29.6793 108.68 30.0476 108.68 30.44H109.68ZM108.566 26.7631C108.307 26.4158 108.004 26.0997 107.658 25.8145L107.022 26.5855C107.308 26.8222 107.555 27.0809 107.765 27.3615L108.566 26.7631ZM107.667 25.8216C107.284 25.4908 106.846 25.2122 106.357 24.9841L105.934 25.8905C106.347 26.0831 106.706 26.3131 107.013 26.5784L107.667 25.8216ZM103.449 24.2484C102.985 24.2026 102.495 24.18 101.98 24.18V25.18C102.466 25.18 102.923 25.2014 103.351 25.2436L103.449 24.2484ZM101.98 24.18C101.463 24.18 100.954 24.2084 100.452 24.2655L100.565 25.2591C101.028 25.2064 101.5 25.18 101.98 25.18V24.18ZM97.4732 24.9754C96.9967 25.1527 96.5293 25.3594 96.071 25.5955L96.529 26.4845C96.9524 26.2664 97.3833 26.0758 97.8219 25.9127L97.4732 24.9754ZM96.071 25.5955C95.6013 25.8375 95.1529 26.1106 94.7261 26.4147L95.3064 27.2291C95.6939 26.953 96.1013 26.7048 96.529 26.4845L96.071 25.5955ZM92.4535 28.5776C92.1338 28.9778 91.8342 29.4045 91.5546 29.8573L92.4054 30.3827C92.6648 29.9627 92.9414 29.5691 93.2349 29.2016L92.4535 28.5776ZM92.2236 29.6833L90.7536 28.8633L90.2664 29.7367L91.7364 30.5567L92.2236 29.6833ZM87.8136 27.2233L84.8736 25.5833L84.3864 26.4567L87.3264 28.0967L87.8136 27.2233ZM81.9336 23.9433L80.4636 23.1233L79.9764 23.9967L81.4464 24.8167L81.9336 23.9433ZM80.6505 23.8144C80.9112 23.3732 81.1868 22.9433 81.4774 22.5245L80.6559 21.9544C80.3513 22.3932 80.0625 22.8436 79.7895 23.3056L80.6505 23.8144ZM83.403 20.1439C84.0938 19.4068 84.8434 18.7124 85.6521 18.0607L85.0246 17.2821C84.1806 17.9622 83.3968 18.6882 82.6733 19.46L83.403 20.1439ZM88.1636 16.2902C88.5953 16.0241 89.04 15.7673 89.4978 15.5199L89.0222 14.6401C88.5482 14.8964 88.0871 15.1626 87.6389 15.4389L88.1636 16.2902ZM89.4978 15.5199C90.0205 15.2373 90.5572 14.9738 91.1081 14.7293L90.7025 13.8153C90.1282 14.0701 89.5681 14.3451 89.0222 14.6401L89.4978 15.5199ZM94.4894 13.517C95.6143 13.201 96.7887 12.9506 98.0128 12.7661L97.8638 11.7773C96.6009 11.9676 95.3859 12.2265 94.2189 12.5543L94.4894 13.517ZM101.609 12.4204C102.203 12.3935 102.806 12.38 103.42 12.38V11.38C102.792 11.38 102.173 11.3938 101.564 11.4214L101.609 12.4204ZM103.42 12.38C104.404 12.38 105.359 12.4164 106.285 12.4891L106.363 11.4922C105.41 11.4173 104.429 11.38 103.42 11.38V12.38ZM111.904 13.4728C112.836 13.7399 113.729 14.0557 114.584 14.42L114.976 13.5C114.082 13.1189 113.149 12.7895 112.179 12.5115L111.904 13.4728ZM114.584 14.42C115.336 14.7405 116.047 15.0925 116.718 15.4756L117.214 14.6073C116.508 14.2039 115.762 13.8349 114.976 13.5L114.584 14.42ZM120.463 18.3531C121.013 18.9202 121.516 19.5254 121.972 20.169L122.788 19.591C122.302 18.9055 121.767 18.2608 121.181 17.657L120.463 18.3531ZM121.976 20.1746C122.437 20.8072 122.839 21.4679 123.182 22.1567L124.077 21.7113C123.709 20.9714 123.278 20.2627 122.784 19.5854L121.976 20.1746ZM124.526 26.5876C124.628 27.3383 124.68 28.1156 124.68 28.92H125.68C125.68 28.0728 125.626 27.2501 125.517 26.4521L124.526 26.5876ZM124.68 28.92C124.68 29.3671 124.665 29.8142 124.635 30.2613L125.633 30.3281C125.664 29.8587 125.68 29.3894 125.68 28.92H124.68ZM124.281 32.9223C124.194 33.3587 124.092 33.7952 123.977 34.2321L124.943 34.4879C125.064 34.0315 125.17 33.5748 125.261 33.1179L124.281 32.9223ZM123.978 34.2284C123.849 34.7003 123.686 35.1842 123.487 35.6804L124.416 36.0516C124.627 35.523 124.803 35.0029 124.942 34.4916L123.978 34.2284ZM122.092 38.4449C121.833 38.8752 121.552 39.3127 121.247 39.7577L122.073 40.3223C122.387 39.8625 122.679 39.4086 122.949 38.9607L122.092 38.4449ZM121.246 39.7601C120.865 40.3236 120.427 40.9098 119.93 41.5186L120.705 42.1505C121.218 41.5218 121.675 40.9116 122.074 40.3199L121.246 39.7601ZM116.933 44.7784C116.427 45.2782 115.89 45.7894 115.321 46.312L115.999 47.048C116.575 46.518 117.12 45.9987 117.635 45.49L116.933 44.7784ZM115.321 46.3126L113.934 47.5926L114.612 48.3274L115.999 47.0474L115.321 46.3126ZM111.161 50.1526L108.388 52.7126L109.066 53.4474L111.839 50.8874L111.161 50.1526ZM105.614 55.2726L102.841 57.8326L103.519 58.5674L106.292 56.0074L105.614 55.2726ZM100.068 60.3926L98.6809 61.6726L99.3591 62.4074L100.746 61.1274L100.068 60.3926ZM99.4723 61.8268L98.8123 60.4268L97.9077 60.8532L98.5677 62.2532L99.4723 61.8268ZM97.4923 57.6268L96.8323 56.2268L95.9277 56.6532L96.5877 58.0532L97.4923 57.6268ZM96.38 56.94H98.275V55.94H96.38V56.94ZM102.065 56.94H105.855V55.94H102.065V56.94ZM109.645 56.94H113.435V55.94H109.645V56.94ZM117.225 56.94H121.015V55.94H117.225V56.94ZM124.805 56.94H126.7V55.94H124.805V56.94ZM126.2 56.44V58.01H127.2V56.44H126.2ZM126.2 61.15V64.29H127.2V61.15H126.2ZM126.2 67.43V69H127.2V67.43H126.2ZM126.7 68.5H124.52V69.5H126.7V68.5ZM120.16 68.5H115.8V69.5H120.16V68.5ZM111.44 68.5H107.08V69.5H111.44V68.5ZM102.72 68.5H98.36V69.5H102.72V68.5ZM94 68.5H89.64V69.5H94V68.5ZM85.28 68.5H83.1V69.5H85.28V68.5ZM83.1 69H82.1V70H83.1V69ZM83.1 59.08L82.417 58.3496L82.1 58.646V59.08H83.1ZM104.06 39.48L103.38 38.7472L103.377 38.7496L104.06 39.48ZM107.34 35.8L106.521 35.2265L106.511 35.2406L106.502 35.255L107.34 35.8ZM108.78 32.92L107.821 32.6378L107.815 32.6575L107.81 32.6775L108.78 32.92ZM107.34 26.2L106.686 26.9568L106.695 26.964L106.703 26.971L107.34 26.2ZM96.3 26.04L96.758 26.929L96.758 26.929L96.3 26.04ZM91.98 30.12L91.4928 30.9933L92.3282 31.4593L92.8308 30.6455L91.98 30.12ZM80.22 23.56L79.3591 23.0513L78.8375 23.9339L79.7328 24.4333L80.22 23.56ZM89.26 15.08L89.7355 15.9597L89.7355 15.9597L89.26 15.08ZM114.78 13.96L114.388 14.8799L114.388 14.8799L114.78 13.96ZM122.38 19.88L121.564 20.4581L121.572 20.4692L122.38 19.88ZM124.46 34.36L125.425 34.6231L125.427 34.6159L124.46 34.36ZM121.66 40.04L120.835 39.4753L120.831 39.4801L121.66 40.04ZM115.66 46.68L114.983 45.9441L114.982 45.9452L115.66 46.68ZM99.02 62.04L98.1155 62.4664L98.6967 63.6993L99.6983 62.7748L99.02 62.04ZM96.38 56.44V55.44H94.803L95.4755 56.8664L96.38 56.44ZM126.7 56.44H127.7V55.44H126.7V56.44ZM126.7 69V70H127.7V69H126.7ZM84.1 69V66.52H82.1V69H84.1ZM84.1 61.56V59.08H82.1V61.56H84.1ZM83.783 59.8104L85.093 58.5854L83.727 57.1246L82.417 58.3496L83.783 59.8104ZM87.713 56.1354L90.333 53.6854L88.967 52.2246L86.347 54.6746L87.713 56.1354ZM92.953 51.2354L95.573 48.7854L94.207 47.3246L91.587 49.7746L92.953 51.2354ZM98.193 46.3354L100.813 43.8854L99.447 42.4246L96.827 44.8746L98.193 46.3354ZM103.433 41.4354L104.743 40.2104L103.377 38.7496L102.067 39.9746L103.433 41.4354ZM104.74 40.2128C105.063 39.9132 105.369 39.6199 105.657 39.3329L104.246 37.9157C103.975 38.1849 103.687 38.4621 103.38 38.7472L104.74 40.2128ZM107.393 37.4231C107.688 37.0547 107.951 36.6953 108.178 36.345L106.502 35.255C106.316 35.5412 106.093 35.8467 105.832 36.1718L107.393 37.4231ZM108.159 36.3735C108.33 36.1292 108.489 35.8884 108.636 35.6509L106.936 34.5985C106.81 34.8013 106.672 35.0106 106.521 35.2265L108.159 36.3735ZM109.455 34.0611C109.577 33.7586 109.676 33.459 109.75 33.1625L107.81 32.6775C107.76 32.8753 107.691 33.0877 107.6 33.3152L109.455 34.0611ZM109.739 33.2022C109.805 32.9787 109.864 32.7584 109.915 32.5411L107.969 32.0809C107.926 32.2613 107.877 32.4469 107.821 32.6378L109.739 33.2022ZM110.146 31.1608C110.168 30.9166 110.18 30.6762 110.18 30.44H108.18C108.18 30.6113 108.172 30.7904 108.154 30.9775L110.146 31.1608ZM110.18 30.44C110.18 29.9697 110.143 29.515 110.067 29.0775L108.097 29.4199C108.151 29.734 108.18 30.0735 108.18 30.44H110.18ZM108.967 26.4639C108.682 26.0832 108.351 25.7384 107.977 25.429L106.703 26.971C106.96 27.1834 107.18 27.4135 107.364 27.6608L108.967 26.4639ZM107.994 25.4432C107.573 25.0796 107.095 24.7767 106.568 24.5309L105.723 26.3436C106.098 26.5186 106.417 26.7242 106.686 26.9568L107.994 25.4432ZM103.498 23.7508C103.016 23.7033 102.509 23.68 101.98 23.68V25.68C102.451 25.68 102.892 25.7007 103.302 25.7412L103.498 23.7508ZM101.98 23.68C101.445 23.68 100.917 23.7094 100.396 23.7687L100.622 25.7559C101.066 25.7054 101.518 25.68 101.98 25.68V23.68ZM97.2989 24.5068C96.8034 24.6911 96.3177 24.906 95.842 25.151L96.758 26.929C97.1639 26.7199 97.5766 26.5374 97.9962 26.3813L97.2989 24.5068ZM95.842 25.151C95.3512 25.4039 94.8824 25.6893 94.436 26.0075L95.5966 27.6363C95.9644 27.3742 96.3513 27.1384 96.758 26.929L95.842 25.151ZM92.0628 28.2655C91.73 28.6822 91.4189 29.1254 91.1292 29.5945L92.8308 30.6455C93.0801 30.2418 93.3451 29.8648 93.6256 29.5137L92.0628 28.2655ZM92.4672 29.2467L90.9972 28.4267L90.0228 30.1733L91.4928 30.9933L92.4672 29.2467ZM88.0572 26.7867L85.1172 25.1467L84.1428 26.8933L87.0828 28.5333L88.0572 26.7867ZM82.1772 23.5067L80.7072 22.6867L79.7328 24.4333L81.2028 25.2533L82.1772 23.5067ZM81.0809 24.0687C81.3355 23.638 81.6045 23.2183 81.8882 22.8096L80.2451 21.6693C79.9336 22.1182 79.6382 22.5788 79.3591 23.0513L81.0809 24.0687ZM83.7678 20.4858C84.4423 19.7662 85.1748 19.0875 85.9658 18.45L84.7108 16.8928C83.8493 17.5871 83.0483 18.3288 82.3085 19.1181L83.7678 20.4858ZM88.426 16.7158C88.8494 16.4548 89.2859 16.2028 89.7355 15.9597L88.7845 14.2003C88.3023 14.4609 87.8329 14.7319 87.3765 15.0133L88.426 16.7158ZM89.7355 15.9597C90.2466 15.6834 90.7718 15.4256 91.311 15.1863L90.4996 13.3582C89.9136 13.6183 89.3419 13.899 88.7845 14.2003L89.7355 15.9597ZM94.6246 13.9984C95.7285 13.6883 96.8825 13.4421 98.0873 13.2605L97.7892 11.2829C96.5071 11.4761 95.2717 11.7392 94.0837 12.0729L94.6246 13.9984ZM101.632 12.9199C102.218 12.8933 102.814 12.88 103.42 12.88V10.88C102.784 10.88 102.158 10.8939 101.541 10.9219L101.632 12.9199ZM103.42 12.88C104.392 12.88 105.334 12.916 106.246 12.9876L106.403 10.9937C105.435 10.9178 104.441 10.88 103.42 10.88V12.88ZM111.766 13.9535C112.679 14.2151 113.553 14.5241 114.388 14.8799L115.172 13.0401C114.258 12.6505 113.306 12.3143 112.317 12.0308L111.766 13.9535ZM114.388 14.8799C115.123 15.1933 115.817 15.5367 116.47 15.9098L117.462 14.1731C116.738 13.7597 115.975 13.3822 115.172 13.0401L114.388 14.8799ZM120.104 18.7012C120.637 19.2499 121.123 19.8354 121.564 20.458L123.196 19.302C122.696 18.5956 122.144 17.9311 121.54 17.3089L120.104 18.7012ZM121.572 20.4692C122.017 21.0795 122.404 21.7162 122.734 22.3794L124.525 21.4885C124.144 20.7231 123.698 19.9905 123.188 19.2908L121.572 20.4692ZM124.03 26.6554C124.13 27.3823 124.18 28.137 124.18 28.92H126.18C126.18 28.0514 126.124 27.206 126.012 26.3843L124.03 26.6554ZM124.18 28.92C124.18 29.3559 124.165 29.7919 124.136 30.2279L126.132 30.3614C126.164 29.881 126.18 29.4005 126.18 28.92H124.18ZM123.79 32.8244C123.705 33.2506 123.606 33.6771 123.493 34.1041L125.427 34.6159C125.55 34.1496 125.658 33.6829 125.752 33.2158L123.79 32.8244ZM123.495 34.0969C123.372 34.5489 123.215 35.0149 123.023 35.4949L124.88 36.2372C125.098 35.6923 125.28 35.1543 125.425 34.6231L123.495 34.0969ZM121.664 38.187C121.41 38.6084 121.134 39.0378 120.835 39.4753L122.485 40.6047C122.805 40.1374 123.103 39.6754 123.378 39.2186L121.664 38.187ZM120.831 39.4801C120.46 40.0297 120.031 40.6038 119.543 41.2026L121.093 42.4665C121.614 41.8278 122.079 41.2055 122.489 40.5999L120.831 39.4801ZM116.582 44.4226C116.08 44.9179 115.547 45.4251 114.983 45.9441L116.337 47.4159C116.917 46.8823 117.467 46.3589 117.987 45.8458L116.582 44.4226ZM114.982 45.9452L113.595 47.2252L114.952 48.6948L116.338 47.4148L114.982 45.9452ZM110.822 49.7852L108.048 52.3452L109.405 53.8148L112.178 51.2548L110.822 49.7852ZM105.275 54.9052L102.502 57.4652L103.858 58.9348L106.632 56.3748L105.275 54.9052ZM99.7284 60.0252L98.3417 61.3052L99.6983 62.7748L101.085 61.4948L99.7284 60.0252ZM99.9245 61.6136L99.2645 60.2136L97.4555 61.0664L98.1155 62.4664L99.9245 61.6136ZM97.9445 57.4136L97.2845 56.0136L95.4755 56.8664L96.1355 58.2664L97.9445 57.4136ZM96.38 57.44H98.275V55.44H96.38V57.44ZM102.065 57.44H105.855V55.44H102.065V57.44ZM109.645 57.44H113.435V55.44H109.645V57.44ZM117.225 57.44H121.015V55.44H117.225V57.44ZM124.805 57.44H126.7V55.44H124.805V57.44ZM125.7 56.44V58.01H127.7V56.44H125.7ZM125.7 61.15V64.29H127.7V61.15H125.7ZM125.7 67.43V69H127.7V67.43H125.7ZM126.7 68H124.52V70H126.7V68ZM120.16 68H115.8V70H120.16V68ZM111.44 68H107.08V70H111.44V68ZM102.72 68H98.36V70H102.72V68ZM94 68H89.64V70H94V68ZM85.28 68H83.1V70H85.28V68Z" fill="url(#paint0_linear_4030_309)" mask="url(#path-1-outside-1_4030_309)"/>
</g>
</g>
<defs>
<linearGradient id="paint0_linear_4030_309" x1="280" y1="68.8" x2="214.138" y2="-89.2406" gradientUnits="userSpaceOnUse">
<stop stop-color="white" stop-opacity="0"/>
<stop offset="1" stop-color="white"/>
</linearGradient>
<clipPath id="clip0_4030_309">
<rect width="138" height="80" fill="white"/>
</clipPath>
</defs>
</svg>
