<svg width="20" height="20" viewBox="0 0 20 20" fill="none" xmlns="http://www.w3.org/2000/svg">
<path d="M6.74037 3.06921C5.84621 3.15478 5.01623 3.55693 4.38304 4.22007C4.0579 4.55805 3.89104 4.81903 3.33059 5.84153C3.03539 6.37204 2.94127 6.51322 2.94127 6.41054C2.94127 6.31642 2.67174 6.064 2.49633 5.99983C2.34659 5.94421 2.17973 5.93138 1.58078 5.94421C0.785017 5.95705 0.733677 5.97416 0.52832 6.25225C0.447033 6.3592 0.438477 6.43193 0.438477 6.98383C0.438477 7.53573 0.447033 7.60846 0.52832 7.71542C0.708008 7.95928 0.823521 8.01062 1.23851 8.02773L1.62356 8.04057L1.45243 8.22025C1.35403 8.31437 1.2214 8.51118 1.15723 8.65236L1.03743 8.90905V11.4118V13.9146L1.15723 14.1628C1.23424 14.3125 1.36258 14.4794 1.49093 14.5906L1.70057 14.7703V15.4548C1.70057 15.8313 1.71768 16.2078 1.74335 16.2891C1.79897 16.4902 2.01288 16.7426 2.22679 16.8581C2.39793 16.9479 2.45354 16.9522 3.49744 16.9522C4.7467 16.9522 4.8836 16.9265 5.13602 16.6271C5.33282 16.4003 5.37988 16.2121 5.37988 15.6473V15.1682L5.62802 15.1938C7.365 15.3735 12.6059 15.3735 14.3771 15.1938L14.621 15.1682V15.6473C14.621 16.2121 14.668 16.4003 14.8648 16.6271C15.1172 16.9265 15.2541 16.9522 16.5034 16.9522C17.5473 16.9522 17.6029 16.9479 17.774 16.8581C17.988 16.7426 18.2019 16.4902 18.2575 16.2891C18.2832 16.2078 18.3003 15.8313 18.3003 15.4548V14.7703L18.5099 14.5906C18.6383 14.4794 18.7666 14.3125 18.8436 14.1628L18.9634 13.9146V11.4118V8.90905L18.8436 8.65236C18.7794 8.51118 18.6468 8.31437 18.5484 8.22025L18.3773 8.04057L18.7623 8.02773C19.1773 8.01062 19.2928 7.95928 19.4725 7.71542C19.5538 7.60846 19.5624 7.53573 19.5624 6.98383C19.5624 6.43193 19.5538 6.3592 19.4725 6.25225C19.2672 5.97416 19.2158 5.95705 18.4201 5.94421C17.8211 5.93138 17.6543 5.94421 17.5045 5.99983C17.3291 6.064 17.0596 6.31642 17.0596 6.41054C17.0596 6.51322 16.9612 6.36348 16.589 5.69179C16.067 4.74629 15.883 4.47248 15.5322 4.13022C15.16 3.76657 14.7365 3.48848 14.3044 3.32163C13.5984 3.04782 13.7011 3.05638 10.2571 3.04354C8.52869 3.03926 6.94573 3.0521 6.74037 3.06921ZM13.637 3.81363C14.3172 4.00187 14.9504 4.41687 15.3311 4.92598C15.5408 5.20407 16.5291 6.95388 16.4948 6.98383C16.4734 7.00522 14.9889 7.15924 14.2359 7.21914C12.5203 7.35176 9.04208 7.39455 7.19815 7.3047C5.90183 7.24053 3.56162 7.03517 3.50172 6.98383C3.47177 6.95388 4.46861 5.19123 4.66969 4.92598C4.93494 4.56661 5.30715 4.26713 5.74354 4.05749C6.13286 3.86925 6.381 3.79652 6.8131 3.75373C6.97996 3.73662 8.52014 3.72379 10.2357 3.72807C13.0808 3.73662 13.3845 3.74518 13.637 3.81363ZM2.40648 6.84265C2.47921 6.96672 2.54339 7.08651 2.55194 7.10362C2.5605 7.12501 2.522 7.18491 2.46638 7.24481C2.37226 7.34321 2.35086 7.34748 1.73479 7.34748H1.10161V6.98383V6.62018H1.69201H2.27813L2.40648 6.84265ZM18.8992 6.98383V7.34748H18.266C17.65 7.34748 17.6286 7.34321 17.5345 7.24481C17.4788 7.18491 17.4403 7.12501 17.4489 7.10362C17.4574 7.08651 17.5259 6.96672 17.5944 6.84265L17.7227 6.62018H18.3131H18.8992V6.98383ZM4.31031 7.77103C6.17564 7.98495 6.8131 8.01062 10.0004 8.01062C13.192 8.01062 13.838 7.98495 15.7119 7.77103C16.1355 7.72397 16.5932 7.67263 16.7301 7.6598L16.9826 7.63413L17.5815 8.22881C17.9109 8.55396 18.2061 8.88338 18.2404 8.96039C18.2874 9.07163 18.3003 9.52085 18.3003 11.3862C18.3003 12.9007 18.2832 13.7136 18.2532 13.7948C18.1976 13.9446 18.0564 14.0943 17.9067 14.1756C17.7056 14.2783 14.6081 14.5222 12.1823 14.6248C10.8989 14.6804 8.0153 14.6548 6.72754 14.5778C4.38732 14.4409 2.24819 14.2569 2.09417 14.1756C1.94015 14.0943 1.80325 13.9446 1.74763 13.7948C1.68345 13.628 1.68345 9.15292 1.74335 8.98606C1.76902 8.92189 2.06422 8.58818 2.39793 8.25448L3.00544 7.63841L3.28353 7.66408C3.43755 7.67691 3.8996 7.72397 4.31031 7.77103ZM3.64718 15.0484C4.19052 15.0954 4.64402 15.1339 4.66541 15.1339C4.68252 15.1339 4.69536 15.3521 4.69536 15.6174C4.69536 16.3062 4.76809 16.2677 3.54023 16.2677C2.29953 16.2677 2.38509 16.3233 2.38509 15.5318V14.9628H2.52627C2.599 14.9628 3.10812 15.0013 3.64718 15.0484ZM17.6157 15.5318C17.6157 16.3233 17.7013 16.2677 16.4606 16.2677C15.2327 16.2677 15.3055 16.3062 15.3055 15.6174C15.3055 15.1468 15.3098 15.1339 15.4039 15.1297C15.4552 15.1297 15.8745 15.0954 16.3323 15.0527C16.79 15.0099 17.2692 14.9714 17.3933 14.9671L17.6157 14.9628V15.5318Z" fill="#1C2E42"/>
<path d="M2.7912 10.1284C2.67141 10.1754 2.48317 10.3851 2.43183 10.5263C2.40616 10.5947 2.38477 10.8728 2.38477 11.1466C2.38477 11.7541 2.4575 11.9295 2.76981 12.0835C2.9495 12.1777 3.00512 12.1819 3.97201 12.1819C4.5838 12.1819 5.0373 12.1648 5.11003 12.1349C5.28971 12.0707 5.50363 11.844 5.55069 11.6686C5.57208 11.5873 5.59347 11.3263 5.59347 11.091C5.59347 10.5904 5.50363 10.3466 5.25549 10.184C5.1143 10.0899 5.08436 10.0856 3.9934 10.0899C3.37733 10.0899 2.83826 10.107 2.7912 10.1284ZM4.90895 11.1338V11.4974H3.98912H3.06929V11.1338V10.7701H3.98912H4.90895V11.1338Z" fill="#1C2E42"/>
<path d="M14.7452 10.184C14.4971 10.3466 14.4072 10.5904 14.4072 11.091C14.4072 11.3263 14.4286 11.5873 14.45 11.6686C14.4971 11.844 14.711 12.0707 14.8907 12.1349C14.9634 12.1648 15.4169 12.1819 16.0287 12.1819C16.9956 12.1819 17.0512 12.1777 17.2309 12.0835C17.3721 12.0151 17.4491 11.9381 17.5218 11.7969C17.6117 11.6215 17.6202 11.5573 17.6074 11.061C17.5945 10.4621 17.5603 10.3765 17.2737 10.1797C17.1368 10.0899 17.1025 10.0856 16.0116 10.0856C14.9206 10.0856 14.8864 10.0899 14.7452 10.184ZM16.9314 11.1338V11.4974H16.0116H15.0918V11.1338V10.7701H16.0116H16.9314V11.1338Z" fill="#1C2E42"/>
<path d="M7.30529 10.8215C7.06571 10.8899 6.81757 11.0953 6.68922 11.3306C6.59082 11.5017 6.32129 12.7167 6.32129 12.9649C6.32129 13.2472 6.43252 13.4868 6.65072 13.6836C6.96303 13.966 6.86035 13.9574 10.0006 13.9574C13.1409 13.9574 13.0382 13.966 13.3505 13.6836C13.5687 13.4868 13.6799 13.2472 13.6799 12.9649C13.6799 12.721 13.4104 11.5103 13.3163 11.3263C13.235 11.168 13.0125 10.9584 12.8285 10.8685C12.6874 10.7958 12.482 10.7915 10.0648 10.783C8.41336 10.7787 7.39941 10.7915 7.30529 10.8215ZM12.6489 11.5702C12.6916 11.6172 12.7772 11.8825 12.8414 12.1477C12.9911 12.7852 13.0125 12.9264 12.9783 13.059C12.9184 13.2943 12.897 13.2943 10.0092 13.2943C8.18662 13.2943 7.31813 13.2815 7.224 13.2472C6.96303 13.1574 6.95447 13.0333 7.13844 12.2547C7.2839 11.6215 7.31385 11.553 7.44648 11.4974C7.49781 11.476 8.65723 11.4632 10.0562 11.4675L12.5761 11.476L12.6489 11.5702Z" fill="#1C2E42"/>
<path d="M2.60748 13.0076C2.41496 13.2087 2.53475 13.521 2.82139 13.5723C2.8984 13.5852 3.48025 13.5937 4.10915 13.5852L5.26001 13.5723L5.36269 13.4526C5.48676 13.3071 5.49531 13.1702 5.37552 13.0204L5.28996 12.9092H3.99364H2.69732L2.60748 13.0076Z" fill="#1C2E42"/>
<path d="M14.6252 13.0204C14.5055 13.1702 14.514 13.3071 14.6381 13.4526L14.7408 13.5723L15.8916 13.5852C16.5205 13.5937 17.1024 13.5852 17.1794 13.5723C17.4703 13.5167 17.5901 13.1916 17.389 13.0033C17.2906 12.9092 17.2649 12.9092 16.0028 12.9092H14.7108L14.6252 13.0204Z" fill="#1C2E42"/>
</svg>
