<svg width="20" height="20" viewBox="0 0 20 20" fill="none" xmlns="http://www.w3.org/2000/svg">
<path d="M1.23002 9.99998C1.44961 8.00503 2.33508 6.21032 3.65952 4.84278L5.15776 6.34091L5.85099 5.64768L4.38001 4.1768C5.78874 3.01225 7.5655 2.27663 9.51001 2.17022V4.60783H10.4904V2.17022C12.4349 2.27663 14.2117 3.01226 15.6205 4.17684L14.2089 5.58817L14.9021 6.28145L16.3409 4.84282C17.6654 6.21037 18.5508 8.00503 18.7704 9.99998H16.7082V10.9804H18.8237C18.8225 13.108 18.0678 15.0589 16.811 16.5818L15.1343 14.9052L14.4411 15.5985L16.1456 17.3029L16.1394 17.309L16.8214 18.0133C18.6602 16.2327 19.8041 13.737 19.8041 10.9751C19.8041 5.56322 15.4145 1.17645 10.0002 1.17645C4.5859 1.17645 0.196289 5.56322 0.196289 10.9751C0.196289 13.6638 1.28041 16.1003 3.03437 17.8702L3.73075 17.1801C3.72766 17.177 3.72462 17.174 3.72153 17.1708L5.19467 15.6976L4.50144 15.0044L3.07088 16.435C1.88533 14.9344 1.17789 13.0403 1.17668 10.9804H3.1633V9.99998H1.23002Z" fill="#1C2F41"/>
<path d="M8.78399 12.8968C8.59473 12.9331 8.42522 13.0373 8.30732 13.1897L7.50414 14.3806C7.41473 14.9757 7.47816 15.2125 7.82997 15.5966L9.12095 16.2262C9.29929 16.2993 9.49816 16.3048 9.68026 16.2417L15.9134 13.3631C16.8406 13.0414 16.5923 12.0803 15.6285 12.2653L8.78399 12.8968Z" fill="#1C2F41"/>
</svg>
