<svg width="20" height="20" viewBox="0 0 20 20" fill="none" xmlns="http://www.w3.org/2000/svg">
<g clip-path="url(#clip0_33_3311)">
<path opacity="0.933" fill-rule="evenodd" clip-rule="evenodd" d="M5.05846 0.605488C5.49666 0.523624 5.85475 0.653831 6.13268 0.996113C7.19725 2.82568 8.25193 4.66162 9.29674 6.50392C9.36408 6.70826 9.30549 6.85803 9.12096 6.95314C8.60025 7.01498 8.09244 7.13217 7.59752 7.30471C7.98342 7.93967 8.35451 8.5842 8.7108 9.2383C8.72381 9.12111 8.73686 9.00393 8.74986 8.88674C8.76939 8.81514 8.81498 8.76955 8.88658 8.75002C9.61576 8.72396 10.3449 8.72396 11.0741 8.75002C11.1457 8.76955 11.1913 8.81514 11.2108 8.88674C11.2238 9.00393 11.2369 9.12111 11.2499 9.2383C11.6062 8.5842 11.9772 7.93967 12.3631 7.30471C11.8682 7.13213 11.3604 7.01494 10.8397 6.95314C10.6552 6.85803 10.5966 6.70826 10.6639 6.50392C11.0006 5.86279 11.3717 5.24428 11.7772 4.64846C12.0553 4.56596 12.2245 4.66361 12.285 4.94143C12.0605 5.43592 11.8001 5.91119 11.5038 6.36721C13.2208 6.70654 14.6465 7.53334 15.7811 8.84768C16.3834 7.83846 16.9759 6.82283 17.5585 5.8008C16.1295 4.9724 14.7037 4.13904 13.2811 3.3008C13.12 3.59062 12.9442 3.87057 12.7538 4.14064C12.3787 4.26057 12.216 4.12385 12.2655 3.73049C12.7863 2.81903 13.3072 1.90757 13.828 0.996113C14.1457 0.610718 14.5429 0.500042 15.0194 0.664081C16.3409 1.40942 17.656 2.16462 18.9647 2.92971C19.4155 3.35125 19.4872 3.82651 19.1796 4.35549C18.1462 6.15549 17.098 7.94584 16.035 9.72658C15.9048 9.80471 15.7746 9.80471 15.6444 9.72658C15.0803 9.00619 14.4162 8.39424 13.6522 7.89064C13.4501 7.77002 13.2417 7.65935 13.0272 7.55861C12.3083 8.74869 11.5987 9.94662 10.8983 11.1524C10.6903 11.3735 10.4494 11.5492 10.1756 11.6797C9.81857 11.7913 9.454 11.8694 9.08189 11.9141C8.6999 12.0227 8.42646 12.257 8.26158 12.6172C8.43408 12.7328 8.60986 12.8435 8.78893 12.9492C9.2158 12.5031 9.7301 12.3403 10.3319 12.461C11.303 12.7949 11.6806 13.4655 11.4647 14.4727C11.6354 14.5846 11.8112 14.6888 11.9921 14.7852C12.2433 14.4409 12.3084 14.0633 12.1874 13.6524C12.052 13.3503 11.9478 13.0378 11.8749 12.7149C11.8399 12.4101 11.866 12.1107 11.953 11.8164C12.4843 10.8123 13.0507 9.8292 13.6522 8.86721C13.9476 8.73307 14.1299 8.82424 14.1991 9.14064C13.7284 10.0154 13.2401 10.8813 12.7342 11.7383C12.564 12.0156 12.4989 12.3151 12.5389 12.6367C12.6784 12.9938 12.7956 13.3584 12.8905 13.7305C12.9371 14.092 12.898 14.4436 12.7733 14.7852C12.3436 15.5404 11.9139 16.2956 11.4842 17.0508C11.3785 17.1889 11.2418 17.2345 11.0741 17.1875C10.8658 17.0703 10.6574 16.9531 10.4491 16.836C10.1887 16.8229 9.92826 16.8099 9.66783 16.7969C9.47936 16.6178 9.46635 16.429 9.62877 16.2305C10.1486 16.0237 10.6239 16.0888 11.0546 16.4258C11.2515 16.0776 11.4533 15.7325 11.66 15.3906C11.4875 15.2751 11.3117 15.1644 11.1327 15.0586C10.7235 15.4945 10.2222 15.6572 9.62877 15.5469C8.62877 15.2333 8.23814 14.5628 8.45689 13.5352C8.28619 13.4232 8.11041 13.3191 7.92955 13.2227C7.71791 13.5547 7.51607 13.8933 7.32408 14.2383C7.52307 14.354 7.71189 14.4842 7.89049 14.6289C8.0699 15.1826 8.40842 15.6122 8.90611 15.918C9.04256 16.218 8.95143 16.4003 8.63268 16.4649C8.47674 16.4292 8.34002 16.3576 8.22252 16.25C7.81479 15.9364 7.51529 15.5393 7.32408 15.0586C7.06486 14.897 6.81096 14.7277 6.56236 14.5508C6.53631 14.4336 6.53631 14.3164 6.56236 14.1992C6.82279 13.7565 7.08318 13.3138 7.34361 12.8711C7.47068 12.572 7.47068 12.2726 7.34361 11.9727C7.12561 11.5756 6.89775 11.185 6.66002 10.8008C6.52389 10.9174 6.39369 11.0411 6.26939 11.1719C6.44518 11.3477 6.62096 11.5235 6.79674 11.6992C6.85365 11.8112 6.86666 11.9284 6.8358 12.0508C6.60014 12.4571 6.41783 12.8868 6.28893 13.3399C6.25963 13.3643 6.22705 13.3838 6.19127 13.3985C5.73553 13.4245 5.27982 13.4245 4.82408 13.3985C4.75248 13.3789 4.70689 13.3333 4.68736 13.2617C4.66131 13.1576 4.66131 13.0534 4.68736 12.9492C4.70689 12.8776 4.75248 12.832 4.82408 12.8125C5.14615 12.8054 5.46518 12.7858 5.78111 12.7539C5.86252 12.4935 5.96018 12.2396 6.07408 11.9922C5.9001 11.7791 5.71131 11.5772 5.50768 11.3867C5.45076 11.2748 5.43775 11.1576 5.46861 11.0352C5.73432 10.7304 6.01428 10.4374 6.30846 10.1563C5.99752 9.63213 5.69154 9.10478 5.39049 8.57424C5.00592 8.93279 4.64787 9.31689 4.31627 9.72658C4.18607 9.80471 4.05584 9.80471 3.92564 9.72658C3.61794 9.24803 3.32497 8.75975 3.04674 8.26174C3.00422 7.84873 3.18 7.71201 3.57408 7.85158C3.771 8.18685 3.97283 8.51889 4.17955 8.84768C5.31412 7.53334 6.7399 6.70654 8.45689 6.36721C7.6642 5.00971 6.87643 3.64905 6.09361 2.28518C6.06557 2.24804 6.03303 2.24153 5.99596 2.26564C4.58971 3.08596 3.18346 3.90627 1.77721 4.72658C1.87978 4.88611 1.97743 5.04885 2.07018 5.21486C3.29745 4.50029 4.52791 3.79066 5.76158 3.08596C6.09998 3.04687 6.2367 3.19662 6.17174 3.53517C6.15357 3.59107 6.121 3.63664 6.07408 3.67189C4.84373 4.37166 3.61977 5.08131 2.40221 5.8008C2.61705 6.17842 2.83189 6.556 3.04674 6.93361C3.0657 7.22717 2.92898 7.36389 2.63658 7.34377C2.56514 7.3331 2.50655 7.30053 2.4608 7.24611C1.86184 6.20443 1.26288 5.16279 0.663926 4.12111C0.498902 3.65228 0.609582 3.25514 0.995957 2.92971C2.34746 2.14349 3.70163 1.36875 5.05846 0.605488ZM5.21471 1.26955C5.32486 1.25969 5.429 1.27922 5.52721 1.32814C5.60209 1.42574 5.66721 1.52991 5.72252 1.64064C4.29994 2.4724 2.87415 3.29922 1.44518 4.12111C1.26606 3.93853 1.23351 3.73671 1.34752 3.51564C2.63904 2.7659 3.92811 2.01721 5.21471 1.26955ZM14.5116 1.26955C14.6839 1.25794 14.8401 1.30351 14.9803 1.40627C16.1849 2.11926 17.3958 2.82238 18.6131 3.51564C18.7272 3.73671 18.6946 3.93853 18.5155 4.12111C17.0865 3.29922 15.6607 2.4724 14.2381 1.64064C14.3101 1.49787 14.4013 1.37418 14.5116 1.26955ZM13.8866 2.24611C15.3231 3.06215 16.7554 3.88897 18.1835 4.72658C18.0809 4.88611 17.9832 5.04885 17.8905 5.21486C16.4596 4.38932 15.0338 3.55599 13.6131 2.71486C13.7054 2.55794 13.7965 2.40169 13.8866 2.24611ZM6.89439 7.55861C6.97736 7.57935 7.03596 7.63146 7.07018 7.71486C7.73818 8.89037 8.42178 10.0558 9.12096 11.211C8.67834 11.2857 8.30725 11.4875 8.00768 11.8164C7.34357 10.5796 6.64697 9.36221 5.91783 8.16408C6.23275 7.9417 6.55826 7.73986 6.89439 7.55861ZM9.35533 9.35549C9.77201 9.35549 10.1887 9.35549 10.6053 9.35549C10.7902 9.99857 10.634 10.5259 10.1366 10.9375C10.0324 11.0156 9.92826 11.0156 9.82408 10.9375C9.3267 10.5259 9.17045 9.99857 9.35533 9.35549ZM9.90221 13.0664C10.5633 13.1349 10.8823 13.4995 10.8592 14.1602C10.6374 14.8407 10.1882 15.0556 9.51158 14.8047C9.00998 14.4453 8.91232 13.996 9.21861 13.457C9.401 13.2391 9.62885 13.1089 9.90221 13.0664Z" fill="#1C2F41"/>
<path opacity="0.928" fill-rule="evenodd" clip-rule="evenodd" d="M5.05827 4.94138C5.97463 4.90052 6.35874 5.33021 6.21061 6.23044C5.92803 6.78048 5.49182 6.95626 4.90202 6.75779C4.39014 6.44955 4.24042 6.01337 4.4528 5.44919C4.59116 5.20142 4.79299 5.03216 5.05827 4.94138ZM5.17545 5.60544C5.09358 5.67787 5.04151 5.769 5.0192 5.87888C5.12319 6.20181 5.29897 6.25392 5.54655 6.03513C5.63131 5.72232 5.5076 5.57908 5.17545 5.60544Z" fill="#1C2F41"/>
<path opacity="0.927" fill-rule="evenodd" clip-rule="evenodd" d="M14.3942 4.94142C15.2202 4.87556 15.6173 5.25318 15.5856 6.07423C15.3635 6.74193 14.9143 6.96978 14.238 6.75782C13.7261 6.44958 13.5764 6.01341 13.7887 5.44923C13.9271 5.20146 14.1289 5.0322 14.3942 4.94142ZM14.5114 5.60548C14.4295 5.6779 14.3774 5.76903 14.3551 5.87892C14.4609 6.20294 14.6367 6.25505 14.8825 6.03517C14.9673 5.72236 14.8435 5.57911 14.5114 5.60548Z" fill="#1C2F41"/>
<path opacity="0.942" fill-rule="evenodd" clip-rule="evenodd" d="M14.0426 10.8399C14.4823 10.8338 14.606 11.0291 14.4137 11.4258C14.2231 11.6033 14.0473 11.7921 13.8864 11.9922C14.0003 12.2396 14.0979 12.4935 14.1793 12.7539C14.4953 12.7858 14.8143 12.8054 15.1364 12.8125C15.208 12.832 15.2535 12.8776 15.2731 12.9492C15.2991 13.6784 15.2991 14.4076 15.2731 15.1367C15.2535 15.2083 15.208 15.2539 15.1364 15.2735C14.8143 15.2806 14.4953 15.3001 14.1793 15.332C14.0979 15.5924 14.0003 15.8463 13.8864 16.0938C14.0473 16.2938 14.2231 16.4827 14.4137 16.6602C14.4986 16.7792 14.5247 16.9094 14.4918 17.0508C14.0166 17.5781 13.5153 18.0794 12.9879 18.5547C12.8465 18.5876 12.7163 18.5615 12.5973 18.4766C12.4198 18.286 12.231 18.1102 12.0309 17.9492C11.7743 18.0646 11.5139 18.1687 11.2496 18.2617C11.2366 18.5742 11.2236 18.8867 11.2106 19.1992C11.196 19.235 11.1764 19.2676 11.152 19.2969C10.7651 19.3415 10.3744 19.3611 9.98011 19.3555C9.58578 19.3611 9.19515 19.3415 8.80824 19.2969C8.78378 19.2676 8.76425 19.235 8.74964 19.1992C8.73664 18.8867 8.72359 18.5742 8.71058 18.2617C8.44636 18.1687 8.18593 18.0646 7.92933 17.9492C7.72925 18.1102 7.54042 18.286 7.36292 18.4766C7.2132 18.5841 7.05695 18.5971 6.89417 18.5156C6.40472 18.0392 5.92949 17.551 5.46839 17.0508C5.44234 16.9597 5.44234 16.8685 5.46839 16.7774C5.67074 16.549 5.87253 16.3212 6.07386 16.0938C5.95851 15.8372 5.85437 15.5767 5.76136 15.3125C5.44886 15.2995 5.13636 15.2865 4.82386 15.2735C4.78808 15.2588 4.7555 15.2393 4.72621 15.2149C4.68269 15.0238 4.66316 14.8285 4.66761 14.6289C4.67414 14.4597 4.68062 14.2904 4.68714 14.1211C4.74687 14.0033 4.84453 13.9512 4.98011 13.9649C5.07488 13.9611 5.15953 13.9871 5.23402 14.043C5.28859 14.2464 5.30812 14.4547 5.29261 14.668C5.59238 14.6615 5.89187 14.668 6.19105 14.6875C6.26265 14.707 6.30824 14.7526 6.32777 14.8242C6.37378 14.9953 6.42589 15.1646 6.48402 15.332C6.61441 15.612 6.73808 15.892 6.85511 16.1719C6.85347 16.2487 6.83394 16.3204 6.79652 16.3867C6.62074 16.5625 6.44496 16.7383 6.26917 16.9141C6.54914 17.194 6.82906 17.474 7.10902 17.7539C7.2848 17.5781 7.46058 17.4024 7.63636 17.2266C7.70273 17.1892 7.77437 17.1696 7.85121 17.168C8.30878 17.3944 8.78402 17.5833 9.27699 17.7344C9.30144 17.7637 9.32097 17.7963 9.33558 17.832C9.35511 18.1312 9.3616 18.4307 9.35511 18.7305C9.77179 18.7305 10.1884 18.7305 10.6051 18.7305C10.5986 18.4307 10.6051 18.1312 10.6246 17.832C10.6442 17.7604 10.6898 17.7149 10.7614 17.6953C10.9325 17.6493 11.1017 17.5972 11.2692 17.5391C11.5492 17.4087 11.8291 17.285 12.109 17.168C12.1859 17.1696 12.2575 17.1892 12.3239 17.2266C12.4996 17.4024 12.6754 17.5781 12.8512 17.7539C13.1312 17.474 13.4111 17.194 13.691 16.9141C13.5153 16.7383 13.3395 16.5625 13.1637 16.3867C13.1263 16.3204 13.1068 16.2487 13.1051 16.1719C13.3316 15.7143 13.5204 15.2391 13.6715 14.7461C13.7008 14.7217 13.7334 14.7021 13.7692 14.6875C14.0684 14.668 14.3678 14.6615 14.6676 14.668C14.6676 14.2513 14.6676 13.8347 14.6676 13.418C14.3378 13.4351 14.0123 13.4156 13.691 13.3594C13.5505 12.9025 13.3617 12.4663 13.1246 12.0508C13.0938 11.9284 13.1068 11.8112 13.1637 11.6992C13.4526 11.4038 13.7455 11.1173 14.0426 10.8399Z" fill="#1C2F41"/>
</g>
<defs>
<clipPath id="clip0_33_3311">
<rect width="20" height="20" fill="white"/>
</clipPath>
</defs>
</svg>
