<svg width="20" height="20" viewBox="0 0 20 20" fill="none" xmlns="http://www.w3.org/2000/svg">
<g clip-path="url(#clip0_33_3302)">
<path d="M2.1875 0.363279C1.99609 0.425779 1.66797 0.761717 1.60938 0.960936C1.58203 1.05078 1.5625 1.22265 1.5625 1.34375V1.5625H1.34375C1.00391 1.5625 0.824219 1.63281 0.605469 1.85547C0.207031 2.25 0.207031 2.75 0.605469 3.14453C0.824219 3.36719 1.00391 3.4375 1.34375 3.4375H1.5625V3.65625C1.5625 3.99609 1.63281 4.17578 1.85547 4.39453C2.12109 4.66406 2.22266 4.6875 3.125 4.6875C4.02734 4.6875 4.12891 4.66406 4.39453 4.39453C4.61719 4.17578 4.6875 3.99609 4.6875 3.65625V3.4375H5.9375H7.1875V4.0625V4.6875H7.8125H8.4375V5.3125V5.9375H8.75H9.0625V9.375V12.8125H8.75H8.4375V13.4375V14.0625H7.8125H7.1875V14.6875V15.3125H5.9375H4.6875V15.0937C4.6875 14.7773 4.61719 14.5898 4.42578 14.375C4.17188 14.0937 4.04688 14.0625 3.13281 14.0625C2.22266 14.0625 2.125 14.0859 1.85547 14.3555C1.63281 14.5742 1.5625 14.7539 1.5625 15.0937V15.3125H1.34375C1.00391 15.3125 0.824219 15.3828 0.605469 15.6055C0.207031 16 0.207031 16.5 0.605469 16.8945C0.824219 17.1172 1.00391 17.1875 1.34375 17.1875H1.5625V17.4062C1.5625 17.7461 1.63281 17.9258 1.85547 18.1445C2.12109 18.4141 2.22266 18.4375 3.125 18.4375C4.02734 18.4375 4.12891 18.4141 4.39453 18.1445C4.61719 17.9258 4.6875 17.7461 4.6875 17.4062V17.1875H5.9375H7.1875V17.8125V18.4375H7.5H7.8125V19.0625V19.6875H10H12.1875V19.0625V18.4375H12.5H12.8125V17.8125V17.1875H14.0625H15.3125V17.4062C15.3125 17.7461 15.3828 17.9258 15.6055 18.1445C15.8711 18.4141 15.9727 18.4375 16.875 18.4375C17.7773 18.4375 17.8789 18.4141 18.1445 18.1445C18.3672 17.9258 18.4375 17.7461 18.4375 17.4062V17.1875H18.6562C18.9961 17.1875 19.1758 17.1172 19.3945 16.8945C19.7773 16.5156 19.7891 16.0273 19.4258 15.625C19.2266 15.4023 19.0039 15.3125 18.6641 15.3125H18.4375V15.0937C18.4375 14.7773 18.3672 14.5898 18.1758 14.375C17.9219 14.0937 17.7969 14.0625 16.8828 14.0625C15.9727 14.0625 15.875 14.0859 15.6055 14.3555C15.3828 14.5742 15.3125 14.7539 15.3125 15.0937V15.3125H14.0625H12.8125V14.6875V14.0625H12.1875H11.5625V13.4375V12.8125H11.25H10.9375V9.375V5.9375H11.25H11.5625V5.3125V4.6875H12.1875H12.8125V4.0625V3.4375H14.0625H15.3125V3.65625C15.3125 3.99609 15.3828 4.17578 15.6055 4.39453C15.8711 4.66406 15.9727 4.6875 16.875 4.6875C17.7773 4.6875 17.8789 4.66406 18.1445 4.39453C18.3672 4.17578 18.4375 3.99609 18.4375 3.65625V3.4375H18.6562C18.9961 3.4375 19.1758 3.36719 19.3945 3.14453C19.7773 2.76562 19.7891 2.27734 19.4258 1.875C19.2266 1.65234 19.0039 1.5625 18.6641 1.5625H18.4375V1.34375C18.4375 1.02734 18.3672 0.839842 18.1758 0.624998C17.9219 0.343748 17.7969 0.312498 16.8828 0.312498C15.9727 0.312498 15.875 0.335936 15.6055 0.605467C15.3828 0.824217 15.3125 1.0039 15.3125 1.34375V1.5625H14.0625H12.8125V0.937498V0.312498H10H7.1875V0.937498V1.5625H5.9375H4.6875V1.34375C4.6875 1.02734 4.61719 0.839842 4.42578 0.624998C4.16797 0.339842 4.05078 0.312498 3.10938 0.316404C2.65625 0.320311 2.26562 0.339842 2.1875 0.363279ZM3.96484 1.03515L4.0625 1.1289V2.5V3.87109L3.96484 3.96484C3.87109 4.0625 3.86328 4.0625 3.125 4.0625C2.38672 4.0625 2.37891 4.0625 2.28516 3.96484L2.1875 3.87109V2.5V1.1289L2.28516 1.03515C2.37891 0.937498 2.38672 0.937498 3.125 0.937498C3.86328 0.937498 3.87109 0.937498 3.96484 1.03515ZM9.0625 1.5625V2.1875H8.75H8.4375V3.125V4.0625H8.125H7.8125V2.5V0.937498H8.4375H9.0625V1.5625ZM10.3125 1.5625V2.1875H10H9.6875V1.5625V0.937498H10H10.3125V1.5625ZM12.1875 2.5V4.0625H11.875H11.5625V3.125V2.1875H11.25H10.9375V1.5625V0.937498H11.5625H12.1875V2.5ZM17.7148 1.03515L17.8125 1.1289V2.5V3.87109L17.7148 3.96484C17.6211 4.0625 17.6133 4.0625 16.875 4.0625C16.1367 4.0625 16.1289 4.0625 16.0352 3.96484L15.9375 3.87109V2.5V1.1289L16.0352 1.03515C16.1289 0.937498 16.1367 0.937498 16.875 0.937498C17.6133 0.937498 17.6211 0.937498 17.7148 1.03515ZM1.5625 2.5V2.8125H1.34766C1.08594 2.8125 0.9375 2.69922 0.9375 2.5C0.9375 2.30078 1.08594 2.1875 1.34766 2.1875H1.5625V2.5ZM7.1875 2.5V2.8125H5.9375H4.6875V2.5V2.1875H5.9375H7.1875V2.5ZM15.3125 2.5V2.8125H14.0625H12.8125V2.5V2.1875H14.0625H15.3125V2.5ZM18.9648 2.28515C19.0273 2.34375 19.0625 2.42578 19.0625 2.5C19.0625 2.69922 18.9141 2.8125 18.6523 2.8125H18.4375V2.5V2.1875H18.6523C18.832 2.1875 18.8867 2.20312 18.9648 2.28515ZM10.9375 4.0625V5.3125H10H9.0625V4.0625V2.8125H10H10.9375V4.0625ZM10.3125 9.375V12.8125H10H9.6875V9.375V5.9375H10H10.3125V9.375ZM10.9375 14.6875V15.9375H10H9.0625V14.6875V13.4375H10H10.9375V14.6875ZM3.96484 14.7852L4.0625 14.8789V16.25V17.6211L3.96484 17.7148C3.87109 17.8125 3.86328 17.8125 3.125 17.8125C2.38672 17.8125 2.37891 17.8125 2.28516 17.7148L2.1875 17.6211V16.25V14.8789L2.28516 14.7852C2.37891 14.6875 2.38672 14.6875 3.125 14.6875C3.86328 14.6875 3.87109 14.6875 3.96484 14.7852ZM8.4375 15.625V16.5625H8.75H9.0625V17.1875V17.8125H8.4375H7.8125V16.25V14.6875H8.125H8.4375V15.625ZM12.1875 16.25V17.8125H11.5625H10.9375V17.1875V16.5625H11.25H11.5625V15.625V14.6875H11.875H12.1875V16.25ZM17.7148 14.7852L17.8125 14.8789V16.25V17.6211L17.7148 17.7148C17.6211 17.8125 17.6133 17.8125 16.875 17.8125C16.1367 17.8125 16.1289 17.8125 16.0352 17.7148L15.9375 17.6211V16.25V14.8789L16.0352 14.7852C16.1289 14.6875 16.1367 14.6875 16.875 14.6875C17.6133 14.6875 17.6211 14.6875 17.7148 14.7852ZM1.5625 16.25V16.5625H1.34766C1.08594 16.5625 0.9375 16.4492 0.9375 16.25C0.9375 16.0508 1.08594 15.9375 1.34766 15.9375H1.5625V16.25ZM7.1875 16.25V16.5625H5.9375H4.6875V16.25V15.9375H5.9375H7.1875V16.25ZM15.3125 16.25V16.5625H14.0625H12.8125V16.25V15.9375H14.0625H15.3125V16.25ZM18.9648 16.0352C19.0273 16.0937 19.0625 16.1758 19.0625 16.25C19.0625 16.4492 18.9141 16.5625 18.6523 16.5625H18.4375V16.25V15.9375H18.6523C18.832 15.9375 18.8867 15.9531 18.9648 16.0352ZM10.3125 17.1875V17.8125H10H9.6875V17.1875V16.5625H10H10.3125V17.1875ZM11.5625 18.75V19.0625H10H8.4375V18.75V18.4375H10H11.5625V18.75Z" fill="#1A2D3E"/>
</g>
<defs>
<clipPath id="clip0_33_3302">
<rect width="20" height="20" fill="white"/>
</clipPath>
</defs>
</svg>
