<svg width="20" height="20" viewBox="0 0 20 20" fill="none" xmlns="http://www.w3.org/2000/svg">
<path d="M19.8884 8.74172L17.8702 4.38474C17.7498 4.12769 17.5452 3.93377 17.2999 3.84427C17.0545 3.75478 16.7879 3.77678 16.5568 3.9056L14.5769 5.02148H13.084L10.3115 3.60732C10.0973 3.49825 9.85561 3.47898 9.62994 3.55298L5.51203 4.90629L3.56062 3.80644C3.32948 3.67767 3.06288 3.65569 2.81758 3.74517C2.57228 3.83466 2.36764 4.02853 2.24724 4.28554L0.228994 8.64261C0.168475 8.77329 0.131649 8.91626 0.120667 9.06316C0.109684 9.21006 0.124764 9.35795 0.165028 9.49821C0.205291 9.63847 0.269931 9.76829 0.355175 9.88009C0.44042 9.99189 0.544563 10.0834 0.661526 10.1494L2.66065 11.2762L7.1205 15.2074C7.22904 15.3034 7.35438 15.3725 7.48828 15.41L12.2446 16.7504C12.322 16.7722 12.4014 16.7831 12.4812 16.7831C12.743 16.7832 12.9942 16.6665 13.1798 16.4584L16.1996 13.0542C16.2057 13.0474 16.2115 13.0403 16.2171 13.033L17.4869 11.3583L19.4559 10.2485C19.5728 10.1826 19.677 10.091 19.7622 9.97923C19.8475 9.86743 19.9121 9.73761 19.9524 9.59735C19.9927 9.45708 20.0077 9.30919 19.9967 9.16228C19.9858 9.01538 19.9489 8.87241 19.8884 8.74172ZM15.9152 12.2921L12.5496 9.53286C12.4929 9.48632 12.4243 9.46152 12.3541 9.4621C12.2839 9.46268 12.2158 9.4886 12.1596 9.53607L11.1091 10.4242C10.7106 10.7584 10.2272 10.939 9.73044 10.939C9.23373 10.939 8.75025 10.7584 8.35174 10.4242L7.90687 10.0481C7.86925 10.0163 7.83813 9.97574 7.81562 9.92919C7.79311 9.88265 7.77973 9.8312 7.77639 9.77832C7.77306 9.72544 7.77984 9.67237 7.79628 9.6227C7.81272 9.57304 7.83844 9.52793 7.87169 9.49044L11.0833 5.86999C11.145 5.80083 11.2284 5.76188 11.3154 5.76158H13.0122L13.0129 5.76167L13.0141 5.76158H14.4555L16.8869 11.0105L15.9152 12.2921ZM0.789676 9.27037C0.77611 9.22364 0.771007 9.17431 0.774669 9.12532C0.778331 9.07633 0.790683 9.02866 0.810993 8.98515L2.82924 4.62808C2.85728 4.56811 2.89934 4.51794 2.95085 4.48298C3.00237 4.44802 3.06139 4.4296 3.12152 4.42973C3.17202 4.42968 3.22182 4.44292 3.26698 4.4684L5.01739 5.45496L2.69516 10.4681L0.955171 9.48742C0.9161 9.46557 0.881319 9.4351 0.852891 9.39782C0.824463 9.36053 0.802966 9.31719 0.789676 9.27037ZM12.7156 15.9351C12.6754 15.9801 12.6256 16.0128 12.571 16.0298C12.5164 16.0469 12.4588 16.0477 12.4038 16.0324L7.64744 14.6919C7.60283 14.6794 7.56107 14.6564 7.52491 14.6244L3.25432 10.86L5.68073 5.62176L9.81363 4.26354C9.88885 4.23881 9.96944 4.24522 10.0408 4.28161L11.4913 5.02148H11.3154C11.1861 5.02108 11.0579 5.04962 10.9384 5.10543C10.8189 5.16124 10.7104 5.24322 10.6191 5.34663L7.40749 8.96708C7.30771 9.07954 7.23053 9.21485 7.18118 9.36386C7.13183 9.51287 7.11146 9.6721 7.12146 9.83076C7.13145 9.98941 7.17157 10.1438 7.23911 10.2835C7.30664 10.4231 7.4 10.5448 7.51288 10.6402L7.95776 11.0163C8.47016 11.446 9.09179 11.6781 9.73044 11.6781C10.3691 11.6781 10.9907 11.446 11.5031 11.0163L12.3595 10.2922L15.4638 12.8371L12.7156 15.9351ZM19.3277 9.36952C19.3144 9.41634 19.293 9.45968 19.2645 9.49697C19.2361 9.53425 19.2013 9.56472 19.1622 9.58657L17.4223 10.5673L15.1 5.5541L16.8504 4.56755C16.9275 4.52458 17.0163 4.51724 17.0981 4.54707C17.1799 4.57691 17.2481 4.64157 17.2882 4.72727L19.3064 9.08426C19.3267 9.12778 19.3391 9.17545 19.3427 9.22445C19.3464 9.27345 19.3413 9.32278 19.3277 9.36952ZM9.06413 18.433C9.05372 18.4802 9.03515 18.5245 9.0095 18.5636C8.98385 18.6027 8.95161 18.6357 8.91464 18.6607C8.87767 18.6857 8.83668 18.7023 8.79402 18.7094C8.75137 18.7165 8.70789 18.7141 8.66606 18.7023L6.1926 18.0053C6.04209 17.9626 5.90257 17.8807 5.78532 17.7661L3.93457 15.9525C3.90192 15.9207 3.87516 15.8819 3.85582 15.8383C3.83648 15.7948 3.82495 15.7474 3.82189 15.6989C3.81882 15.6504 3.82428 15.6016 3.83796 15.5554C3.85163 15.5093 3.87325 15.4666 3.90157 15.4299C3.9299 15.3931 3.96437 15.3631 4.00302 15.3414C4.04167 15.3197 4.08374 15.3068 4.12681 15.3035C4.16988 15.3001 4.21311 15.3064 4.25403 15.322C4.29495 15.3375 4.33275 15.362 4.36526 15.394L6.21609 17.2076C6.25524 17.2458 6.30179 17.2731 6.35201 17.2873L8.82522 17.9842C8.90968 18.0081 8.9823 18.0687 9.0271 18.1528C9.0719 18.237 9.08522 18.3378 9.06413 18.433Z" fill="#1C2E42"/>
</svg>
