<svg width="10" height="10" viewBox="0 0 10 10" fill="none" xmlns="http://www.w3.org/2000/svg">
<path d="M7.43223 3.13559L5.20223 6.99809C5.11233 7.15379 4.88753 7.15379 4.79763 6.99809L2.56763 3.13559C2.47773 2.97989 2.59013 2.78519 2.76993 2.78519L7.22993 2.78519C7.40973 2.78519 7.52213 2.97979 7.43223 3.13559Z" fill="#646464"/>
<path d="M5.20211 6.99809L7.43211 3.13559C7.44551 3.11229 7.45311 3.08819 7.45801 3.06399L5.30211 6.79809C5.21221 6.95379 4.98741 6.95379 4.89751 6.79809L2.66751 2.93559C2.64741 2.90069 2.63871 2.86399 2.63741 2.82779C2.54361 2.89339 2.50311 3.02389 2.56751 3.13559L4.79751 6.99809C4.88741 7.15379 5.11221 7.15379 5.20211 6.99809Z" fill="#646464"/>
<path d="M7.43223 3.13559L5.20223 6.99809C5.11233 7.15379 4.88753 7.15379 4.79763 6.99809L2.56763 3.13559C2.47773 2.97989 2.59013 2.78519 2.76993 2.78519L7.22993 2.78519C7.40973 2.78519 7.52213 2.97979 7.43223 3.13559Z" stroke="#646464" stroke-miterlimit="10"/>
</svg>
