<svg width="16" height="16" viewBox="0 0 16 16" fill="none" xmlns="http://www.w3.org/2000/svg">
<path d="M8.61266 8.03809L15.6506 1.00016C15.8092 0.841519 15.8092 0.584312 15.6506 0.425672C15.4919 0.267031 15.2347 0.267031 15.076 0.425672L8.03812 7.46355L1.0002 0.425621C0.841557 0.26698 0.584351 0.26698 0.42571 0.425621C0.267019 0.584262 0.267019 0.841469 0.42571 1.00011L7.46358 8.03809L0.425659 15.076C0.266968 15.2347 0.266968 15.4919 0.425659 15.6506C0.504979 15.7299 0.608929 15.7695 0.712929 15.7695C0.816929 15.7695 0.920878 15.7299 1.0002 15.6506L8.03812 8.61263L15.076 15.6506C15.1554 15.7299 15.2593 15.7695 15.3633 15.7695C15.4673 15.7695 15.5713 15.7299 15.6506 15.6506C15.8092 15.4919 15.8092 15.2347 15.6506 15.076L8.61266 8.03809Z" fill="white"/>
</svg>
