<svg width="21" height="21" viewBox="0 0 21 21" fill="none" xmlns="http://www.w3.org/2000/svg">
<path d="M11.584 10.5454L19.7986 2.33081C20.0854 2.04403 20.0854 1.57907 19.7986 1.29229L19.7986 1.29227C19.5118 1.00552 19.0469 1.00552 18.7601 1.29227L18.7601 1.29229L10.5455 9.50683L2.33086 1.29223C2.04409 1.00546 1.57915 1.00545 1.29237 1.2922L11.584 10.5454ZM11.584 10.5454L19.7986 18.76L19.7987 18.76C20.0854 19.0469 20.0854 19.5117 19.7987 19.7986L19.7986 19.7986C19.6553 19.9419 19.4669 20.0137 19.2793 20.0137C19.0917 20.0137 18.9035 19.9419 18.7601 19.7986L18.7601 19.7986L10.5455 11.584L2.33086 19.7986C2.18752 19.9419 1.99916 20.0137 1.81157 20.0137C1.62398 20.0137 1.43562 19.9419 1.29228 19.7986C1.00544 19.5117 1.00544 19.0468 1.29228 18.76L9.50688 10.5454M11.584 10.5454L9.50688 10.5454M9.50688 10.5454L1.29237 2.33078C1.29236 2.33077 1.29235 2.33076 1.29234 2.33075C1.0055 2.04397 1.0055 1.57901 1.29234 1.29223L9.50688 10.5454Z" fill="#0960AD" stroke="#0960AD" stroke-width="0.5"/>
</svg>
