<svg width="60" height="60" viewBox="0 0 60 60" fill="none" xmlns="http://www.w3.org/2000/svg">
<path opacity="0.933" fill-rule="evenodd" clip-rule="evenodd" d="M27.8577 1.82007C29.1028 1.82007 30.348 1.82007 31.5931 1.82007C38.2362 2.91468 42.6491 6.65003 44.8316 13.0261C46.0535 17.5099 45.4309 21.7214 42.9639 25.6604C42.5127 26.4409 42.0183 27.1917 41.4808 27.9126C43.678 27.9492 45.8753 27.9859 48.0726 28.0225C48.2376 28.0865 48.384 28.178 48.512 28.2971C51.6536 37.8866 54.7847 47.4813 57.9053 57.0813C57.96 57.4843 57.8318 57.8139 57.5208 58.0701C39.1371 58.0701 20.7532 58.0701 2.36945 58.0701C2.0584 57.8139 1.93023 57.4843 1.98493 57.0813C5.10557 47.4813 8.23667 37.8866 11.3782 28.2971C11.5062 28.178 11.6527 28.0865 11.8177 28.0225C13.8685 27.9859 15.9192 27.9492 17.97 27.9126C16.5889 26.0114 15.5087 23.9424 14.7291 21.7053C13.037 14.8062 14.9596 9.14831 20.4969 4.73145C22.7382 3.20737 25.1918 2.23691 27.8577 1.82007ZM29.0662 3.35815C35.4376 3.43802 39.997 6.33109 42.7442 12.0374C44.3857 16.2427 44.0927 20.3076 41.8653 24.2322C37.8801 30.3045 33.8518 36.347 29.7803 42.3596C25.666 36.4136 21.6376 30.4078 17.6954 24.342C14.5917 18.5112 15.1411 13.0546 19.3433 7.97241C22.0042 5.20454 25.2452 3.66645 29.0662 3.35815ZM7.42316 45.8752C9.14435 40.4554 10.8655 35.0354 12.5867 29.6155C14.7843 29.5971 16.9816 29.6155 19.1785 29.6704C22.4928 34.5959 25.8069 39.5215 29.1212 44.447C29.4924 44.7132 29.8769 44.7316 30.2747 44.502C33.6439 39.5581 37.013 34.6143 40.3821 29.6704C41.8099 29.6155 43.2381 29.5971 44.6668 29.6155C44.5244 30.4571 44.5244 31.2994 44.6668 32.1423C43.2748 34.4065 43.3664 36.6038 44.9415 38.7341C45.2805 39.1469 45.6833 39.4765 46.15 39.7229C46.9789 42.6806 48.9198 44.1456 51.9727 44.1174C52.3506 45.3977 52.7718 46.6611 53.2361 47.9077C51.2104 48.9912 49.0497 49.6504 46.7542 49.8853C46.2874 50.4127 46.324 50.8887 46.8641 51.3135C48.171 51.3306 49.4527 51.1475 50.7093 50.7642C51.7513 50.4108 52.7767 50.0263 53.7855 49.6106C54.4953 51.8864 55.2276 54.157 55.9827 56.4221C43.5684 56.532 31.1538 56.5686 18.7391 56.532C18.0644 54.009 16.4165 52.6723 13.7952 52.522C12.0846 50.6709 10.0338 50.1582 7.64288 50.9839C7.09286 51.2587 6.58017 51.5882 6.1048 51.9727C5.84845 52.0459 5.5921 52.0459 5.33576 51.9727C5.70475 50.9756 6.05265 49.9685 6.37946 48.9514C8.15356 47.1209 10.2959 45.9307 12.8065 45.3809C13.268 45.0485 13.3596 44.6273 13.0811 44.1174C12.8874 43.9588 12.6676 43.8489 12.4219 43.7878C10.6318 44.198 8.96557 44.8938 7.42316 45.8752ZM46.4246 29.6155C46.7176 29.6155 47.0105 29.6155 47.3035 29.6155C48.6755 33.895 50.0304 38.1796 51.3685 42.4695C49.1408 42.2193 47.8957 40.9742 47.6331 38.7341C45.1057 37.1575 44.6846 35.1432 46.3697 32.6917C46.3079 32.0934 46.253 31.4892 46.2049 30.8789C46.1886 30.4367 46.2619 30.0155 46.4246 29.6155ZM8.96124 52.2473C9.95143 52.1195 10.867 52.3209 11.7078 52.8516C12.1166 53.2604 12.5194 53.6631 12.9163 54.0601C14.6018 53.9599 15.902 54.6008 16.8165 55.9827C16.9273 56.1502 16.9823 56.3334 16.9813 56.532C12.6227 56.5686 8.26483 56.532 3.90753 56.4221C4.19502 55.5224 4.52461 54.6435 4.8963 53.7854C5.51321 53.6987 6.13576 53.6438 6.76398 53.6206C7.08948 53.4052 7.38244 53.1489 7.64288 52.8516C8.08028 52.614 8.51974 52.4127 8.96124 52.2473Z" fill="white"/>
<path opacity="0.919" fill-rule="evenodd" clip-rule="evenodd" d="M28.6268 8.30183C32.5365 8.06864 35.5577 9.57011 37.6905 12.8062C39.7432 16.9678 39.2121 20.7581 36.0975 24.1771C33.1182 26.7113 29.7857 27.2972 26.0999 25.9349C21.6646 23.6005 19.925 19.9567 20.8814 15.0035C22.1301 11.2085 24.7119 8.97461 28.6268 8.30183ZM28.6268 9.94978C27.1574 10.2632 25.8391 10.9041 24.6717 11.8724C21.9592 14.7264 21.5014 17.8942 23.2984 21.3756C25.8548 24.9311 29.169 25.8649 33.241 24.1771C36.8099 21.9628 38.0001 18.8317 36.8116 14.7838C35.1927 11.3192 32.4644 9.70785 28.6268 9.94978Z" fill="white"/>
<path opacity="0.915" fill-rule="evenodd" clip-rule="evenodd" d="M16.1025 43.4583C18.4066 43.5188 20.677 43.83 22.914 44.3921C23.6867 44.8055 23.7599 45.3181 23.1337 45.9302C22.9873 45.9485 22.8407 45.9668 22.6943 45.9851C20.5255 45.476 18.3282 45.1646 16.1025 45.0513C15.3773 44.5207 15.3773 43.9898 16.1025 43.4583Z" fill="white"/>
<path opacity="0.911" fill-rule="evenodd" clip-rule="evenodd" d="M26.4293 45.4358C28.7905 46.0812 31.1343 46.7953 33.4606 47.5781C34.0936 48.7041 33.764 49.1802 32.4718 49.0063C30.3114 48.3351 28.1691 47.621 26.0448 46.864C25.7356 46.253 25.8637 45.7769 26.4293 45.4358Z" fill="white"/>
<path opacity="0.914" fill-rule="evenodd" clip-rule="evenodd" d="M36.6467 48.6218C38.8602 49.112 41.0941 49.4966 43.3483 49.7754C44.2282 50.1096 44.3381 50.6222 43.6779 51.3135C41.2941 51.2324 38.9504 50.8662 36.6467 50.2148C35.9218 49.6797 35.9218 49.1486 36.6467 48.6218Z" fill="white"/>
</svg>
