<svg width="60" height="60" viewBox="0 0 60 60" fill="none" xmlns="http://www.w3.org/2000/svg">
<path opacity="0.948" fill-rule="evenodd" clip-rule="evenodd" d="M13.1122 9.34585C19.9819 9.28518 26.8456 9.34796 33.7037 9.53419C36.1448 11.0435 37.526 13.2408 37.8471 16.126C37.6527 17.019 37.1086 17.3328 36.2149 17.0677C36.0684 16.9211 35.922 16.7747 35.7754 16.6282C35.5773 15.1445 35.0333 13.8052 34.1432 12.6104C33.7764 12.1594 33.337 11.8036 32.8248 11.5431C26.6333 11.34 20.439 11.298 14.2422 11.4176C13.7905 11.4369 13.372 11.5625 12.9867 11.7942C12.1365 12.5939 11.4877 13.5356 11.0405 14.6193C10.8724 15.3821 10.6421 16.1144 10.3499 16.8166C10.9622 17.395 11.6737 17.8136 12.4844 18.0721C16.2093 18.1139 19.9342 18.1559 23.6591 18.1977C24.3006 18.6203 24.4471 19.1853 24.0985 19.8927C23.9852 20.0435 23.8388 20.1482 23.6591 20.2066C19.8505 20.2904 16.0419 20.2904 12.2333 20.2066C10.0708 19.696 8.48036 18.4614 7.4621 16.5027C6.12477 16.3563 4.78549 16.3354 3.44424 16.4399C2.7746 17.0677 2.7746 17.6955 3.44424 18.3232C4.61611 18.5326 5.788 18.7417 6.95987 18.951C7.76177 19.3634 8.03381 20.0121 7.77599 20.8972C7.22024 21.6615 6.718 22.4566 6.2693 23.2828C6.18559 25.3755 6.18559 27.468 6.2693 29.5607C6.59404 30.2623 7.1172 30.7436 7.83877 31.0046C10.4337 31.0464 13.0285 31.0884 15.6234 31.1302C16.197 31.4492 16.3854 31.9306 16.1884 32.5741C16.0838 32.8462 15.8955 33.0345 15.6234 33.1391C12.8557 33.2423 10.0934 33.2213 7.33654 33.0763C7.19054 33.742 7.16961 34.4118 7.27376 35.0852C7.38708 35.236 7.53357 35.3408 7.71321 35.3991C9.47103 35.4829 11.2288 35.4829 12.9867 35.3991C13.2163 35.3649 13.4046 35.2601 13.5517 35.0852C13.535 33.7658 14.1418 33.3263 15.3723 33.7669C16.0103 35.12 15.7174 36.25 14.4933 37.157C14.2941 37.2652 14.0848 37.3489 13.8656 37.4081C11.5218 37.4918 9.17806 37.4918 6.83431 37.4081C6.10964 37.1436 5.58647 36.6624 5.26483 35.9642C5.10569 34.5501 5.02199 33.1272 5.01372 31.6952C4.58836 31.1793 4.2954 30.5934 4.13481 29.9374C4.0511 27.5936 4.0511 25.2499 4.13481 22.9061C4.34252 22.1348 4.69828 21.4442 5.20205 20.8344C4.05901 20.7281 2.97084 20.4351 1.93754 19.9555C0.864098 18.9872 0.508355 17.7944 0.870301 16.3771C1.23811 15.2978 1.97053 14.6072 3.06757 14.3054C4.82538 14.2216 6.58319 14.2216 8.341 14.3054C8.46656 14.3682 8.59212 14.4309 8.71768 14.4937C9.3439 12.6756 10.3902 11.148 11.8566 9.91086C12.2729 9.68111 12.6915 9.49278 13.1122 9.34585Z" fill="white"/>
<path opacity="0.947" fill-rule="evenodd" clip-rule="evenodd" d="M27.6772 20.897C34.0389 20.8761 40.4005 20.897 46.762 20.9598C48.5101 22.0401 49.7029 23.5676 50.3404 25.5427C50.4346 25.4641 50.5393 25.4013 50.6543 25.3543C52.2028 25.2706 53.7514 25.2706 55.2999 25.3543C57.1438 25.9633 57.8761 27.2397 57.4972 29.1839C57.237 30.0719 56.672 30.6788 55.8022 31.0044C55.0905 31.1836 54.379 31.351 53.6677 31.5067C54.1653 32.0625 54.4792 32.7113 54.6094 33.4528C54.6931 35.4199 54.6931 37.3869 54.6094 39.3541C54.4951 40.0008 54.244 40.5868 53.856 41.1119C53.8142 42.1163 53.7723 43.1208 53.7305 44.1253C53.6701 45.2725 53.1051 46.0468 52.0354 46.4481C49.8591 46.5318 47.6827 46.5318 45.5064 46.4481C43.9377 45.6757 43.5192 44.5037 44.2508 42.9325C45.4051 42.5771 46.0119 43.0166 46.0714 44.2508C46.1656 44.3294 46.2703 44.3922 46.3853 44.4392C47.9758 44.5229 49.5661 44.5229 51.1565 44.4392C51.3867 44.3764 51.5332 44.2299 51.596 43.9997C51.6586 43.5412 51.6795 43.0809 51.6588 42.6186C42.0326 42.6186 32.4066 42.6186 22.7804 42.6186C22.7597 43.0809 22.7805 43.5412 22.8432 43.9997C22.906 44.2299 23.0525 44.3764 23.2826 44.4392C24.8731 44.5229 26.4634 44.5229 28.0538 44.4392C28.1689 44.3922 28.2736 44.3294 28.3677 44.2508C28.4273 43.0166 29.0341 42.5771 30.1883 42.9325C30.92 44.5037 30.5015 45.6757 28.9328 46.4481C26.7565 46.5318 24.58 46.5318 22.4037 46.4481C21.3341 46.0468 20.7691 45.2725 20.7087 44.1253C20.6669 43.1208 20.625 42.1163 20.5831 41.1119C20.1952 40.5868 19.9441 40.0008 19.8298 39.3541C19.746 37.3869 19.746 35.4199 19.8298 33.4528C19.96 32.7113 20.2739 32.0625 20.7715 31.5067C20.0602 31.351 19.3487 31.1836 18.637 31.0044C17.085 30.2466 16.52 29.0118 16.942 27.3005C17.3257 26.2607 18.058 25.612 19.1392 25.3543C20.6877 25.2706 22.2364 25.2706 23.7849 25.3543C23.8999 25.4013 24.0046 25.4641 24.0988 25.5427C24.762 23.5641 25.9548 22.0156 27.6772 20.897ZM28.5561 22.906C34.3319 22.885 40.1075 22.906 45.8831 22.9687C47.4816 24.1555 48.4023 25.7458 48.6454 27.7399C48.1984 28.2281 47.6543 28.5628 47.0131 28.7444C40.4841 28.8282 33.9551 28.8282 27.4261 28.7444C26.7848 28.5628 26.2408 28.2281 25.7938 27.7399C26.0532 25.7335 26.974 24.1222 28.5561 22.906ZM51.5332 32.3228C51.0632 32.1359 50.6028 32.1568 50.1521 32.3856C49.6498 32.9296 49.1476 33.4738 48.6454 34.0178C47.306 34.0597 45.9668 34.1016 44.6275 34.1434C43.8431 34.7102 43.8013 35.338 44.502 36.0268C46.218 36.2779 47.9338 36.2779 49.6498 36.0268C50.3793 35.3388 51.0699 34.6065 51.7215 33.8295C51.9498 33.4634 51.9706 33.0867 51.7843 32.6995C52.1389 32.9883 52.369 33.3649 52.4749 33.8295C52.5586 35.5455 52.5586 37.2614 52.4749 38.9774C52.3026 39.5251 51.9887 39.9645 51.5332 40.2957C46.7724 40.4415 42.0012 40.5043 37.2196 40.4841C32.438 40.5043 27.6668 40.4415 22.906 40.2957C22.4504 39.9645 22.1365 39.5251 21.9643 38.9774C21.8805 37.2614 21.8805 35.5455 21.9643 33.8295C22.0701 33.3649 22.3003 32.9883 22.6549 32.6995C22.4685 33.0867 22.4894 33.4634 22.7176 33.8295C23.3693 34.6065 24.0598 35.3388 24.7893 36.0268C26.5053 36.2779 28.2212 36.2779 29.9372 36.0268C30.6378 35.338 30.596 34.7102 29.8117 34.1434C28.4723 34.1016 27.1331 34.0597 25.7938 34.0178C25.2916 33.4738 24.7893 32.9296 24.2871 32.3856C23.8364 32.1568 23.3759 32.1359 22.906 32.3228C23.2309 31.9021 23.4402 31.4207 23.5338 30.8789C23.4545 30.4273 23.2452 30.0506 22.906 29.7489C21.7546 29.4173 20.5828 29.1662 19.3903 28.9955C18.9469 28.5699 18.9049 28.1095 19.2648 27.6144C19.8999 27.4743 20.5486 27.4115 21.2109 27.426C21.7759 27.447 22.341 27.4679 22.906 27.4888C23.8435 29.2208 25.2666 30.3508 27.1749 30.8789C33.8713 30.9626 40.5678 30.9626 47.2642 30.8789C49.1726 30.3508 50.5957 29.2208 51.5332 27.4888C52.6632 27.4051 53.7932 27.4051 54.9233 27.4888C55.3994 27.7466 55.5458 28.1441 55.3627 28.6816C55.2581 28.7862 55.1534 28.8909 55.0488 28.9955C53.9165 29.1913 52.7865 29.4004 51.6588 29.6233C51.2473 29.9439 50.9962 30.3623 50.9054 30.8789C50.999 31.4207 51.2083 31.9021 51.5332 32.3228Z" fill="white"/>
<path opacity="0.921" fill-rule="evenodd" clip-rule="evenodd" d="M7.9649 21.7759C8.22409 21.7994 8.47521 21.8621 8.71825 21.9642C9.35026 22.5542 9.93619 23.182 10.4761 23.8476C11.9828 23.8894 13.4895 23.9313 14.9962 23.9731C15.5345 24.4466 15.6391 25.0116 15.31 25.6682C15.163 25.8431 14.9747 25.9478 14.745 25.9821C13.1128 26.0658 11.4805 26.0658 9.84827 25.9821C9.629 25.9229 9.41974 25.8392 9.22048 25.731C8.48277 24.9516 7.7922 24.1355 7.14878 23.2826C6.99788 22.5374 7.26993 22.0352 7.9649 21.7759Z" fill="white"/>
<path opacity="0.918" fill-rule="evenodd" clip-rule="evenodd" d="M22.655 32.6995C22.7602 32.6566 22.8021 32.573 22.7805 32.4484C22.8643 32.4484 22.9061 32.4066 22.9061 32.3229C23.376 32.1359 23.8365 32.1569 24.2872 32.3856C24.7894 32.9297 25.2917 33.4739 25.7939 34.0179C27.1332 34.0597 28.4724 34.1016 29.8118 34.1435C30.5961 34.7102 30.6379 35.338 29.9373 36.0268C28.2213 36.2779 26.5054 36.2779 24.7894 36.0268C24.06 35.3389 23.3694 34.6065 22.7177 33.8296C22.4895 33.4634 22.4686 33.0868 22.655 32.6995Z" fill="white"/>
<path opacity="0.918" fill-rule="evenodd" clip-rule="evenodd" d="M51.533 32.3229C51.533 32.4066 51.5748 32.4484 51.6585 32.4484C51.6369 32.573 51.6789 32.6566 51.7841 32.6995C51.9704 33.0868 51.9496 33.4634 51.7213 33.8296C51.0697 34.6065 50.3791 35.3389 49.6496 36.0268C47.9336 36.2779 46.2177 36.2779 44.5017 36.0268C43.8011 35.338 43.8429 34.7102 44.6273 34.1435C45.9666 34.1016 47.3058 34.0597 48.6451 34.0179C49.1474 33.4739 49.6496 32.9297 50.1518 32.3856C50.6026 32.1569 51.063 32.1359 51.533 32.3229Z" fill="white"/>
<path opacity="0.933" fill-rule="evenodd" clip-rule="evenodd" d="M29.4351 37.3453C34.625 37.3243 39.8147 37.3453 45.0043 37.408C45.7629 37.7643 45.9512 38.3293 45.5693 39.1031C45.4559 39.2539 45.3095 39.3586 45.1298 39.417C39.8564 39.5007 34.583 39.5007 29.3095 39.417C28.6681 38.9943 28.5215 38.4293 28.8701 37.7219C29.0775 37.6091 29.2658 37.4835 29.4351 37.3453Z" fill="white"/>
</svg>
