<svg width="60" height="60" viewBox="0 0 60 60" fill="none" xmlns="http://www.w3.org/2000/svg">
<path opacity="0.929" fill-rule="evenodd" clip-rule="evenodd" d="M29.4547 6.29988C30.512 6.22787 31.4212 6.55115 32.1823 7.26971C33.2639 9.31166 34.3146 11.3726 35.3343 13.4524C35.4352 13.5533 35.5363 13.6544 35.6373 13.7554C37.8985 14.1304 40.1615 14.4941 42.4261 14.8465C44.0249 15.5583 44.6511 16.7909 44.3052 18.544C44.1436 18.8673 43.9818 19.1905 43.8202 19.5138C42.2074 21.0054 40.6315 22.5409 39.0923 24.1205C39.0317 24.3023 38.9711 24.4841 38.9105 24.666C39.2308 25.8396 39.3723 27.0318 39.3348 28.2422C38.8836 28.8505 38.3381 28.9515 37.6982 28.5453C37.6223 28.4544 37.5617 28.3533 37.5164 28.2422C37.2551 27.0382 37.0328 25.8259 36.8496 24.6054C36.8873 23.9923 37.0692 23.4265 37.3951 22.9082C39.0115 21.2918 40.6279 19.6754 42.2443 18.059C42.4435 17.4616 42.2616 17.0373 41.6987 16.7861C39.5552 16.4741 37.4134 16.1509 35.2736 15.8163C34.5432 15.5833 33.9572 15.159 33.5158 14.5434C32.5864 12.6441 31.657 10.7449 30.7276 8.84567C30.2023 8.36076 29.6769 8.36076 29.1516 8.84567C28.2551 10.7598 27.3258 12.659 26.3634 14.5434C25.922 15.159 25.3359 15.5833 24.6055 15.8163C22.4657 16.1509 20.324 16.4741 18.1804 16.7861C17.6176 17.0373 17.4357 17.4616 17.6349 18.059C19.2512 19.6754 20.8677 21.2918 22.484 22.9082C22.81 23.4265 22.9919 23.9923 23.0296 24.6054C22.8739 25.7008 22.6921 26.7918 22.484 27.8785C22.1536 28.7701 21.5676 28.9923 20.7262 28.5453C20.4843 28.0275 20.4236 27.482 20.5444 26.9087C20.6703 26.1576 20.8118 25.4101 20.9687 24.666C20.9081 24.4841 20.8475 24.3023 20.7868 24.1205C19.2477 22.5409 17.6718 21.0054 16.0589 19.5138C15.3047 18.1947 15.345 16.9015 16.1802 15.6345C16.4832 15.4123 16.7863 15.1899 17.0894 14.9677C19.4663 14.53 21.8504 14.1259 24.2419 13.7554C24.3428 13.6544 24.4439 13.5533 24.5449 13.4524C25.5646 11.3726 26.6153 9.31166 27.6969 7.26971C28.1962 6.76793 28.7821 6.44465 29.4547 6.29988Z" fill="white"/>
<path opacity="0.934" fill-rule="evenodd" clip-rule="evenodd" d="M9.45184 17.6953C10.3433 17.6083 11.0909 17.8913 11.6946 18.5439C12.3036 19.782 12.9299 21.0145 13.5736 22.2413C14.9106 22.4207 16.2442 22.6228 17.5742 22.8475C19.0394 23.5654 19.4232 24.6767 18.7258 26.1812C17.7138 27.173 16.7239 28.1832 15.7557 29.212C15.9921 30.4895 16.2346 31.7624 16.4831 33.0307C16.1565 34.9121 15.0654 35.599 13.2099 35.0915C12.1521 34.4818 11.061 33.9362 9.93676 33.4549C8.70654 34.0094 7.49426 34.5955 6.2999 35.2128C4.65058 35.4795 3.68075 34.7926 3.39042 33.1519C3.60035 31.8316 3.84281 30.5183 4.11779 29.212C3.26723 28.2603 2.35802 27.3713 1.39015 26.5449C0.877502 25.8589 0.715868 25.091 0.905239 24.2416C1.12432 23.5376 1.58903 23.0728 2.29937 22.8475C3.63288 22.6454 4.96639 22.4434 6.2999 22.2413C6.92664 21.0067 7.55298 19.7742 8.17895 18.5439C8.54236 18.1513 8.96666 17.8685 9.45184 17.6953ZM9.81553 19.7561C9.92177 19.7403 10.0026 19.7806 10.058 19.8774C10.6439 21.0493 11.2299 22.2211 11.8158 23.393C12.1995 23.898 12.7046 24.2011 13.3312 24.3022C14.5673 24.4295 15.7796 24.6517 16.968 24.969C15.9933 26.0041 15.0033 27.0144 13.9979 27.9997C13.8471 28.3711 13.7461 28.755 13.6948 29.1513C13.8904 30.3848 14.0923 31.6174 14.301 32.8488C14.2606 32.97 14.2201 33.0913 14.1798 33.2125C13.0293 32.6575 11.8977 32.0716 10.7854 31.4547C10.2196 31.2122 9.6539 31.2122 9.08816 31.4547C7.97573 32.0716 6.84426 32.6575 5.69376 33.2125C5.65336 33.071 5.61294 32.9297 5.57253 32.7882C5.75493 31.5928 5.95699 30.4007 6.17868 29.212C6.13067 28.7369 5.98923 28.2923 5.75438 27.8784C4.78279 26.927 3.83316 25.9572 2.90551 24.969C2.96919 24.8851 3.05 24.8245 3.14797 24.7871C4.27943 24.6255 5.4109 24.4638 6.54236 24.3022C7.16889 24.2011 7.67402 23.898 8.05772 23.393C8.67804 22.1928 9.26399 20.9805 9.81553 19.7561Z" fill="white"/>
<path opacity="0.934" fill-rule="evenodd" clip-rule="evenodd" d="M49.457 17.6953C50.3485 17.6083 51.096 17.8913 51.6997 18.5439C52.3743 19.7518 53.0007 20.9843 53.5787 22.2413C54.9158 22.4207 56.2493 22.6228 57.5793 22.8475C59.0446 23.5654 59.4284 24.6767 58.7309 26.1812C57.7256 27.1665 56.7355 28.1768 55.7608 29.212C56.0358 30.5183 56.2782 31.8316 56.4882 33.1519C56.0943 34.9582 55.0033 35.6047 53.215 35.0915C52.1572 34.4818 51.0662 33.9362 49.9419 33.455C48.7117 34.0094 47.4994 34.5955 46.305 35.2128C44.6185 35.4813 43.6487 34.7742 43.3955 33.0913C43.638 31.7984 43.8805 30.5052 44.1229 29.212C43.1548 28.1832 42.1648 27.173 41.1528 26.1812C40.4554 24.6767 40.8392 23.5654 42.3045 22.8475C43.638 22.6454 44.9715 22.4434 46.305 22.2413C46.9487 21.0145 47.575 19.782 48.1841 18.5439C48.5475 18.1513 48.9718 17.8685 49.457 17.6953ZM49.8207 19.7561C49.9268 19.7403 50.0077 19.7806 50.0631 19.8774C50.649 21.0493 51.235 22.2211 51.8209 23.393C52.2046 23.898 52.7098 24.2011 53.3363 24.3022C54.4677 24.4638 55.5992 24.6255 56.7307 24.7871C56.8286 24.8245 56.9095 24.8851 56.9731 24.969C56.0455 25.9572 55.0959 26.927 54.1243 27.8784C53.8857 28.2709 53.7442 28.6952 53.7 29.1513C53.9151 30.3613 54.1171 31.5736 54.3061 32.7882C54.2657 32.9297 54.2252 33.071 54.1849 33.2125C53.0344 32.6575 51.9029 32.0716 50.7905 31.4547C50.2247 31.2122 49.6591 31.2122 49.0933 31.4547C47.9809 32.0716 46.8493 32.6575 45.6989 33.2125C45.6585 33.0913 45.618 32.97 45.5777 32.8488C45.7863 31.6174 45.9883 30.3848 46.1838 29.1513C46.1325 28.755 46.0315 28.3711 45.8807 27.9997C44.872 27.0112 43.882 26.001 42.9106 24.969C44.0943 24.657 45.3066 24.4347 46.5475 24.3022C47.174 24.2011 47.6792 23.898 48.0628 23.393C48.6832 22.1928 49.2691 20.9805 49.8207 19.7561Z" fill="white"/>
<path opacity="0.929" fill-rule="evenodd" clip-rule="evenodd" d="M28.7271 27.0297C35.356 26.8561 39.9424 29.8059 42.4865 35.8794C44.1137 41.3526 42.9215 46.1006 38.9103 50.1237C35.1842 53.2875 30.9412 54.2574 26.1813 53.0332C22.1671 51.7632 19.3182 49.1972 17.6347 45.3352C15.6369 39.5274 16.829 34.4964 21.2109 30.2423C23.4139 28.451 25.9193 27.38 28.7271 27.0297ZM28.7271 29.0906C34.1038 28.8981 37.963 31.2014 40.3044 36.0006C42.2075 41.8893 40.6114 46.5566 35.5159 50.0025C31.1102 52.26 26.9076 51.9368 22.9081 49.0327C18.8579 45.3385 17.7871 40.9136 19.6956 35.7581C21.5604 31.9725 24.571 29.7501 28.7271 29.0906Z" fill="white"/>
<path opacity="0.902" fill-rule="evenodd" clip-rule="evenodd" d="M35.5157 36.1221C36.5642 36.2559 36.9078 36.8217 36.5461 37.8193C34.1013 40.2641 31.6566 42.7088 29.2118 45.1536C28.9743 45.2665 28.7319 45.3674 28.4844 45.4567C28.237 45.3674 27.9946 45.2665 27.7571 45.1536C26.0765 43.5135 24.4399 41.8365 22.8473 40.1226C22.7138 38.8446 23.2594 38.4203 24.4839 38.8497C25.7989 40.1849 27.1324 41.4983 28.4844 42.7896C30.6446 40.6901 32.7864 38.5686 34.9095 36.4251C35.1296 36.3334 35.3315 36.2324 35.5157 36.1221Z" fill="white"/>
</svg>
