<svg width="60" height="60" viewBox="0 0 60 60" fill="none" xmlns="http://www.w3.org/2000/svg">
<g clip-path="url(#clip0_31_2502)">
<path opacity="0.942" fill-rule="evenodd" clip-rule="evenodd" d="M59.9414 25.0195C59.9414 29.2773 59.9414 33.5352 59.9414 37.793C59.4882 38.2901 58.9413 38.3877 58.3008 38.0859C58.2274 37.9981 58.1688 37.9003 58.125 37.793C58.086 33.9258 58.0468 30.0586 58.0078 26.1914C57.9969 25.2516 57.6258 24.4898 56.8945 23.9063C56.2509 23.4438 55.5478 23.0923 54.7852 22.8516C50.8314 21.7584 46.847 21.6217 42.832 22.4414C42.8516 27.5197 42.832 32.5978 42.7734 37.6758C42.3898 38.2896 41.8624 38.4263 41.1914 38.0859C41.0507 37.9801 40.9529 37.8435 40.8984 37.6758C40.8594 32.5977 40.8203 27.5195 40.7812 22.4414C40.4848 21.3634 39.8402 20.5627 38.8477 20.0391C37.5107 19.3922 36.1044 18.9625 34.6289 18.75C30.2495 17.9617 25.9526 18.2742 21.7383 19.6875C20.4148 20.1905 19.5359 21.1085 19.1016 22.4414C19.0625 27.5195 19.0234 32.5977 18.9844 37.6758C18.6449 38.2213 18.1567 38.3971 17.5195 38.2031C17.338 38.0609 17.2014 37.8851 17.1094 37.6758C17.0508 32.5978 17.0312 27.5197 17.0508 22.4414C13.0361 21.6217 9.05174 21.7584 5.09766 22.8516C3.81162 23.1902 2.81552 23.9129 2.10938 25.0195C1.98791 25.4007 1.90979 25.7913 1.875 26.1914C1.83594 30.0586 1.79687 33.9258 1.75781 37.793C1.57868 38.1464 1.28571 38.3026 0.878906 38.2617C0.46104 38.2873 0.14854 38.1309 -0.0585938 37.793C-0.0585938 33.5352 -0.0585938 29.2773 -0.0585938 25.0195C0.784615 22.7916 2.38617 21.4049 4.74609 20.8594C6.24775 20.4653 7.77118 20.1919 9.31641 20.0391C6.95495 18.3825 5.82213 16.0973 5.91797 13.1836C5.99753 9.35399 7.95064 7.32275 11.7773 7.08985C15.6289 7.32824 17.5821 9.37902 17.6367 13.2422C17.6633 15.6251 16.843 17.6563 15.1758 19.3359C14.8444 19.5994 14.4928 19.8338 14.1211 20.0391C15.247 20.1386 16.3603 20.3143 17.4609 20.5664C18.0259 19.9291 18.6314 19.3238 19.2773 18.75C20.6856 17.8704 22.209 17.2845 23.8477 16.9922C25.0857 16.7208 26.3357 16.5254 27.5977 16.4063C25.3066 15.0079 23.9981 12.9571 23.6719 10.2539C23.2569 7.7506 23.9014 5.58263 25.6055 3.75C28.4961 1.79687 31.3867 1.79687 34.2773 3.75C35.9814 5.58263 36.6259 7.7506 36.2109 10.2539C35.8847 12.9571 34.5762 15.0079 32.2852 16.4063C34.4416 16.611 36.551 17.0407 38.6133 17.6953C39.2959 18.017 39.96 18.3686 40.6055 18.75C41.2127 19.3377 41.7987 19.9431 42.3633 20.5664C43.4849 20.3197 44.6177 20.1439 45.7617 20.0391C44.0768 19.0366 43.0027 17.5718 42.5391 15.6445C42.0901 13.8222 42.1683 12.0253 42.7734 10.2539C43.8853 8.112 45.6627 7.05732 48.1055 7.08985C51.9321 7.32275 53.8853 9.35399 53.9648 13.1836C54.0607 16.0973 52.9279 18.3825 50.5664 20.0391C52.9499 20.1857 55.2155 20.7716 57.3633 21.7969C58.6455 22.5498 59.5049 23.6241 59.9414 25.0195ZM29.707 4.27735C32.7341 4.37476 34.2575 5.93727 34.2773 8.96485C34.3256 11.2277 33.4662 13.044 31.6992 14.4141C29.8283 15.3284 28.2463 14.9572 26.9531 13.3008C25.4052 10.9449 25.2098 8.48396 26.3672 5.91797C27.2516 4.87996 28.3649 4.33308 29.707 4.27735ZM11.1914 9.08203C14.5911 9.11423 16.056 10.833 15.5859 14.2383C15.4003 16.0765 14.5214 17.4632 12.9492 18.3984C11.576 18.8658 10.3846 18.5728 9.375 17.5195C7.8055 15.4291 7.49299 13.1636 8.4375 10.7227C9.13675 9.7973 10.0547 9.25043 11.1914 9.08203ZM47.5195 9.08203C51.0161 9.11416 52.4809 10.872 51.9141 14.3555C51.6885 15.9212 50.9658 17.1907 49.7461 18.1641C47.987 19.0148 46.5221 18.6437 45.3516 17.0508C44.074 14.9796 43.9178 12.8311 44.8828 10.6055C45.5638 9.74766 46.4427 9.23985 47.5195 9.08203Z" fill="white"/>
<path opacity="0.933" fill-rule="evenodd" clip-rule="evenodd" d="M23.0274 25.7227C23.503 25.7484 23.835 25.9828 24.0235 26.4258C24.1016 30.1758 24.1016 33.9258 24.0235 37.6758C23.629 38.2745 23.1017 38.4113 22.4414 38.0859C22.3007 37.9801 22.203 37.8435 22.1485 37.6758C22.0703 33.9258 22.0703 30.1758 22.1485 26.4258C22.3292 26.0283 22.6221 25.7939 23.0274 25.7227Z" fill="white"/>
<path opacity="0.933" fill-rule="evenodd" clip-rule="evenodd" d="M36.7383 25.7227C37.214 25.7484 37.546 25.9828 37.7344 26.4258C37.8126 30.1758 37.8126 33.9258 37.7344 37.6758C37.34 38.2745 36.8126 38.4113 36.1524 38.0859C36.0116 37.9801 35.9139 37.8435 35.8594 37.6758C35.7812 33.9258 35.7812 30.1758 35.8594 26.4258C36.0401 26.0283 36.3331 25.7939 36.7383 25.7227Z" fill="white"/>
<path opacity="0.928" fill-rule="evenodd" clip-rule="evenodd" d="M5.21485 28.5351C5.79148 28.4815 6.20164 28.7159 6.44532 29.2382C6.52344 32.0507 6.52344 34.8632 6.44532 37.6757C6.10587 38.2212 5.61758 38.397 4.98047 38.203C4.79897 38.0608 4.66225 37.885 4.57032 37.6757C4.49219 34.8242 4.49219 31.9725 4.57032 29.121C4.72871 28.8574 4.94355 28.6621 5.21485 28.5351Z" fill="white"/>
<path opacity="0.928" fill-rule="evenodd" clip-rule="evenodd" d="M54.0821 28.535C54.6121 28.4975 55.0223 28.6928 55.3125 29.121C55.3907 31.9725 55.3907 34.8242 55.3125 37.6757C54.9289 38.2895 54.4015 38.4261 53.7305 38.0858C53.5673 37.9486 53.4695 37.7728 53.4375 37.5585C53.3594 34.785 53.3594 32.0117 53.4375 29.2382C53.5969 28.9425 53.8117 28.7081 54.0821 28.535Z" fill="white"/>
<path opacity="0.934" fill-rule="evenodd" clip-rule="evenodd" d="M-0.0585938 47.5196C-0.0585938 47.2071 -0.0585938 46.8947 -0.0585938 46.5821C0.185905 46.2254 0.537468 46.0496 0.996094 46.0548C2.64657 45.904 4.2872 45.6892 5.91797 45.4103C6.64764 43.7556 7.40936 42.1149 8.20312 40.4884C8.82189 40.1164 9.36876 40.1945 9.84375 40.7228C10.5513 42.3136 11.274 43.8956 12.0117 45.4688C13.8518 45.6777 15.6878 45.912 17.5195 46.172C18.0301 46.6404 18.1082 47.1677 17.7539 47.754C16.4667 48.9043 15.1972 50.0762 13.9453 51.2696C14.2229 53.0294 14.555 54.7872 14.9414 56.5431C14.8887 57.1624 14.5567 57.4749 13.9453 57.4806C13.6758 57.4813 13.422 57.4227 13.1836 57.3048C11.7964 56.4744 10.3901 55.6735 8.96484 54.9024C7.30539 55.8198 5.64524 56.7181 3.98437 57.5978C3.35947 57.481 3.02745 57.1099 2.98828 56.4845C3.28746 54.7737 3.63902 53.0744 4.04297 51.3868C2.68946 50.0687 1.32229 48.7796 -0.0585938 47.5196ZM8.84766 43.7696C8.96451 43.7661 9.04264 43.8247 9.08203 43.9454C9.51518 44.9484 9.96439 45.9445 10.4297 46.9337C10.5664 47.0704 10.7031 47.2071 10.8398 47.3438C12.1256 47.5257 13.4147 47.682 14.707 47.8126C13.7082 48.6943 12.7512 49.6124 11.8359 50.5665C11.7578 50.8399 11.7578 51.1134 11.8359 51.3868C12.0932 52.4382 12.2885 53.4929 12.4219 54.5509C11.3003 53.8338 10.1284 53.2088 8.90625 52.6759C7.74136 53.2388 6.60854 53.8639 5.50781 54.5509C5.70313 53.2618 5.89843 51.9728 6.09375 50.6837C6.01562 50.5275 5.9375 50.3712 5.85937 50.2149C4.98047 49.4142 4.10156 48.6133 3.22266 47.8126C4.56642 47.6938 5.89454 47.4985 7.20703 47.2267C7.83236 46.1127 8.37923 44.9604 8.84766 43.7696Z" fill="white"/>
<path opacity="0.934" fill-rule="evenodd" clip-rule="evenodd" d="M29.4725 40.254C29.9128 40.2038 30.3229 40.2818 30.703 40.4884C31.4533 42.1339 32.215 43.7746 32.9881 45.4103C34.8219 45.677 36.6577 45.9308 38.4959 46.172C38.9984 46.6139 39.096 47.1413 38.7889 47.754C37.4244 48.9036 36.1158 50.1145 34.8631 51.3868C35.2369 53.0803 35.5885 54.7795 35.9178 56.4845C35.873 57.1151 35.541 57.4861 34.9217 57.5978C33.2522 56.732 31.5921 55.8335 29.9412 54.9025C28.4378 55.7127 26.9534 56.5525 25.4881 57.422C24.5832 57.7253 24.0754 57.4127 23.9647 56.4845C24.294 54.7795 24.6455 53.0803 25.0194 51.3868C23.6864 50.0732 22.3387 48.7841 20.9764 47.5197C20.8073 46.9675 20.9439 46.5183 21.3865 46.172C23.2209 45.9291 25.0569 45.6947 26.8944 45.4689C27.6556 43.8108 28.4173 42.1506 29.1795 40.4884C29.2961 40.4221 29.3937 40.3439 29.4725 40.254ZM29.824 43.7697C29.9267 43.7543 30.0049 43.7933 30.0584 43.8868C30.5058 45.0563 31.0528 46.1695 31.699 47.2267C33.0089 47.5157 34.3371 47.7109 35.6834 47.8126C34.7655 48.6525 33.8474 49.4923 32.9295 50.3322C32.847 50.5405 32.7884 50.7554 32.7537 50.9767C33.0362 52.1632 33.2511 53.3545 33.3983 54.5509C32.284 53.8474 31.1317 53.2225 29.9412 52.6759C28.7507 53.2225 27.5984 53.8474 26.4842 54.5509C26.6314 53.3545 26.8463 52.1632 27.1287 50.9767C27.094 50.7554 27.0355 50.5405 26.953 50.3322C26.035 49.4923 25.117 48.6525 24.199 47.8126C25.5454 47.7109 26.8736 47.5157 28.1834 47.2267C28.8531 46.1368 29.4001 44.9845 29.824 43.7697Z" fill="white"/>
<path opacity="0.934" fill-rule="evenodd" clip-rule="evenodd" d="M59.9413 46.5821C59.9413 46.8947 59.9413 47.2071 59.9413 47.5196C58.6053 48.8339 57.2381 50.1229 55.8398 51.3868C56.3315 53.2393 56.6635 55.1143 56.8359 57.0118C56.4482 57.4603 55.96 57.597 55.371 57.422C53.9057 56.5524 52.4213 55.7127 50.9179 54.9024C49.2958 55.8793 47.6357 56.7778 45.9374 57.5978C45.3454 57.4939 45.0134 57.1424 44.9413 56.5431C45.3277 54.7872 45.6598 53.0294 45.9374 51.2696C44.6855 50.0762 43.416 48.9043 42.1288 47.754C41.7746 47.1677 41.8526 46.6404 42.3632 46.172C44.1978 45.929 46.0336 45.6947 47.871 45.4688C48.6087 43.8956 49.3314 42.3136 50.039 40.7228C50.514 40.1945 51.0609 40.1164 51.6796 40.4884C52.4735 42.1149 53.2352 43.7556 53.9648 45.4103C55.6358 45.6806 57.3154 45.8954 59.0038 46.0548C59.4146 46.0836 59.727 46.2594 59.9413 46.5821ZM50.8007 43.7696C50.9034 43.7543 50.9815 43.7933 51.0351 43.8868C51.5369 45.0272 52.0838 46.1404 52.6757 47.2267C53.9882 47.4985 55.3163 47.6938 56.6601 47.8126C55.6185 48.6978 54.6616 49.6549 53.789 50.6837C53.9843 51.9728 54.1796 53.2618 54.3749 54.5509C53.2742 53.8639 52.1413 53.2388 50.9765 52.6759C49.7543 53.2088 48.5825 53.8338 47.4609 54.5509C47.5942 53.4929 47.7896 52.4382 48.0468 51.3868C48.125 51.1134 48.125 50.8399 48.0468 50.5665C47.1316 49.6124 46.1745 48.6943 45.1757 47.8126C46.4681 47.682 47.7571 47.5257 49.0429 47.3438C49.3483 47.1167 49.5631 46.8238 49.6874 46.4649C50.1168 45.5859 50.4879 44.6876 50.8007 43.7696Z" fill="white"/>
</g>
<defs>
<clipPath id="clip0_31_2502">
<rect width="60" height="60" fill="white"/>
</clipPath>
</defs>
</svg>
