<svg width="61" height="61" viewBox="0 0 61 61" fill="none" xmlns="http://www.w3.org/2000/svg">
<g clip-path="url(#clip0_31_2495)">
<path opacity="0.935" fill-rule="evenodd" clip-rule="evenodd" d="M60.9404 52.0048C60.9404 52.5608 60.9404 53.1168 60.9404 53.6728C60.3834 54.8855 59.5098 55.8189 58.3193 56.4726C56.5712 57.3863 54.7443 58.1011 52.8389 58.6171C47.0212 59.9714 41.1435 60.7458 35.2061 60.9404C32.0289 60.9404 28.8519 60.9404 25.6748 60.9404C21.2591 60.7319 16.8509 60.2752 12.4502 59.5702C9.8475 59.1181 7.30582 58.4431 4.8252 57.5449C3.28882 56.9461 1.9187 56.0923 0.714844 54.9833C0.421683 54.5549 0.163544 54.118 -0.0595703 53.6728C-0.0595703 53.1168 -0.0595703 52.5608 -0.0595703 52.0048C0.629941 50.5807 1.70221 49.5284 3.15723 48.8476C5.52507 47.7671 7.98732 46.9728 10.5439 46.4648C13.5831 45.8661 16.6411 45.3895 19.7178 45.0351C15.4236 39.9247 12.1869 34.186 10.0078 27.8193C7.57817 18.5293 9.98084 10.7653 17.2158 4.52728C23.5211 -0.0645814 30.3915 -1.13685 37.8271 1.31048C45.8333 4.55405 50.4599 10.4515 51.707 19.0029C52.0699 22.7769 51.5537 26.4304 50.1582 29.9638C47.9008 35.455 44.9024 40.4788 41.1631 45.0351C44.2398 45.3895 47.2978 45.8661 50.3369 46.4648C52.9824 46.9892 55.5241 47.8232 57.9619 48.9667C59.3046 49.6539 60.2974 50.6666 60.9404 52.0048ZM28.5342 2.08489C35.9152 1.69556 41.8126 4.4358 46.2266 10.3056C49.7386 15.6283 50.5726 21.3471 48.7285 27.4618C47.1287 32.0917 44.9047 36.3807 42.0566 40.329C38.6033 45.1147 34.7313 49.5626 30.4404 53.6728C24.7891 48.2831 19.9242 42.2864 15.8457 35.6826C13.8562 32.3781 12.4265 28.8436 11.5566 25.079C10.372 17.472 12.6953 11.1774 18.5264 6.19524C21.4982 3.92746 24.8341 2.55734 28.5342 2.08489ZM20.6709 47.1201C20.9124 47.1007 21.1507 47.1206 21.3857 47.1796C23.7961 50.0273 26.3377 52.7676 29.0107 55.4003C29.9639 56.1152 30.917 56.1152 31.8701 55.4003C34.5432 52.7676 37.0848 50.0273 39.4951 47.1796C44.0559 47.4171 48.5436 48.1319 52.958 49.3242C54.9366 49.8369 56.7435 50.6907 58.3789 51.8857C58.8075 52.3516 58.8868 52.8679 58.6172 53.4345C57.5892 54.4607 56.3779 55.1954 54.9834 55.6386C51.1811 56.8836 47.2893 57.7176 43.3076 58.1406C35.4918 58.9176 27.6681 58.9971 19.8369 58.3788C16.0138 58.0395 12.241 57.4042 8.51855 56.4726C6.57681 55.9777 4.74999 55.2232 3.03809 54.2089C2.54823 53.8603 2.23052 53.4036 2.08496 52.8388C2.09413 52.6245 2.15371 52.4259 2.26367 52.2431C2.9877 51.4029 3.88126 50.7874 4.94434 50.3964C7.60259 49.3516 10.3428 48.597 13.165 48.1327C15.6753 47.7248 18.1773 47.3873 20.6709 47.1201Z" fill="white"/>
<path opacity="0.934" fill-rule="evenodd" clip-rule="evenodd" d="M28.5343 3.99116C35.698 3.57204 41.2777 6.31227 45.2735 12.2119C48.2233 17.4994 48.541 22.9402 46.2267 28.5341C42.7392 35.3137 37.1595 38.6694 29.4874 38.6015C21.4726 37.7828 16.2105 33.5533 13.7013 25.913C12.0727 18.8459 13.9194 12.8689 19.2413 7.98237C21.9713 5.78215 25.069 4.45175 28.5343 3.99116ZM28.7726 6.1357C26.6276 6.43384 24.6022 7.12883 22.6964 8.22066C16.6521 12.2708 14.3289 17.8903 15.7267 25.0791C17.8794 31.8773 22.506 35.6701 29.6065 36.457C36.3835 36.4758 41.2882 33.4775 44.3204 27.4619C46.1219 22.9441 45.9631 18.4962 43.8438 14.1181C40.4337 8.47082 35.4099 5.81 28.7726 6.1357Z" fill="white"/>
<path opacity="0.933" fill-rule="evenodd" clip-rule="evenodd" d="M37.2313 11.0205C39.8593 11.2059 40.9514 12.5959 40.5077 15.1904C40.3393 15.567 40.1407 15.9245 39.912 16.2627C38.8596 17.3151 37.8071 18.3676 36.7548 19.4199C37.7109 21.851 38.6441 24.2934 39.5546 26.7471C39.6418 27.2878 39.5624 27.8041 39.3163 28.2959C38.7825 28.8691 38.2067 29.4052 37.5887 29.9043C36.9136 30.1426 36.2385 30.1426 35.5634 29.9043C33.9567 28.397 32.3682 26.868 30.7977 25.3174C29.8843 26.1514 29.0106 27.025 28.1766 27.9385C28.7035 28.8654 28.7234 29.7788 28.2362 30.6787C27.6516 31.3433 26.9963 31.9191 26.2704 32.4062C25.6712 32.5897 25.0755 32.5499 24.4833 32.2871C22.8783 30.8014 21.3096 29.2724 19.7772 27.7002C19.2164 26.9356 19.0973 26.1016 19.4198 25.1982C20.0093 24.3699 20.744 23.7146 21.6239 23.2324C22.3707 23.1071 23.0855 23.2064 23.7684 23.5303C24.6819 22.6963 25.5555 21.8226 26.3895 20.9092C24.8389 19.3387 23.3099 17.7502 21.8026 16.1436C21.5423 15.4114 21.582 14.6966 21.9218 13.999C22.3346 13.4668 22.7912 12.9705 23.2919 12.5098C23.6806 12.2884 24.0976 12.1494 24.5428 12.0928C27.1641 12.9864 29.7653 13.9396 32.3466 14.9521C33.4767 13.8816 34.5887 12.7895 35.6825 11.6758C36.1663 11.35 36.6826 11.1316 37.2313 11.0205ZM37.1122 13.2842C36.0243 14.4317 34.9124 15.5636 33.7762 16.6797C33.1565 17.0688 32.4813 17.1879 31.7509 17.0371C29.3879 16.1436 27.0249 15.25 24.662 14.3564C24.3303 14.5685 24.0324 14.8267 23.7684 15.1309C25.2577 16.6201 26.7469 18.1094 28.2362 19.5986C28.7922 20.4723 28.7922 21.3461 28.2362 22.2197C27.2235 23.2324 26.2108 24.2451 25.1981 25.2578C24.2657 25.7897 23.3126 25.8094 22.3387 25.3174C22.0031 25.5934 21.6854 25.8913 21.3856 26.2109C22.7557 27.5811 24.1259 28.9512 25.496 30.3213C25.8397 30.0177 26.1375 29.6801 26.3895 29.3086C25.9454 28.4625 25.9255 27.6087 26.33 26.7471C27.4157 25.6613 28.5077 24.5693 29.6063 23.4707C30.4403 22.9147 31.2743 22.9147 32.1083 23.4707C33.5975 24.96 35.0868 26.4492 36.576 27.9385C36.7795 27.6951 37.0178 27.4965 37.2909 27.3428C37.3486 27.0553 37.3088 26.7773 37.1718 26.5088C36.3774 24.4437 35.5833 22.3785 34.7889 20.3135C34.5286 19.5814 34.5683 18.8665 34.9081 18.1689C36.1868 16.9699 37.3782 15.6992 38.4823 14.3564C38.464 13.48 38.0073 13.1226 37.1122 13.2842Z" fill="white"/>
</g>
<defs>
<clipPath id="clip0_31_2495">
<rect width="61" height="61" fill="white"/>
</clipPath>
</defs>
</svg>
