<svg width="60" height="60" viewBox="0 0 60 60" fill="none" xmlns="http://www.w3.org/2000/svg">
<path opacity="0.931" fill-rule="evenodd" clip-rule="evenodd" d="M32.0508 1.9336C36.0354 1.91406 40.0198 1.9336 44.0039 1.99219C44.2791 2.03272 44.4939 2.16944 44.6484 2.40235C44.7266 3.76954 44.7266 5.13672 44.6484 6.50391C44.2958 9.39419 42.8115 11.4645 40.1953 12.7148C40.1368 13.2604 40.1173 13.8071 40.1367 14.3555C42.6056 14.2518 44.383 15.3064 45.4688 17.5195C46.3081 19.9253 45.8199 22.0151 44.0039 23.7891C42.7931 24.7069 41.426 25.117 39.9023 25.0195C39.2084 28.213 37.4114 30.5568 34.5117 32.0508C34.3792 32.2352 34.3596 32.4306 34.4531 32.6367C34.7393 33.8073 35.0714 34.9596 35.4492 36.0938C39.5578 37.32 43.6594 38.57 47.7539 39.8438C49.4557 40.7262 50.4908 42.113 50.8594 44.0039C50.9752 48.545 50.936 53.0763 50.7422 57.5977C50.605 57.7609 50.4292 57.8586 50.2149 57.8906C36.6993 57.9688 23.1836 57.9688 9.66797 57.8906C9.34785 57.844 9.13301 57.6682 9.02344 57.3633C8.94531 52.9102 8.94531 48.457 9.02344 44.0039C9.39196 42.113 10.4271 40.7262 12.1289 39.8438C16.2251 38.5755 20.3266 37.3256 24.4336 36.0938C24.8114 34.9596 25.1435 33.8073 25.4297 32.6367C25.5232 32.4306 25.5036 32.2352 25.3711 32.0508C22.1249 30.3272 20.2695 27.6319 19.8047 23.9648C19.7265 19.2773 19.7265 14.5898 19.8047 9.90235C20.3589 7.08263 22.0581 5.46154 24.9023 5.03906C26.9387 3.19532 29.3215 2.16015 32.0508 1.9336ZM31.9336 3.8086C35.6054 3.8086 39.2774 3.8086 42.9492 3.8086C42.9723 5.29126 42.7574 6.73657 42.3047 8.14453C41.9333 8.94443 41.406 9.62802 40.7227 10.1953C39.9668 10.6609 39.2051 11.1101 38.4375 11.543C38.3084 12.432 38.2106 13.3303 38.1445 14.2383C35.9736 13.6494 34.5478 12.2823 33.8672 10.1367C33.3977 9.58994 32.8704 9.53134 32.2852 9.96094C31.069 10.921 29.7408 11.7023 28.3008 12.3047C27.8414 12.4586 27.3727 12.5757 26.8945 12.6563C25.2852 12.587 23.7618 12.8995 22.3242 13.5938C22.0771 13.7275 21.8623 13.9032 21.6797 14.1211C21.6015 12.7539 21.6015 11.3867 21.6797 10.0195C22.2411 7.89696 23.6279 6.82274 25.8398 6.79688C27.5221 5.0768 29.5534 4.0807 31.9336 3.8086ZM32.5195 12.0117C33.743 14.3266 35.6571 15.6939 38.2617 16.1133C38.2617 18.457 38.2617 20.8008 38.2617 23.1445C36.0728 23.1836 33.8854 23.1445 31.6992 23.0273C30.8503 21.5789 29.6393 21.1688 28.0664 21.7969C26.8548 22.6193 26.4837 23.7326 26.9531 25.1367C27.7052 26.4557 28.8185 26.9048 30.293 26.4844C30.9341 26.2144 31.4029 25.7652 31.6992 25.1367C33.8075 25.0001 35.9169 24.9805 38.0273 25.0781C36.4461 29.4636 33.3212 31.4948 28.6523 31.1719C24.6852 30.2907 22.361 27.8494 21.6797 23.8477C21.6015 21.8164 21.6015 19.7851 21.6797 17.7539C21.9616 16.417 22.7234 15.46 23.9648 14.8828C25.532 14.6939 27.0945 14.4595 28.6523 14.1797C30.0929 13.6947 31.382 12.972 32.5195 12.0117ZM40.1367 16.1133C42.4 16.2286 43.689 17.4005 44.0039 19.6289C43.7593 21.9436 42.4703 23.1155 40.1367 23.1445C40.1367 20.8008 40.1367 18.457 40.1367 16.1133ZM29.0039 23.3789C29.7429 23.286 30.0749 23.5985 30 24.3164C29.6125 24.8787 29.1827 24.9177 28.7109 24.4336C28.5852 24.0117 28.6828 23.6602 29.0039 23.3789ZM27.2461 32.8711C29.0429 33.1836 30.8399 33.1836 32.6367 32.8711C32.9298 34.1202 33.1836 35.3701 33.3984 36.6211C32.264 37.7752 31.1116 38.9079 29.9414 40.0195C28.7712 38.9079 27.6189 37.7752 26.4844 36.6211C26.6992 35.3701 26.953 34.1202 27.2461 32.8711ZM24.7852 37.9102C24.9084 37.8927 25.0256 37.9121 25.1367 37.9688C26.4062 39.2382 27.6758 40.5079 28.9453 41.7773C29.0039 46.5428 29.0235 51.3084 29.0039 56.0742C26.6989 56.0938 24.3942 56.0742 22.0898 56.0156C21.0749 53.127 20.0592 50.2363 19.043 47.3438C20.0568 46.8094 21.1114 46.3406 22.207 45.9375C22.655 45.4342 22.6745 44.9068 22.2656 44.3555C21.3233 42.7637 20.3663 41.1817 19.3945 39.6094C21.2154 39.0738 23.0123 38.5073 24.7852 37.9102ZM34.7461 37.9102C36.6684 38.4402 38.5825 39.0066 40.4883 39.6094C39.3061 41.3959 38.2514 43.2513 37.3242 45.1758C37.3308 45.4818 37.448 45.7357 37.6758 45.9375C38.7714 46.3406 39.8261 46.8094 40.8398 47.3438C39.8236 50.2363 38.8079 53.127 37.793 56.0156C35.4886 56.0742 33.1839 56.0938 30.8789 56.0742C30.8593 51.3084 30.8789 46.5428 30.9375 41.7773C32.2307 40.5037 33.5003 39.2147 34.7461 37.9102ZM17.4023 40.1367C18.4073 41.5764 19.3448 43.0802 20.2148 44.6484C19.2423 45.0772 18.2658 45.5068 17.2852 45.9375C17.0061 46.1143 16.8889 46.3682 16.9336 46.6992C17.8832 49.8409 18.9379 52.9464 20.0977 56.0156C17.012 56.0742 13.926 56.0938 10.8398 56.0742C10.8203 52.1287 10.8398 48.1834 10.8984 44.2383C11.1293 43.0532 11.7738 42.1743 12.832 41.6016C14.3711 41.121 15.8945 40.6327 17.4023 40.1367ZM42.3633 40.1367C43.9267 40.6123 45.4893 41.1005 47.0508 41.6016C48.109 42.1743 48.7535 43.0532 48.9844 44.2383C49.043 48.1834 49.0625 52.1287 49.043 56.0742C45.9568 56.0938 42.8708 56.0742 39.7852 56.0156C40.9338 52.9603 41.9885 49.8744 42.9492 46.7578C42.9983 46.4085 42.8811 46.1351 42.5977 45.9375C41.617 45.5068 40.6405 45.0772 39.668 44.6484C40.553 43.1316 41.4515 41.6277 42.3633 40.1367Z" fill="white"/>
</svg>
